<svg viewBox="0 0 17 16" xmlns="http://www.w3.org/2000/svg" class="si-glyph si-glyph-person"><title>866</title><g fill="#434343" fill-rule="evenodd"><path d="M12.518 10c-.402.548-.9 1.62-1.48 2.593-.636 1.074-1.366-1.6-2.165-1.6-.82 0-1.588 2.625-2.252 1.525-.57-.947-1.065-1.967-1.455-2.49C1.122 10.027 1 15.913 1 15.913h15.745S17.063 10 12.518 10zM11.895 4.372c0 1.86-1.318 5.422-2.948 5.422C7.32 9.794 6 6.234 6 4.372 6 2.51 7.32 1 8.947 1c1.63 0 2.948 1.508 2.948 3.372z" class="si-glyph-fill"/></g></svg>