<svg viewBox="0 0 17 16" xmlns="http://www.w3.org/2000/svg" class="si-glyph si-glyph-motobike"><title>761</title><g fill="#434343" fill-rule="evenodd"><path d="M7.03 8.958H9.96c0-1.122-.657-1.166-1.464-1.166-.808 0-1.463.044-1.463 1.166z" class="si-glyph-fill"/><path d="M10.617 1.042C10.18.448 9.397 0 8.497 0c-.903 0-1.685.448-2.12 1.042H4.022v.916h.02v.003h2.04C5.155 2.526 4 2.887 4 4.434c0 1.547.744 1.498 1.016 1.9v5.28c0 1.515 1.047 2.053 2.047 2.246v.634c0 .428.483 1.506 1.445 1.506.955 0 1.47-1.078 1.47-1.506v-.642c.987-.2 2.007-.744 2.007-2.24V6.21c.25-.408.995-.272.995-1.897s-1.215-1.816-2.1-2.354h2.1v-.917h-2.363zM8.497.958c.863 0 1.562.695 1.562 1.553 0 .857-.7 1.553-1.564 1.553A1.556 1.556 0 0 1 6.934 2.51c0-.857.698-1.552 1.562-1.552zm2.533 10.7c0 .575-.23.976-1.03 1.174v-2.816H7.04v2.816c-.834-.208-1.07-.633-1.07-1.22V7.305c.692.434 1.583.69 2.554.675.96-.016 1.83-.29 2.507-.734v4.41z" class="si-glyph-fill"/></g></svg>