<svg viewBox="0 0 17 17" xmlns="http://www.w3.org/2000/svg" class="si-glyph si-glyph-euro"><title>1012</title><path d="M13.63 13.113a5.94 5.94 0 0 1-3.253.297 5.872 5.872 0 0 1-3.78-2.45h3.724l.668-1.952h-5.23a5.258 5.258 0 0 1-.033-2.067h4.578l.665-1.924H6.5C7.71 3.17 10.018 2.13 12.404 2.578l.452-2.406c-3.983-.747-7.82 1.37-9.22 4.845H1.68l-.666 1.925h2.128A7.6 7.6 0 0 0 3.17 9.01H1.696l-.668 1.95h2.704c1.06 2.42 3.317 4.32 6.188 4.857a8.56 8.56 0 0 0 4.7-.43l-.993-2.274z" fill="#434343" class="si-glyph-fill" fill-rule="evenodd"/></svg>