<svg viewBox="0 0 17 17" xmlns="http://www.w3.org/2000/svg" class="si-glyph si-glyph-movie-projector"><title>1091</title><g fill="#434343" fill-rule="evenodd"><path d="M16.443 9.06l-1.44.944v2.99l1.44.943c.287 0 .52-.36.52-.8V9.86c0-.44-.233-.8-.52-.8zM9.986 5.975a2.976 2.976 0 0 0 2.967-2.983c0-1.65-1.33-2.984-2.967-2.984a2.976 2.976 0 0 0-2.97 2.984 2.977 2.977 0 0 0 2.97 2.983zm0-5.003c1.108 0 2.006.905 2.006 2.02 0 1.116-.897 2.02-2.006 2.02-1.11 0-2.01-.903-2.01-2.02.002-1.115.9-2.02 2.01-2.02zM3.508 5.987a2.477 2.477 0 1 0 0-4.95 2.477 2.477 0 0 0 0 4.95zm0-3.976a1.502 1.502 0 1 1 0 3.005 1.502 1.502 0 0 1 0-3.004zM12.55 7.06H2.413C1.634 7.06 1 7.714 1 8.523v6.013C1 15.347 1.633 16 2.414 16H12.55c.78 0 1.414-.654 1.414-1.463v-6.01c0-.81-.634-1.467-1.415-1.467z" class="si-glyph-fill"/></g></svg>