<svg viewBox="0 0 17 16" xmlns="http://www.w3.org/2000/svg" class="si-glyph si-glyph-barrier"><title>909</title><path d="M1.703 2a.67.67 0 0 0-.667.673v3.494c0 .21.1.39.25.514a.65.65 0 0 0 .417.16s.305.02.305.028V15h1.007v-2h12v2h.993V6.868c0-.01.263-.028.263-.028.37 0 .668-.3.668-.673V2.673c0-.372-.3-.673-.667-.673H1.704zm9.308 1H13l-2.01 3H9l2.01-3zM6.73 3H8.44l-1.73 3H5l1.73-3zm-1.753 7h2.04l-.964 2H4.016l.96-2zm4 0h2.04l-.964 2H8.016l.96-2zm4 0h2.04l-.964 2h-2.037l.96-2zM2.095 5.71A.624.624 0 0 1 2 5.392V3.61c0-.337.26-.61.582-.61H4L2.582 6a.572.572 0 0 1-.487-.29zM15 7.023V9H3V7h11.042c0 .01.958.017.958.024zm.357-1.038h-1.31l1.762-3c.165.117.278.29.278.49V5.35c0 .354-.326.638-.73.638z" fill="#434343" class="si-glyph-fill" fill-rule="evenodd"/></svg>