<svg viewBox="0 0 16 17" xmlns="http://www.w3.org/2000/svg" class="si-glyph si-glyph-bread"><title>811</title><path d="M12.942 9.19a8.683 8.683 0 0 1 1.173-.667c-.45-.656-.97-1.32-1.56-1.973a9.09 9.09 0 0 0-2.565.557c-1.673.643-2.354-.227-.77-1.31a8.358 8.358 0 0 1 1.684-.88A20.943 20.943 0 0 0 8.66 3.165a9.058 9.058 0 0 0-2.394.548c-1.67.642-2.354-.228-.77-1.31.292-.2.6-.372.912-.533C3.858.668 1.6.515.523 1.697c-1.72 1.884 1.365 5.196 5.48 8.944 4.11 3.75 7.69 6.515 9.41 4.63.974-1.068.768-3-.338-5.158-.467.1-.925.22-1.362.388-1.674.643-2.356-.226-.77-1.31z" fill="#434343" class="si-glyph-fill" fill-rule="evenodd"/></svg>