<svg viewBox="0 0 17 16" xmlns="http://www.w3.org/2000/svg" class="si-glyph si-glyph-candy"><title>1055</title><g fill="#434343" fill-rule="evenodd"><path d="M8.484.037c-1.494 0-2.79.786-3.47 1.947h6.937C11.276.824 9.978.037 8.485.037zM12.724 3.02H4.278c-.137 0-.248.103-.248.227v2.498c0 .124.11.225.248.225h8.446c.138 0 .248-.1.248-.225V3.247c0-.124-.11-.226-.248-.226zM11.982 7.006H5.01C5.592 8.058 6.75 8.808 8 9.003v6.95h.26v.03h.598v-.03h.126V9.02a3.98 3.98 0 0 0 2.998-2.014z" class="si-glyph-fill"/></g></svg>