<svg viewBox="0 0 17 17" xmlns="http://www.w3.org/2000/svg" class="si-glyph si-glyph-alien"><title>1155</title><path d="M9.014.143c-3.855 0-6.983 2.98-6.983 6.65C2.03 10.47 7.21 16 9.015 16 10.822 16 16 10.47 16 6.794c0-3.672-3.127-6.65-6.986-6.65zm-1.12 10.752c-.315.318-1.413-.27-2.447-1.32C4.41 8.527 3.83 7.42 4.145 7.1c.315-.32 1.412.27 2.447 1.317 1.033 1.048 1.62 2.155 1.303 2.478zm2.22-.008c-.32-.32.27-1.426 1.32-2.473s2.16-1.636 2.48-1.314c.32.318-.27 1.424-1.32 2.47-1.05 1.047-2.16 1.634-2.48 1.317z" fill="#434343" class="si-glyph-fill" fill-rule="evenodd"/></svg>