<svg viewBox="0 0 16 16" xmlns="http://www.w3.org/2000/svg" class="si-glyph si-glyph-cocktail"><title>131</title><g fill="#434343" fill-rule="evenodd"><path d="M4.92 1.898C4.744.712 3.727 0 2.484 0A2.47 2.47 0 0 0 .01 2.462a2.468 2.468 0 0 0 2.954 2.414L.974 1.888l3.946.01z" class="si-glyph-fill"/><path d="M9.966 9l6.066-5.974-13-.026 6.042 6v4.03L7.027 15h5.01l-2.045-1.963L9.966 9zM5.188 4l8.594.04-1.786 1.7c-.47.016-1.142-.086-2.058-.483-1.22-.442-2.322.405-2.697.743L5.19 4z" class="si-glyph-fill"/></g></svg>