<svg viewBox="0 0 17 16" xmlns="http://www.w3.org/2000/svg" class="si-glyph si-glyph-suitcase-person"><title>807</title><g fill="#434343" fill-rule="evenodd"><path d="M2.437 3C1.643 3 1 3.655 1 4.465v8.07C1 13.345 1.642 14 2.436 14h13.125c.795 0 1.438-.655 1.438-1.465v-8.07C17 3.655 16.357 3 15.562 3H2.437zm6.56 1.932c.783 0 1.42.698 1.42 1.56 0 .86-.637 2.51-1.42 2.51-.783 0-1.42-1.65-1.42-2.51 0-.862.637-1.56 1.42-1.56zm3.934 7.185H5.073s-.134-3.17 1.883-3.17c.42.61 1 1.2 2.065 1.2 1.066 0 1.574-.595 1.992-1.215 2.268 0 1.92 3.185 1.92 3.185z" class="si-glyph-fill"/><path d="M7.143 2.617c0-.35.318-.635.71-.635h2.33c.39 0 .71.285.71.635v.48h1.024V2.12c0-.607-.554-1.103-1.233-1.103H7.278c-.682 0-1.234.495-1.234 1.103v.977h1.1v-.48z" class="si-glyph-fill"/></g></svg>