<svg viewBox="0 0 17 16" xmlns="http://www.w3.org/2000/svg" class="si-glyph si-glyph-tent-camp"><title>794</title><path d="M16.02 14.023c-2.7-1.25-5.11-7.25-6.288-10.164l1.205-2.285a.355.355 0 0 0-.1-.454c-.138-.093-.316-.042-.4.115l-1 1.897c-.226-.542-.376-.87-.437-.87-.06 0-.207.318-.426.846l-1.01-1.916c-.085-.157-.265-.208-.4-.114a.355.355 0 0 0-.1.454l1.214 2.302c-1.17 2.9-3.58 8.905-6.278 10.18V12.02H1V15h4.666C8.268 13.082 9 6.926 9 6.926s.943 6.156 3.334 8.074L17 14.997V12.02h-.98v2.003z" fill="#404041" class="si-glyph-fill" fill-rule="evenodd"/></svg>