<svg viewBox="0 0 16 16" xmlns="http://www.w3.org/2000/svg" class="si-glyph si-glyph-person-talk"><title>139</title><g fill="#434343" fill-rule="evenodd"><path d="M5.524 12.285c-.86 0-2.015-.45-2.6-1.186C.113 11.1.028 15 .028 15h10.936s.22-3.917-2.937-3.917c-.585.745-1.644 1.202-2.506 1.202zM7.938 6.264c0 1.25-1.105 3.643-2.47 3.643C4.106 9.907 3 7.515 3 6.264 3 5.014 4.104 4 5.47 4c1.363 0 2.468 1.015 2.468 2.264zM12.527.04c-1.91 0-3.46 1.16-3.46 2.59 0 1.307 1.293 2.383 2.97 2.562l-.986 1.812 2.757-1.97c1.277-.38 2.182-1.312 2.182-2.403C15.987 1.2 14.44.04 12.526.04z" class="si-glyph-fill"/></g></svg>