<svg viewBox="0 0 16 16" xmlns="http://www.w3.org/2000/svg" class="si-glyph si-glyph-dropbox"><title>Dropbox</title><g fill="#434343" fill-rule="evenodd"><path d="M7.98 1.41L2.615 4.36.042 2.694 4.627.015 7.98 1.41zM15.98 2.695L12 0 9.016 1.388l4.944 3.14 2.02-1.833zM6.13 12.667L2 10.184v2.455L7.953 16v-5.675L6.13 12.667z" class="si-glyph-fill"/><path d="M2.59 5.333L1 7.723l5.115 2.96 1.838-2.45-5.364-2.9zM9 10.065V16l5.98-3.167V10.36l-4.135 2.048L9 10.065z" class="si-glyph-fill"/><path d="M9.02 8.22l1.865 2.45 5.094-2.726-1.516-2.624-5.443 2.9z" class="si-glyph-fill"/></g></svg>