<svg viewBox="0 0 16 17" xmlns="http://www.w3.org/2000/svg" class="si-glyph si-glyph-ghost"><title>1109</title><path d="M.008 7.91l.016 8.095L2.02 13 4 16.005 6.06 13l1.96 3.005L10.08 13l1.93 3.005L14.05 13l1.955 3.005-.017-8.095c0-4.35-3.625-7.88-8.002-7.88C3.61.03.008 3.56.008 7.91zm4.508.184a1.563 1.563 0 0 1 0-3.125c.865 0 1.565.7 1.565 1.562 0 .862-.7 1.562-1.564 1.562zm6.994-.028a1.584 1.584 0 0 1-1.588-1.58c0-.872.71-1.58 1.588-1.58.878 0 1.588.708 1.588 1.58 0 .873-.71 1.58-1.588 1.58z" fill="#434343" class="si-glyph-fill" fill-rule="evenodd"/></svg>