<svg viewBox="0 0 17 16" xmlns="http://www.w3.org/2000/svg" class="si-glyph si-glyph-seriff"><title>775</title><path d="M15.717 5.374c-.692 0-1.255.553-1.278 1.24l-3.422-.502-1.47-3.004A1.28 1.28 0 0 0 9 .672c-.708 0-1.283.575-1.283 1.282 0 .488.276.907.68 1.125L6.913 6.11l-3.354.493a1.28 1.28 0 0 0-2.56.05c0 .71.576 1.283 1.283 1.283.333 0 .636-.13.863-.34l2.498 2.458-.575 3.388c-.034-.002-.067-.01-.1-.01a1.284 1.284 0 0 0 0 2.565c.707 0 1.282-.576 1.282-1.283 0-.25-.074-.48-.197-.677l2.91-1.546 2.966 1.574c-.112.19-.182.41-.182.648a1.283 1.283 0 1 0 1.282-1.283c-.057 0-.11.01-.166.018l-.576-3.395 2.53-2.488A1.283 1.283 0 0 0 17 6.655a1.28 1.28 0 0 0-1.283-1.28z" fill="#434343" class="si-glyph-fill" fill-rule="evenodd"/></svg>