<svg viewBox="0 0 17 16" xmlns="http://www.w3.org/2000/svg" class="si-glyph si-glyph-guitar"><title>949</title><path d="M16.78.96l-.733-.737c-.312-.313-.676-.23-.952.046l-2.29 2.294c-.243.245-.348.53-.127.836L9.324 6.763c-1.125-.788-2.533-.816-3.36.013-.242.244-.915 1.046-1.013 1.368-.073.243-.726.647-1.032.643-.79-.007-1.53.254-2.078.804-1.247 1.253-1.016 3.52.52 5.063 1.54 1.54 3.8 1.774 5.046.52.55-.55.81-1.29.803-2.084-.005-.307.413-.965.663-1.044.315-.1 1.248-.682 1.486-.92.817-.82.796-2.21.032-3.333l3.215-3.458c.31.226.623.08.87-.167l2.288-2.294c.276-.278.33-.6.016-.915zM7.513 11.132A1.6 1.6 0 0 1 5.907 9.54 1.6 1.6 0 0 1 7.512 7.95 1.6 1.6 0 0 1 9.116 9.54a1.6 1.6 0 0 1-1.604 1.593z" fill="#434343" class="si-glyph-fill" fill-rule="evenodd"/></svg>