<svg viewBox="0 0 16 16" xmlns="http://www.w3.org/2000/svg" class="si-glyph si-glyph-camera-security"><title>488</title><g fill="#434343" fill-rule="evenodd"><path class="si-glyph-fill" d="M1 12h3.05v1.945H1zM4.16 12.227L6.19 6.46l1.183.415-2.026 5.768z"/><path d="M2.595 3.217L2.11 4.88s-.295.775.426 1.015c.812.248 6.992 2.084 6.992 2.084l1.39-2.38-8.323-2.383z" class="si-glyph-fill"/><path d="M13.71 4.97c.104-.038 2.248-1.2 2.248-1.2-.162-.162-.257-.285-.495-.354L4.145.1a1.395 1.395 0 0 0-1.738.938l-.35 1.197S11.763 5.08 12.06 5.12l-1.02 1.8 2.947 1.024.99-2.922s-1.11 0-1.27-.05zM1.76 12.18l-.357-.53c1.944-1.198 2.61-4.396 2.59-6.77l.658-.007c.022 2.656-.725 5.97-2.89 7.306z" class="si-glyph-fill"/><path d="M2.03 12.996c0 1.645-.91 2.977-2.03 2.977V10.02c1.12 0 2.03 1.333 2.03 2.976z" class="si-glyph-fill"/></g></svg>