<svg viewBox="0 0 16 16" xmlns="http://www.w3.org/2000/svg" class="si-glyph si-glyph-traffic-light"><title>641</title><g fill="#434343" fill-rule="evenodd"><path d="M9.67.017H7.297C6.578.017 6 .607 6 1.334v10.342c0 .727.578 1.317 1.296 1.317H9.67c.718 0 1.298-.59 1.298-1.317V1.334c0-.727-.58-1.317-1.297-1.317zm-1.166 11.99c-.85 0-1.54-.685-1.54-1.534 0-.846.69-1.535 1.54-1.535a1.535 1.535 0 0 1 0 3.07zM8.514 8a1.532 1.532 0 0 1-1.528-1.535 1.53 1.53 0 0 1 3.06 0A1.53 1.53 0 0 1 8.513 8zm-.022-4.007c-.805 0-1.46-.668-1.46-1.49 0-.825.655-1.495 1.46-1.495.812 0 1.464.67 1.464 1.494 0 .823-.652 1.49-1.464 1.49zM12.64 3.98h.525c.337 0 1.81-2.195 1.81-2.195 0-.418-.273-.76-.61-.76H12.64c-.337 0-.61.342-.61.76V3.22c0 .418.273.76.61.76zM14.364 5.02h-1.726c-.336 0-.61.338-.61.755v1.423c0 .418.274.756.61.756h.524c.337 0 1.812-2.18 1.812-2.18 0-.417-.275-.755-.61-.755zM14.344 9.033H12.62c-.337 0-.61.342-.61.76v1.434c0 .422.273.76.61.76h.524c.336 0 1.81-2.192 1.81-2.192 0-.42-.273-.762-.61-.762zM4.355 1.024H2.64c-.334 0-.605.337-.605.75 0 0 1.463 2.162 1.8 2.162h.52c.335 0 .605-.337.605-.75V1.774c0-.412-.27-.75-.605-.75zM4.375 5.04H2.66c-.334 0-.605.338-.605.755 0 0 1.463 2.178 1.8 2.178h.52c.334 0 .605-.338.605-.756V5.795c0-.417-.27-.756-.605-.756zM4.377 9.054H2.66c-.333 0-.605.332-.605.74 0 0 1.463 2.13 1.8 2.13h.522c.334 0 .604-.33.604-.74v-1.39c0-.408-.27-.74-.603-.74zM7 13h2.973v3.128H7z" class="si-glyph-fill"/></g></svg>