<svg viewBox="0 0 17 17" xmlns="http://www.w3.org/2000/svg" class="si-glyph si-glyph-castle"><title>181</title><path d="M16 5h-1v1h-1v-.985L13 5v4h-2V4c.55 0 1-.434 1-.97 0 0-3.443-2.988-3.992-2.988h-.016c-.548 0-3.99 2.988-3.99 2.988 0 .536.492.97 1.04.97v5H2.98V6s-.457.055-.98.015V7H1V6H0v8.95c0 .557.49 1.008 1.043 1.008H7v-2.896c0-1.427 1.04-1.125 1.04-1.125s1.043-.302 1.043 1.125c0 0 .002 2.854 0 2.896H15c.553 0 1-.487 1-1.087V5zM1 10V9h1v1H1zm2 3H2v-1h1v1zm2 0H4v-1h1v1zm4-6H6.953V4.935H9V7zm3 6h-1v-1h1v1zm2 0h-1v-1h1v1zm1-3h-1.02V9H15v1z" fill="#434343" class="si-glyph-fill" fill-rule="evenodd"/></svg>