<svg viewBox="0 0 17 16" xmlns="http://www.w3.org/2000/svg" class="si-glyph si-glyph-adjustment-horizon"><title>1197</title><g fill="#434343" fill-rule="evenodd"><path d="M8 1v1.956h7.928V1H8zM0 1h1.975v1.975H0zM0 7v1.988h5.01V7H0zM11 7v1.98h4.987V7H11zM0 13h8.02v1.962H0zM14 13h2v1.96h-2zM10.968 16.04c1.087 0 2.008-.822 2.008-1.88 0-1.06-.92-2.16-2.008-2.16-1.087 0-1.924.96-1.924 2.02s.837 2.02 1.924 2.02zM7.906 9.993c1.053 0 2.103-1.017 2.103-2.076C10.01 6.857 8.96 6 7.905 6A1.912 1.912 0 0 0 6 7.917c0 1.06.853 2.076 1.906 2.076zM5.056 3.98c1.06 0 1.966-1.004 1.966-2.063C7.022.857 5.976 0 4.917 0 3.857 0 3 .858 3 1.917c0 1.06.997 2.064 2.056 2.064z" class="si-glyph-fill"/></g></svg>