<svg viewBox="0 0 16 16" xmlns="http://www.w3.org/2000/svg" class="si-glyph si-glyph-space-ship"><title>Rocket</title><g fill="#434343" fill-rule="evenodd"><path d="M11.023 8.44s1.3 1.968 2.578 2.595c.993.482-.108 3.392-.638 4.646-.15.355-.357.345-.572.043-.408-.573-1.22-1.755-2.502-1.755H5.134c-1.283 0-2.095 1.182-2.502 1.755-.215.302-.423.312-.572-.042-.53-1.254-1.63-4.163-.64-4.645C2.7 10.408 4 8.44 4 8.44h7.023z" class="si-glyph-fill"/><path d="M11.192 9.062C10.83 5.966 9.6 1.06 8.076.077a4.615 4.615 0 0 0-.54-.034c-.183 0-.36.013-.54.034-1.524.983-2.755 5.89-3.116 8.985-.07.604-.108 1.143-.108 1.565 0 1.525.49 2.645 1.26 3.357h5.01c.77-.713 1.26-1.832 1.26-3.357 0-.423-.04-.96-.11-1.565zM7.5 4a1.5 1.5 0 1 1 0 3 1.5 1.5 0 0 1 0-3z" class="si-glyph-fill"/></g></svg>