<svg viewBox="0 0 17 16" xmlns="http://www.w3.org/2000/svg" class="si-glyph si-glyph-strolley-arrow-down"><title>1096</title><g fill="#434343" fill-rule="evenodd"><g transform="translate(1)"><ellipse cx="4.438" cy="14.459" rx="1.438" ry="1.459" class="si-glyph-fill"/><ellipse cx="12.457" cy="14.419" rx="1.457" ry="1.419" class="si-glyph-fill"/><path d="M15 10.016H3.953V3.778L1.78.41A.995.995 0 0 0 .175 1.584l1.85 2.9v5.532h-.056a.99.99 0 0 0-1 .984c0 .543.447.984 1 .984H15c.553 0 1-.44 1-.984a.99.99 0 0 0-1-.984z" class="si-glyph-fill"/></g><path d="M8.198 5.243l2.19 2.58a.795.795 0 0 0 1.142 0l2.188-2.58c.315-.324.364-.9.05-1.223h-1.804V2.045c0-.573-.434-1.037-.968-1.037-.535 0-.97.464-.97 1.037V4.02h-1.78c-.314.325-.363.9-.048 1.223z" class="si-glyph-fill"/></g></svg>