<svg viewBox="0 0 16 16" xmlns="http://www.w3.org/2000/svg" class="si-glyph si-glyph-caterpillar-machine"><title>caterpillar-machine</title><g fill="#434343" fill-rule="evenodd"><path d="M13.017 10.012a1.978 1.978 0 0 0-1.983 1.97c0 1.087.89 1.97 1.983 1.97s1.98-.883 1.98-1.97-.888-1.97-1.98-1.97zM6.984 10.062c-1.09 0-1.98.865-1.98 1.934 0 1.066.89 1.934 1.98 1.934 1.094 0 1.98-.867 1.98-1.934 0-1.068-.886-1.934-1.98-1.934zM3.276 6.496c0 1.38-1.837 2.496-3.276 2.496L.67 4c1.44 0 2.606 1.117 2.606 2.496z" class="si-glyph-fill"/><path d="M6.155 8.625L1.51 6.82l.413-1.36 4.645 1.804-.413 1.36z" class="si-glyph-fill"/><path d="M15.225 7.9c.03-.133-.267-.27-.267-.414V3.89c0-1.014-.5-1.837-1.507-1.837H9.16A1.832 1.832 0 0 0 7.336 3.89l-.672 3.596.002.014c-.835.24-1.37.8-1.37 1.846 0 .044.007.083.008.127.48-.322 1.06-.51 1.68-.51a3.01 3.01 0 0 1 2.972 2.506c.027.118.044.226.052.31a3.016 3.016 0 0 1 3.01-2.81c1.228 0 2.28.73 2.757 1.776.146-.407.173-.886.173-1.4-.002-.666-.286-1.13-.723-1.446zm-4.172-.838H8.938V3.355c0-.288.105-.4.234-.4h1.645c.13 0 .236.112.236.4v3.707zm2.965-1.003h-2.06V2.937h2.06v3.12z" class="si-glyph-fill"/></g></svg>