<svg viewBox="0 0 16 16" xmlns="http://www.w3.org/2000/svg" class="si-glyph si-glyph-document-edit"><title>Document-edit</title><g fill="#434343" fill-rule="evenodd"><path d="M7.016.016v3.968H8.28L9.93 2.34 7.016.016z" class="si-glyph-fill"/><path d="M8.98 12.29c-1.512.585-3.758 1.467-4.022 1.594-.167.084-.364.13-.562.13a1.42 1.42 0 0 1-1.16-.63 1.386 1.386 0 0 1-.172-1.274c.088-.23.926-2.702 1.435-4.208l.077-.23 2.667-2.655H5.97V.012H.033V15.97h11.942V9.426l-2.793 2.786-.204.078z" class="si-glyph-fill"/><path d="M14.682 3.91l-1.535-1.514c-.41-.408-1.218-.577-1.607-.19L5.485 8.235s-1.32 3.913-1.446 4.242c-.1.262.23.59.46.475.373-.185 4.104-1.63 4.104-1.63l6.07-6.057c.39-.388.42-.946.008-1.353zm-6.66 6.944l-2.568.974-.46-.425 1.224-2.965.74.546h1.06l.003 1.87z" class="si-glyph-fill"/></g></svg>