<svg viewBox="0 0 17 17" xmlns="http://www.w3.org/2000/svg" class="si-glyph si-glyph-extinguisher"><title>869</title><path d="M12.995 13.914v-6.83c0-2.375-2.03-2.96-2.03-2.96V2.97h2.032v-.942h-2.032v.035h-.905c-.005-.027-.022-.05-.025-.078.06-.584.616-1.043 1.29-1.043H13V0h-1.672C10.138 0 9.158.826 9.04 1.88L9.035 2h-1.61c-1.51.064-3.354 1.002-3.384 4.078l-1.01 4.828h2.936L5.04 6.082C5.073 3.195 7.33 3.006 7.446 3H9.03v1.125s-1.933.54-1.933 2.96v6.808s-.467 1.95 2.66 1.95h.605c2.88 0 2.633-1.93 2.633-1.93z" fill="#434343" class="si-glyph-fill" fill-rule="evenodd"/></svg>