<svg viewBox="0 0 17 16" xmlns="http://www.w3.org/2000/svg" class="si-glyph si-glyph-anchor"><title>682</title><path d="M15.47 6.09l-2.427 1.447 1.33.348c-.008 2.278-1.943 4.213-4.415 4.625V5.917h1.984v-.834H9.958V3.637c.568-.352.96-.967.96-1.693 0-1.11-.883-1.92-1.97-1.92C7.857.024 7.01.87 7.01 1.98c0 .752.396 1.356.99 1.69v1.413H6.014v.834H8v6.595c-2.472-.41-4.306-2.352-4.31-4.64l1.3-.333-2.38-1.46-1.556 2.47 1.337-.344c.172 2.76 2.39 5.024 5.305 5.563.857.247.934.844.934.844l.4 1.327.414-1.317s.17-.648.933-.854c2.906-.54 5.118-2.798 5.296-5.55l1.3.34-1.504-2.47zM8.952 1a.96.96 0 0 1 .957.965.96.96 0 0 1-.957.963.96.96 0 0 1-.958-.963A.96.96 0 0 1 8.953 1z" fill="#434343" class="si-glyph-fill" fill-rule="evenodd"/></svg>