<svg viewBox="0 0 16 16" xmlns="http://www.w3.org/2000/svg" class="si-glyph si-glyph-heart-signal"><title>158</title><g fill="#434343" fill-rule="evenodd"><path d="M9.953 8.107L8.65 10.492a.33.33 0 0 1-.332.17.33.33 0 0 1-.287-.23l-.974-3.316-1.213 3.946a.332.332 0 0 1-.317.242h-.01a.333.333 0 0 1-.318-.23L3.44 5.448 2.303 7.933c-.058.106-.126.22-.25.22H.492c1.685 4.588 7.554 6.896 7.554 6.896s5.845-2.296 7.51-6.943H9.954z" class="si-glyph-fill"/><path d="M1.8 6.945l1.426-3.108a.328.328 0 0 1 .328-.18c.137.013.25.106.29.237l1.647 5.51 1.222-4.16a.333.333 0 0 1 .32-.252h.003c.15 0 .283.1.323.244l1.09 3.868 1.006-1.928c.058-.11.173-.23.296-.23h6.006A7.584 7.584 0 0 0 16 5.043a4.03 4.03 0 0 0-7.963-.882A4.072 4.072 0 0 0 0 5.086c0 .672.09 1.256.244 1.86H1.8z" class="si-glyph-fill"/></g></svg>