<svg viewBox="0 0 17 16" xmlns="http://www.w3.org/2000/svg" class="si-glyph si-glyph-corner-flag"><title>699</title><g fill="#434343" fill-rule="evenodd"><path d="M1.48 15.845a.43.43 0 0 1-.31-.128.434.434 0 0 1 0-.62l4.888-4.887V1.264c0-.24.184-.437.41-.437.226 0 .408.195.408.437v8.856h9.58c.242 0 .44.172.44.383 0 .21-.197.38-.44.38h-4.814l-.028.2c-.312 2.17-2.19 3.81-4.37 3.81a4.392 4.392 0 0 1-2.995-1.176l-.16-.216-.223.137-2.077 2.078a.427.427 0 0 1-.31.13zm3.122-2.942l.213.16c.684.62 1.535.954 2.43.954a3.565 3.565 0 0 0 3.473-2.856l.057-.275H6.623l-2.02 2.018z" class="si-glyph-fill"/><path d="M7.637 5.94c-.957.002-1.51-.867-1.524-1.043V1.102A.46.46 0 0 1 6.46.65c.173.19.59.555 1.252.555.495 0 1.02-.206 1.568-.612.453-.34 1.633-.51 2.077-.51 1.007 0 1.623.85 1.646 1.023V4.9a.46.46 0 0 1-.345.45 1.78 1.78 0 0 0-1.31-.58c-.516 0-1.784.215-2.346.638-.47.355-.93.533-1.363.533z" class="si-glyph-fill"/></g></svg>