<svg viewBox="0 0 17 16" xmlns="http://www.w3.org/2000/svg" class="si-glyph si-glyph-strolley-arrow-up"><title>1097</title><g fill="#434343" fill-rule="evenodd"><g transform="translate(1)"><ellipse cx="4.438" cy="14.459" rx="1.438" ry="1.459" class="si-glyph-fill"/><ellipse cx="12.457" cy="14.419" rx="1.457" ry="1.419" class="si-glyph-fill"/><path d="M15 10.016H3.953V3.778L1.78.41A.995.995 0 0 0 .175 1.584l1.85 2.9v5.532h-.056a.99.99 0 0 0-1 .984c0 .543.447.984 1 .984H15c.553 0 1-.44 1-.984a.99.99 0 0 0-1-.984z" class="si-glyph-fill"/></g><path d="M13.768 3.757l-2.19-2.513a.81.81 0 0 0-1.142 0l-2.19 2.513c-.313.315-.362.876-.048 1.19H10V6.87c0 .558.434 1.01.97 1.01.534 0 .968-.452.968-1.01V4.946h1.78c.316-.315.365-.875.05-1.19z" class="si-glyph-fill"/></g></svg>