<svg viewBox="0 0 17 16" xmlns="http://www.w3.org/2000/svg" class="si-glyph si-glyph-stethoscope"><title>676</title><path d="M16.938 10A1.968 1.968 0 0 0 13 10c0 .736.408 1.37 1.007 1.708-.558 1.91-1.947 2.98-3.573 2.98-1.953 0-3.567-1.296-3.807-3.93 1.823-.133 4.33-1.25 4.33-3.555v-3.58c0-.856-.355-1.656-.988-2.187a1.456 1.456 0 0 0-2.913.058A1.46 1.46 0 0 0 9.322 2.71c.185.248.694.59.694.914v3.58c0 1.67-2.783 2.826-3.752 2.826h-.797c-.654 0-3.498-.973-3.498-2.827v-3.58c0-.32.597-.67.778-.917A1.46 1.46 0 1 0 3.54.024c-.79 0-1.43.63-1.454 1.417-.622.53-1.07 1.334-1.07 2.184v3.58c0 2.355 2.365 3.468 4.207 3.56.267 3.368 2.552 5.212 5.26 5.212 2.295 0 4.2-1.51 4.896-4.052A1.967 1.967 0 0 0 16.937 10z" fill="#434343" class="si-glyph-fill" fill-rule="evenodd"/></svg>