<svg viewBox="0 0 16 16" xmlns="http://www.w3.org/2000/svg" class="si-glyph si-glyph-global"><title>108</title><g fill="#434343" fill-rule="evenodd"><path d="M8.048 0a8 8 0 1 0 0 16 8 8 0 0 0 0-16zM8 15A7 7 0 1 1 8 1a7 7 0 0 1 0 14z" class="si-glyph-fill"/><path d="M2.96 2.684c-.27 1.344.734 3.4 2.87 3.9 2.137.5 1.22.083.887-.584-.334-.667-.035-1.167.482-1.333.517-.167.386.293 1.154-.667.194-2-1.472-.027-1.638-.86C8.366 1.223 5.95.5 5.25.75c-.702.25-2.02.59-2.29 1.934zM6.873 7.694c-.124.055-.702.416-.9.666-.2.25-.287.778 0 1 .285.223-.017 1.28.754 1.473.77.194 1.543.307 1.572.917.026.61-.073 2.027-.444 2.167.5.277 1.717-1.195 2.145-1.973.43-.777.573-1.89.544-2.167-.03-.277.17-.86.257-1.61.086-.75-.57-.8-.654-1.133-.087-.334-.203-.7-3.273.66zM13.125 4s-2.012.86-.644 2.14c1.367 1.277 2.063 2.49 1.996 2.768-.062.276-1.38 1.706-.623 1.594.76-.11 1.322-1.61 1.443-2.5.12-.89-.924-2.64-.967-2.778-.037-.14-.723-1.21-1.205-1.224z" class="si-glyph-fill"/></g></svg>