<svg viewBox="0 0 17 16" xmlns="http://www.w3.org/2000/svg" class="si-glyph si-glyph-mail-send"><title>795</title><g fill="none" fill-rule="evenodd"><path d="M11.97 3.985L9 1.032 6.03 3.985h1.986V6.97h1.937V3.985h2.016z" fill="#434343" class="si-glyph-fill"/><path d="M16.062 7.094v-1.37l-7.048 5.62-7.076-5.532.03 1.282 3.07 2.6-3.19 4.352h1.246l2.862-3.477 3.058 2.618 3.008-2.545 2.884 3.403 1.264-.015-3.124-4.337 3.016-2.6z"/><path d="M16.304 5.06h-5.242v3.003H6.96V5.06H1.7a.65.65 0 0 0-.647.647v8.617c0 .357.29.648.648.648h14.604a.65.65 0 0 0 .65-.648V5.707a.65.65 0 0 0-.65-.648zm-1.398 8.986l-2.884-3.403-3.01 2.545-3.057-2.618-2.862 3.477H1.847l3.19-4.353-3.07-2.6-.03-1.28 7.076 5.53 7.05-5.62v1.37l-3.018 2.6 3.124 4.338-1.264.014z" fill="#434343" class="si-glyph-fill"/></g></svg>