<svg viewBox="0 0 17 17" xmlns="http://www.w3.org/2000/svg" class="si-glyph si-glyph-gas-station"><title>1183</title><path d="M16.475.07H14.99L13 2.405v8.927c0 .75-1 .793-1 .043V8.148c.005-.094.027-.934-.582-1.574-.368-.385-.822-.54-1.446-.585V.052L2 0v14.018a.012.012 0 0 0-.01.003H1v1.94h9.978v-1.94l-.99.055c-.006 0-.01-.003-.01-.003H9.97V7.006c.323.04.543.073.715.253.327.335.316.84.314.866v3.25c0 1.082.728 1.604 1.56 1.604.876 0 1.44-.604 1.44-1.647V2.96h.983v-.985l.373-1.023h1.037c.268 0 .563-.134.563-.4a.482.482 0 0 0-.48-.482zM2.958.94H9.03v5.09H2.96V.94zm6.125 6.976V9H6.958V7.916h2.125zM2.958 8H5.02v1H2.958V8z" fill="#434343" class="si-glyph-fill" fill-rule="evenodd"/></svg>