<svg viewBox="0 0 17 16" xmlns="http://www.w3.org/2000/svg" class="si-glyph si-glyph-chair-1"><title>1011</title><g fill="#434343" fill-rule="evenodd"><path d="M11.377 7.984H6.64l-.59-6.64S5.703-.002 9.007-.002c3.306 0 2.96 1.343 2.96 1.343l-.59 6.64zM12.953 16H12.1l-1.026-2.984h1.88V16zM5.898 16h-.896v-2.984h1.973L5.898 16zM12.976 11.222c0 .415-.252.75-.563.75H5.59c-.31 0-.562-.335-.562-.75 0 0 .43-2.186 1.134-2.186h5.682c.8 0 1.132 2.186 1.132 2.186zM13.872 8.355c0 .35-.19.63-.42.63-.233 0-.42-.28-.42-.63V5.672c0-.35.187-.63.42-.63.23 0 .42.28.42.63v2.683zM4.947 8.355c0 .35-.21.63-.465.63-.258 0-.466-.28-.466-.63V5.672c0-.35.208-.63.466-.63.256 0 .465.28.465.63v2.683z" class="si-glyph-fill"/></g></svg>