<svg viewBox="0 0 16 16" xmlns="http://www.w3.org/2000/svg" class="si-glyph si-glyph-disc-upload"><title>598</title><g fill="#434343" fill-rule="evenodd"><path d="M7.917 6C6.857 6 6 6.863 6 7.93c0 1.065.857 1.928 1.917 1.928A1.92 1.92 0 0 0 9.832 7.93C9.832 6.864 8.974 6 7.917 6z" class="si-glyph-fill"/><path d="M10.98 15.11l3.53-4.607.69.902a7.98 7.98 0 0 0 .8-3.46C16 3.5 12.416 0 8 0 3.58 0 0 3.5 0 7.946 0 12.394 3.58 16 8 16c1.366 0 2.642-.3 3.765-.89h-.786zm1.443-12.42l.846.847-1.79 1.787-.843-.845 1.786-1.79zM3.548 13.26l-.845-.846 1.787-1.787.846.845-1.788 1.788zM8 11a3 3 0 1 1 0-6 3 3 0 0 1 0 6z" class="si-glyph-fill"/><path d="M16 13.966l-1.49-1.86-1.49 1.86h.998v2.003h.97v-2.004H16z" class="si-glyph-fill"/></g></svg>