<svg viewBox="0 0 17 16" xmlns="http://www.w3.org/2000/svg" class="si-glyph si-glyph-open"><title>Open</title><g fill="none" fill-rule="evenodd"><path d="M6.97 7h-1v2.03h1v-.06H7V7h-.03z"/><path d="M5.97 7h1v-.98L5.03 6v5.958h.94v-2.02h1V9.03h-1V7zM7 7h1v1.97H7z" fill="#434343" class="si-glyph-fill"/><path d="M2.984 7.016v-.02H1v.02H.984v3.937H1v.078h1.984v-.077H3V7.016h-.016z"/><path fill="#434343" class="si-glyph-fill" d="M3 7h.947v3.938H3zM1 6h1.984v.943H1zM1 11h1.984v.953H1zM0 7h.95v3.938H0zM15.03 6.03V7.5l-1.06-.875V6.03h-.954v5.94h.953V8.03l1.06.876v3.063h.923V6.03h-.922zM10.084 6.026H9.016v5.963h1.068v-.02h1.885v-.94H9.952V8.97h2.016v-.94H9.952V6.954h2.016v-.906h-1.886v-.02z"/></g></svg>