<svg viewBox="0 0 17 16" xmlns="http://www.w3.org/2000/svg" class="si-glyph si-glyph-cow"><title>716</title><g fill="#434343" fill-rule="evenodd"><path d="M12.953 15.08c0 .475-1.77.86-3.96.86s-3.963-.386-3.963-.86h7.923zM2.046 3.715C1.12 2.825.8.74 1.336.23 1.87-.284 2.562.495 3.49 1.383c.927.89 2.643 2.025 2.107 2.537-.533.515-2.62.683-3.55-.205zM16.01 3.674c.926-.89 1.245-2.974.71-3.486-.534-.512-1.224.267-2.15 1.155-.928.89-2.644 2.025-2.108 2.537.533.514 2.62.682 3.55-.206zM7 6h.984v.984H7zM10 6h.984v.984H10z" class="si-glyph-fill"/><path d="M14.277 7.383c.21-.5.33-1.037.33-1.598 0-2.633-2.492-4.765-5.566-4.765-3.075 0-5.565 2.132-5.565 4.765 0 .548.113 1.073.312 1.563-1.03.4-1.76 1.343-1.76 2.442v.826c0 1.463 1.985 3.338 3.566 3.338h6.805c1.58 0 3.566-1.875 3.566-3.338V9.79c0-1.073-.693-1.99-1.687-2.407zm-6.23 4.664H6.953v-1.094h1.094v1.094zM5.84 6.877c0-1.656.51-3 1.138-3 .63 0 1.138 1.344 1.138 3a1.142 1.142 0 0 1-2.275 0zm5.207 5.17H9.953v-1.094h1.094v1.094zm-1.1-5.2c0-1.64.478-2.97 1.066-2.97.59 0 1.067 1.33 1.067 2.97 0 1.638-2.134 1.638-2.134 0z" class="si-glyph-fill"/></g></svg>