<svg viewBox="0 0 17 16" xmlns="http://www.w3.org/2000/svg" class="si-glyph si-glyph-button-hd"><title>1022</title><g fill="#434343" fill-rule="evenodd"><path d="M14.276 2l-5.26 1.062L3.722 2C2.218 2 1 3.243 1 4.777v5.41c0 1.534 1.218 2.777 2.723 2.777l5.292-1.012 5.26 1.012c1.505 0 2.725-1.243 2.725-2.777v-5.41C17 3.243 15.78 2 14.276 2zm-6.23 8.032h-1.09v-1.97H5.062v1.97H3.974V4.97H5.06v1.968h1.897v-1.97h1.088v5.064zm3.954.03H9.953V4.96H12c2.303 0 2.072.81 2.072 2.55 0 1.74.335 2.55-2.072 2.55z" class="si-glyph-fill"/><path d="M12.197 6.006H11v2.98h1.197c.99-.017.792-.25.792-1.49 0-1.242.198-1.476-.793-1.49z" class="si-glyph-fill"/></g></svg>