<svg viewBox="0 0 17 16" xmlns="http://www.w3.org/2000/svg" class="si-glyph si-glyph-battery-half-2"><title>1169</title><g fill="#434343" fill-rule="evenodd"><path d="M7.062 13.472c0 .27.212.487.47.487h3.937a.48.48 0 0 0 .47-.488V8.094L7.062 10.16v3.312z" class="si-glyph-fill"/><path d="M12.252 1H11V0H8.023v1H6.715C5.78 1 5.02 1.492 5.02 2.417v12.125c0 .924.76 1.458 1.695 1.458h5.536c.937 0 1.75-.535 1.75-1.458V2.417C14 1.492 13.187 1 12.25 1zM13 14c0 .516-.484 1-1 1H7c-.515 0-1-.484-1-1V3c0-.514.485-1 1-1h5c.516 0 1 .485 1 1v11z" class="si-glyph-fill"/></g></svg>