<svg viewBox="0 0 17 17" xmlns="http://www.w3.org/2000/svg" class="si-glyph si-glyph-skull"><title>944</title><path d="M14.828 12.836C15.715 11.59 17 9.804 17 7.85 17 3.993 15.063 0 9.03 0c-6.03 0-8 3.992-8 7.85 0 1.947 1.392 3.728 2.187 4.973.31.48.45 1.872.45 1.983 0 .082.013.16.03.24.09.625.63.927 1.297.95 0 0 .496.01.57 0 .758-.087 1.345-.41 1.424-1.05.064.632.668 1.05 2.027 1.05 1.36 0 1.943-.396 2.023-1.008.107.634.723.947 1.496 1.008.053.004.575 0 .575 0 .703-.054 1.26-.438 1.26-1.133l-.01-.004c0-.023.006-.044.006-.065 0-.122.148-1.516.462-1.96zM5.998 9a2 2 0 1 1 0-3.998A2 2 0 0 1 6 9zm3.012 3.848c-.824 0-1.493.44-1.493-.178 0-.616.67-1.89 1.493-1.89.827 0 1.494 1.273 1.494 1.89 0 .618-.667.178-1.494.178zM12 9a2 2 0 1 1 0-4 2 2 0 0 1 0 4z" fill="#434343" class="si-glyph-fill" fill-rule="evenodd"/></svg>