<svg viewBox="0 0 17 17" xmlns="http://www.w3.org/2000/svg" class="si-glyph si-glyph-feather"><title>891</title><path d="M12.247 6.038c1.415-2.604 1.945-4.637 1.625-4.94-.274-.26-2.54.572-3.638 1.408-.21.162-1.062 2.605-1.33 2.71-.23.095-.194-1.477-.065-2.166-1.066.495-2.855 1.772-3.843 2.657-.077.07-.276 3.273-.368 3.37-.19.187-.755-2.17-.913-1.968C1.453 9.99.437 13.2 1.38 14.58.478 16.034.026 16.974.026 16.974l.695-.027c.42-.72.838-1.394 1.253-2.048l.028.015c1 .098 3.43-.183 5.855-2.453 0 0-1.35-.77-1.13-1.002.218-.232 2.313-.922 2.532-1.182.785-.938 1.23-1.374 1.824-2.286.158-.238-1.63.195-1.485-.04.14-.228.47-1.387 2.652-1.912z" fill="#434343" class="si-glyph-fill" fill-rule="evenodd"/></svg>