<svg viewBox="0 0 17 16" xmlns="http://www.w3.org/2000/svg" class="si-glyph si-glyph-baby-milk-botl"><title>926</title><g fill="#434343" fill-rule="evenodd"><path d="M11.443 5H6.566c-.947 0-1.518.674-1.518 1.453v8.133c0 .776.766 1.406 1.71 1.406h4.49c.947 0 1.712-.63 1.712-1.406V6.453c0-.78-.57-1.453-1.517-1.453zm.577 9.243c0 .436-.525.792-1.17.792H7.14c-.646 0-1.17-.356-1.17-.792v-6.67c0-.22.142-1.213 3.06-.328 2.92.89 2.99.113 2.99.33v6.668zM10.982 2.958L9.71 1.992V.682c0-.38-.332-.69-.74-.69-.41 0-.74.31-.74.69v1.285l-1.18.99-.032-.004V4h3.965V2.954v.004z" class="si-glyph-fill"/></g></svg>