<svg viewBox="0 0 17 16" xmlns="http://www.w3.org/2000/svg" class="si-glyph si-glyph-hand"><title>712</title><path d="M14.5 6.792c-.39-.193-.847-.09-1.023.23 0 0-1.096 2.4-1.734 2.298-.344-.056-.62-.38-.742-1.005V1.77c0-.425-.438-.77-.98-.77C9.48 1 9 1.346 9 1.77V6.94H8V.77C8 .346 7.563 0 7.02 0 6.48 0 6 .346 6 .77V6.94H5V2.77C5 2.346 4.56 2 4.02 2S3 2.346 3 2.77v8.416c0 2.584 1.73 4.72 5.68 4.72 4.882 0 6.204-8.187 6.204-8.187.174-.32.003-.737-.384-.928z" fill="#434343" class="si-glyph-fill" fill-rule="evenodd"/></svg>