<svg viewBox="0 0 16 16" xmlns="http://www.w3.org/2000/svg" class="si-glyph si-glyph-basket-arrow-down"><title>622</title><g fill="#434343" fill-rule="evenodd"><path d="M10.975 12.953h1.98V11h.305l.22-4.024h.766c.4 0 .725-1.22.725-1.22 0-.37-.323-.672-.724-.672h-1.928l-1.035-3.71a.614.614 0 0 0-.838-.285l-.07.035a.657.657 0 0 0-.29.863l.74 3.096H4.173L4.94 2a.658.658 0 0 0-.28-.865L4.59 1.1a.616.616 0 0 0-.843.276L2.674 5.084H.784c-.4 0-.725.302-.725.672 0 0 .323 1.22.724 1.22h.636l.45 6.677s.05 1.31 2.112 1.31h7.02c.575 0 .985-.1 1.29-.24l-1.317-1.77zm.963-6.984h1.094v1.093h-1.094V5.97zM3.03 7.03H1.97V5.97h1.06v1.06zm2 5.555c0 .333-.236.603-.526.603H4.48c-.292 0-.528-.27-.528-.603V8.46c0-.332.236-.6.53-.6h.022c.29 0 .527.268.527.6v4.125zm3.03-.038c0 .334-.245.605-.542.605h-.024c-.3 0-.544-.27-.544-.605v-4.1c0-.333.243-.603.544-.603h.024c.297 0 .543.27.543.604v4.1zm2.454.672h-.02c-.294 0-.53-.272-.53-.608V8.48c0-.337.236-.608.53-.608h.02c.29 0 .53.27.53.607v4.132c0 .335-.24.607-.53.607zM13.03 14.047l1.47 1.87 1.488-1.87H15V12h-.965v2.047H13.03z" class="si-glyph-fill"/></g></svg>