<svg viewBox="0 0 17 16" xmlns="http://www.w3.org/2000/svg" class="si-glyph si-glyph-stamps"><title>1099</title><g fill="#434343" fill-rule="evenodd"><path class="si-glyph-fill" d="M4 5h9.98v6H4z"/><path d="M16.97 11.984V11h-1.017V9.984h1.016V9h-1.017V7.984h1.016V7h-1.017V5.984h1.016V5h-1.017V3.984h1.016V3h-.985v-.984H15v1.016h-1.016V2.016H13v1.016h-1.016V2.016H11v1.016H9.984V2.016H9v1.016H7.984V2.016H7v1.016H5.984V2.016H5v1.016H3.984V2.016H3v1.016H2V4h-.984v.984H2V6h-.984v.984H2V8h-.984v.984H2V10h-.984v.984H2V12h-.984v.984H2v1h.984v-1H4v1h.984v-1H6v1h.984v-1H8v1h.984v-1H10v1h.984v-1H12v1h.984v-1H14v1h.984v-1h.97v-1h1.015zm-1.97.032H2.97v-8.03H15v8.03zM16 13h.984v.97H16zM1 2h.953v.984H1z" class="si-glyph-fill"/></g></svg>