<svg viewBox="0 0 16 16" xmlns="http://www.w3.org/2000/svg" class="si-glyph si-glyph-bubble-chat"><title>116</title><g fill="#434343" fill-rule="evenodd"><path d="M2.7 14.927l1.052-3.998H2.3C1.06 10.93 0 9.943 0 8.67v-6.37C0 1.033 1.01 0 2.252 0h11.496C14.988 0 16 1.033 16 2.303v6.37c0 1.27-.963 2.256-2.203 2.256H7.983L2.7 14.926zM.96 2.513v6.052c0 .88.702 1.452 1.565 1.452h2.297l-.77 2.87 3.482-2.87h5.98c.865 0 1.568-.572 1.568-1.452V2.513c0-.88-.703-1.595-1.568-1.595H2.524C1.663.918.96 1.634.96 2.513z" class="si-glyph-fill"/><path d="M12.625 8.946h-9.28c-.997 0-1.296-.42-1.296-1.384V3.468c0-.963.36-1.426 1.356-1.426h9.22c.997 0 1.313.557 1.313 1.52v3.97c-.002.964-.317 1.414-1.315 1.414z" class="si-glyph-fill"/></g></svg>