<svg viewBox="0 0 17 17" xmlns="http://www.w3.org/2000/svg" class="si-glyph si-glyph-camera"><title>871</title><g transform="translate(.995 2.98)" fill="#434343" fill-rule="evenodd"><circle cx="7.958" cy="6.958" r="2.958" class="si-glyph-fill"/><path d="M14.666 2.042h-3.713L9.937.032H6L5 2.04H1.333C.597 2.042 0 2.64 0 3.375v7.25c0 .736.597 1.334 1.333 1.334h13.333c.736 0 1.334-.6 1.334-1.335v-7.25c0-.736-.598-1.333-1.334-1.333zM6.953.97h2.094v1.06H6.953V.97zm1.05 10.063a4.052 4.052 0 0 1-4.056-4.048 4.052 4.052 0 0 1 4.055-4.048 4.05 4.05 0 0 1 4.055 4.048 4.05 4.05 0 0 1-4.055 4.048zM14 4.03h-2.047V2.97H14v1.06z" class="si-glyph-fill"/></g></svg>