<svg viewBox="0 0 16 16" xmlns="http://www.w3.org/2000/svg" class="si-glyph si-glyph-person-plus"><title>177</title><g fill="#434343" fill-rule="evenodd"><path d="M10.985 3.044c0 1.67-1.336 4.863-2.983 4.863-1.648 0-2.986-3.192-2.986-4.863C5.016 1.374 6.354.02 8.002.02c1.647 0 2.983 1.355 2.983 3.024zM15.958 13.02h-1.982V11.04h-.972v1.983H11.02v.972h1.984v1.983h.972v-1.983h1.982v-.97z" class="si-glyph-fill"/><path d="M14.86 9.938C14.2 8.9 13.196 8.03 11.704 8.03 10.85 9.19 8.01 9.486 8.01 9.486S5.11 9.2 4.253 8.056c-4.096 0-4.22 5.923-4.22 5.923h9.905v-1.997h2.03V9.938h2.894z" class="si-glyph-fill"/></g></svg>