<svg viewBox="0 0 17 16" xmlns="http://www.w3.org/2000/svg" class="si-glyph si-glyph-subway"><title>998</title><g fill="#434343" fill-rule="evenodd"><path d="M5 15.98h-.98l1-4H6l-1 4zM13 15.98h-.98l-1-4H12l1 4z" class="si-glyph-fill"/><path class="si-glyph-fill" d="M5 14h6.9v.926H5zM11.988.038H5.095C2.853.038 2.04.726 2.04 2.813v7.784c0 1.848.814 2.44 2.985 2.44h7.725c1.574 0 2.29-.6 2.29-2.44V2.813c0-2.087-.808-2.775-3.052-2.775zM6.213 1h4.574c.117 0 .213.226.213.5 0 .273-.096.5-.213.5H6.213C6.096 2 6 1.773 6 1.5c0-.274.096-.5.213-.5zm-.197 10.016H3.97v-2.03h2.046v2.03zm7 0H10.97v-2.03h2.046v2.03zm.037-5.235c0 1.065-.166 1.258-1.128 1.258H5.09c-.963 0-1.126-.146-1.126-1.21V4.156c0-1.062.163-1.198 1.127-1.198h6.835c.962 0 1.128.198 1.128 1.26v1.563z"/></g></svg>