<svg viewBox="0 0 17 17" xmlns="http://www.w3.org/2000/svg" class="si-glyph si-glyph-cloud-heavy-rain"><title>725</title><g fill="#434343" fill-rule="evenodd"><path d="M14.8 5.42c-.248 0-.485.066-.71.167-.693-1.042-1.826-1.724-3.112-1.724-.206 0-.407.022-.604.057-.682-1.137-1.866-1.892-3.22-1.892-1.905 0-3.483 1.5-3.77 3.46-.018 0-.035-.006-.05-.006-1.28 0-2.315 1.11-2.315 2.482h15.968c-.14-1.433-1.06-2.544-2.187-2.544zM2.387 13.967c-.05 0-.1-.008-.148-.025-.187-.068-.27-.255-.19-.413l2.208-4.276c.083-.156.3-.228.484-.16.187.07.27.256.188.414L2.725 13.78a.377.377 0 0 1-.338.187zM5.423 13.936c-.05 0-.1-.008-.146-.025-.184-.068-.267-.254-.187-.41l2.172-4.276c.082-.157.295-.23.48-.16.182.07.265.255.185.412L5.755 13.75a.372.372 0 0 1-.332.186zM8.365 13.936c-.05 0-.1-.008-.15-.025-.188-.067-.273-.25-.19-.407l2.24-4.234c.085-.156.306-.228.494-.16.187.07.273.253.19.41L8.71 13.75a.388.388 0 0 1-.345.184zM11.37 13.936a.44.44 0 0 1-.148-.025c-.187-.067-.27-.25-.188-.407L13.24 9.27c.08-.156.3-.228.485-.16.185.07.27.253.19.41l-2.208 4.232a.378.378 0 0 1-.338.184z" class="si-glyph-fill"/></g></svg>