<svg viewBox="0 0 17 17" xmlns="http://www.w3.org/2000/svg" class="si-glyph si-glyph-cran"><title>723</title><g fill="#434343" fill-rule="evenodd"><path d="M15.94 7.002h-.917v2.01h-.94v1.968h2.855V9.012h-1v-2.01z" class="si-glyph-fill"/><path d="M16.63 5.024L8.98 1.846v-.148c0-.366-.128-.66-.48-.66-.353 0-.5.294-.5.66v3.33H5.98v-.242c0-.434-.267-.784-.596-.784H3.622c-.328 0-.596.35-.596.784v.243H1.51c-.26 0-.47.216-.47.485 0 .268.21.484.47.484h1.516v.174c0 .434.268.785.596.785h1.762c.33 0 .596-.353.596-.786V6h2v-.057H8v8.078h-.66c-.367 0-.666.34-.666.758v.576h-.002c-.366 0-.664.66-.664 1.037v.583h4.98v-.582c0-.376-.3-1.036-.665-1.036h-.002v-.576c0-.418-.298-.757-.664-.757H8.98V5.944h7.41c.01 0 .017-.006.026-.006a.687.687 0 0 0-.497-1.28.687.687 0 0 0 .697 1.235c.164-.066.374-.173.374-.36 0-.49-.02-.366-.36-.508zm-7.65.005V2.874l5.125 2.154H8.98z" class="si-glyph-fill"/></g></svg>