<svg viewBox="0 0 17 16" xmlns="http://www.w3.org/2000/svg" class="si-glyph si-glyph-ladder-pool"><title>669</title><g fill="#434343" fill-rule="evenodd"><path d="M3.168 9.982c-.89 0-1.607-.338-1.968-.624a.437.437 0 0 1-.06-.634.488.488 0 0 1 .66-.06c.054.042 1.26.947 2.87-.03 2.148-1.31 4.495-.064 4.594-.012.018.01 1.94 1.013 3.676.007 2.27-1.32 3.867-.012 3.933.046a.436.436 0 0 1 .04.634.486.486 0 0 1-.664.04c-.042-.036-1.155-.92-2.82.047-2.214 1.284-4.532.06-4.63.008-.02-.012-1.957-1.03-3.625-.013-.71.434-1.4.59-2.007.59zM3.175 12.994c-1.148 0-1.91-.566-1.957-.604a.472.472 0 0 1 .566-.756c.057.042 1.28.92 2.903-.03 2.132-1.247 4.462-.063 4.56-.012.018.01 1.958.984 3.71.007 2.253-1.26 3.832-.01 3.9.044a.476.476 0 0 1 .07.666.47.47 0 0 1-.662.072c-.043-.034-1.17-.892-2.853.045-2.195 1.225-4.498.058-4.597.007-.018-.01-1.973-.998-3.655-.01-.73.426-1.407.57-1.985.57zM11.217 15.986a5.43 5.43 0 0 1-2.417-.584c-.02-.01-1.957-1.037-3.623-.01-1.763 1.08-3.373.45-3.977-.035a.442.442 0 0 1-.06-.64c.168-.19.462-.218.66-.058.054.04 1.26.953 2.87-.034 2.148-1.32 4.495-.065 4.594-.01.02.008 1.94 1.02 3.676.006 2.27-1.33 3.867-.01 3.933.046a.444.444 0 0 1 .04.64.486.486 0 0 1-.664.04c-.042-.036-1.155-.925-2.82.048a4.312 4.312 0 0 1-2.213.59zM10.31 4.972H4.665c-.276 0-.5-.21-.5-.47 0-.258.224-.468.5-.468h5.645c.276 0 .5.21.5.47 0 .258-.224.468-.5.468zM10.31 7H4.665a.5.5 0 0 1 0-1h5.645a.5.5 0 0 1 0 1z" class="si-glyph-fill"/><path d="M4.485 9.708c-.276 0-.454-.224-.454-.5V2.28c-.032-.047-.378-.343-.887-.343h-.25c-.51 0-.81.296-.85.373 0 .276-.22.485-.497.485a.51.51 0 0 1-.498-.515c0-.704.793-1.234 1.844-1.234h.25c1.05 0 1.843.53 1.843 1.234v6.927a.5.5 0 0 1-.5.5zM10.5 9.73a.5.5 0 0 1-.5-.5V2.247c-.033-.048-.256-.31-.766-.31h-.252c-.51 0-.886.262-.925.34 0 .275-.22.484-.497.484a.51.51 0 0 1-.497-.515c0-.704.792-1.234 1.843-1.234h.25c1.052 0 1.844.53 1.844 1.234v6.98a.5.5 0 0 1-.5.502z" class="si-glyph-fill"/></g></svg>