<svg viewBox="0 0 17 16" xmlns="http://www.w3.org/2000/svg" class="si-glyph si-glyph-call-forward"><title>1027</title><g fill="#434343" fill-rule="evenodd"><path d="M14.252 8.774l2.512-2.14a.776.776 0 0 0 0-1.114l-2.512-2.14c-.34-.33-1.19-.45-1.19-.047v1.76H9.138c-.56 0-1.01.425-1.01.947s.45.946 1.01.946h3.92v1.74c0 .278.82.307 1.192.048z" class="si-glyph-fill"/><path d="M14.03 11.852c-.427-.54-1.122-1.32-1.717-1.394-.362-.045-.778.255-1.188.538-.08.04-.698.408-.773.43-.396.113-1.24.146-1.752-.32-.492-.45-1.27-1.283-1.898-2.046-.6-.786-1.23-1.73-1.55-2.31-.337-.602-.095-1.397.113-1.747.038-.063.498-.536.6-.646l.016.018c.382-.32.78-.645.826-.997.074-.586-.525-1.44-.953-1.98C5.325.86 4.663-.088 3.76.046c-.34.05-.634.17-.923.34L2.83.375l-.05.038-.024.013.003.004c-.167.128-.64.482-.695.53-.586.52-1.468 1.748-.786 3.955.505 1.64 1.584 3.566 3.054 5.514l-.008.006c.072.094.146.18.22.27.07.093.14.185.212.277l.01-.007c1.56 1.88 3.196 3.38 4.69 4.267 2.01 1.192 3.438.655 4.098.228.062-.04.534-.407.694-.528l.004.004c.006-.006.01-.014.018-.02l.043-.033-.006-.008c.24-.234.435-.484.57-.8.35-.828-.42-1.692-.85-2.233z" class="si-glyph-fill"/></g></svg>