<svg viewBox="0 0 16 16" xmlns="http://www.w3.org/2000/svg" class="si-glyph si-glyph-christmass-ball"><title>Christmass-ball</title><g fill="#434343" fill-rule="evenodd"><path d="M8.346 2.287a6.857 6.857 0 0 0-3.115-.12l8.606 8.546a6.767 6.767 0 0 0-.115-3.072C13.65 7.373 8.6 2.355 8.347 2.288zM2.178 13.826c2.132 2.118 5.215 2.66 7.71 1.602L.57 6.17c-1.068 2.477-.52 5.54 1.61 7.656zM2.033 4.06c-.27.27-.503.56-.713.86l9.824 9.758a6.14 6.14 0 0 0 .867-.706 6.1 6.1 0 0 0 1.254-1.828l-9.39-9.328a6.06 6.06 0 0 0-1.84 1.244zm7.925 6.912h1.085v1.055H9.958v-1.055zm-2-2.008h1.085v1.098H7.958V8.964zm-2-1.986h1.085v1.076H5.958V6.978zm-2-2.07h1.085v1.14H3.958v-1.14zM10.043 2.896l3.742 3.776 1.55-1.563-3.743-3.778-1.55 1.564zM14.127.698c-.848 0-1.56.58-1.783 1.368l.598.593c-.002-.024-.008-.045-.008-.068a1.2 1.2 0 0 1 1.193-1.21 1.2 1.2 0 0 1 1.193 1.21 1.2 1.2 0 0 1-1.193 1.21c-.014 0-.025-.004-.04-.005l.595.593a1.886 1.886 0 0 0 1.312-1.8c0-1.043-.838-1.892-1.867-1.892z" class="si-glyph-fill"/></g></svg>