<svg viewBox="0 0 17 16" xmlns="http://www.w3.org/2000/svg" class="si-glyph si-glyph-candle"><title>877</title><g fill="#434343" fill-rule="evenodd"><path class="si-glyph-fill" d="M8 5h.926v1.823H8z"/><path d="M10.287 5.973c.11-2.604-.986-3.368-1.61-3.368C8.027 3.782 6.645 4.103 6.347 6 5.035 3.566 8.005 3.06 8.154.026c.252 0 4.403 3.56 2.134 5.946zM11.318 7.41s-.518.643-2.244.643c-1.727 0-3.37-.644-3.37-.644-.376 0-.68.3-.68.67v7.227c0 .37.304.673.68.673h5.614a.678.678 0 0 0 .682-.673V8.08a.677.677 0 0 0-.682-.67zm-.258 7.606H9.95V8.954h1.11v6.062z" class="si-glyph-fill"/></g></svg>