<svg viewBox="0 0 17 17" xmlns="http://www.w3.org/2000/svg" class="si-glyph si-glyph-cloud-rain-heavy-rain"><title>816</title><g fill="#434343" fill-rule="evenodd"><path d="M13.8 5.426a1.75 1.75 0 0 0-.71.166c-.693-1.035-1.828-1.713-3.113-1.713-.207 0-.408.02-.607.054-.68-1.13-1.865-1.88-3.22-1.88-1.907 0-3.485 1.49-3.772 3.44-.02 0-.035-.005-.052-.005C1.046 5.49.01 6.592.01 7.955h15.98c-.14-1.425-1.06-2.53-2.19-2.53zM2.004 11.7a.515.515 0 1 1-.93-.447c.125-.257 1.11-1.115 1.11-1.115s-.057 1.306-.18 1.563zM5.048 9.592a.516.516 0 1 1-.93-.448c.125-.256 1.11-1.114 1.11-1.114s-.056 1.304-.18 1.562zM7.022 11.656a.515.515 0 1 1-.93-.448c.124-.257 1.11-1.114 1.11-1.114s-.056 1.304-.18 1.562zM9.92 9.654a.515.515 0 1 1-.93-.448c.125-.258 1.11-1.115 1.11-1.115s-.056 1.307-.18 1.564zM8.002 14.678a.515.515 0 1 1-.93-.448c.125-.257 1.11-1.115 1.11-1.115s-.055 1.306-.18 1.563zM4.002 14.678a.515.515 0 1 1-.93-.448c.125-.257 1.11-1.115 1.11-1.115s-.055 1.306-.18 1.563zM10.995 12.677a.516.516 0 1 1-.93-.448c.126-.256 1.11-1.114 1.11-1.114s-.056 1.305-.18 1.562zM14.018 9.695a.514.514 0 1 1-.928-.448c.125-.258 1.11-1.115 1.11-1.115s-.058 1.306-.182 1.563z" class="si-glyph-fill"/></g></svg>