<svg viewBox="0 0 17 16" xmlns="http://www.w3.org/2000/svg" class="si-glyph si-glyph-tree"><title>929</title><path d="M14.78 12.18L11.794 8.5s1.6.437 1.775.437c.465 0 .195-.517 0-.714l-2.385-3.03s1.148-.275 1.565-.275c.418 0 .197-.517 0-.714L9.4.06a.505.505 0 0 0-.714 0L5.29 4.16c-.197.198-.485.716 0 .716.487 0 1.623.316 1.623.316L4.325 8.08c-.198.196-.557.713 0 .713.32 0 1.95-.29 1.95-.29l-2.958 3.686c-.197.195-.557.713 0 .713s4.69-1.007 4.69-1.007v3.045c0 .538.437.974.976.974.537 0 1.015-.436 1.015-.973v-3.044s4.375 1 4.78 1c.405 0 .198-.52 0-.716z" fill="#434343" class="si-glyph-fill" fill-rule="evenodd"/></svg>