<svg viewBox="0 0 17 16" xmlns="http://www.w3.org/2000/svg" class="si-glyph si-glyph-crown"><title>1065</title><g transform="translate(1)" fill="#434343" fill-rule="evenodd"><path d="M12.97 15.23c0 .423-.416.768-.93.768H3.95c-.514 0-.93-.345-.93-.768v-.45c0-.422.416-.767.93-.767h8.09c.514 0 .93.345.93.767v.45zM12.465 12.98H3.547L1.42 5.364l1.142-.71 3.01 4.252 1.773-5.865h1.418l1.594 6.22 3.188-4.606 1.046.71-2.125 7.613z" class="si-glyph-fill"/><circle cx="14.968" cy="2.968" r=".968" class="si-glyph-fill"/><circle cx="7.964" cy=".964" r=".964" class="si-glyph-fill"/><ellipse cx=".983" cy="2.974" rx=".983" ry=".974" class="si-glyph-fill"/></g></svg>