<svg viewBox="0 0 16 16" xmlns="http://www.w3.org/2000/svg" class="si-glyph si-glyph-pizza"><title>Pizza</title><g fill="#434343" fill-rule="evenodd"><path d="M1.863 2.58a7.436 7.436 0 0 0-1.82 4.364h.97a6.446 6.446 0 0 1 1.552-3.662l-.702-.7zM3.266 3.982a5.466 5.466 0 0 0-1.26 2.962h4.22L3.267 3.98zM6.97.042a7.435 7.435 0 0 0-4.364 1.8l.703.703a6.477 6.477 0 0 1 3.66-1.502v-1zM6.97 2.03a5.507 5.507 0 0 0-2.96 1.217l2.96 2.958V2.03zM2.002 8.032a5.39 5.39 0 0 0 1.227 2.97l2.997-2.97H2.002zM.04 8.032a7.32 7.32 0 0 0 1.8 4.346l.688-.68a6.354 6.354 0 0 1-1.52-3.666H.042zM3.967 11.732a5.5 5.5 0 0 0 3.002 1.252V8.73l-3.003 3.002zM2.58 13.12a7.426 7.426 0 0 0 4.39 1.822v-.97a6.485 6.485 0 0 1-3.702-1.54l-.688.687zM13.143 12.38a7.333 7.333 0 0 0 1.8-4.347h-.95a6.36 6.36 0 0 1-1.527 3.674l.677.672zM8.756 8.033l3.01 2.98a5.39 5.39 0 0 0 1.233-2.98H8.755zM12.994 6.943a5.466 5.466 0 0 0-1.266-2.97l-2.97 2.97h4.236zM14.94 6.943a7.434 7.434 0 0 0-1.82-4.362l-.692.694a6.434 6.434 0 0 1 1.56 3.67h.953zM8.016 14.942a7.436 7.436 0 0 0 4.387-1.82l-.68-.68a6.493 6.493 0 0 1-3.707 1.53v.97zM8.016 12.986a5.512 5.512 0 0 0 3.008-1.244l-3.008-3.01v4.254z" class="si-glyph-fill"/></g></svg>