<svg viewBox="0 0 16 16" xmlns="http://www.w3.org/2000/svg" class="si-glyph si-glyph-folder-music"><title>Folder-music</title><g fill="#434343" fill-rule="evenodd"><path d="M7.35 5L5.788 2.042H2.02v1.02H.024v9.914h1.02l.002 1h14.902L15.967 5H7.35zm2.495 6.96a1.977 1.977 0 0 1-.752.154c-.5 0-.9-.22-1.048-.576-.225-.55.214-1.255.978-1.57.287-.12.595-.185.864-.185h.056V7.32l-2.884.78v3.522c-.054.468-.714 1.2-1.284 1.438a1.98 1.98 0 0 1-.75.153c-.5 0-.9-.22-1.05-.575-.224-.55.217-1.255.98-1.57a2.045 2.045 0 0 1 .986-.144V7.216l5.116-1.28.016 4.684c-.053.462-.64 1.096-1.23 1.34z" class="si-glyph-fill"/><path d="M13.964 3.982v-.94h-5.94l.33.94h5.61z" class="si-glyph-fill"/></g></svg>