<svg viewBox="0 0 17 16" xmlns="http://www.w3.org/2000/svg" class="si-glyph si-glyph-wind-turbines"><title>683</title><g fill="#434343" fill-rule="evenodd"><path d="M10.938 15.3c0 .35-1.058.638-1.442.638-.385 0-1.442-.287-1.442-.64l.744-7.59c0-.354.313-.64.698-.64.385 0 .698.286.698.64l.744 7.59zM9.974 3.498c0 .28-.21.506-.468.506-.26 0-.47-.226-.47-.506V.568c0-.28.21-.506.47-.506.258 0 .468.227.468.506v2.93zM4.844 8.94c-.265.182-.602.15-.756-.068-.15-.22-.06-.547.203-.73l2.772-1.92c.264-.18.603-.152.755.067.152.22.062.546-.203.73l-2.77 1.92zM14.712 7.95a.57.57 0 0 1 .188.782.57.57 0 0 1-.79.154l-2.837-1.823a.57.57 0 0 1-.188-.784.57.57 0 0 1 .79-.154L14.71 7.95zM9 5h.906v.938H9z" class="si-glyph-fill"/></g></svg>