<svg viewBox="0 0 17 17" xmlns="http://www.w3.org/2000/svg" class="si-glyph si-glyph-share-3"><title>1054</title><path d="M14.477 1.042c-1.375 0-2.47 1.062-2.47 2.442 0 .355.108.96.243 1.266L9.458 7.583l-2.77-2.688c.16-.33.303-.934.303-1.328 0-1.38-1.097-2.536-2.473-2.536-1.373 0-2.505 1.157-2.505 2.537S3.115 5.994 4.49 5.994c.495 0 .955-.15 1.342-.4l3.175 3.143v3.295C7.987 12.344 7 13.326 7 14.454 7 15.834 8.114 17 9.49 17c1.374 0 2.488-1.165 2.488-2.546 0-1.127-.98-2.108-2.002-2.422V8.675l3.164-3.08-.023-.027c.396.264.87.42 1.38.42a2.495 2.495 0 0 0 2.487-2.502c0-1.382-1.132-2.444-2.507-2.444zm-9.99 3.98A1.52 1.52 0 0 1 2.97 3.498 1.52 1.52 0 0 1 4.486 1.97 1.52 1.52 0 0 1 6 3.498a1.52 1.52 0 0 1-1.514 1.526zm6.553 9.494c0 .854-.692 1.547-1.548 1.547a1.547 1.547 0 0 1 0-3.094c.856 0 1.548.69 1.548 1.546zm3.456-9.476c-.847 0-1.533-.706-1.533-1.58 0-.868.687-1.576 1.533-1.576.846 0 1.534.708 1.534 1.577 0 .874-.688 1.58-1.534 1.58z" fill="#434343" class="si-glyph-fill" fill-rule="evenodd"/></svg>