<svg viewBox="0 0 17 16" xmlns="http://www.w3.org/2000/svg" class="si-glyph si-glyph-arrow-two-way-left-right"><title>1154</title><path d="M16.763 2.99L14.203.384c-.294-.3-.918-.3-1.21 0V2.2C11.532 2.26 9.89 3.11 9 4.342 8.107 3.113 6.35 2.26 4.89 2.2V.384c-.294-.3-.917-.3-1.21 0L1.236 2.99a.776.776 0 0 0 0 1.084L3.68 6.677c.293.3.916.3 1.21 0V4.915c1.402.088 3.157 1.255 3.157 2.69v7.332h1.875V7.604c0-1.435 1.668-2.602 3.07-2.69v1.763c.293.3.917.3 1.21 0l2.56-2.603a.776.776 0 0 0 0-1.085z" fill="#434343" class="si-glyph-fill" fill-rule="evenodd"/></svg>