<svg viewBox="0 0 16 16" xmlns="http://www.w3.org/2000/svg" class="si-glyph si-glyph-easal"><title>643</title><path d="M12.957 11.062V3.107H9.98v-1h-.995V1c0-.553-.445-1-.996-1-.55 0-.906.447-.906 1v1.107H6.09v1H3.022v7.955H1.085v.875L4.15 12l-.986 2.708c-.185.52-.002 1.047.516 1.232.52.186.957-.15 1.143-.67L5.938 12h1.147v3c0 .552.355 1 .905 1s.996-.448.996-1v-3h1.09l1.063 3.333c.184.52.645.793 1.16.607.52-.186.703-.69.52-1.213l-.957-2.73 3.033-.06v-.875h-1.94zM3.95 3.98h2.073v.937h3.894V3.98h2.132v7.083h-8.1V3.98z" fill="#434343" class="si-glyph-fill" fill-rule="evenodd"/></svg>