<svg viewBox="0 0 16 16" xmlns="http://www.w3.org/2000/svg" class="si-glyph si-glyph-pin-location-map"><title>Pin-location-map</title><g fill="#434343" fill-rule="evenodd"><path d="M0 11.438l3.938 1.468V1.062L0-.015v11.453zM11.506 8.005c-1.36 0-2.463 1.204-2.463 2.69 0 .384.076.747.207 1.08l2.264 4.15 2.245-4.15c.133-.333.207-.696.207-1.08 0-1.486-1.103-2.69-2.46-2.69zm.016 4.04a1.5 1.5 0 1 1-.002-3 1.5 1.5 0 0 1 .002 3z" class="si-glyph-fill"/><path d="M16 .97L11.03.04v6.855c.157-.02.313-.046.476-.046 1.977 0 3.578 1.54 3.578 3.442 0 .492-.108.956-.3 1.382l-.386.63L16 13V.97zM7.926 10.292c0-1.37.838-2.544 2.043-3.098V.166l-4.94.896v11.844l3.682-.45-.485-.782c-.192-.426-.3-.89-.3-1.382z" class="si-glyph-fill"/></g></svg>