<svg viewBox="0 0 17 16" xmlns="http://www.w3.org/2000/svg" class="si-glyph si-glyph-percent"><title>947</title><g fill="#434343" fill-rule="evenodd"><path d="M4.54.068c-1.91 0-3.457 1.77-3.457 3.954S2.63 7.977 4.54 7.977C6.45 7.977 8 6.207 8 4.022 8 1.838 6.45.068 4.54.068zM4.5 6.062c-.893 0-1.616-.938-1.616-2.095 0-1.155.724-2.093 1.615-2.093.893 0 1.615.938 1.615 2.093 0 1.158-.722 2.095-1.616 2.095zM13.524 8.05c-1.9 0-3.44 1.77-3.44 3.955 0 2.184 1.54 3.955 3.44 3.955s3.44-1.77 3.44-3.955c0-2.184-1.54-3.954-3.44-3.954zm-.047 6.044c-.885 0-1.602-.934-1.602-2.09 0-1.152.717-2.087 1.602-2.087.885 0 1.602.935 1.602 2.088-.002 1.155-.72 2.09-1.603 2.09zM4.734 15.992a.68.68 0 0 1-.34-.092.666.666 0 0 1-.245-.92L12.645.366a.682.682 0 0 1 .594-.34.7.7 0 0 1 .344.092c.325.188.434.6.243.92L5.33 15.65a.688.688 0 0 1-.596.34z" class="si-glyph-fill"/></g></svg>