<svg viewBox="0 0 17 16" xmlns="http://www.w3.org/2000/svg" class="si-glyph si-glyph-screen-scale"><title>1204</title><g fill="#434343" fill-rule="evenodd"><path d="M5.02 5v5.94h7.958V5H5.02zm7.022 5.062H5.958V5.937h6.084v4.125z" class="si-glyph-fill"/><path class="si-glyph-fill" d="M7 7h3.917v1.938H7zM1 11l1.387 1.375-1.385 1.38 1.224 1.217 1.387-1.38L5 14.964V11H1zM15.763 1.04L14.387 2.4 13 1.034V4.97h4l-1.387-1.366 1.375-1.358-1.225-1.206zM15.76 14.97l1.227-1.214-1.38-1.375L17 11h-4v3.965l1.38-1.368 1.38 1.374zM2.27 1.08L1.043 2.287 2.38 3.61 1 4.97h4V1.034l-1.393 1.37L2.27 1.08z"/></g></svg>