<svg viewBox="0 0 17 16" xmlns="http://www.w3.org/2000/svg" class="si-glyph si-glyph-arrow-fullscreen-2"><title>1231</title><path d="M14.988 6.98A1.01 1.01 0 0 0 16 5.97V1.008a1.01 1.01 0 0 0-1.012-1.01H10.01C9.453 0 9 .45 9 1.01l1.58 1.575-2.57 2.57-2.57-2.57 1.58-1.575a1.01 1.01 0 0 0-1.013-1.01H1.03C.47 0 .018.45.018 1.01V5.97c0 .557.453 1.01 1.012 1.01l1.59-1.586 2.574 2.574-2.596 2.597L1.028 9c-.557 0-1.01.45-1.01 1.006v4.946c0 .555.453 1.006 1.01 1.006H5.99c.558 0 1.01-.45 1.01-1.006l-1.583-1.577 2.592-2.592 2.59 2.592-1.58 1.577c0 .555.45 1.006 1.008 1.006h4.962c.557 0 1.01-.45 1.01-1.006v-4.946C16 9.45 15.546 9 14.99 9l-1.57 1.565-2.596-2.597 2.574-2.574 1.59 1.585z" fill="#434343" class="si-glyph-fill" fill-rule="evenodd"/></svg>