<svg viewBox="0 0 17 16" xmlns="http://www.w3.org/2000/svg" class="si-glyph si-glyph-button-sell"><title>685</title><path d="M14.343 2.033L9.01 3.083l-5.375-1.05C2.18 2.033 1 3.36 1 4.996v5.018c0 1.637 1.18 2.964 2.635 2.964l5.375-1.02 5.333 1.02c1.456 0 2.636-1.327 2.636-2.964V4.996c0-1.637-1.18-2.963-2.637-2.963zm-8.3 3.97H4.02v.97h.996v1.01h1.026V9.08h-1v.978H2.98v-1.12h1.99v-.906h-.99v-1.01h-1V5.96h1v-1.01h2.062v1.056zm3 .027H8.02v.962h.996v1.05h-.974v.874h1v1.14H6.98V4.98h2.062v1.05zm3 4.027h-2.06v-5.1h1.032v3.98h1.026v1.12h.002zm3 0h-2.06v-5.11h1.032V9h1.026v1.057h.002z" fill="#434343" class="si-glyph-fill" fill-rule="evenodd"/></svg>