<svg viewBox="0 0 16 16" xmlns="http://www.w3.org/2000/svg" class="si-glyph si-glyph-trolley-error"><title>749</title><g fill="none" fill-rule="evenodd"><g transform="translate(3 12)" fill="#434343"><circle cx="1.437" cy="1.437" r="1.437" class="si-glyph-fill"/><ellipse cx="7.452" cy="1.485" rx="1.452" ry="1.485" class="si-glyph-fill"/></g><path d="M5 8h2.062v2.078H5zM5 5h2.078v2.094H5zM8 5h2.047v2.047H8zM13.078 4.97H11v2.14h1.746l.332-2.14zM8 8h2.062v2.094H8z"/><path d="M2.563 12.046c-.32 0-.5.056-.5.423 0 .366.18.473.5.473h9.416v-.896H2.562zM10.97 10.03V7.985h1.905l-.28 1.995h1.144l.774-5.985c.057.007.11.018.17.018.715 0 1.295-.6 1.295-1.338 0-.74-.58-1.338-1.296-1.338-.717 0-1.297.6-1.297 1.338l-.172 1.343H.557c-.318 0-.54.287-.54.654 0 .14.01.27.07.375L1.3 10.5c.04.173.167.3.33.37.08.05.168.083.265.083H11.98v-.922h-1.01zM11 4.97h2.078l-.332 2.14H11V4.97zm-3.03 0h2.046v2.046H7.97V4.97zm-6.45 0h2.512v2.067H1.835L1.52 4.97zm2.523 5.024H2.17L1.86 7.96h2.183v2.034zm2.988.053H4.97V7.97h2.06v2.077zm0-3H4.954V4.953H7.03v2.094zm3 3H7.97V7.953h2.06v2.094zM15.994 11.71l-.7-.69-.79.793-.795-.792-.692.703.793.788-.79.797.7.69.788-.792.796.79.69-.7-.792-.788.792-.796z" fill="#434343" class="si-glyph-fill"/></g></svg>