<svg viewBox="0 0 16 16" xmlns="http://www.w3.org/2000/svg" class="si-glyph si-glyph-timer"><title>637</title><g fill="#434343" fill-rule="evenodd"><path d="M12.115 2.612l.525-.812.85.554.484-.75L11.527.01l-.483.75.85.554-.513.788A7.394 7.394 0 0 0 7.503 1C3.387 1 .042 4.35.042 8.474c0 4.12 3.345 7.474 7.46 7.474 4.113 0 7.46-3.355 7.46-7.475a7.463 7.463 0 0 0-2.847-5.863zm-4.613 11.4c-3.047 0-5.527-2.49-5.527-5.545 0-3.058 2.48-5.545 5.527-5.545S13.03 5.41 13.03 8.467c0 3.055-2.48 5.544-5.528 5.544z" class=" si-glyph-fill"/><path class="si-glyph-fill" d="M7 4h1v5H7z"/><path class="si-glyph-fill" d="M7 8h3v1H7z"/></g></svg>