<svg viewBox="0 0 17 16" xmlns="http://www.w3.org/2000/svg" class="si-glyph si-glyph-folder-rss"><title>936</title><g fill="#434343" fill-rule="evenodd"><path d="M8.35 5L6.788 2.042H3.02v1.02H1.024v9.914h1.02l.002 1h14.902L16.967 5H8.35zm-.327 7.042h-1v-1h.17a.83.83 0 0 1 .83.83v.17zm.97-.06c0-.94-1.018-2.023-1.966-2.023v-.95c1.54 0 2.948 1.444 2.948 2.972h-.982zm2.137.013c0-2.476-1.654-4.115-4.12-4.115v-.838c3.3 0 4.932 1.636 4.932 4.954h-.812z" class="si-glyph-fill"/><path d="M14.964 3.982v-.94h-5.94l.33.94h5.61z" class="si-glyph-fill"/></g></svg>