<svg viewBox="0 0 16 16" xmlns="http://www.w3.org/2000/svg" class="si-glyph si-glyph-sleep"><title>157</title><g fill="#434343" fill-rule="evenodd"><path d="M7.953 14H1.027a.945.945 0 0 1-.867-.59 1.02 1.02 0 0 1 .168-1.062l5.53-6.375H.99c-.523 0-.988-.4-.988-.945 0-.545.425-.985.947-.985h7.026c.374 0 .716.23.866.59.15.358.084.773-.17 1.062l-5.49 6.387H7.95c.523 0 .947.39.947.933 0 .544-.423.985-.947.985zM15.755 8.935H9.7a.64.64 0 0 1-.585-.39.675.675 0 0 1 .107-.712l5.116-5.87h-5c-.354 0-.318-.93.035-.93h6.098c.254 0 .447.118.55.355a.675.675 0 0 1-.106.712L10.88 7.963h4.875c.354 0 .354.972 0 .972z" class="si-glyph-fill"/></g></svg>