<svg viewBox="0 0 16 16" xmlns="http://www.w3.org/2000/svg" class="si-glyph si-glyph-cloud-cloud"><title>754</title><g fill="#434343" fill-rule="evenodd"><path d="M8.037 6.286c.958 0 1.803.543 2.32 1.234a1.42 1.42 0 0 1 .53-.11c.46 0 .87.224 1.167.58h3.887c0-.917-.7-1.66-1.57-1.66l-.033.002c-.196-1.31-1.265-2.315-2.56-2.315-.916 0-1.72.507-2.18 1.267a2.533 2.533 0 0 0-.412-.038c-.732 0-1.39.236-1.86.754.093.103.184.21.26.325a2.93 2.93 0 0 1 .452-.04zM11.506 9.41c-.298-.394-.71-.644-1.172-.644-.188 0-.365.05-.533.123-.52-.766-1.368-1.265-2.33-1.265-.156 0-.306.016-.454.04a2.775 2.775 0 0 0-.264-.36C6.227 6.68 5.56 6.05 4.702 6.05c-1.43 0-2.71 1.33-2.926 2.767-.013 0-.024-.004-.038-.004-.958 0-1.734 1.14-1.734 2.145h11.97c-.048-.476-.22-1.223-.468-1.548z" class="si-glyph-fill"/></g></svg>