<svg viewBox="0 0 16 16" xmlns="http://www.w3.org/2000/svg" class="si-glyph si-glyph-bag-remove"><title>610</title><g fill="#434343" fill-rule="evenodd"><path d="M9.494 4.01a.49.49 0 0 1-.49-.49 2.512 2.512 0 0 0-2.502-2.515A2.51 2.51 0 0 0 4 3.52a.49.49 0 0 1-.98 0c0-1.93 1.563-3.5 3.482-3.5 1.92 0 3.482 1.57 3.482 3.5a.49.49 0 0 1-.49.49z" class="si-glyph-fill"/><path d="M12.492 4.01a.49.49 0 0 1-.488-.49c0-1.387-1.12-2.515-2.492-2.515a.49.49 0 0 1-.488-.492.49.49 0 0 1 .488-.492c1.912 0 3.47 1.57 3.47 3.5a.49.49 0 0 1-.49.49zM11 14h5v1h-5zM14.37 3.06h-1.328v9.898h1.923V3.626c0-.313-.267-.565-.594-.565z" class="si-glyph-fill"/><path d="M11.95 13.047L11.957 3H1.644c-.33 0-.6.287-.6.6v11.773c0 .312.226.627.556.627H10v-2.953h1.95z" class="si-glyph-fill"/></g></svg>