<svg viewBox="0 0 16 16" xmlns="http://www.w3.org/2000/svg" class="si-glyph si-glyph-document-doc"><title>171</title><g fill="#434343" fill-rule="evenodd"><path d="M10.03.03v3.94h3.872L10.032.03zM4 9h.965v1.99H4zM8 9h.953v1.953H8z" class="si-glyph-fill"/><path d="M8.938 5.092V.07H2.042v15.868h11.896V5.092h-5zm-3.905 5.94v1.008h-2.05V7.973l2.063.01v.97h.984l.016 2.08H5.033v-.002zm4.98.015h-.997v.984H7.97v-.983h-.995V8.985h.994V7.97h1.046v1.015h.996v2.062zm3.003-2.03h-1v1.968h1V12h-1.062v-.976h-.984V8.957h.984V7.97h1.062v1.046z" class="si-glyph-fill"/></g></svg>