<svg viewBox="0 0 17 16" xmlns="http://www.w3.org/2000/svg" class="si-glyph si-glyph-square-four-angle-point"><title>1203</title><path d="M15.96 3V.04H13v1.022H2.96V.042H0V3h1.01v10.04H0V16h2.96v-1.02H13V16h2.96v-2.96h-1.032V3h1.03zM13.937.938h1.084v1.125h-1.084V.938zm-13 0h1.084v1.125H.938V.938zM2.02 15.062H.938v-1.125h.073v.01h.917v-.01h.094v1.125zm13-1.124v1.125h-1.083v-1.125h.073v.01h.917v-.01h.094zm-1.01-.897H13v1.022H2.96v-1.02H1.927V3h1.03V1.98H13V3h1.01v10.04z" fill="#434343" class="si-glyph-fill" fill-rule="evenodd"/></svg>