<svg viewBox="0 0 17 16" xmlns="http://www.w3.org/2000/svg" class="si-glyph si-glyph-sock"><title>658</title><g fill="#434343" fill-rule="evenodd"><path d="M14.146 1.955h.22c.32 0 .578-.177.578-.396V.4c0-.22-.26-.396-.578-.396H7.58c-.32 0-.576.177-.576.395v1.16c0 .218.257.395.576.395h6.566zM11.99 13.156c0 .36.072.703.2 1.016 1.638-.412 1.847-2.04 1.735-3.54-1.107.27-1.935 1.297-1.935 2.524zM3.082 14.11c0 1.368 1.226 1.742 2.392 1.827a2.634 2.634 0 0 0 .862-1.94c0-1.028-.596-1.912-1.453-2.35-1.71 1-1.8 1.71-1.8 2.463z" class="si-glyph-fill"/><path d="M13.856 9.96c-.102-.79-.248-1.754-.25-2.107-.016-3.052.303-4.837.303-4.837l-5.81.04s.3 1.56.3 3.287c0 1.728.71 3.24-2.154 4.612-.188.09-.363.178-.53.264a3.4 3.4 0 0 1 .788 4.71c.95-.178 2.963-1.096 4.996-1.56a3.36 3.36 0 0 1-.222-1.18c0-1.59 1.11-2.92 2.578-3.23z" class="si-glyph-fill"/></g></svg>