<svg viewBox="0 0 17 17" xmlns="http://www.w3.org/2000/svg" class="si-glyph si-glyph-square-dashed-1"><title>1201</title><g fill="#434343" fill-rule="evenodd"><path d="M13.048 1.976h1.993v1.988h.908v-2.92h-2.9v.932zM.923 3.995v-2.02H2.95V.988H.028v3.008h.896zM2.95 16.017H.965v-1.95H.027v2.928H2.95v-.978zM15 6v2.01h.99V6H15zM15 10v1.96h.982V10H15zM9 1v.965h1.984V1H9zM5 1v.973h1.995V1H5zM9 16v.973h1.958V16H9zM5 16v.993h1.987V16H5zM0 6v1.99h.98V6H0zM0 10v1.96h.954V10H0zM15.006 14v2.073H13v.945h3.003V14h-.997z" class="si-glyph-fill"/></g></svg>