<svg viewBox="0 0 16 16" xmlns="http://www.w3.org/2000/svg" class="si-glyph si-glyph-brush-and-pencil"><title>Brush-and-pencil</title><g fill="#434343" fill-rule="evenodd"><path d="M15.833 13.042c-.517.18-1.538.55-2.712-1.436-1.173-1.984-2.725-1.523-2.725-1.523-.087.015-.16.044-.238.07-1.752-2.495-6.68-7.93-7.113-8.364C2.42 1.166 1.374.582.5 1.5c-.823.862-.4 1.987.222 2.61.438.438 5.902 5.39 8.396 7.136-.052.15-.076.275-.076.337 0 3.646 3.73 3.453 4.5 3.312 1.375-.25 2.808-2.03 2.29-1.853z" class="si-glyph-fill"/><path d="M5.613 10.73l-.227.752.486.486-3.81 1.656-.75-.72L3.03 9.28l-.018.706.998-.014.853-.845c-.53-.45-1.058-.906-1.562-1.347l-.834.835S.156 13.933 0 14.363c-.125.34.306.77.604.625.48-.237 5.74-2.52 5.74-2.52l1.168-1.172c-.424-.33-.885-.7-1.36-1.094l-.54.528zM12.147 1.92l1.26 1.236-4.23 4.107c.377.46.733.902 1.05 1.31l4.26-4.274c.503-.503.53-1.227-.007-1.764L12.475.546C11.935.01 11.092-.02 10.59.482L6.71 4.37c.446.51.91 1.045 1.364 1.58l4.073-4.03z" class="si-glyph-fill"/></g></svg>