<svg viewBox="0 0 17 16" xmlns="http://www.w3.org/2000/svg" class="si-glyph si-glyph-egg"><title>948</title><g fill="#434343" fill-rule="evenodd"><path d="M8.262 7.956a2.41 2.41 0 0 1 2.03-.68c.44.055.396-.275.044-.403-.893-.33-1.914-.15-2.607.547-.69.694-.87 1.71-.55 2.604.127.355.466.422.406-.012-.1-.74.123-1.5.676-2.056z" class="si-glyph-fill"/><path d="M16.523 6.627c-.44-.798-1.008-1.2-1.88-1.638-.765-.384-1.547-.754-2.233-1.244-.637-.456-.727-.873-.982-1.51C10.895.904 8.57.17 7.128.063c-.56-.042-1.104.05-1.66.05C4.103.104 2.933.477 2.52 1.762c-.097.303.02.64.05.945a8.227 8.227 0 0 1 0 1.72c-.075.75-.185 1.603-.51 2.3-.247.53-.615.926-.76 1.507-.353 1.413-.403 3.023.522 4.277.552.748 1.54 1.252 2.51 1.326 1.032.078 1.923.86 2.818 1.255.81.356 1.6.62 2.482.785 1.552.294 2.98.102 3.92-1.11.478-.616.662-1.337.882-2.045.232-.747.725-1.58 1.402-2.08.658-.48.992-1.154 1.078-1.926.082-.738-.025-1.422-.39-2.09zm-7.53-.72a3.118 3.118 0 0 1 3.132 3.12 3.145 3.145 0 0 1-3.145 3.13 3.115 3.115 0 0 1-3.13-3.12 3.147 3.147 0 0 1 3.144-3.13z" class="si-glyph-fill"/></g></svg>