<svg viewBox="0 0 17 16" xmlns="http://www.w3.org/2000/svg" class="si-glyph si-glyph-bomb-1"><title>710</title><g fill="#434343" fill-rule="evenodd"><path d="M7.004 5.016c-.814 0-1.962 1.12-1.962 2.917 0 1.796 1.07 3.03 1.976 3.03.905 0 6.56-.336 7.332-.336.772 0 2.672-.438 2.672-2.694S15.31 5.278 14.35 5.278c-.96 0-6.532-.262-7.346-.262zM3.973 5.384c0 .327-.177.593-.395.593H2.394C2.176 5.977 2 5.71 2 5.384V3.606c0-.328.177-.593.394-.593L3.972 4.79v.594zM3.988 11.188l-1.578 1.77c-.217 0-.395-.265-.395-.59v-1.77c0-.326.178-.59.395-.59h1.184c.218 0 .394.264.394.59v.59zM1.438 7.003c-.327 0-.406.443-.406.99 0 .546.08.987.406.987h2.53V7.002H1.44z" class="si-glyph-fill"/></g></svg>