<svg viewBox="0 0 17 16" xmlns="http://www.w3.org/2000/svg" class="si-glyph si-glyph-bubble-message-quote"><title>1152</title><path d="M8.01.042C3.614.042.05 2.826.05 6.262c0 3.137 2.972 5.723 6.832 6.152l-2.116 3.57 6.183-3.945c2.938-.915 5.02-3.155 5.02-5.777-.002-3.437-3.567-6.22-7.96-6.22zM7.05 7c0 1.333-1.654 2.062-3.083 2.062V7.945c.72 0 1.74-.354 1.74-.945h-1.74V3.99H7.05V7zm5 0c0 1.333-1.654 2.062-3.083 2.062V7.945c.72 0 1.74-.354 1.74-.945h-1.74V3.99h3.084V7z" fill="#434343" class="si-glyph-fill" fill-rule="evenodd"/></svg>