<svg viewBox="0 0 17 16" xmlns="http://www.w3.org/2000/svg" class="si-glyph si-glyph-arrow-reload"><title>802</title><g fill="#434343" fill-rule="evenodd"><path d="M16.796 8.908L15.234 7.21a.553.553 0 0 0-.776 0l-1.564 1.698a.543.543 0 0 0 0 .772h1.294a5.345 5.345 0 0 1-3.79 3.79 5.378 5.378 0 0 1-5.766-2.12l-1.09.752a6.71 6.71 0 0 0 7.195 2.643A6.665 6.665 0 0 0 15.55 9.68h1.245a.544.544 0 0 0 0-.772zM5.475 8.02a.543.543 0 0 0 0-.77H4.018a5.34 5.34 0 0 1 3.77-3.74 5.373 5.373 0 0 1 5.767 2.122l1.092-.752a6.712 6.712 0 0 0-7.2-2.645 6.67 6.67 0 0 0-4.8 5.014h-1.45a.543.543 0 0 0 0 .77L2.833 9.66a.553.553 0 0 0 .776 0L5.475 8.02z" class="si-glyph-fill"/></g></svg>