<svg viewBox="0 0 16 16" xmlns="http://www.w3.org/2000/svg" class="si-glyph si-glyph-basket"><title>604</title><path d="M15.244 5.084h-1.928L12.28 1.447a.614.614 0 0 0-.837-.286l-.07.037a.657.657 0 0 0-.29.863l.74 3.023H5.17l.768-3.02a.658.658 0 0 0-.28-.864l-.07-.037a.616.616 0 0 0-.843.277L3.672 5.083h-1.89c-.4 0-.725.302-.725.672 0 0 .324 1.22.725 1.22h.636l.45 6.677s.05 1.31 2.112 1.31H12c2.146 0 2.116-1.337 2.116-1.337l.363-6.65h.765c.4 0 .725-1.22.725-1.22 0-.37-.326-.67-.726-.67zM4.03 7.03H2.97V5.97h1.06v1.06zm2.032 5.712c0 .35-.25.633-.56.633H5.48c-.31 0-.56-.283-.56-.633v-4.33c0-.35.25-.63.56-.63h.023c.308 0 .56.28.56.63v4.33zm2.998-.195c0 .334-.237.605-.53.605h-.02c-.293 0-.53-.27-.53-.605v-4.1c0-.333.237-.603.53-.603h.02c.293 0 .53.27.53.604v4.1zm2.968.092c0 .337-.245.61-.546.61h-.022c-.302 0-.545-.273-.545-.61V8.482c0-.338.243-.61.545-.61h.022c.3 0 .546.272.546.61v4.156zM14.03 7.06h-1.093V5.968h1.094v1.094z" fill="#434343" class="si-glyph-fill" fill-rule="evenodd"/></svg>