<svg viewBox="0 0 17 16" xmlns="http://www.w3.org/2000/svg" class="si-glyph si-glyph-upwards-arrow-with-loop"><title>1104</title><g fill="#434343" fill-rule="evenodd"><path class="si-glyph-fill" d="M1 7h2.94v1.943H1z"/><path d="M14.02 7.05H8.017v1.908h6.052c.544 0 .987.44.987.98v3.128c0 .54-.443.98-.988.98H7.957a.985.985 0 0 1-.988-.98V3.968h1.75c.392-.393.392-.638 0-1.03L6.708.292a1.003 1.003 0 0 0-1.42 0l-1.99 2.65c-.392.39-.392.637 0 1.028h1.73v9.053a2.977 2.977 0 0 0 2.98 2.968h6.013c1.645 0 2.98-1.33 2.98-2.967v-3.005a2.98 2.98 0 0 0-2.98-2.966z" class="si-glyph-fill"/></g></svg>