<svg viewBox="0 0 17 17" xmlns="http://www.w3.org/2000/svg" class="si-glyph si-glyph-shield"><title>1151</title><path d="M3.068 1.976l.005 6.042c0 4.988 5.948 7.96 5.948 7.96s5.95-2.806 5.95-7.976.002-6.026.002-6.026-2.664-1.94-5.95-1.94c-3.29 0-5.954 1.94-5.954 1.94zm10.98 6.255c0 3.945-4.724 6.683-5.046 6.838v.015l-.015-.007-.015.007v-.015c-.322-.155-5.045-2.893-5.045-6.837l-.004-5.663S6.18.992 8.973.98V.977H9c2.79.014 5.05 1.59 5.05 1.59l-.005 5.663zm-1.11.16c0 3.436-3.67 5.463-3.92 5.598V14l-.012-.006-.012.006v-.013c-.25-.135-3.92-2.162-3.92-5.597l-.005-4.93s1.755-1.37 3.924-1.38h.022c2.17.01 3.925 1.38 3.925 1.38v4.93z" fill="#434343" class="si-glyph-fill" fill-rule="evenodd"/></svg>