<svg viewBox="0 0 17 16" xmlns="http://www.w3.org/2000/svg" class="si-glyph si-glyph-button-arrow-left"><title>1188</title><g fill="#434343" fill-rule="evenodd"><path d="M1 8.04C1 3.653 4.582.083 8.985.083c4.4 0 7.983 3.57 7.983 7.96 0 4.388-3.582 7.958-7.983 7.958C4.582 16 1 12.43 1 8.04zm14.057 0c0-3.332-2.715-6.044-6.05-6.044-3.338 0-6.053 2.712-6.053 6.045 0 3.334 2.716 6.046 6.052 6.046 3.337 0 6.05-2.712 6.05-6.045z" class="si-glyph-fill"/><path d="M8.975 5.02L5.07 8.022l3.906 2.95V8.97h3.14c.345 0 .79-.324.79-.955 0-.63-.482-.975-.825-.975H8.977V5.02z" class="si-glyph-fill"/></g></svg>