<svg viewBox="0 0 17 16" xmlns="http://www.w3.org/2000/svg" class="si-glyph si-glyph-arrow-two-left-right"><title>951</title><g fill="#434343" fill-rule="evenodd"><path d="M3.688 7.716a.842.842 0 0 0 1.17 0V5.992h9.64c.83 0 1.5-.66 1.5-1.472 0-.812-.67-1.472-1.5-1.472H4.86v-1.8a.84.84 0 0 0-1.17 0l-2.48 2.71a.8.8 0 0 0 0 1.145l2.48 2.613zM15.758 10.83l-2.573-2.538a.834.834 0 0 0-1.17 0v1.73H2.582c-.828 0-1.5.665-1.5 1.482s.672 1.48 1.5 1.48h9.43v1.733a.838.838 0 0 0 1.172 0l2.573-2.538c.322-.32.322-1.032 0-1.35z" class="si-glyph-fill"/></g></svg>