<svg viewBox="0 0 17 16" xmlns="http://www.w3.org/2000/svg" class="si-glyph si-glyph-bubble-message-dot"><title>1088</title><path d="M14.1 0H3.902C2.872 0 2.04.795 2.04 2.094v5.844c0 1.3.833 2.05 1.862 2.05h5.7l-1.57 4.98 4.474-4.98H14.1c1.03 0 1.865-.75 1.865-2.05V2.094C15.965.794 15.13 0 14.1 0zM5.02 6.312c-.72 0-1.3-.59-1.3-1.318 0-.728.58-1.317 1.3-1.317.72 0 1.3.59 1.3 1.317 0 .73-.58 1.318-1.3 1.318zM9 6.24c-.71 0-1.28-.558-1.28-1.246S8.29 3.75 9 3.75c.707 0 1.28.557 1.28 1.244 0 .69-.573 1.246-1.28 1.246zm4 0c-.705 0-1.28-.558-1.28-1.246S12.294 3.75 13 3.75c.707 0 1.28.557 1.28 1.244 0 .69-.573 1.246-1.28 1.246z" fill="#434343" class="si-glyph-fill" fill-rule="evenodd"/></svg>