<svg viewBox="0 0 16 16" xmlns="http://www.w3.org/2000/svg" class="si-glyph si-glyph-bubble-message-talk"><title>639</title><g fill="#434343" fill-rule="evenodd"><path d="M5.94 1C2.665 1 .01 2.987.01 5.438c0 2.236 2.214 4.082 5.09 4.387L3.88 12.26l4.25-2.7C10.317 8.906 12 7.31 12 5.438 12 2.988 9.213 1 5.94 1zM15.947 9.89c0-1.124-1.062-2.288-2.29-2.868-.343 1.95-1.923 3.745-4.416 4.447l-1.186.64c.454.34 1.01.612 1.634.79l3.638 1.97-1.303-1.776c2.217-.225 3.924-1.57 3.924-3.204z" class="si-glyph-fill"/></g></svg>