<svg viewBox="0 0 16 16" xmlns="http://www.w3.org/2000/svg" class="si-glyph si-glyph-pin-location-2"><title>Pin-location-2</title><g fill="#434343" fill-rule="evenodd"><path d="M8 .03c-2.717 0-4.92 2.12-4.92 4.734 0 .675.15 1.317.414 1.898l4.59 7.32 4.422-7.32c.265-.58.412-1.224.412-1.898C12.918 2.15 10.718.03 8 .03zm0 8.09a3.09 3.09 0 0 1-3.085-3.097A3.09 3.09 0 0 1 8 1.926a3.093 3.093 0 0 1 3.086 3.097A3.093 3.093 0 0 1 8 8.12zm1.977-3.137A1.98 1.98 0 0 1 8 6.968c-1.092 0-1.978-.89-1.978-1.985A1.98 1.98 0 0 1 8 3c1.09 0 1.977.89 1.977 1.983z" class="si-glyph-fill"/><path d="M5.3 11.823c-1.718.364-2.43.842-2.43 1.38 0 .768 1.83 1.828 5.115 1.828s5.116-1.06 5.116-1.828c0-.535-.707-1-2.4-1.38v-.82c1.865.367 3.254 1.102 3.254 2.2 0 1.584-3.076 2.77-5.97 2.77-2.892 0-5.968-1.186-5.968-2.77 0-1.1 1.398-1.85 3.273-2.202l.01.823z" class="si-glyph-fill"/></g></svg>