<svg viewBox="0 0 17 17" xmlns="http://www.w3.org/2000/svg" class="si-glyph si-glyph-piggy-bank"><title>83</title><path d="M16.04 6.33c0-.528-1.83-.95-1.93-.94-1.004-1.908-3.205-3.227-5.76-3.357-2.04-.104-3.417.358-4.388 1a3.55 3.55 0 0 0-1.084 0c-.47.082-.81.26-1.18.582-.213.185-.59.58-.23.787.258.15.632-.108.908-.124.08-.006.152.01.225.022-.696.907-.962 1.74-1.263 1.74C.054 6.04.04 6.76.04 7.344v1.333c0 .38.48 1.286.67 1.5 1.04 1.18 1.635 2.057 3.36 2.633.03.664.463 1.19.997 1.19.418 0 1.18-1.04 2.225-1.04 2.5 0 3.37 1.04 3.797 1.04 1.118 0 .995-1.354.99-1.402 1.958-.94 2.615-2.757 2.615-4.88 0-.15-.013-.296-.025-.443.777-.076 1.37-.466 1.37-.945zM4 7a1 1 0 1 1 0-2 1 1 0 0 1 0 2zm7.274-2.274c-.432-.386-1.113-.576-1.782-.763-.67-.186-1.226-.34-1.8-.234-.745.138-.987-.217-.393-.448.684-.266 1.604-.4 2.508-.148.86.238 1.538.79 1.978 1.33.42.52.04.76-.512.262z" fill="#434343" class="si-glyph-fill" fill-rule="evenodd"/></svg>