<svg viewBox="0 0 17 16" xmlns="http://www.w3.org/2000/svg" class="si-glyph si-glyph-globe"><title>856</title><g transform="translate(3)" fill="#434343" fill-rule="evenodd"><path d="M5.03 13.225v1.434c-2.153.082-3.935.612-3.935 1.26a.05.05 0 0 0 .004.016l8.805.01s.005-.02.005-.026c0-.646-1.818-1.177-3.973-1.26v-1.48" class="si-glyph-fill"/><ellipse cx="5.012" cy="7.031" rx="5.012" ry="5.031" class="si-glyph-fill"/><path d="M5.04 13.97A6.882 6.882 0 0 1 .7 12.423a.5.5 0 0 1-.072-.697.49.49 0 0 1 .69-.072 5.81 5.81 0 0 0 3.722 1.33c3.263 0 5.916-2.678 5.916-5.967 0-2.918-2.15-5.453-5.005-5.896-.3-.047-.606-.07-.91-.07-.27 0-.49-.22-.49-.494 0-.273.22-.495.49-.495.352 0 .708.028 1.06.082C9.43.66 11.94 3.617 11.94 7.017c0 3.834-3.094 6.954-6.898 6.954z" class="si-glyph-fill"/></g></svg>