<svg viewBox="0 0 17 16" xmlns="http://www.w3.org/2000/svg" class="si-glyph si-glyph-circle-plus"><title>933</title><path d="M9.02.097c-4.395 0-7.957 3.558-7.957 7.943 0 4.388 3.562 7.945 7.958 7.945 4.396 0 7.96-3.558 7.96-7.945 0-4.386-3.565-7.943-7.96-7.943zm2.305 8.985h-1.237v1.237c0 .978.06 1.768-1.088 1.768-1.144 0-1.088-.79-1.088-1.77V9.083H6.675c-.98 0-1.77.056-1.77-1.088 0-1.146.79-1.088 1.77-1.088h1.237V5.67c0-.98-.056-1.77 1.088-1.77 1.146 0 1.088.79 1.088 1.77v1.236h1.237c.98 0 1.77-.06 1.77 1.088 0 1.144-.79 1.088-1.77 1.088z" fill="#434343" class="si-glyph-fill" fill-rule="evenodd"/></svg>