<svg viewBox="0 0 16 16" xmlns="http://www.w3.org/2000/svg" class="si-glyph si-glyph-bluetooth"><title>39</title><g fill="#434343" fill-rule="evenodd"><path d="M8 11.967l.97-.943L8 10v1.967zM8.03 5.982l.94-.945-.94-1.028V5.98z" class="si-glyph-fill"/><path d="M7.506 0c-2.473 0-4.48 1.546-4.48 3.453v9.095c0 1.906 2.007 3.452 4.48 3.452 2.472 0 4.477-1.546 4.477-3.452V3.453C11.983 1.546 9.978 0 7.506 0zm2.946 11.01L6.94 14V8.815L4.72 10.88l-.674-.747 2.09-2.07L4 6.1l.72-.667 2.22 1.912V2l3.56 3.117-2.862 2.978 2.814 2.916z" class="si-glyph-fill"/></g></svg>