<svg viewBox="0 0 16 16" xmlns="http://www.w3.org/2000/svg" class="si-glyph si-glyph-basketball"><title>Basketball</title><g fill="#434343" fill-rule="evenodd"><path d="M1.83 2.645A7.465 7.465 0 0 0 .108 8.74c1.667-.38 3.312-.118 4.527.83l2.06-2.06L1.83 2.645zM6.207 14.883a7.465 7.465 0 0 0 6.15-1.714l-4.91-4.91-2.06 2.062c.954 1.222 1.213 2.88.82 4.56zM.354 9.804c.296.93.79 1.808 1.46 2.587l2.022-2.02c-.938-.68-2.193-.855-3.482-.566zM5.146 14.628c.298-1.298.124-2.563-.56-3.508L2.56 13.145a7.458 7.458 0 0 0 2.586 1.483zM13.148 12.37a7.465 7.465 0 0 0 1.668-6.132c-1.663.376-3.304.113-4.514-.834l-2.06 2.06 4.906 4.907zM8.707.175A7.456 7.456 0 0 0 2.63 1.852l4.86 4.862 2.06-2.06c-.94-1.203-1.206-2.83-.843-4.48zM14.553 5.176a7.41 7.41 0 0 0-1.47-2.55l-1.98 1.98c.93.673 2.172.85 3.45.57zM9.775.428c-.273 1.27-.094 2.5.574 3.426l1.978-1.978A7.416 7.416 0 0 0 9.775.428z" class="si-glyph-fill"/></g></svg>