<svg viewBox="0 0 17 17" xmlns="http://www.w3.org/2000/svg" class="si-glyph si-glyph-horse-shoe"><title>1038</title><path d="M7.502 1.042c-4.545 0-7.424 4.236-7.424 9.462 0 2.405 1.523 5.554 2.245 6.265.723.71 2.324-.823 2.05-1.324a8.363 8.363 0 0 1-1.014-3.97c0-3.646 1.604-6.603 4.142-6.603 2.535 0 4.142 2.957 4.142 6.604 0 1.486-.41 2.855-1.01 3.957-.273.507 1.468 2.02 2.044 1.335.577-.685 2.247-3.86 2.247-6.266 0-5.226-2.88-9.462-7.423-9.462z" fill="#434343" class="si-glyph-fill" fill-rule="evenodd"/></svg>