<svg viewBox="0 0 17 16" xmlns="http://www.w3.org/2000/svg" class="si-glyph si-glyph-ribbon"><title>665</title><g fill="#434343" fill-rule="evenodd"><path d="M9.025 0l1.39 1.025h1.717l.53 1.657 1.39 1.025-.53 1.66.53 1.657-1.39 1.024-.53 1.658h-1.717l-1.39 1.025-1.39-1.024H5.92l-.53-1.658-1.388-1.024.53-1.658L4 3.706l1.39-1.024.528-1.657h1.715L9.025 0zM5.042 15.53l-1.04-2.683-1.984 1.6L4.006 9l.675 1.577L7 10.59l-1.956 4.94zM12.956 15.508l1.075-2.66 1.95 1.577L14.026 9l-.675 1.577-2.317.014 1.92 4.918z" class="si-glyph-fill"/></g></svg>