<svg viewBox="0 0 17 16" xmlns="http://www.w3.org/2000/svg" class="si-glyph si-glyph-circle-drashed"><title>1015</title><g fill="#434343" fill-rule="evenodd"><path d="M2.922 7.984c0-.385.04-.76.108-1.124l-.84-.32a6.94 6.94 0 0 0-.153 1.444c0 .67.1 1.317.277 1.932l.818-.37a6.102 6.102 0 0 1-.21-1.562zM10.47 13.876a6.05 6.05 0 0 1-1.47.188c-.422 0-.834-.044-1.23-.126l-.316.83c.498.114 1.015.18 1.547.18.638 0 1.253-.094 1.84-.254l-.37-.818zM3.72 4.984a6.132 6.132 0 0 1 1.845-2.01l-.367-.816A7.015 7.015 0 0 0 2.88 4.666l.84.318zM14.21 11.1a6.114 6.114 0 0 1-1.904 1.98l.365.81a7.004 7.004 0 0 0 2.38-2.47l-.84-.32zM3.955 11.37l-.81.366a7.006 7.006 0 0 0 2.444 2.312l.317-.84a6.12 6.12 0 0 1-1.952-1.837zM7.38 2.133A6.027 6.027 0 0 1 9 1.906c.394 0 .777.04 1.15.112l.317-.84a6.92 6.92 0 0 0-3.457.135l.368.82zM14.063 4.628l.812-.365a7.01 7.01 0 0 0-2.534-2.385l-.317.84c.82.47 1.52 1.126 2.04 1.91zM15.693 6.088l-.816.367c.127.49.202 1 .202 1.53a6.2 6.2 0 0 1-.133 1.257l.83.314c.117-.506.186-1.03.186-1.572a6.9 6.9 0 0 0-.27-1.896z" class="si-glyph-fill"/></g></svg>