<svg viewBox="0 0 16 16" xmlns="http://www.w3.org/2000/svg" class="si-glyph si-glyph-clip"><title>614</title><g fill="#434343" fill-rule="evenodd"><path d="M11.03 15.99h.954c-.504-1.79-2.192-9.906-2.22-10.053.015-.45.01-1.28.304-1.574.318-.314.9-.79.9-1.657 0-.81-.39-2.69-3.016-2.69-2.63 0-2.914 1.88-2.914 2.69 0 .696.24 1.202.8 1.687.45.44.372.79.372 1.514 0 .32-1.658 8.3-2.21 10.085h.952c.424-1.404 1.984-9.664 1.984-10.085 0-1.025-.107-1.56-.617-2.062-.403-.35-.368-.657-.368-1.14 0-1.302.547-1.768 2-1.768 1.448 0 2.078.466 2.078 1.77 0 .522-.135.803-.477 1.142-.412.41-.494 1.4-.518 2.06-.002.13 1.61 8.668 1.996 10.08z" class="si-glyph-fill"/><path d="M7.746 9.023c-.55 2.39-1.412 5.62-1.775 6.965h4.015c-.33-1.354-1.227-4.612-1.775-6.965h-.464zM12.008 9.008c.494 2.203 1.328 5.263 1.72 6.98h2.23V9.023l-3.95-.015zM.008 9.037v6.925h2.227c.438-1.7 1.205-4.714 1.716-6.925H.01z" class="si-glyph-fill"/></g></svg>