<svg viewBox="0 0 16 17" xmlns="http://www.w3.org/2000/svg" class="si-glyph si-glyph-circle-control-pad"><title>103</title><path d="M8 .032a8 8 0 1 0 0 16 8 8 0 0 0 0-16zM5 9.86a.755.755 0 0 1-.88 0L2.182 8.344c-.243-.19-.243-.498 0-.688L4.12 6.143a.75.75 0 0 1 .88 0V9.86zm1.142-5.74L7.656 2.18c.19-.243.498-.243.687 0L9.856 4.12a.744.744 0 0 1 0 .88H6.143a.754.754 0 0 1 0-.88zm3.715 7.74L8.344 13.8c-.193.243-.5.243-.69 0l-1.51-1.94a.748.748 0 0 1 0-.878h3.713c.19.243.19.636 0 .88zm2.024-2.003a.75.75 0 0 1-.88 0V6.143a.75.75 0 0 1 .88 0l1.937 1.513c.244.19.244.5 0 .69l-1.936 1.51z" fill="#434343" class="si-glyph-fill" fill-rule="evenodd"/></svg>