<svg viewBox="0 0 16 16" xmlns="http://www.w3.org/2000/svg" class="si-glyph si-glyph-stereo-jack"><title>174</title><g fill="#434343" fill-rule="evenodd"><path d="M4.93 5.762L3.86 6.827c-.316.313-.354.785-.088 1.05l1.334 1.33c.268.265.74.224 1.055-.088L7.23 8.05l-2.3-2.29zM9.77 5.524a.663.663 0 0 0-.02-.942l-1.336-1.33a.67.67 0 0 0-.945-.02l-1.837 1.83 2.3 2.292 1.837-1.83zM1.053 10.532l-.867.862c-.265.266-.252.71.033.994l.34.338c.282.283.73.297.995.03l.866-.86-1.367-1.364z" class="si-glyph-fill"/><path d="M3.242 11.077L1.855 9.694l2.3-2.29 1.388 1.382-2.3 2.29zM15.674 14.974c-.523 0-1.794.083-2.864-.788-1.214-.99-1.69-2.195-1.69-4.43 0-1.22.566-2.73 1.145-3.52.502-.687.875-1.408.875-2.183 0-1.136-.172-1.812-.684-2.102-.492-.278-1.127-.08-1.308-.013l-2.614 2.97-.518-.464 2.762-3.08c.047-.022 1.14-.498 2.062.025.744.424 1.026 1.27 1.026 2.664 0 .975-.46 1.812-1 2.55-.567.778-1.022 2.134-1.022 3.153 0 2.03.39 3.067 1.44 3.928 1.13.93 2.558.623 2.57.623l.08.656a2.027 2.027 0 0 1-.26.012z" class="si-glyph-fill"/></g></svg>