<svg viewBox="0 0 16 16" xmlns="http://www.w3.org/2000/svg" class="si-glyph si-glyph-signal-2"><title>Signal-2</title><g fill="#434343" fill-rule="evenodd"><path d="M6.696 15.99a.67.67 0 0 1-.595-.354.638.638 0 0 1 .29-.872c2.62-1.296 4.247-3.885 4.247-6.756 0-2.875-1.63-5.465-4.253-6.76A.64.64 0 0 1 6.09.376a.677.677 0 0 1 .9-.284c3.072 1.517 4.982 4.55 4.982 7.916 0 3.36-1.907 6.393-4.975 7.912a.668.668 0 0 1-.3.07z" class="si-glyph-fill"/><path d="M5.13 13.93a.634.634 0 0 1-.567-.348.605.605 0 0 1-.042-.442.63.63 0 0 1 .32-.388c1.772-.904 2.94-2.716 2.94-4.73 0-2.013-1.17-3.827-2.947-4.732a.615.615 0 0 1-.276-.83.633.633 0 0 1 .567-.345c.102 0 .2.024.29.07a6.52 6.52 0 0 1 3.567 5.838 6.516 6.516 0 0 1-3.558 5.834.632.632 0 0 1-.292.073z" class="si-glyph-fill"/><path d="M4.173 11.02c-.206 0-.4-.14-.49-.357-.142-.32-.033-.713.24-.88.558-.333.903-.997.903-1.73 0-.736-.347-1.4-.904-1.735-.272-.164-.382-.558-.244-.877.096-.22.284-.356.493-.356.09 0 .174.023.253.07.932.56 1.51 1.67 1.51 2.898 0 1.228-.578 2.338-1.51 2.896a.507.507 0 0 1-.25.07z" class="si-glyph-fill"/></g></svg>