<svg viewBox="0 0 17 16" xmlns="http://www.w3.org/2000/svg" class="si-glyph si-glyph-code"><title>815</title><g fill="#434343" fill-rule="evenodd"><path d="M11.74 11.993a.714.714 0 0 0 .493-.195l3.48-3.316c.27-.26.27-.68 0-.94l-3.48-3.317a.72.72 0 0 0-.984 0c-.272.26-.272.68 0 .938l2.986 2.85-2.987 2.848c-.272.26-.272.68 0 .94.135.128.313.193.49.193zM4.3 11.883a.727.727 0 0 1-.496-.19L.287 8.425a.62.62 0 0 1 0-.923l3.517-3.268a.74.74 0 0 1 .995 0 .624.624 0 0 1 0 .924L1.78 7.963l3.02 2.804a.626.626 0 0 1 0 .926.736.736 0 0 1-.5.19zM6.685 14.89a.672.672 0 0 0 .503-.51L9.934 1.884a.636.636 0 0 0-.488-.768.66.66 0 0 0-.77.514L5.93 14.126a.636.636 0 0 0 .755.764z" class="si-glyph-fill"/></g></svg>