<svg viewBox="0 0 17 17" xmlns="http://www.w3.org/2000/svg" class="si-glyph si-glyph-sheep"><title>724</title><path d="M12.696 5.46c-.07-.02-.165-.263-.368-.543l.007-.02c.88-.114 1.553-.67 1.553-1.343 0-.672-.672-1.23-1.553-1.343-.158-.64-.924-1.126-1.852-1.126-.626 0-1.178.224-1.52.566-.343-.343-.895-.566-1.52-.566-.93 0-1.693.487-1.85 1.127-.883.115-1.553.67-1.553 1.344 0 .673.67 1.23 1.552 1.343.006.025.02.047.027.072-.195.257-.3.47-.362.49-1.013.295-2.292.73-2.136 1.27.158.54 1.692.977 2.706.683.157-.047-.82 3.324-.82 5.098 0 3.313 1.774 4.49 3.967 4.49s3.97-1.177 3.97-4.49c0-1.772-.98-5.144-.82-5.097 1.013.294 2.59-.144 2.748-.683.158-.54-1.164-.975-2.177-1.27zM7 9h1v1H7V9zm3 6H8v-1h2v1zm1-5h-1V9h1v1z" fill="#434343" class="si-glyph-fill" fill-rule="evenodd"/></svg>