<svg viewBox="0 0 17 16" xmlns="http://www.w3.org/2000/svg" class="si-glyph si-glyph-two-arrow-in-left-right"><title>935</title><g fill="#434343" fill-rule="evenodd"><path d="M5.125 5.23a.664.664 0 0 0-.946 0 .68.68 0 0 0 0 .953L5.53 8.01H2c-.553 0-1 .445-1 .993s.447.992 1 .992h3.594L4.21 11.812a.673.673 0 0 0 .472 1.15.667.667 0 0 0 .475-.198l2.82-3.74L5.124 5.23zM12.82 5.23a.665.665 0 0 1 .948 0 .677.677 0 0 1 0 .953L12.44 8.01h3.53c.554 0 1 .445 1 .993a.995.995 0 0 1-1 .992H12.52l1.266 1.817a.675.675 0 0 1-.473 1.15.665.665 0 0 1-.473-.198L10 9.024l2.82-3.795z" class="si-glyph-fill"/></g></svg>