<svg viewBox="0 0 16 16" xmlns="http://www.w3.org/2000/svg" class="si-glyph si-glyph-leaf"><title>97</title><g fill="#434343" fill-rule="evenodd"><path d="M12.295 14.2a5.16 5.16 0 0 0 .38-.353c-1.988-.903-3.497-2-4.857-3.108-1.624-.005-3.298-.42-4.155-1.478 1.277.643 2.62.646 3.074.585-3.84-3.466-4.902-6.855-4.902-6.855 1.314 2.06 2.7 3.652 4.06 4.916-.57-1.088-.237-3.1-.237-3.1 1.107 3.898 1.237 3.96 1.164 3.994.9.73 1.875 1.414 2.687 1.937-.293-.68-.5-1.672-.473-3.37 0 0 .722 3.562 1.856 4.44.903.52 1.698.924 2.314 1.23.976-1.455.98-5.337-1.41-6.896C9.216 4.462 4.87 4.398.473.096-.84-1.19 1.604 10.132 5.144 13.29c2.176 1.944 5.008 2.7 7.15.91z" class="si-glyph-fill"/><path d="M11.266 14.064s1.18.613 2.534 1.21c1.354.6 2.003.478 2.08.626.077.15.038-1.642.038-1.642s-1.828.433-3.863-.696l-.79.502z" class="si-glyph-fill"/></g></svg>