<svg viewBox="0 0 17 16" xmlns="http://www.w3.org/2000/svg" class="si-glyph si-glyph-mobile"><title>1043</title><path d="M6.94 2.042V.047l-.894.01-.005 15.88h6.917V2.023l-6.018.02zm1.087 9.98H6.984v-1.054h1.043v1.053zm0-2h-1.06V8.983h1.06v1.037zm1.973 2H8.998v-1.07H10v1.07zm.016-2H8.998V8.967h1.018v1.053zm2 2h-1.042v-1.07h1.042v1.07zm-3.99 2H6.97v-1.054h1.06v1.053zm1.99 0H8.998v-1.07h1.018v1.07zm2.015 0h-1.088v-1.07h1.09v1.07zm0-4H10.96V8.95h1.073v1.07zm.032-2H6.954V3.95h5.108v4.07z" fill="#434343" class="si-glyph-fill" fill-rule="evenodd"/></svg>