<svg viewBox="0 0 17 16" xmlns="http://www.w3.org/2000/svg" class="si-glyph si-glyph-truck"><title>836</title><g fill="#434343" fill-rule="evenodd"><g transform="translate(4 3)" class="si-glyph-fill"><ellipse cx="1.438" cy="8.491" rx="1.438" ry="1.491" class="si-glyph-fill"/><ellipse cx="9.463" cy="8.48" rx="1.463" ry="1.48" class="si-glyph-fill"/><path d="M4.03.062v6.885h3.465c.47-.61 1.2-1.01 2.03-1.01.83 0 1.562.4 2.03 1.01h1.4V.062H4.03z" class="si-glyph-fill"/></g><path class="si-glyph-fill" d="M8 11h2.916v.875H8zM16 11h.98v1H16zM2.936 11.52a2.585 2.585 0 0 1 4.042-2.13V5.98c0-.527-.403-.954-.9-.954H2.945c-.5 0-1.056.846-1.056.846s-.84 1.505-.84 2.145v3.013c0 .542.395.943.9.943h1.032a2.614 2.614 0 0 1-.046-.452zM3 5.93l3.056.02-.022 2.112h-3.78c-.07-1.276.745-2.133.745-2.133z"/></g></svg>