<svg viewBox="0 0 17 16" xmlns="http://www.w3.org/2000/svg" class="si-glyph si-glyph-no-dog"><title>695</title><g fill="#434343" fill-rule="evenodd"><path d="M13.125 5.15l-.342-1.13-2.163 2.14 1.08 1.126 2.295.493.97-.713-1.84-1.918zM10.064 7.075H5.45c-.017 0-2.24-.952-2.575-1.096v.443l1.502 1.372c-.195.24-.332.503-.332.704v3.416l1.378.104v-1.207l1.878-.95h2.343l.47 2.054h.88V8.015l-.93-.94z" class="si-glyph-fill"/><path d="M9.01 15.958c-4.405 0-7.99-3.565-7.99-7.948C1.02 3.627 4.606.063 9.01.063S17 3.627 17 8.01s-3.585 7.948-7.99 7.948zM8.98 1.073c-3.903 0-7.078 3.135-7.078 6.99 0 3.853 3.175 6.988 7.077 6.988 3.9 0 7.076-3.135 7.076-6.988 0-3.854-3.175-6.99-7.077-6.99z" class="si-glyph-fill"/><path class="si-glyph-fill" d="M11.157 1.314l1.207.58-6.348 13.213-1.207-.58z"/></g></svg>