<svg viewBox="0 0 16 16" xmlns="http://www.w3.org/2000/svg" class="si-glyph si-glyph-bug"><title>84</title><path d="M16 9.984V9h-1.03L15 6.016h-2.252a5.35 5.35 0 0 0-1.28-1.683L11.027 4h1.957V1.985h.984v-.97h-1.954v.017H12v2.016h-1.406c-.067-.443-.303-.885-.61-1.215V0H9v1.224a2.795 2.795 0 0 0-1-.203c-.365 0-.7.088-1.016.21V0H6v1.854c-.305.32-.514.713-.59 1.146H3.985V1.03h-.016v-.015H2.015v.97H3v1.983H5.014l-.48.364A5.35 5.35 0 0 0 3.25 6.015H1.027V9H0v.984h1.984V7h.896a5.28 5.28 0 0 0-.173 1.32c0 .98.27 1.895.73 2.68l-2.41.026v3.016H.055V15H2v-3.03h2.194a5.27 5.27 0 0 0 2.793 1.553L8 5l1.03 8.52c1.08-.215 2.024-.772 2.76-1.535H14V15h1.97v-.984h-1V11h-2.407c.462-.785.73-1.7.73-2.68a5.66 5.66 0 0 0-.173-1.367h.896v3.03H16zM6 10.96H5v-1h1v1zm-1-3H4v-1h1v1zm7 0h-1v-1h1v1zm-2-3H9v-1h1v1zm-3.062 0h-1v-1h1v1zm4.062 6h-1v-1h1v1z" fill="#434343" class="si-glyph-fill" fill-rule="evenodd"/></svg>