<svg viewBox="0 0 16 16" xmlns="http://www.w3.org/2000/svg" class="si-glyph si-glyph-reduce"><title>143</title><g fill="#434343" fill-rule="evenodd"><path d="M2.33 9.083a.69.69 0 0 0-.69.69l1.59 1.594L.25 14.27a.98.98 0 0 0 0 1.39.984.984 0 0 0 1.39 0l2.977-2.9 1.58 1.584a.69.69 0 0 0 .686-.69v-3.88a.69.69 0 0 0-.687-.69H2.33zM4.573 3.257L1.786.21a.983.983 0 0 0-1.392 0 .944.944 0 0 0 0 1.356l2.786 3.08-1.56 1.553c0 .38.31.686.69.686h3.88c.382 0 .69-.307.69-.687V2.332a.686.686 0 0 0-.688-.688l-1.62 1.612zM14.342 9.78a.69.69 0 0 0-.69-.687H9.77c-.382 0-.69.307-.69.687v3.866c0 .38.31.688.69.688l1.594-1.587 2.968 2.976a.978.978 0 0 0 1.39 0 .983.983 0 0 0 0-1.39l-2.966-2.974 1.584-1.58zM11.36 3.235l-1.593-1.6a.69.69 0 0 0-.688.69v3.88c0 .38.308.69.687.69h3.867a.69.69 0 0 0 .687-.69l-1.57-1.578 2.96-3.073a.982.982 0 0 0 0-1.39C15.33-.22 14.707.047 14.32.43l-2.96 2.803z" class="si-glyph-fill"/></g></svg>