<svg viewBox="0 0 17 16" xmlns="http://www.w3.org/2000/svg" class="si-glyph si-glyph-elevator-up"><title>729</title><g fill="#434343" fill-rule="evenodd"><path d="M5.482 13.986H2.334C1.598 13.986 1 13.236 1 12.5s.598-1.44 1.334-1.44h2.143l8.04-6.043h3.15c.735 0 1.333.704 1.333 1.44s-.598 1.524-1.334 1.524h-2.184l-8 6.006z" class="si-glyph-fill"/><g transform="translate(5 1)"><ellipse cx="1.438" cy="1.479" rx="1.438" ry="1.479" class="si-glyph-fill"/><path d="M3.924 4.155a.327.327 0 0 0-.47-.045l-.89.77c-.2-.5-.676-.85-1.23-.85-.737 0-1.335.62-1.335 1.385V8l3.88-3.356a.36.36 0 0 0 .044-.49z" class="si-glyph-fill"/></g></g></svg>