<svg viewBox="0 0 17 16" xmlns="http://www.w3.org/2000/svg" class="si-glyph si-glyph-pin-location"><title>1060</title><g fill="#434343" fill-rule="evenodd"><path d="M8.47.02c-3.017 0-5.46 2.297-5.46 5.13 0 .733.165 1.43.457 2.058l5.002 8.668 5-8.668a4.84 4.84 0 0 0 .458-2.057c0-2.834-2.444-5.13-5.46-5.13zm.022 9.022c-1.957 0-3.542-1.596-3.542-3.567 0-1.97 1.585-3.565 3.542-3.565 1.954 0 3.54 1.597 3.54 3.565 0 1.97-1.586 3.567-3.54 3.567z" class="si-glyph-fill"/><path d="M10.98 5.504A2.485 2.485 0 0 1 8.5 7.996a2.485 2.485 0 0 1-2.477-2.492c0-1.373 1.11-2.49 2.477-2.49 1.37 0 2.48 1.117 2.48 2.49z" class="si-glyph-fill"/></g></svg>