<svg viewBox="0 0 17 17" xmlns="http://www.w3.org/2000/svg" class="si-glyph si-glyph-connect-2"><title>812</title><path d="M14.5 13.043c-.258 0-.498.07-.71.182l-3.26-3.27a2.48 2.48 0 0 0 .423-.987h1.133c.2.576.754.992 1.414.992.83 0 1.5-.652 1.5-1.458 0-.806-.67-1.458-1.5-1.458a1.49 1.49 0 0 0-1.426 1.03h-1.12a2.466 2.466 0 0 0-.38-.955l3.29-3.303c.193.09.407.143.636.143.83 0 1.5-.652 1.5-1.458 0-.806-.67-1.458-1.5-1.458-.828 0-1.498.652-1.498 1.458 0 .26.075.503.2.715l-3.257 3.27a2.482 2.482 0 0 0-.996-.42v-1.18C9.555 4.7 10 4.154 10 3.5c0-.806-.67-1.458-1.5-1.458-.828 0-1.498.652-1.498 1.458 0 .655.445 1.203 1.058 1.387v1.176c-.364.064-.7.205-.99.408l-3.26-3.27c.117-.21.19-.446.19-.7 0-.807-.67-1.46-1.5-1.46-.828 0-1.498.653-1.498 1.46 0 .805.67 1.457 1.498 1.457.234 0 .455-.056.652-.15L6.437 7.11c-.196.285-.33.613-.393.967H4.926A1.49 1.49 0 0 0 3.5 7.045c-.83 0-1.5.653-1.5 1.46 0 .805.67 1.457 1.5 1.457.66 0 1.214-.416 1.413-.992h1.133c.068.37.22.707.434 1l-3.254 3.266a1.518 1.518 0 0 0-.727-.19c-.83 0-1.5.653-1.5 1.46 0 .805.67 1.457 1.5 1.457.828 0 1.5-.652 1.5-1.458 0-.226-.058-.437-.15-.626l3.274-3.29c.277.184.594.31.935.37v1.158c-.613.184-1.06.73-1.06 1.387 0 .806.67 1.458 1.5 1.458.828 0 1.5-.652 1.5-1.458 0-.652-.444-1.198-1.052-1.384V10.96c.344-.062.663-.19.942-.377l3.27 3.282c-.1.194-.16.41-.16.643 0 .806.67 1.458 1.5 1.458.828 0 1.5-.652 1.5-1.458 0-.806-.67-1.462-1.5-1.462z" fill="#434343" class="si-glyph-fill" fill-rule="evenodd"/></svg>