<svg viewBox="0 0 17 16" xmlns="http://www.w3.org/2000/svg" class="si-glyph si-glyph-female"><title>965</title><path d="M9.982 9.965c2.243-.47 3.934-2.48 3.934-4.883 0-2.75-2.215-4.988-4.938-4.988-2.72 0-4.936 2.237-4.936 4.988 0 2.412 1.704 4.43 3.96 4.888v2.073H5.06v1.925h2.94v2h1.98v-2h2.892v-1.925H9.98V9.965h.002zm-4.048-5.01C5.934 3.187 7.3 1.75 8.98 1.75c1.68 0 3.044 1.438 3.044 3.205 0 1.767-1.365 3.203-3.045 3.203S5.933 6.722 5.933 4.955z" fill="#434343" class="si-glyph-fill" fill-rule="evenodd"/></svg>