<svg viewBox="0 0 17 16" xmlns="http://www.w3.org/2000/svg" class="si-glyph si-glyph-corkscrew"><title>1041</title><g fill="#434343" fill-rule="evenodd"><path d="M13.107.038H5.86c-.474 0-.86.41-.86.915v.085c0 .504.387.915.86.915h7.247c.476 0 .86-.41.86-.915V.953c0-.505-.384-.915-.86-.915zM10.987 8.496c.012-.146-1.02-1.31-1.02-1.31l-.026-4.23h2.013V2h-4.91v.955h2.014v1.528S8.042 5.37 8.04 5.507c-.005.137.98 1.326.98 1.326v4.338s-.95 1.216-.952 1.375c0 .16.957 1.33.957 1.33l.012 1.624c0 .276.215.5.48.5.268 0 .45-.192.45-.47V9.894c0 .002 1.01-1.25 1.02-1.398z" class="si-glyph-fill"/></g></svg>