<svg viewBox="0 0 17 16" xmlns="http://www.w3.org/2000/svg" class="si-glyph si-glyph-inbox-upload"><title>843</title><g fill="#434343" fill-rule="evenodd"><path d="M11.768 2.757L9.578.244a.81.81 0 0 0-1.142 0l-2.19 2.513c-.314.315-.362.876-.048 1.19H8V5.87c0 .558.434 1.01.97 1.01.534 0 .968-.452.968-1.01V3.946h1.78c.316-.315.365-.875.05-1.19z" class="si-glyph-fill"/><path d="M14.993 1.006h-3.29l.89.975h1.584l1.363 7.03H2.505l1.407-7.03h1.682l.766-.974H3.073L1.013 9.76v4.17c0 1.335.472 2.03 1.804 2.03h12.28c1.246 0 1.885-.528 1.885-2.112V9.76l-1.99-8.754zM11.016 11h-4.03V9.97h4.03V11z" class="si-glyph-fill"/></g></svg>