<svg viewBox="0 0 16 16" xmlns="http://www.w3.org/2000/svg" class="si-glyph si-glyph-basket-remove"><title>627</title><g fill="#434343" fill-rule="evenodd"><path class="si-glyph-fill" d="M11 13h4.953v1H11z"/><path d="M14.244 5.084h-1.928L11.28 1.447a.614.614 0 0 0-.837-.286l-.07.037a.657.657 0 0 0-.29.863l.74 3.023H4.17l.768-3.02a.658.658 0 0 0-.28-.864l-.07-.037a.616.616 0 0 0-.843.277L2.672 5.083H.782c-.4 0-.725.302-.725.672 0 0 .324 1.22.725 1.22h.636l.45 6.677s.05 1.31 2.112 1.31h5.99v-2.068a.65.65 0 0 1-.054-.255V8.482c0-.338.243-.61.545-.61h.022c.3 0 .546.272.546.61v3.486h2.177l.273-4.994h.766c.4 0 .725-1.22.725-1.22 0-.37-.325-.672-.726-.672zM3.03 7.03H1.97V5.97h1.06v1.06zm2.032 5.712c0 .35-.25.633-.56.633H4.48c-.31 0-.56-.283-.56-.633v-4.33c0-.35.25-.63.56-.63h.023c.308 0 .56.28.56.63v4.33zm3-.195c0 .334-.245.605-.545.605h-.022c-.302 0-.545-.27-.545-.605v-4.1c0-.333.243-.603.545-.603h.022c.3 0 .544.27.544.604v4.1zm4.97-5.485h-1.095V5.968h1.094v1.094z" class="si-glyph-fill"/></g></svg>