<svg viewBox="0 0 17 16" xmlns="http://www.w3.org/2000/svg" class="si-glyph si-glyph-tag-one-plus"><title>1073</title><g fill="#434343" fill-rule="evenodd"><path d="M13.613 1.047L9.11 1.05 1.333 8.82a1.14 1.14 0 0 0 0 1.607l5.244 5.242c.44.442 1.16.442 1.605 0L15.97 7.96l.002-4.534-2.357-2.38zm-8.63 7.967L6.008 7.99l-.94-.934.972-.968.938.938 1.025-1.02.988.984-1.023 1.02.94.938-.973.967-.938-.937-1.024 1.02-.988-.984zm2.138 4.543l-.788-.788 4.243-4.244-.727-.725.786-.787 1.514 1.514-5.027 5.03zM15.942.36h.984v1.796h-.984z" class="si-glyph-fill"/></g></svg>