<svg viewBox="0 0 16 16" xmlns="http://www.w3.org/2000/svg" class="si-glyph si-glyph-solar-blind"><title>162</title><g fill="#434343" fill-rule="evenodd"><g transform="translate(3)"><path d="M11.502 12.02c-.25 0-.453-.16-.453-.36V1.04c0-.198.202-.36.452-.36s.454.162.454.36v10.62c0 .198-.204.36-.454.36z" class="si-glyph-fill"/><ellipse cx="11.45" cy="13.017" rx="1.45" ry="2.017" class="si-glyph-fill"/><path d="M.906 9.664C.656 9.72.04 9.69.04 9.572V.442c0-.157 1.014-.157 1.014 0l-.14 9.13c0 .04.08.072-.008.092zM7 9.52V.284C7 .127 8.024.292 8.024.45v9.235C8.024 9.842 7 9.677 7 9.52z" class="si-glyph-fill"/></g><path class="si-glyph-fill" d="M0 0h16v1.97H0zM1 3h12v1.02H1zM1 5h12v1.02H1zM1 7v.954h12V7H1zM1 9h12v1.993H1z"/></g></svg>