<svg viewBox="0 0 17 16" xmlns="http://www.w3.org/2000/svg" class="si-glyph si-glyph-lavabo"><title>784</title><g fill="#434343" fill-rule="evenodd"><path d="M13.97 5.02H4.03c0 1.644 2.49 3.647 4.867 3.894l-.85 5.697c0 .74.55 1.387 1.287 1.387h3.3c.737 0 1.335-.598 1.335-1.336V5.02z" class="si-glyph-fill"/><path d="M12.062 5.027V1.523c0-.396-.22-.537-.607-.537h-1.09l-.412.967-.91-.284.652-1.33a.487.487 0 0 1 .448-.295h1.5c.788 0 1.298.46 1.298 1.168v3.814h-.878z" class="si-glyph-fill"/><path class="si-glyph-fill" d="M11 3h1.223v.937H11z"/></g></svg>