<svg viewBox="0 0 17 16" xmlns="http://www.w3.org/2000/svg" class="si-glyph si-glyph-mask-1"><title>1064</title><path d="M14.435 4.102c-1.33-.415-3.647 1.14-5.44 1.14-1.8 0-4.126-1.553-5.46-1.134-1.924.605-2.502-.597-2.502.48 0 0-.193 6.048 3.346 6.886 2 .286 3.444 1.495 4.616 1.495 1.192 0 2.19-1.08 4.667-1.506 3.214-.44 3.298-6.876 3.298-6.876 0-1.082-.59.118-2.525-.486zM12.83 8.525c-.854.295-1.686.34-2.256.165-.354-.108-.615.073-.806.148-.19.075-.19-1.3.6-1.952.39-.325.552-.427 1.192-.648 1.385-.477 3.386.254 3.386.254s-.734 1.557-2.116 2.033zM3.017 6.492s2-.73 3.386-.254c.642.222.805.323 1.193.648.79.652.79 2.027.6 1.952-.19-.075-.452-.257-.805-.148-.57.174-1.402.13-2.257-.165C3.75 8.05 3.017 6.492 3.017 6.492z" fill="#434343" class="si-glyph-fill" fill-rule="evenodd"/></svg>