<svg viewBox="0 0 16 16" xmlns="http://www.w3.org/2000/svg" class="si-glyph si-glyph-basket-plus"><title>625</title><g fill="#434343" fill-rule="evenodd"><path d="M9.927 12.918a.648.648 0 0 1-.067-.28V8.484c0-.338.286-.576.588-.576h.02c.302 0 .595.238.595.576v3.46h.902v-1.96h1.293l.164-3.007h.766c.4 0 .725-1.22.725-1.22 0-.37-.324-.672-.725-.672H12.26l-1.035-3.637a.614.614 0 0 0-.838-.286l-.072.037a.658.658 0 0 0-.288.863l.74 3.023H4.115l.768-3.02a.658.658 0 0 0-.28-.864l-.07-.037a.616.616 0 0 0-.843.277L2.615 5.083H.726c-.4 0-.725.302-.725.672 0 0 .325 1.22.726 1.22h.636l.45 6.677s.05 1.31 2.112 1.31h6.004v-2.044zM11.97 6h1.06v1.062h-1.06V6zM3.093 7.03H1.912V5.907h1.182V7.03zm1.912 5.712c0 .35-.25.633-.56.633h-.022c-.31 0-.56-.283-.56-.633v-4.33c0-.35.25-.63.56-.63h.023c.308 0 .56.28.56.63v4.33zm2.998-.195c0 .334-.23.605-.514.605h-.02c-.285 0-.515-.27-.515-.605v-4.1c0-.333.23-.603.514-.603h.02c.283 0 .514.27.514.604v4.1z" class="si-glyph-fill"/><path d="M16 13.012h-2.008v-1.906h-.937v1.906h-2.003v.894h2.003v2.032h.937v-2.032H16v-.894z" class="si-glyph-fill"/></g></svg>