<svg viewBox="0 0 17 16" xmlns="http://www.w3.org/2000/svg" class="si-glyph si-glyph-column-decrease"><title>803</title><g fill="#434343" fill-rule="evenodd"><path d="M1 14.977c0 .537.275.974.615.974h13.77c.34 0 .615-.436.615-.973 0-.54-.275-.976-.615-.976H1.615c-.34 0-.615.438-.615.977zM12.053 12.258c0 .377.365.686.816.686h1.222c.45 0 .815-.31.815-.686v-3.44c0-.378-.364-.686-.815-.686H12.87c-.452 0-.817.308-.817.686v3.44zM7.09 12.26c0 .377.364.684.814.684h1.224c.45 0 .815-.307.815-.685V7.78c0-.38-.365-.686-.815-.686H7.904c-.45 0-.815.307-.815.685v4.48zM2.062 12.232c0 .375.367.68.824.68h1.236c.456 0 .824-.305.824-.68V5.727c0-.375-.368-.68-.824-.68H2.886c-.457 0-.824.305-.824.68v6.505zM15.266 6.92c.38 0 .69-.296.705-.672a.698.698 0 0 0-.68-.72C10.284 5.353 5.52 3.425 2.214.237a.715.715 0 0 0-1 .012.69.69 0 0 0 .01.985C4.833 4.71 9.81 6.73 15.24 6.92h.026z" class="si-glyph-fill"/></g></svg>