<svg viewBox="0 0 17 16" xmlns="http://www.w3.org/2000/svg" class="si-glyph si-glyph-square-four"><title>1195</title><g fill="#434343" fill-rule="evenodd"><path d="M8 4.77c0 1.186-.976 2.147-2.182 2.147H3.18C1.978 6.917 1 5.955 1 4.77V2.232C1 1.046 1.978.085 3.18.085H5.82C7.024.085 8 1.047 8 2.233V4.77zM8 13.818A2.18 2.18 0 0 1 5.818 16H3.18A2.18 2.18 0 0 1 1 13.818V11.18A2.18 2.18 0 0 1 3.18 9H5.82A2.18 2.18 0 0 1 8 11.18v2.638zM17 4.77c0 1.186-.976 2.147-2.182 2.147H12.18c-1.203 0-2.18-.962-2.18-2.148V2.232c0-1.187.977-2.148 2.18-2.148h2.638C16.024.085 17 1.047 17 2.233V4.77zM17 13.818A2.18 2.18 0 0 1 14.818 16H12.18A2.18 2.18 0 0 1 10 13.818V11.18A2.18 2.18 0 0 1 12.18 9h2.638A2.18 2.18 0 0 1 17 11.18v2.638z" class="si-glyph-fill"/></g></svg>