<svg viewBox="0 0 16 16" xmlns="http://www.w3.org/2000/svg" class="si-glyph si-glyph-strawberry"><title>161</title><g fill="#434343" fill-rule="evenodd"><path d="M8.367 2.084c.055-.154.58-.76.58-1.167C8.947.51 8.727 0 8.05 0c-.683 0-.983.51-.983.948 0 .396.525.97.582 1.114-7.26 0-5.433 5.92-5.433 5.92s2.03-3.883 3.84-4.238c-.002.096-.006.19-.006.287 0 2.735 1.997 4.952 1.997 4.952s1.81-2.217 1.81-4.95c0-.104-.005-.204-.007-.306 2.023.33 3.902 4.305 3.902 4.305s1.957-5.946-5.385-5.946z" class="si-glyph-fill"/><path d="M10.873 5.608c0 2.392-2.838 4.798-2.838 4.798S5.14 7.98 5.14 5.558c-1.193.947-2.016 2.833-2.59 3.588 0 0 2.303 6.854 5.477 6.854 3.174 0 5.446-6.73 5.446-6.73-.455-.6-1.317-2.616-2.6-3.662z" class="si-glyph-fill"/></g></svg>