<svg viewBox="0 0 17 16" xmlns="http://www.w3.org/2000/svg" class="si-glyph si-glyph-drum"><title>810</title><g transform="translate(1)" fill="#434343" fill-rule="evenodd"><path d="M14.97 5.984c0 .51-.31.922-.688.922H.75c-.38 0-.688-.413-.688-.922 0-.508.308-.922.687-.922H14.28c.38 0 .687.415.687.922zM14.97 14.984c0 .51-.31.922-.688.922H.75c-.38 0-.688-.413-.688-.922 0-.508.308-.922.687-.922H14.28c.38 0 .687.415.687.922zM12.973 8.062H1.996a.997.997 0 0 0-.996 1v2.844c0 .553.445 1 .996 1h10.977c.55 0 .996-.447.996-1V9.062c0-.552-.447-1-.997-1z" class="si-glyph-fill"/><ellipse cx="5.439" cy="2.459" rx="1.439" ry="1.459" class="si-glyph-fill"/><ellipse cx="9.439" cy="2.459" rx="1.439" ry="1.459" class="si-glyph-fill"/><path d="M5.528 2.957a.49.49 0 0 1-.194-.04L1.25.79C1.034.694.943.457 1.053.262c.106-.195.37-.277.587-.18l4.084 2.126c.218.096.307.333.2.528a.45.45 0 0 1-.396.22zM9.446 2.957a.49.49 0 0 0 .194-.04L13.723.79c.218-.096.308-.333.2-.528-.108-.195-.37-.277-.588-.18L9.25 2.208c-.218.096-.307.333-.2.528.08.14.233.22.396.22z" class="si-glyph-fill"/></g></svg>