<svg viewBox="0 0 17 16" xmlns="http://www.w3.org/2000/svg" class="si-glyph si-glyph-bone"><title>1042</title><path d="M3.32 13.61s.063 1.264.65 1.852c.684.683 1.78.694 2.452.024.954-.954 1.084-2.273.97-3.367l5.766-5.766c1.087.11 2.404-.027 3.375-.998.662-.662.647-1.752-.034-2.434-.59-.588-1.787-.577-1.787-.577s-.038-1.246-.63-1.84c-.687-.687-1.79-.702-2.458-.032-.97.97-1.085 2.322-.958 3.43L4.94 9.63c-1.092-.108-2.417.027-3.396 1.005-.664.663-.65 1.75.025 2.427.586.584 1.75.548 1.75.548z" fill="#434343" class="si-glyph-fill" fill-rule="evenodd"/></svg>