<svg viewBox="0 0 17 16" xmlns="http://www.w3.org/2000/svg" class="si-glyph si-glyph-baseball-stick"><title>879</title><path d="M3.29 15.114l-.274-.277c3.4-4.055 6.998-5.63 9.898-8.164 2.95-2.58 3.102-2.885 3.45-3.234.822-.823.87-2.106.11-2.868-.764-.763-2.048-.715-2.87.107-.35.347-.655.5-3.233 3.45-2.534 2.9-4.456 6.484-8.184 9.88l-.276-.277c-.136-.136-.43-.06-.66.17-.23.228-.305.522-.168.66l1.382 1.38c.136.137.43.06.66-.168.228-.23.305-.524.167-.66z" fill="#434343" class="si-glyph-fill" fill-rule="evenodd"/></svg>