<svg viewBox="0 0 17 16" xmlns="http://www.w3.org/2000/svg" class="si-glyph si-glyph-cabinet"><title>1075</title><g fill="none" fill-rule="evenodd"><path d="M4 15.02h10V8.96H4v6.06zm1.042-4.98h7.938v3.918H5.042V10.04z"/><path d="M13.72.04H4.24C3.547.04 3 .516 3 1.216v13.605C3 15.436 3.533 16 4.24 16h9.48c.843 0 1.24-.548 1.24-1.178V1.217c0-.7-.57-1.178-1.24-1.178zM14 15.02H4V8.96h10v6.06zm0-8H4V.96h10v6.06z" fill="#434343" class="si-glyph-fill"/><path d="M10.042 10.04v1H7.938v-1H5.042v3.918h7.937V10.04H10.04zM10.042 3H7.958v-.958H5V6h8V2.042h-2.958V3z" fill="#434343" class="si-glyph-fill"/></g></svg>