<svg viewBox="0 0 17 16" xmlns="http://www.w3.org/2000/svg" class="si-glyph si-glyph-disc-remove"><title>906</title><g fill="#434343" fill-rule="evenodd"><path class="si-glyph-fill" d="M13 14h3.938v1.97H13z"/><path d="M16.958 7.97c0-4.414-3.573-7.907-7.98-7.907C4.574.063 1 3.556 1 7.97c0 4.41 3.572 7.988 7.98 7.988a7.88 7.88 0 0 0 2.99-.6v-2.403h3.315c.94-1.32 1.673-3.255 1.673-4.986zM4.633 13.192l-.868-.87 1.518-1.517.868.87-1.517 1.517zM9 11.125c-1.72 0-3.115-1.406-3.115-3.14C5.885 6.25 7.28 4.843 9 4.843c1.72 0 3.115 1.406 3.115 3.142 0 1.734-1.396 3.14-3.115 3.14zm3.612-5.848l-.87-.87 1.52-1.517.868.87-1.518 1.517z" class="si-glyph-fill"/><path d="M8.988 6.022a1.977 1.977 0 0 0 0 3.953c1.09 0 1.98-.884 1.98-1.976a1.98 1.98 0 0 0-1.98-1.978z" class="si-glyph-fill"/></g></svg>