<svg viewBox="0 0 17 16" xmlns="http://www.w3.org/2000/svg" class="si-glyph si-glyph-arrow-fullscreen"><title>1112</title><g fill="#434343" fill-rule="evenodd"><path d="M16.196.083H12.33a.69.69 0 0 0-.69.69l1.59 1.594-1.918 1.917a.98.98 0 0 0 0 1.39.984.984 0 0 0 1.39 0l1.915-1.915 1.58 1.584a.69.69 0 0 0 .686-.69V.774a.69.69 0 0 0-.687-.69zM16.192 10.645l-1.62 1.612-1.95-1.952a.983.983 0 0 0-1.393 1.39l1.95 1.95-1.56 1.554c0 .38.31.686.69.686h3.88c.382 0 .69-.307.69-.687v-3.867a.686.686 0 0 0-.688-.688zM4.758 2.36L6.342.78a.69.69 0 0 0-.69-.687H1.77c-.382 0-.69.307-.69.687v3.866c0 .38.31.688.69.688l1.594-1.587 1.97 1.968a.978.978 0 0 0 1.39 0 .983.983 0 0 0-.002-1.39L4.758 2.36zM5.95 9.645l-2.59 2.59-1.593-1.6a.69.69 0 0 0-.688.69v3.88c0 .38.308.69.687.69h3.867a.69.69 0 0 0 .687-.69l-1.57-1.578 2.592-2.592a.982.982 0 0 0-1.39-1.39z" class="si-glyph-fill"/></g></svg>