<svg viewBox="0 0 16 16" xmlns="http://www.w3.org/2000/svg" class="si-glyph si-glyph-trolley-full"><title>Trolley-full</title><g transform="translate(0 2)" fill="#434343" fill-rule="evenodd"><path d="M5.8 9L3.45 0H.003l.025.938h2.438L5.065 10H15.97V9H5.8z" class="si-glyph-fill"/><path class="si-glyph-fill" d="M7 6h1.958v1.955H7zM10 6h1.953v2H10zM10 3h1.938v1.9H10zM10 0h1.953v1.94H10zM13 6h1.953v1.906H13zM13 3h1.938v1.9H13zM13 0h1.953v1.94H13zM7 3h1.938v1.9H7zM7 0h1.953v1.94H7z"/><ellipse cx="7.494" cy="10.471" rx="1.494" ry="1.471" class="si-glyph-fill"/><circle cx="13.487" cy="10.487" r="1.487" class="si-glyph-fill"/></g></svg>