<svg viewBox="0 0 17 17" xmlns="http://www.w3.org/2000/svg" class="si-glyph si-glyph-bicycle-man"><title>1102</title><g transform="translate(1 2)" fill="#434343" fill-rule="evenodd"><path d="M8.5 12.97c-.36-.003-.495-.29-.494-.654l.015-2.784L5.154 6.44a.667.667 0 0 1 .12-.925l3.563-2.933a.644.644 0 0 1 .91.12L11.29 4.51l2.29 1.097c.334.13.503.51.376.852a.647.647 0 0 1-.84.383l-2.46-1.163a.65.65 0 0 1-.285-.215l-1.26-1.43L6.688 6.16l2.19 2.538c.087.116.09.214.09.36l.018 3.254c0 .364-.126.658-.485.657z" class="si-glyph-fill"/><path d="M12.98 7.982c-1.645 0-2.977 1.344-2.977 3 0 1.658 1.332 3.002 2.977 3.002 1.645 0 2.978-1.344 2.978-3 0-1.658-1.333-3.002-2.978-3.002zm-.005 5.064a2.066 2.066 0 0 1-2.072-2.062c0-1.14.928-2.062 2.072-2.062 1.14 0 2.07.923 2.07 2.062 0 1.14-.93 2.062-2.07 2.062zM2.99 8.023a2.97 2.97 0 0 0 0 5.942 2.97 2.97 0 0 0 0-5.942zm0 5.04a2.068 2.068 0 0 1 0-4.138 2.07 2.07 0 0 1 0 4.138z" class="si-glyph-fill"/><ellipse cx="11.469" cy="1.486" rx="1.469" ry="1.486" class="si-glyph-fill"/></g></svg>