<svg viewBox="0 0 17 16" xmlns="http://www.w3.org/2000/svg" class="si-glyph si-glyph-microscope"><title>705</title><g fill="#434343" fill-rule="evenodd"><path d="M11.425 3.096l.408-1-.43-.177.613-1.51-.883-.358-.615 1.507-.396-.163-2.032 4.99 1.71.695 1.122-2.754c1.35.623 2.29 1.692 2.618 3.013.55 2.21-.786 4.52-3.085 5.685H3.862c-.502 0-.908.348-.908.777l-.906 1.38c0 .43.405.776.906.776h9.072c.502 0 .908-.348.908-.777v-1.378c0-.246-.142-.456-.35-.598 1.854-1.58 2.792-3.914 2.228-6.18-.427-1.712-1.67-3.137-3.387-3.928z" class="si-glyph-fill"/><path d="M8.223 6.76l1.748.71-.237.584-1.747-.712z"/></g></svg>