<svg viewBox="0 0 17 16" xmlns="http://www.w3.org/2000/svg" class="si-glyph si-glyph-louder-2"><title>932</title><g transform="translate(4)" fill="#434343" fill-rule="evenodd"><ellipse cx="4.962" cy="10.954" rx="1.962" ry="1.954" class="si-glyph-fill"/><path d="M8.547.014H1.465C.675.014.03.612.03 1.35v13.296c0 .737.645 1.337 1.435 1.337h7.082c.79 0 1.433-.6 1.433-1.337V1.35C9.98.61 9.336.015 8.547.015zm-3.56 1.934c1.143 0 2.065.927 2.065 2.07a2.066 2.066 0 0 1-4.13 0c0-1.143.925-2.07 2.064-2.07zM4.99 14.03A3.038 3.038 0 0 1 1.945 11a3.038 3.038 0 0 1 3.047-3.03 3.04 3.04 0 0 1 3.047 3.03A3.04 3.04 0 0 1 4.99 14.03z" class="si-glyph-fill"/><ellipse cx="4.991" cy="3.978" rx=".991" ry=".978" class="si-glyph-fill"/></g></svg>