<svg viewBox="0 0 17 16" xmlns="http://www.w3.org/2000/svg" class="si-glyph si-glyph-cabin-cable"><title>707</title><g fill="#434343" fill-rule="evenodd"><path d="M9.283 7H9V2H7.024v5h-.35c-1.47 0-4.66 1.147-4.66 2.563v4.428c0 1.416 1.192 2.01 2.663 2.01h6.603c1.472 0 2.663-.594 2.663-2.01V9.564c0-1.416-3.19-2.563-4.66-2.563zM5.03 12.046H2.95v-1.703C2.95 9.958 3.406 9 4.46 9h.57v3.046zm5.016 2.286c0 .37-.294.67-.656.67H6.602c-.36 0-.655-.3-.655-.67v-4.76c0-.368.294-.572.655-.572H9.39c.362 0 .656.204.656.573v4.76zm2.995-2.286h-2.1V9h.576c1.146 0 1.524.972 1.524 1.354v1.692z" class="si-glyph-fill"/><path d="M1.682 4.93c-.367 0-.666-.273-.666-.612 0-.34.3-.613.666-.613 5.575 0 11.077-.985 14.358-2.573.327-.158.728-.042.9.258.17.3.044.67-.28.827C13.2 3.89 7.46 4.93 1.68 4.93z" class="si-glyph-fill"/></g></svg>