<svg viewBox="0 0 17 16" xmlns="http://www.w3.org/2000/svg" class="si-glyph si-glyph-battery-half"><title>1167</title><g fill="#434343" fill-rule="evenodd"><path d="M7 13.448c0 .28.272.51.53.51h3.91c.256 0 .56-.228.56-.51v-8.38L7 8.282v5.168z" class="si-glyph-fill"/><path d="M12.252 1H11V.016H8.023V1H6.715C5.78 1 5.02 1.575 5.02 2.5v11.825c0 .924.76 1.675 1.695 1.675h5.536c.937 0 1.695-.75 1.695-1.675V2.5c0-.925-.757-1.5-1.693-1.5zM13 14c0 .516-.484 1-1 1H7c-.515 0-1-.484-1-1V3c0-.514.485-1.05 1-1.05h5c.516 0 1 .535 1 1.05v11z" class="si-glyph-fill"/></g></svg>