<svg viewBox="0 0 16 17" xmlns="http://www.w3.org/2000/svg" class="si-glyph si-glyph-signal-1"><title>Signal-1</title><path d="M8.5 13.984a.5.5 0 0 1-.48-.358L6.648 8.984H4.993a.5.5 0 0 1-.486-.383L3.53 4.55 2.484 8.61A.5.5 0 0 1 2 8.983H0V8.03h1.61l1.452-5.624a.5.5 0 0 1 .484-.375h.004a.5.5 0 0 1 .482.384L5.384 8.03H7.02a.5.5 0 0 1 .478.36l1.005 3.345 1.02-3.348a.5.5 0 0 1 .48-.356h.686l1.346-2.735a.5.5 0 0 1 .445-.28h.005c.188 0 .36.105.444.272l1.41 2.744h1.63v.954h-1.937a.496.496 0 0 1-.444-.27L12.493 6.58l-1.047 2.123a.497.497 0 0 1-.447.28h-.626l-1.396 4.643a.497.497 0 0 1-.478.356z" fill="#434343" class="si-glyph-fill" fill-rule="evenodd"/></svg>