<svg viewBox="0 0 16 16" xmlns="http://www.w3.org/2000/svg" class="si-glyph si-glyph-spoon-fork"><title>85</title><g fill="#434343" fill-rule="evenodd"><path d="M6.978 4.072c0-1.846-1.173-4.01-2.48-4.01-1.31 0-2.483 2.164-2.483 4.01 0 1.598 1.053 2.314 2.166 2.644 0 0 .28 4.538-.663 8.044-.2.748.588 1.256 1.026 1.256.43 0 1.212-.496 1.015-1.23-.94-3.55-.714-8.04-.714-8.04C5.91 6.37 6.978 5.625 6.978 4.07zM10.814 6.605c1.074-.413 2.123-.64 2.123-2.506 0-1.01-.523-3.346-.906-4.034v3.988h-1.046v-4h-.97v4h-1.06V.066c-.388.698-.93 3.007-.93 4.02 0 1.846 1.08 2.09 2.147 2.505.042 1.28.098 5.235-.67 8.132-.197.747.58 1.255 1.01 1.255.425 0 1.192-.496 1-1.23-.755-2.88-.747-6.78-.718-8.14h.022v-.002z" class="si-glyph-fill"/></g></svg>