<svg viewBox="0 0 16 16" xmlns="http://www.w3.org/2000/svg" class="si-glyph si-glyph-database-upload"><title>626</title><g fill="#434343" fill-rule="evenodd"><g transform="translate(2 1)"><ellipse cx="6.43" cy="2.421" rx="6.43" ry="2.421" class="si-glyph-fill"/><path d="M6.48 5.988C2.962 5.988.03 4.986.03 4.314V7.66c0 1.214 2.887 2.196 6.447 2.196s6.446-.982 6.446-2.196V4.314c0 .672-2.932 1.674-6.447 1.674z" class="si-glyph-fill"/></g><path d="M11.953 15.03H9.906l2.705-3.487c-1.13.276-2.586.475-4.163.475-3.516 0-6.447-.98-6.447-1.636v3.27c0 1.187 2.887 2.145 6.447 2.145 1.32 0 2.484-.133 3.506-.36v-.406z" class="si-glyph-fill"/><path d="M13.018 15.97v-1.99h-1.002l1.492-1.964 1.476 1.965h-1.017v1.99h-.95z" class="si-glyph-fill"/></g></svg>