<svg viewBox="0 0 17 16" xmlns="http://www.w3.org/2000/svg" class="si-glyph si-glyph-pill"><title>814</title><path d="M15.897 1.73l-.656-.656C13.888-.28 11.746-.34 10.46.944L1.957 9.446C.673 10.73.733 12.87 2.09 14.228l.654.654c1.357 1.357 3.498 1.418 4.783.134L16.03 6.51c1.284-1.28 1.224-3.422-.133-4.78zm-4.81 8.434L6.84 5.917l4.21-4.208c.944-.945 2.53-.9 3.534.106l.604.6c.49.494.77 1.136.787 1.81a2.33 2.33 0 0 1-.68 1.73l-4.21 4.208z" fill="#434343" class="si-glyph-fill" fill-rule="evenodd"/></svg>