<svg viewBox="0 0 16 16" xmlns="http://www.w3.org/2000/svg" class="si-glyph si-glyph-man-doctor"><title>599</title><g fill="#434343" fill-rule="evenodd"><path d="M11.957 4.12c0-2.456-1.7-4.058-3.492-4.058-1.794 0-3.457 1.586-3.457 4.06.006 1.657 1.56 4.798 3.475 4.798 1.913 0 3.464-3.14 3.474-4.8zM13.5 11.04a2.463 2.463 0 0 0-2.465 2.46 2.463 2.463 0 0 0 4.926 0 2.462 2.462 0 0 0-2.46-2.46zm.535 2.982V15h-1.053v-.978h-1.028V12.99h1.028v-1.027h1.053v1.026h.99v1.032h-.99zM9.398 13.002c0-1.24.545-2.354 1.406-3.11.46-.405.434-.37.032-.174-1.158.562-2.726.726-2.726.726s-2.908-.287-3.765-1.44C.24 9.005.115 14.97.115 14.97h9.776A4.16 4.16 0 0 1 9.4 13z" class="si-glyph-fill"/></g></svg>