<svg viewBox="0 0 17 16" xmlns="http://www.w3.org/2000/svg" class="si-glyph si-glyph-close"><title>1177</title><g fill="#434343" fill-rule="evenodd"><path d="M2.053 10.938v-.906h.895v.906h-.895zM1.048 9.932V7.037h.905v2.895h-.905zm1.005-2.994v-.906h.895v.906h-.895zM8.02 10.98V10H9v.98h-.98zm1.017-1.04V7.038h.905V9.94h-.905zm-1.978 0V7.038h.872V9.94H7.06zM8 6.974V6h.95v.973H8zM4.06 10.93V6.06h.882v3.988h1.03v.884H4.06zM15.058 10.947V6.042h1.9v.905h-1.04V8.1h1.06v.847H15.94v1.106h1.018v.894h-1.9zM11.08 10.916v-.832h1.862v.832H11.08zm1.927-.97v-.92h.936v.92h-.936zm-.976-.982V8.02h.933v.944h-.932zm-.993-1.006v-.932h.926v.932h-.926zm1.042-1.042v-.848h1.862v.848H12.08z" class="si-glyph-fill"/></g></svg>