<svg viewBox="0 0 17 16" xmlns="http://www.w3.org/2000/svg" class="si-glyph si-glyph-baby-troller"><title>678</title><path d="M16.954.007c-1.043 0-1.792.36-1.89 1.28L15 3.527c-.812-.96-2.083-1.787-3.346-2.24-.47-.17-1.607-.46-1.607.147V5.29c0 .382-.21.755-.594.755h-7.69c-.495 0-.72.548-.72 1.243 0 1.45.795 2.752 3.49 3.342l1.475 2.41H4.736a1.926 1.926 0 0 0-1.69-1.014C1.98 12.026 1 12.892 1 13.96c0 1.067.98 2.038 2.046 2.038 1.06 0 1.92-.96 1.93-2.02h6.046c.002 1.082.88 2.022 1.962 2.022C14.066 16 15 15.057 15 13.973c0-1.083-.934-1.96-2.016-1.96-.744 0-1.383.418-1.716 1.027h-1.22l1.466-2.403c3.253-.74 4.455-2.64 4.455-4.71 0-.14-.07-4.344-.07-4.344 0-.49.403-.606 1.054-.606v-.97zm-9.74 13.035L5.43 10.794c.802.113 1.736.174 2.827.174.874 0 1.65-.06 2.355-.164l-1.794 2.238H7.214z" fill="#434343" class="si-glyph-fill" fill-rule="evenodd"/></svg>