<svg viewBox="0 0 17 16" xmlns="http://www.w3.org/2000/svg" class="si-glyph si-glyph-circle-forward"><title>840</title><path d="M.076 7.99c0 4.4 3.562 7.968 7.955 7.968 4.395 0 7.956-3.567 7.956-7.97 0-4.4-3.562-7.968-7.955-7.968C3.64.02.077 3.588.077 7.99zm3.914 2.104c0-2.528 1.17-4.264 3.785-4.264h.256V4.2c.214-.214.464-.18.68.036l3.228 2.422a.552.552 0 0 1 0 .775l-3.23 2.423a.488.488 0 0 1-.677-.035V8.22h-.235c-1.816 0-2.44.676-3.232 2.125-.167.308-.573.63-.573-.25z" fill="#434343" class="si-glyph-fill" fill-rule="evenodd"/></svg>