<svg viewBox="0 0 16 16" xmlns="http://www.w3.org/2000/svg" class="si-glyph si-glyph-alarm-clock"><title>648</title><g fill="#434343" fill-rule="evenodd"><path d="M14.654.66c-1.312-.952-3.05-.765-3.99.382a10.16 10.16 0 0 1 4.922 3.58c.764-1.276.38-3.01-.932-3.964zM3.644 2.427a10.137 10.137 0 0 1 2.73-1.395c-.94-1.136-2.68-1.32-3.99-.378C1.07 1.6.685 3.316 1.45 4.58a10.185 10.185 0 0 1 2.194-2.153zM14.924 8.633c0-.198-.012-.393-.028-.586-.272-3.14-2.698-5.646-5.765-5.966-.135-.015-.272-.016-.41-.02-.083-.005-.165-.015-.25-.015h-.003c-3.568 0-6.46 2.95-6.46 6.588 0 .03.005.06.006.088a6.606 6.606 0 0 0 2.028 4.695c-.407.212-.692.64-.692 1.143 0 .71.564 1.284 1.26 1.284.666 0 1.204-.527 1.25-1.194.69.31 1.44.507 2.23.554.127.008.252.02.38.02.144 0 .284-.013.43-.022a6.32 6.32 0 0 0 2.255-.586c.03.684.576 1.23 1.253 1.23a1.27 1.27 0 0 0 1.26-1.285c0-.524-.306-.97-.744-1.172a6.617 6.617 0 0 0 2.002-4.755zm-6.397 4.68C5.964 13.314 3.88 11.2 3.88 8.6c0-2.6 2.084-4.714 4.647-4.714 2.562 0 4.647 2.114 4.647 4.714 0 2.6-2.085 4.716-4.647 4.716z" class="si-glyph-fill"/><path class="si-glyph-fill" d="M8 5h1v4H8z"/><path class="si-glyph-fill" d="M8 8h3v1H8z"/></g></svg>