<svg viewBox="0 0 17 16" xmlns="http://www.w3.org/2000/svg" class="si-glyph si-glyph-cubic"><title>876</title><g fill="#434343" fill-rule="evenodd"><path d="M17 13.316c0 .37-.3.667-.667.667l-6.667 2A.666.666 0 0 1 9 15.316V8.65c0-.37.298-.667.666-.667l6.667-2c.368 0 .667.298.667.667v6.666zM7.98 15.316c0 .37-.284.667-.636.667l-5.71-2c-.35 0-.634-.298-.634-.667V6.65c0-.37.283-.667.633-.667l5.71 2c.353 0 .636.298.636.667v6.666zM17 4.014c0 .318-.666.538-.666.538l-6.668 2.19s-.564.22-1.006.22c-.44 0-.977-.233-.977-.233L1.687 4.58S1 4.363 1 4.014c0-.35.687-.586.687-.586l5.998-2.15s.62-.233.994-.233c.37 0 .99.222.99.222l6.66 2.187c.002-.002.67.238.67.557z" class="si-glyph-fill"/></g></svg>