<svg viewBox="0 0 16 16" xmlns="http://www.w3.org/2000/svg" class="si-glyph si-glyph-reel-film"><title>9</title><g fill="#434343" fill-rule="evenodd"><path d="M7.368 13.095c1.193-.188 2.796.098 3.817 1.004 1.02.905 2.453.8 3.815 1.028V16c-1.144-.193-3.37-.416-4.15-1.108-.778-.69-2.062-1.09-3.267-.9-1.096.174-1.32-.723-.215-.897z" class="si-glyph-fill"/><path d="M7.5.166C3.403.166.08 3.47.08 7.542s3.323 7.375 7.42 7.375c4.098 0 7.42-3.302 7.42-7.375S11.598.166 7.5.166zM5 3a2 2 0 1 1 0 4 2 2 0 0 1 0-4zm0 9a2 2 0 1 1 0-4 2 2 0 0 1 0 4zm1.71-4.486c0-.455.38-.823.845-.823.468 0 .848.37.848.824 0 .454-.38.823-.848.823a.836.836 0 0 1-.846-.823zM10 12a2 2 0 1 1 0-4 2 2 0 0 1 0 4zm0-5a2 2 0 1 1 0-4 2 2 0 0 1 0 4z" class="si-glyph-fill"/></g></svg>