<svg viewBox="0 0 16 16" xmlns="http://www.w3.org/2000/svg" class="si-glyph si-glyph-gift"><title>654</title><g fill="#434343" fill-rule="evenodd"><path class="si-glyph-fill" d="M0 4h16v3H0zM12.66 9.777a.68.68 0 0 1 0 1.03.87.87 0 0 1-1.14 0L8.485 8.063H7.49l-3.036 2.742a.87.87 0 0 1-1.14 0 .683.683 0 0 1 0-1.03l1.898-1.712L1 8v8h14V8l-4.238.064 1.898 1.713z"/><path d="M11.928.097c-1.16 0-2.623.838-3.96 2.253C6.634.935 5.17.097 4.014.097c-.592 0-1.098.22-1.46.637-.6.684-.678 2.02-.293 3.304h1.96s-.59-1.007-.428-1.884c.015-.018.078-.05.22-.05.573 0 1.905.677 3.057 1.934h1.844c1.157-1.264 2.42-1.935 3.013-1.935.176 0 .22.05.22.05.124 1.137-.432 1.885-.432 1.885h2.038c.387-1.283.23-2.62-.365-3.304-.364-.416-.868-.637-1.46-.637z" class="si-glyph-fill"/></g></svg>