<svg viewBox="0 0 17 16" xmlns="http://www.w3.org/2000/svg" class="si-glyph si-glyph-yen"><title>808</title><path d="M14.722 1.625a.982.982 0 0 0 .22-.725.983.983 0 0 0-.355-.67.995.995 0 0 0-1.396.138L7.963 6.064 2.772.37a.994.994 0 0 0-1.757.527.986.986 0 0 0 .22.724l5.797 6.4v1.995H4.03c-.564 0-1.018.463-1.018 1.036 0 .572.455.934 1.018.934h3.002v3c0 .555.42.99.956.99a.99.99 0 0 0 .987-.99v-3h2.973c.563 0 1.02-.36 1.02-.933 0-.572-.456-1.035-1.02-1.035H8.975v-2.06l5.747-6.33z" fill="#434343" class="si-glyph-fill" fill-rule="evenodd"/></svg>