<svg viewBox="0 0 17 16" xmlns="http://www.w3.org/2000/svg" class="si-glyph si-glyph-arrow-change"><title>950</title><g fill="#434343" fill-rule="evenodd"><path d="M2.54 8c.827 0 1.378-.55 1.378-1.378l-.004-.435s-.205-1.233 1.44-1.233l6.66.046v1.76a.83.83 0 0 0 1.17 0l2.574-2.573a.83.83 0 0 0 0-1.17L13.185.292a.83.83 0 0 0-1.17 0v1.845c-.16-.047-6.453-.074-6.453-.074-3.71 0-4.523 2.43-4.523 3.407V6.5A1.5 1.5 0 0 0 2.54 8zM14.5 8.042c-.828 0-1.5.584-1.5 1.412l.002.957c-.045.358-.645.59-1.525.59h-6.54V9.443a.83.83 0 0 0-1.17 0l-2.573 2.572a.83.83 0 0 0 0 1.17l2.572 2.572a.826.826 0 0 0 1.17 0l.002-1.85h6.54c3.71 0 4.522-2.443 4.522-3.422v-1.03c0-.828-.672-1.412-1.5-1.412z" class="si-glyph-fill"/></g></svg>