<svg viewBox="0 0 16 16" xmlns="http://www.w3.org/2000/svg" class="si-glyph si-glyph-syringe"><title>144</title><g fill="none" fill-rule="evenodd"><path d="M.032 4.258l.647.648L4.89.693 4.245.046.032 4.258z" fill="#434343" class="si-glyph-fill"/><path d="M1.844 3.207L3.45 4.813l1.4-1.4L3.243 1.81l-1.4 1.4z" fill="#434343" class="si-glyph-fill"/><path d="M5.93 5.487h1.105v6.062H5.93zM7.848 3.12h1.105v6.063H7.848z"/><g fill="#434343"><path d="M13.548 15.37l1.75-.93-2.63-2.73-1.39 1.39 2.27 2.27zM6.79 1.974L1.633 7.13c-.13.13-.154.452-.02.585.13.133.494.283.626.152l.512-.514 5.672 5.67-.014.015.67.673.68-.68.742.743 2.8-2.8-.742-.74.722-.722-.672-.67-.016.014-5.67-5.672.47-.47c.13-.132-.03-.504-.163-.637-.13-.132-.308-.23-.44-.1zM5.493 4.58l.78-.78 4.288 4.287-.78.78-4.287-4.286zm-2.12 2.123l.78-.78 4.286 4.286-.78.78L3.37 6.702zm5.686 5.687l-.75-.75 2.887-2.89.75.752L9.06 12.39z" class="si-glyph-fill"/></g></g></svg>