<svg viewBox="0 0 17 16" xmlns="http://www.w3.org/2000/svg" class="si-glyph si-glyph-button-remove"><title>972</title><g fill="#434343" fill-rule="evenodd"><path d="M8.02.114C3.628.114.053 3.668.053 8.036s3.575 7.922 7.97 7.922c4.394 0 7.968-3.554 7.968-7.922S12.415.114 8.02.114zM8.014 14.07c-3.33 0-6.04-2.724-6.04-6.07 0-3.348 2.71-6.072 6.04-6.072s6.04 2.725 6.04 6.07c0 3.35-2.71 6.072-6.04 6.072z" class="si-glyph-fill"/><path d="M4.813 8.982c-.265 0-.782-.298-.782-.986 0-.654.44-.96.733-.96h6.453c.265 0 .783.298.783.986 0 .653-.44.958-.733.958l-6.454.002z" class="si-glyph-fill"/></g></svg>