<svg viewBox="0 0 16 16" xmlns="http://www.w3.org/2000/svg" class="si-glyph si-glyph-document-pdf"><title>172</title><g fill="#434343" fill-rule="evenodd"><path d="M8.964 0H2.016v15.958h11.942V5.033H8.964V0zM6.047 10.036H5.03v.985h-1v1.026H2.97V7.954l2.06.014v.984h1.018v1.084zm4.906-2.083h2.078V9.03h-1.01v.923h1.01v1.06h-1.01v1.02h-1.067v-4.08zm-1.92.018v1h.973L10.02 11H9.016v1.016H6.97V7.96l2.063.01z" class="si-glyph-fill"/><path d="M10.025.02V3.99h3.954L10.024.02zM4 9h.973v.96H4zM8 9h.97v1.983H8z" class="si-glyph-fill"/></g></svg>