<svg viewBox="0 0 17 16" xmlns="http://www.w3.org/2000/svg" class="si-glyph si-glyph-money-coin"><title>1139</title><g transform="translate(1)" fill="#434343" fill-rule="evenodd"><ellipse cx="12.473" cy="5.973" rx="3.473" ry="1.973" class="si-glyph-fill"/><path d="M12.525 9.08c-2.484 0-3.473-1.04-3.473-1.643v2.583c0 1.09 1.555 1.972 3.473 1.972 1.92 0 3.475-.882 3.475-1.972V7.5c0 .603-.99 1.58-3.475 1.58z" class="si-glyph-fill"/><path d="M12.525 13.072c-2.222 0-3.473-1-3.473-1.604v2.56c0 1.09 1.555 1.972 3.473 1.972 1.92 0 3.475-.883 3.475-1.973v-2.59c0 .603-1.252 1.635-3.475 1.635z" class="si-glyph-fill"/><ellipse cx="3.937" cy="1.973" rx="3.937" ry="1.973" class="si-glyph-fill"/><path d="M4.062 5.08C1.247 5.08.125 4.04.125 3.438V6.02c0 1.09 1.763 1.972 3.937 1.972C6.238 7.992 8 7.11 8 6.02V3.5c0 .603-1.123 1.58-3.938 1.58z" class="si-glyph-fill"/><path d="M4.062 9.072c-2.52 0-3.937-1-3.937-1.604v2.56C.125 11.117 1.888 12 4.062 12 6.238 12 8 11.117 8 10.027v-2.59c0 .603-1.42 1.635-3.938 1.635z" class="si-glyph-fill"/><path d="M4.062 13.072c-2.52 0-3.937-1-3.937-1.604v2.56C.125 15.117 1.888 16 4.062 16 6.238 16 8 15.117 8 14.027v-2.59c0 .603-1.42 1.635-3.938 1.635z" class="si-glyph-fill"/></g></svg>