<svg viewBox="0 0 16 16" xmlns="http://www.w3.org/2000/svg" class="si-glyph si-glyph-airplane-2"><title>644</title><g transform="translate(0 1)" fill="#434343" fill-rule="evenodd"><ellipse cx="7.98" cy="7.904" rx="1.98" ry="1.904" class="si-glyph-fill"/><path d="M3.754 2.492c.797.888 1.325 1.735 1.182 1.895-.143.158-.904-.43-1.7-1.317-.796-.887-1.326-1.735-1.183-1.895.142-.16.904.43 1.7 1.317zM12.777 3.07c-.797.886-1.56 1.476-1.7 1.316-.144-.16.385-1.007 1.182-1.895.796-.886 1.557-1.476 1.7-1.316.14.16-.388 1.01-1.183 1.895zM5.997 14.44c0 .268-.22.482-.49.482a.485.485 0 0 1-.49-.48v-.925c0-.266.218-.48.49-.48.27 0 .49.215.49.48v.924zM10.977 14.496c0 .27-.208.49-.465.49a.477.477 0 0 1-.465-.49v-.938c0-.27.21-.488.465-.488.257 0 .465.218.465.488v.938z" class="si-glyph-fill"/><path d="M15.957.496c0 .818-.57 1.482-1.275 1.482H1.304C.6 1.978.03 1.314.03.496c0 0-.195-.42 1.274-.42h13.378c1.373 0 1.275.42 1.275.42zM8.035 5.072c1.61 0 2.326.843 2.326.843h2.59c-.6-1.66-2.596-2.882-4.972-2.882-2.377 0-4.373 1.22-4.973 2.882h2.7s.713-.843 2.33-.843zM8.045 10.965c-1.836 0-2.338-.934-2.338-.934H3C3.607 11.74 5.61 13 7.99 13c2.38 0 4.383-1.26 4.99-2.97H10.38s-.503.935-2.337.935zM6 8.935s-4.955.33-4.955-.81C1.045 6.982 6 7.05 6 7.05v1.885zM10.12 7.034s4.817-.203 4.817.947c0 1.152-4.816.948-4.816.948V7.034z" class="si-glyph-fill"/></g></svg>