<svg viewBox="0 0 16 16" xmlns="http://www.w3.org/2000/svg" class="si-glyph si-glyph-database-share"><title>101</title><g fill="#434343" fill-rule="evenodd"><path d="M.73 6c-.37 0-.668.734-.668 1.54v.977c0 .805.3 1.46.668 1.46H7V14h2V9.978h6.394c.37 0 .606-.656.606-1.46V7.5c.002-.807-.235-1.5-.605-1.5H.73zm13.332 3.03h-1.125V7.97h1.125v1.06zM.687 3.972h14.667c.368 0 .667-.665.667-1.485v-.99c0-.82-.298-1.486-.666-1.486H.687C.32.01.02.677.02 1.497v.99c0 .82.3 1.486.667 1.486zm12.25-2.003h1v1h-1v-1zM5 15h2v1H5zM1 15h1.927v.92H1zM9 15h1.958v.938H9zM13 15h1.982v.888H13z" class="si-glyph-fill"/></g></svg>