<svg viewBox="0 0 17 17" xmlns="http://www.w3.org/2000/svg" class="si-glyph si-glyph-lamp-desk"><title>631</title><g fill="#434343" fill-rule="evenodd"><path d="M13.52 7.99c-.257 0-.496.07-.707.19l-1.54-2.594.375-.34-1.58-1.744-1.006 1.805 1.135 1.254.358-.324 1.607 2.66a1.498 1.498 0 0 0 .243 1.57l-1.23 3.928a6.604 6.604 0 0 0-2.136-.36c-2.72 0-5.04-.376-5.975 1.915H15.01c-.543-1.33-1.56-.424-2.842-1.117l1.19-3.86c.053.007.104.018.16.018.21 0 .41-.045.59-.125.303-.134.548-.37.704-.662a1.488 1.488 0 0 0-1.29-2.214zM10.133 1.966L8.346-.01 3.113 2.267l4.24 4.684 2.78-4.984z" class="si-glyph-fill"/><path d="M4.473 5.323c1 1.104 1.882.47 1.882.47L4.177 3.386s-.706.833.296 1.937z" class="si-glyph-fill"/></g></svg>