<svg viewBox="0 0 17 16" xmlns="http://www.w3.org/2000/svg" class="si-glyph si-glyph-database-error"><title>636</title><g transform="translate(2)" fill="#434343" fill-rule="evenodd"><ellipse cx="6.43" cy="2.421" rx="6.43" ry="2.421" class="si-glyph-fill"/><path d="M8.575 11.832L9.59 10.82c-.932.158-1.998.26-3.127.26-3.516 0-6.447-.98-6.447-1.636v3.27c0 1.187 2.887 2.145 6.447 2.145a17.9 17.9 0 0 0 2.605-.185l1.176-1.176-1.67-1.668zM6.494 9.92c3.56 0 6.447-.983 6.447-2.197V4.377c0 .672-2.93 1.674-6.446 1.674-3.515 0-6.447-1-6.447-1.673v3.346c0 1.214 2.887 2.196 6.447 2.196z" class="si-glyph-fill"/><path d="M14.99 11.8l-.815-.817-1.702 1.703-1.668-1.667-.815.812 1.668 1.668-1.685 1.686.814.816 1.687-1.687 1.702 1.703.815-.814-1.702-1.702L14.99 11.8z" class="si-glyph-fill"/></g></svg>