<svg viewBox="0 0 16 16" xmlns="http://www.w3.org/2000/svg" class="si-glyph si-glyph-link-2"><title>93</title><g fill="#434343" fill-rule="evenodd"><path d="M1.71 15.92a1.707 1.707 0 0 1-.528-3.333l.32-.107-.096-.32c-.28-.95-.08-1.883.534-2.495l.63-.627.912.906-.425.422c-.714.71-.655 1.583.16 2.396.433.43.872.648 1.31.648.388 0 .742-.165 1.085-.504l3.89-3.872.913.91-4.098 4.075c-.422.42-.99.64-1.645.64a3.04 3.04 0 0 1-.894-.137l-.324-.1-.11.32c-.09.263-.227.488-.408.67a1.72 1.72 0 0 1-1.225.506zM12.547 6.027l.195-.195c.24-.237.43-.66.48-1.078.072-.562-.098-1.078-.478-1.457-.333-.334-.777-.51-1.28-.51-.5 0-1.042.19-1.314.463L6.485 6.895l-.93-.925L9.63 1.915c.43-.424 1.005-.648 1.666-.648.302 0 .61.048.915.142l.33.1.106-.323c.088-.266.227-.493.412-.678A1.73 1.73 0 0 1 15.496.5a1.71 1.71 0 0 1-.008 2.426c-.183.183-.41.32-.674.408l-.324.108.102.327c.315.99.125 1.955-.502 2.58l-.61.606-.933-.93z" class="si-glyph-fill"/><path d="M1.93 6.23c-.607-.605-.815-1.52-.554-2.452l.087-.313-.308-.108A1.696 1.696 0 0 1 .53.537 1.727 1.727 0 0 1 2.966.53c.174.172.305.382.393.625l.11.31.317-.09c.283-.084.57-.127.85-.127.655 0 1.227.224 1.652.646l.688.688-.903.9-.38-.38c-.162-.16-.6-.53-1.223-.53-.467 0-.91.207-1.322.617-.605.6-.652 1.168-.584 1.537.08.43.334.758.533.956L6.9 9.466l-.86.854L1.93 6.23zM14.248 15.913c-.46 0-.89-.178-1.213-.498a1.682 1.682 0 0 1-.414-.698l-.1-.325-.33.094a3.007 3.007 0 0 1-.8.113c-.66 0-1.266-.242-1.705-.68l-.58-.578.857-.852.216.216c.25.247.76.412 1.27.412.493 0 .927-.158 1.216-.447.305-.302.473-.764.473-1.3 0-.51-.152-.99-.39-1.222l-3.666-3.65.902-.897 4.035 4.014c.617.615.816 1.56.53 2.523l-.097.33.33.103a1.684 1.684 0 0 1 1.203 1.617c0 .46-.184.894-.51 1.22a1.725 1.725 0 0 1-1.225.506z" class="si-glyph-fill"/></g></svg>