<svg viewBox="0 0 17 16" xmlns="http://www.w3.org/2000/svg" class="si-glyph si-glyph-male"><title>982</title><path d="M16.875 5.884V.124h-5.762l2.223 2.222-3.703 3.71a5.395 5.395 0 0 0-3.13-1c-3.005 0-5.448 2.45-5.448 5.466s2.443 5.468 5.447 5.468c3.002 0 5.444-2.452 5.444-5.468a5.45 5.45 0 0 0-1.01-3.16l3.7-3.713 2.24 2.234zm-10.41 8.28a3.534 3.534 0 0 1-3.533-3.53 3.535 3.535 0 0 1 3.532-3.528 3.535 3.535 0 0 1 3.532 3.53c0 1.948-1.586 3.53-3.532 3.53z" fill="#434343" class="si-glyph-fill" fill-rule="evenodd"/></svg>