<svg viewBox="0 0 17 16" xmlns="http://www.w3.org/2000/svg" class="si-glyph si-glyph-arrow-triangle-recycle"><title>667</title><g fill="#434343" fill-rule="evenodd"><path d="M16.9 12.815L14.873 9.48a.608.608 0 0 0-.873-.2.693.693 0 0 0-.186.927l1.398 2.357h-2.996v-1.44c-.12-.128-.31-.136-.422-.016l-2.04 1.827c-.112.12-.106.322.015.45l2.022 1.476c.122.13.31.136.423.015V13.85h4.154c.23 0 .443-.135.553-.35a.707.707 0 0 0-.024-.685zM5.943 12.608H2.86l1.68-2.752.884.656a.322.322 0 0 0 .26-.37L5.55 7.316a.31.31 0 0 0-.366-.254l-2.515.832a.327.327 0 0 0-.26.372l1.072.8-2.3 3.8a.724.724 0 0 0-.025.704.64.64 0 0 0 .57.36H6c.357 0 .647-.31.647-.69 0-.38-.345-.632-.704-.632zM10.022 6.617l2.458.842c.158.03.31-.088.342-.267l.157-2.716c.03-.18-.072-.348-.228-.38l-.9.65-2.05-3.37c-.23-.38-.826-.382-1.058.002L6.84 4.51a.696.696 0 0 0 .187.927.61.61 0 0 0 .873-.2l1.374-2.262 1.535 2.525-1.014.732c-.033.18.068.35.226.382z" class="si-glyph-fill"/></g></svg>