<svg viewBox="0 0 17 16" xmlns="http://www.w3.org/2000/svg" class="si-glyph si-glyph-zoom-out"><title>865</title><g fill="#434343" fill-rule="evenodd"><path d="M16.913 5.976c0-3.28-2.667-5.94-5.956-5.94C7.667.037 5 2.697 5 5.977c0 3.28 2.666 5.94 5.957 5.94 3.29 0 5.956-2.66 5.956-5.94zm-11.004.03C5.91 3.217 8.18.96 10.987.96c2.805 0 5.078 2.257 5.078 5.047 0 2.788-2.273 5.047-5.078 5.047-2.807 0-5.08-2.26-5.08-5.047zM2.822 16L1 14.178l4.148-4.15s.086.774.57 1.257c.482.484 1.252.566 1.252.566L2.822 16z" class="si-glyph-fill"/><path d="M13.254 5.03H11.97V3.743c0-.41-.558-.742-.973-.742-.415 0-.966.332-.966.742v1.29H8.74c-.41 0-.742.552-.742.967 0 .414.332.937.742.937h1.29v1.318c0 .41.552.743.967.743.415 0 .972-.333.972-.743V6.937h1.284c.41 0 .742-.523.742-.938 0-.416-.332-.97-.742-.97z" class="si-glyph-fill"/></g></svg>