<svg viewBox="0 0 17 16" xmlns="http://www.w3.org/2000/svg" class="si-glyph si-glyph-radioactive"><title>824</title><g fill="#434343" fill-rule="evenodd"><path d="M10.295 6.346L13.03 1.16A7.542 7.542 0 0 0 9.034.003 7.55 7.55 0 0 0 5.04 1.16L7.77 6.33a2.607 2.607 0 0 1 1.246-.327c.468 0 .9.13 1.28.343zM9.676 7.552a1.305 1.305 0 0 0-.662-.184c-.23 0-.44.063-.627.165-.406.225-.686.65-.686 1.148 0 .03.01.056.01.084.03.48.317.887.727 1.09.175.086.37.14.577.14.223 0 .428-.06.61-.156a1.3 1.3 0 0 0 .694-1.073c.003-.028.01-.055.01-.083 0-.485-.264-.903-.652-1.13zM11.604 9.03a2.61 2.61 0 0 1-1.342 1.932l2.758 5.01c2.31-1.428 3.873-3.917 3.973-6.94h-5.39zM5.028 15.973l2.77-4.995a2.61 2.61 0 0 1-1.376-1.946H1.027c.1 3.023 1.676 5.512 4 6.94z" class="si-glyph-fill"/></g></svg>