<svg viewBox="0 0 17 16" xmlns="http://www.w3.org/2000/svg" class="si-glyph si-glyph-rocket"><title>668</title><path d="M12 13c-.064.01-.103.027-.16.04.7-2.11 1.132-5.05 1.132-7.176 0-4.315-2.932-5.837-3.965-5.837S5.04 1.547 5.04 5.864c0 2.125.432 5.063 1.132 7.17-.057-.01-.11-.023-.173-.033-.553 1.522-1.99 2.04-3.005 2.99l3.527.007c.276-.337.44-.72.476-1.127.016.023.03.052.046.074h3.923c.028-.04.054-.09.082-.132.03.412.19.802.466 1.143l3.47-.007C13.992 14.99 12.54 14.528 12 13zm-3-3a1 1 0 1 1 0-2 1 1 0 0 1 0 2zm0-4a2 2 0 1 1 0-4 2 2 0 0 1 0 4z" fill="#434343" class="si-glyph-fill" fill-rule="evenodd"/></svg>