<svg viewBox="0 0 17 16" xmlns="http://www.w3.org/2000/svg" class="si-glyph si-glyph-roller"><title>1062</title><g fill="#434343" fill-rule="evenodd"><path d="M7.5 15.938a.5.5 0 0 1-.5-.5v-3.906a.5.5 0 0 1 .5-.5H8V8.39c0-.25.18-.457.425-.495L16 5.93V3.032h-.5a.5.5 0 0 1-.5-.5.5.5 0 0 1 .5-.5h1a.5.5 0 0 1 .5.5V6.39c0 .248-.178.456-.423.493L9 8.85v2.182h.5a.5.5 0 0 1 .5.5v3.906a.5.5 0 0 1-.5.5h-2z" class="si-glyph-fill"/><path d="M14 3V2a2 2 0 0 0-2-2H3a2 2 0 0 0-2 2v1a2 2 0 0 0 2 2h9a2 2 0 0 0 2-2z" class="si-glyph-fill"/></g></svg>