<svg viewBox="0 0 17 16" xmlns="http://www.w3.org/2000/svg" class="si-glyph si-glyph-trumpet"><title>706</title><g fill="#434343" fill-rule="evenodd"><path d="M14.622 3.308l1.076-1.076-.91-.91-2.43 2.43-.7-.697-.658.66.697.697-1.305 1.305-.667-.667-.72.722.665.667-1.302 1.3-.603-.602-.69.69.602.604L6.14 9.97c-1.37 1.37-4.322 2.12-5.1 1.34 0 0 .395 1.366 1.835 2.805 1.438 1.44 2.834 1.865 2.834 1.865-.78-.778-.01-3.752 1.34-5.1l1.27-1.27 1.036 1.037c.23.23.54.342.875.342.484 0 1.022-.232 1.464-.673L15.33 6.68c.427-.426.67-.96.67-1.463 0-.35-.118-.65-.34-.874l-1.038-1.035zm.135 2.8L11.12 9.747c-.45.447-.99.532-1.192.33L8.89 9.04c1.572-1.57 3.7-3.7 5.16-5.16l1.037 1.036c.086.086.104.212.104.302 0 .282-.166.624-.433.89zM16.89 1.302L15.704.114c-.092-.093-.3-.037-.46.126-.163.163-.22.37-.128.462l1.19 1.188c.093.092.3.036.46-.126.165-.164.22-.37.126-.462z" class="si-glyph-fill"/></g></svg>