<svg viewBox="0 0 16 16" xmlns="http://www.w3.org/2000/svg" class="si-glyph si-glyph-disc-stop"><title>779</title><g fill="none" fill-rule="evenodd"><g transform="translate(3 3)"><path d="M7.465 1.063L8.982-.455l.87.87L8.333 1.93zM.895 10.403l-.868-.87 1.518-1.516.87.87z"/><ellipse cx="5.115" cy="5.141" rx="3.115" ry="3.141"/><path d="M4.988 3.022a1.977 1.977 0 0 0 0 3.953c1.09 0 1.98-.884 1.98-1.976a1.98 1.98 0 0 0-1.98-1.978z" fill="#434343" class="si-glyph-fill"/></g><path d="M15.3 10.953c.4-.99.658-1.967.658-2.984 0-4.414-3.573-7.907-7.98-7.907C3.574.063 0 3.556 0 7.97c0 4.41 3.572 7.988 7.98 7.988.68 0 1.33-.1 1.958-.264l1.03-.257-.03-4.484H15.3zM12.26 2.89l.87.87-1.518 1.518-.87-.87 1.52-1.517zM3.634 13.194l-.868-.87 1.518-1.517.868.87-1.517 1.517zM5 8a3 3 0 0 1 6 0 3 3 0 0 1-6 0z" fill="#434343" class="si-glyph-fill"/><path fill="#434343" class="si-glyph-fill" d="M12 12h4.023v4H12z"/></g></svg>