<svg viewBox="0 0 16 16" xmlns="http://www.w3.org/2000/svg" class="si-glyph si-glyph-satellite"><title>650</title><g fill="#434343" fill-rule="evenodd"><path d="M12.495 5.893c.337.338 1.69-1.016 1.352-1.352l-2.983-2.983c-.338-.338-1.69 1.016-1.354 1.352l2.985 2.983zM3.288 10.897c-.216-.217-.69-.095-1.058.27-.367.37-.488.842-.27 1.06l1.273 1.274c.217.22.69.097 1.056-.27.368-.366.49-.842.272-1.058l-1.274-1.275zM-.235 3.19l3.51-3.507 1.38 1.38-3.51 3.51zM12.088 8.374l-1.43 1.428-.74-.74 1.625-1.623a.7.7 0 0 0-.012-.993l-2.5-2.5a.7.7 0 0 0-.987-.008L6.42 5.563l-.736-.735 1.43-1.43-1.396-1.393L2.22 5.503l1.394 1.394 1.414-1.413.735.735-1.63 1.63a.7.7 0 0 0 .008.988l2.5 2.498a.7.7 0 0 0 .992.01l1.63-1.63.74.74-1.417 1.413 1.382 1.38 3.497-3.497-1.376-1.38zM10.952 13.736l3.51-3.516 1.4 1.4-3.508 3.515z" class="si-glyph-fill"/></g></svg>