<svg viewBox="0 0 17 16" xmlns="http://www.w3.org/2000/svg" class="si-glyph si-glyph-resize-out-frame"><title>910</title><g fill="#434343" fill-rule="evenodd"><path d="M8.994 12.967c0 1.134-.92 2.054-2.055 2.054H3.03a2.055 2.055 0 0 1-2.054-2.053v-3.91c0-1.133.92-2.053 2.054-2.053h3.91c1.134 0 2.054.92 2.054 2.053v3.91zM14.2 2.944L15.373 5a.55.55 0 0 0 .55-.548l.02-3.804a.55.55 0 0 0-.552-.55L11.625.083a.55.55 0 0 0-.553.548l2.014 1.206L9.27 5.63a.768.768 0 0 0-.23.55c0 .203.075.4.23.554.31.306.81.306 1.117 0l3.814-3.79z" class="si-glyph-fill"/><path d="M15.04 7.02v6.585a1.44 1.44 0 0 1-1.436 1.44H2.374a1.44 1.44 0 0 1-1.435-1.44V2.395c0-.793.644-1.44 1.435-1.44H8.98v-.93H2.055C.926.026.006.948.006 2.08v11.83c0 1.132.92 2.054 2.05 2.054h11.88c1.132 0 2.052-.922 2.052-2.053V7.02h-.948z" class="si-glyph-fill"/></g></svg>