<svg viewBox="0 0 16 16" xmlns="http://www.w3.org/2000/svg" class="si-glyph si-glyph-basket-arrow-up"><title>623</title><g fill="#434343" fill-rule="evenodd"><path d="M11.018 14.956l2.184-2.915.277-5.09h.765c.4 0 .725-1.224.725-1.224 0-.37-.324-.674-.725-.674h-1.928l-1.035-3.646a.614.614 0 0 0-.838-.287l-.07.035a.66.66 0 0 0-.29.866l.74 3.032H4.172l.77-3.026a.662.662 0 0 0-.282-.868l-.07-.036a.615.615 0 0 0-.842.278L2.673 5.052H.783c-.4 0-.725.303-.725.674 0 0 .324 1.224.725 1.224h.636l.448 6.695s.052 1.312 2.113 1.312h7.038zm.92-9.016h1.094v1.097h-1.094V5.94zM3.03 7.006H1.97V5.94h1.06v1.066zm2.032 5.553c0 .33-.25.6-.56.6H4.48c-.31 0-.56-.27-.56-.6V8.45c0-.332.25-.6.56-.6h.023c.308 0 .56.268.56.6v4.107zm3-.023c0 .335-.252.607-.56.607h-.024c-.31 0-.56-.272-.56-.607v-4.11c0-.335.25-.606.56-.606h.024c.308 0 .56.272.56.607v4.11zm2.462.6h-.022c-.3 0-.544-.27-.544-.6V8.448c0-.334.243-.603.544-.603h.022c.302 0 .546.27.546.602v4.086c0 .332-.244.602-.546.602zM15.99 13.984L14.51 12l-1.48 1.984h.99v1.995h.964v-1.996h1.005z" class="si-glyph-fill"/></g></svg>