<svg viewBox="0 0 17 16" xmlns="http://www.w3.org/2000/svg" class="si-glyph si-glyph-infinity-2"><title>828</title><path d="M4.352 12.94c-2.383 0-4.32-1.99-4.32-4.44s1.938-4.44 4.32-4.44a4.29 4.29 0 0 1 3.424 1.73l-.972.95a2.968 2.968 0 0 0-2.452-1.315c-1.648 0-2.988 1.38-2.988 3.075 0 1.695 1.34 3.075 2.988 3.075.868 0 2.12-1.93 3.126-3.478 1.35-2.078 2.622-4.04 4.173-4.04 2.378 0 4.31 1.987 4.31 4.43 0 2.44-1.932 4.427-4.31 4.427-1.338 0-2.6-.64-3.413-1.727l.963-.962a2.964 2.964 0 0 0 2.45 1.323c1.643 0 2.98-1.374 2.98-3.062 0-1.688-1.337-3.062-2.98-3.062-.835 0-2.072 1.902-3.064 3.43-1.365 2.103-2.654 4.087-4.234 4.087z" fill="#434343" class="si-glyph-fill" fill-rule="evenodd"/></svg>