<svg viewBox="0 0 16 16" xmlns="http://www.w3.org/2000/svg" class="si-glyph si-glyph-head"><title>Head</title><path d="M1 5.378S.813 1.178 5.146.305c4.333-.872 6.963 1.506 7.35 3.17.387 1.666.575 2.52.387 3.172-.232.317-.155.555.31 1.348.463.793 1.392 1.665.076 1.823-.85.16-.31.713-.31.713s.233.477-.463.556c0 0 .464.872.077.872s-.464.16-.542.476c-.077.317.077 2.06-2.63 1.03-.62-.317-.893.977-1.24 1.744-.207.46-.43 1.09-1.47.634-.926-.407-2.994-1.378-3.77-2.705-.424-.727.693-1.778.15-3.205-.54-1.427-.71-.987-1.253-1.78C1.277 7.36 1.08 6.33 1 5.38z" class="si-glyph-fill" fill="#434343" fill-rule="evenodd"/></svg>