<svg viewBox="0 0 16 16" xmlns="http://www.w3.org/2000/svg" class="si-glyph si-glyph-reel-audio"><title>152</title><g fill="#434343" fill-rule="evenodd"><path d="M1.064 7.21A2.95 2.95 0 0 0 3 7.934c1.635 0 2.96-1.32 2.96-2.95 0-.506-.126-.98-.352-1.396A2.965 2.965 0 0 0 3 2.032a2.955 2.955 0 0 0-2.96 2.95c0 .89.398 1.688 1.024 2.23zm3.416-.366l-1.3-1.286c.2-.07.344-.245.38-.46l1.332 1.318a2.316 2.316 0 0 1-.412.428zM3.242 2.678c.197.02.39.072.574.14l-.39 1.792a.573.573 0 0 0-.434-.202c-.048 0-.09.017-.135.027l.385-1.757zm-2.508 2.8l1.723-.597c-.006.036-.02.067-.02.103 0 .187.092.346.226.453l-1.733.6c-.05-.1-.102-.2-.14-.31-.027-.082-.038-.167-.056-.25zM12.977 7.984c.72 0 1.382-.258 1.898-.684a2.952 2.952 0 0 0 1.07-2.276 2.965 2.965 0 0 0-2.97-2.96 2.97 2.97 0 0 0-2.97 2.96c.002 1.634 1.33 2.96 2.972 2.96zm1.53-1.093L13.202 5.59c.2-.07.344-.248.38-.466l1.335 1.335a2.35 2.35 0 0 1-.412.434zM13.26 2.673c.2.02.39.072.578.142l-.39 1.813a.58.58 0 0 0-.435-.205c-.05 0-.092.017-.136.028l.382-1.778zm-2.465 3.11c-.025-.084-.037-.17-.055-.255l1.705-.606c-.006.037-.02.068-.02.105a.6.6 0 0 0 .223.462l-1.715.61c-.05-.1-.102-.204-.138-.316z" class="si-glyph-fill"/><path d="M10.028 8.53a4.486 4.486 0 0 1-1.56-3.403c0-.592.116-1.61.324-2.127H7.11c.207.518.323 1.535.323 2.127a4.508 4.508 0 0 1-4.51 4.504C2.06 9.63.682 9.39 0 8.97v3.637C0 13.442 1.177 14 1.917 14h12.067c.74 0 2.016-.558 2.016-1.393V8.97c-.685.416-2.162.66-3.024.66a4.485 4.485 0 0 1-2.948-1.1zM3 11.957H2v-1h1v1zm1.96 0h-1v-1h1v1zM9 10H7V9h2v1zm3 1.97h-1v-1h1v1zm.953-1h1v1h-1v-1z" class="si-glyph-fill"/></g></svg>