<svg viewBox="0 0 17 16" xmlns="http://www.w3.org/2000/svg" class="si-glyph si-glyph-screen-ful"><title>1205</title><g fill="#434343" fill-rule="evenodd"><path d="M4.02 5v5.94h7.958V5H4.02zm7.022 5.062H4.958V5.937h6.084v4.125z" class="si-glyph-fill"/><path class="si-glyph-fill" d="M6 7h3.917v1.938H6zM12 1l1.387 1.375-1.385 1.38 1.224 1.217 1.387-1.38L16 4.964V1h-4zM2.763 11.04L1.387 12.4 0 11.034v3.934h4l-1.387-1.366 1.375-1.358-1.225-1.206zM2.76 4.97l1.227-1.214-1.38-1.375L4 1H0v3.965l1.38-1.368L2.76 4.97zM13.27 11.08l-1.227 1.207 1.338 1.322L12 14.97h4v-3.935l-1.393 1.37-1.337-1.325z"/></g></svg>