<svg viewBox="0 0 16 16" xmlns="http://www.w3.org/2000/svg" class="si-glyph si-glyph-cloud-download"><title>136</title><g fill="#434343" fill-rule="evenodd"><path d="M6.982 8.016v1.987h1.002L6.492 11.97l-1.476-1.967h1.017V8.016h.95z" class="si-glyph-fill"/><path d="M4.97 6.938h3.06v2.027h7.956c-.14-1.434-1.06-2.545-2.186-2.545-.25 0-.486.066-.71.167-.694-1.042-1.827-1.724-3.113-1.724-.206 0-.407.022-.604.057-.682-1.137-1.866-1.892-3.22-1.892-1.905 0-3.483 1.5-3.77 3.46-.018 0-.035-.006-.05-.006-1.28 0-2.315 1.11-2.315 2.482h4.95V6.938z" class="si-glyph-fill"/></g></svg>