<svg viewBox="0 0 17 16" xmlns="http://www.w3.org/2000/svg" class="si-glyph si-glyph-comb"><title>720</title><path d="M14.563 2.427l2.388 2.39c.284-.976-.716-2.715-2.49-4.487-1.24-1.244-4.586 1.375-8.216 5.006-3.63 3.63-6.168 6.892-4.926 8.135 1.738 1.738 3.533 2.776 4.524 2.48l-2.4-2.4c-.325-.323-.338-.833-.032-1.14l1.49-1.488 2.804 2.805c.333.333.825.378 1.103.102.275-.277.23-.77-.102-1.103L5.9 9.922l2-2 2.804 2.805c.333.333.825.378 1.103.102.275-.277.23-.77-.102-1.103L8.9 6.922l2-2 2.805 2.805c.333.333.825.378 1.103.102.275-.277.23-.77-.102-1.103L11.9 3.922 13.425 2.4c.306-.31.816-.296 1.14.027z" fill="#434343" class="si-glyph-fill" fill-rule="evenodd"/></svg>