<svg viewBox="0 0 17 16" xmlns="http://www.w3.org/2000/svg" class="si-glyph si-glyph-elevator-down"><title>730</title><g fill="#434343" fill-rule="evenodd"><path d="M2.334 14.943C1.598 14.943 1 14.195 1 13.46c0-.737.598-1.335 1.334-1.335h2.184l8-6h3.148c.736 0 1.334.598 1.334 1.334 0 .735-.598 1.52-1.334 1.52h-2.184L5.47 14.943H2.334z" class="si-glyph-fill"/><g transform="translate(4 1)"><ellipse cx="2.488" cy="1.5" rx="1.488" ry="1.5" class="si-glyph-fill"/><path d="M2.482 4.042c-.79 0-1.43.64-1.43 1.428v1.856l-.904.938a.358.358 0 0 0 .228.632c.08 0 .16-.027.228-.083L3.91 5.876V5.47c0-.16-.032-.312-.082-.456a1.42 1.42 0 0 0-1.346-.972z" class="si-glyph-fill"/></g></g></svg>