<svg viewBox="0 0 17 16" xmlns="http://www.w3.org/2000/svg" class="si-glyph si-glyph-brush-1"><title>880</title><g fill="#434343" fill-rule="evenodd"><path d="M1.056 8.306l4.308-3.35 6.703 6.704-3.35 4.308s.044-1.054-1.437-1.437c-1.39-.358-1.632-2.287-2.843-2.687-1.21-.4-1.426-1.242-1.986-2.145S1.057 8.306 1.057 8.306zM13.98 7.83l-1.145-1.146c1.84-1.603 3.28-2.902 3.537-3.162A2.032 2.032 0 1 0 13.5.65c-.258.26-1.56 1.697-3.16 3.54L9.192 3.042a1.355 1.355 0 0 0-1.916 0l-.957.956 6.704 6.704.958-.96a1.355 1.355 0 0 0 0-1.914zm.266-5.053a.977.977 0 1 1 1.383-1.383.976.976 0 0 1 0 1.383.976.976 0 0 1-1.384 0z" class="si-glyph-fill"/></g></svg>