<svg viewBox="0 0 17 16" xmlns="http://www.w3.org/2000/svg" class="si-glyph si-glyph-train"><title>671</title><g fill="#434343" fill-rule="evenodd"><path d="M5.98 12.484a1.48 1.48 0 0 0-2.956 0l-.004.02a1.48 1.48 0 0 0 2.96 0v-.02zM10.998 12.454a1.484 1.484 0 0 0-1.494-1.433 1.48 1.48 0 0 0-1.492 1.434.197.197 0 0 0-.004.034c0 .81.67 1.467 1.496 1.467.828 0 1.498-.657 1.498-1.467 0-.01-.004-.023-.004-.034zM14.998 12.454a1.484 1.484 0 0 0-1.494-1.433 1.48 1.48 0 0 0-1.492 1.434.197.197 0 0 0-.004.034c0 .81.67 1.467 1.496 1.467.828 0 1.498-.657 1.498-1.467 0-.01-.004-.023-.004-.034z" class="si-glyph-fill"/><path d="M16.938 12.98c0-.965-.922-1.97-.922-1.97h-.047V8.014h-.985v-3l-1.962.024v3l-1.054-.025v-1.98h-.954v1.98H7.97V4.953h1V3H1.015v1.938h1v5.125H1.03v2.922h.98a2.62 2.62 0 0 1-.05-.48c0-.012.006-.033.006-.033A2.54 2.54 0 0 1 4.5 9.96 2.54 2.54 0 0 1 7.04 12.47c0 .01.006.02.006.033 0 .164-.02.324-.05.48h8.976v-.004h.968zM6 8.04H3.992V4.97H6v3.07z" class="si-glyph-fill"/></g></svg>