<svg viewBox="0 0 16 16" xmlns="http://www.w3.org/2000/svg" class="si-glyph si-glyph-webcam"><title>651</title><g fill="#434343" fill-rule="evenodd"><g transform="translate(2 1)"><ellipse cx="5.967" cy="5.979" rx="1.967" ry="1.979" class="si-glyph-fill"/><path d="M7.598 0c.002.036.014.07.014.106C7.61.788 6.887 1.34 5.994 1.34 5.102 1.34 4.38.785 4.38.102c0-.035.01-.067.013-.102C1.863.714.003 3.072 0 5.88-.002 9.26 2.68 12 5.986 12c3.31.003 5.994-2.732 5.996-6.108C11.983 3.082 10.126.72 7.6.002zM2 5.998a4 4 0 1 1 8 .008 4 4 0 0 1-8-.008z" class="si-glyph-fill"/></g><path d="M7.958 14.25a7.28 7.28 0 0 1-3.917-1.142l-1.823 1.81a.73.73 0 0 0 0 1.04l11.53-.052a.733.733 0 0 0 .003-1.04l-1.807-1.8a7.297 7.297 0 0 1-3.985 1.184z" class="si-glyph-fill"/></g></svg>