<svg viewBox="0 0 17 17" xmlns="http://www.w3.org/2000/svg" class="si-glyph si-glyph-baseball"><title>888</title><g fill="#434343" fill-rule="evenodd"><path d="M3.518 14.562c.916-.816 2.194-1.372 3.345-1.6 1.734-.34 3.03-1.978 3.02-3.81A3.16 3.16 0 0 0 8.915 6.9a3.104 3.104 0 0 0-2.14-.84l-.153.004c-1.808.08-2.85 1.008-3.376 3.007-.318 1.22-1.033 2.496-1.836 3.4.566.822 1.28 1.532 2.108 2.092z" class="si-glyph-fill"/><path d="M8 .046C3.59.046.016 3.603.016 7.99c0 1.207.28 2.347.764 3.372.545-.703 1.057-1.64 1.307-2.596.663-2.52 2.13-3.795 4.484-3.9l.202-.004A4.31 4.31 0 0 1 9.75 6.037a4.36 4.36 0 0 1 1.33 3.105c.02 2.4-1.694 4.548-3.984 4.996-.876.174-1.776.544-2.464 1.045a7.975 7.975 0 0 0 3.37.75c4.408 0 7.983-3.558 7.983-7.944C15.985 3.602 12.41.045 8 .045z" class="si-glyph-fill"/></g></svg>