<svg viewBox="0 0 17 16" xmlns="http://www.w3.org/2000/svg" class="si-glyph si-glyph-strolley-plus"><title>1095</title><g fill="#434343" fill-rule="evenodd"><g transform="translate(1)"><ellipse cx="4.438" cy="14.459" rx="1.438" ry="1.459" class="si-glyph-fill"/><ellipse cx="12.457" cy="14.419" rx="1.457" ry="1.419" class="si-glyph-fill"/><path d="M15 10.016H3.953V3.778L1.78.41A.995.995 0 0 0 .175 1.584l1.85 2.9v5.532h-.056a.99.99 0 0 0-1 .984c0 .543.447.984 1 .984H15c.553 0 1-.44 1-.984a.99.99 0 0 0-1-.984z" class="si-glyph-fill"/></g><path d="M12.96 4.025H9.062c-.558 0-1.01.434-1.01.97 0 .534.452.968 1.01.968h3.896c.558 0 1.01-.434 1.01-.97 0-.534-.452-.968-1.01-.968z" class="si-glyph-fill"/><path d="M11.98 6.942V3.046c0-.558-.435-1.01-.97-1.01-.535 0-.97.452-.97 1.01v3.896c0 .56.435 1.01.97 1.01.535 0 .97-.45.97-1.01z" class="si-glyph-fill"/></g></svg>