<svg viewBox="0 0 17 16" xmlns="http://www.w3.org/2000/svg" class="si-glyph si-glyph-suitcase"><title>1107</title><g fill="#434343" fill-rule="evenodd"><path d="M5 3v12.97h7.99V3H5zM14.037 3.03V16h.71C15.993 16 17 15.02 17 13.812V5.216c0-1.205-1.008-2.185-2.252-2.185h-.71zM1 5.217v8.596C1 15.02 2.018 16 3.276 16h.685V3.033h-.684C2.018 3.032 1 4.012 1 5.217zM9.968.047h-1.95C6.77.047 6.01.917 6.01 1.99h.96c0-.587.328-1.036 1.05-1.036h1.948c.72 0 1.057.45 1.057 1.037h.957C11.982.92 11.22.048 9.968.048z" class="si-glyph-fill"/></g></svg>