<svg viewBox="0 0 17 16" xmlns="http://www.w3.org/2000/svg" class="si-glyph si-glyph-cpu"><title>1067</title><g fill="#434343" fill-rule="evenodd"><path d="M12.83 2.04H5.254a2.206 2.206 0 0 0-2.212 2.2v7.56c0 1.216.99 2.2 2.212 2.2h7.576a2.204 2.204 0 0 0 2.212-2.2V4.24c0-1.214-.988-2.2-2.212-2.2zM5 12.96H4v-1h1v1zm0-9H4v-1h1v1zm6.958 6.07a.973.973 0 0 1-.975.972h-4.05a.973.973 0 0 1-.975-.972V5.973c0-.538.435-.973.976-.973h4.05c.538 0 .974.435.974.973v4.055zM14 12.958h-1v-1h1v1zm0-9h-1v-1h1v1z" class="si-glyph-fill"/><path d="M7.72 6a.72.72 0 0 0-.72.722V9.18a.72.72 0 0 0 .72.722h2.436c.396 0 .72-.323.72-.722V6.722a.72.72 0 0 0-.72-.722H7.72z" class="si-glyph-fill"/><g><path class="si-glyph-fill" d="M5 0h.87v1H5zM12 0h.87v1H12zM8 0h.87v1H8zM5 15h.96v.896H5zM12 15h.876v.896H12zM8 15h.918v.896H8zM1 11h1v.975H1zM1 4h1v.975H1zM1 7h1v.975H1zM16 11h.957v.975H16zM16 7h.957v.975H16zM16 4h.957v.975H16z"/></g></g></svg>