<svg viewBox="0 0 17 16" xmlns="http://www.w3.org/2000/svg" class="si-glyph si-glyph-trolley-briefcase"><title>985</title><g transform="translate(1)" fill="#434343" fill-rule="evenodd"><ellipse cx="4.471" cy="14.478" rx="1.471" ry="1.478" class="si-glyph-fill"/><circle cx="12.481" cy="14.481" r="1.481" class="si-glyph-fill"/><path d="M15.342 11.062H2.938V3.075L1.206.267A.68.68 0 0 0 .28.127a.63.63 0 0 0-.145.895L2.033 3.53v7.532s-.97-.167-.97.417c0 .52.564.468.933.468h13.346c.368 0 .61-.064.61-.413 0-.35-.242-.473-.61-.473zM6.223 7.5v-.04.04z" class="si-glyph-fill"/><path d="M6.89 9.297c0 .353-.28.64-.626.64H4.68a.63.63 0 0 1-.623-.64V2.663c0-.353.28-.64.624-.64h1.584c.346 0 .625.287.625.64v6.634zM10.928 9.272c0 .366-.282.663-.63.663H8.706c-.35 0-.63-.297-.63-.663V3.77c0-.367.28-.664.63-.664H10.3c.346 0 .628.297.628.664v5.502zM14.946 9.26c0 .395-.285.718-.638.718H12.69c-.353 0-.638-.322-.638-.72V4.802c0-.395.285-.716.64-.716h1.616c.353 0 .638.32.638.717v4.46z" class="si-glyph-fill"/></g></svg>