<svg viewBox="0 0 17 16" xmlns="http://www.w3.org/2000/svg" class="si-glyph si-glyph-layout-4"><title>961</title><g fill="#434343" fill-rule="evenodd"><path d="M10.956 6.326c0 .35-.3.632-.67.632H1.69c-.372 0-.67-.282-.67-.632V.633c0-.35.298-.633.67-.633h8.597c.37 0 .67.283.67.633v5.693zM17 15.333c0 .37-.3.667-.67.667H7.713a.668.668 0 0 1-.67-.667V8.666c0-.368.3-.666.67-.666h8.615c.37 0 .67.298.67.666v6.667zM5.976 15.333c0 .37-.3.667-.668.667H1.69a.668.668 0 0 1-.67-.667V8.666c0-.368.3-.666.67-.666H5.31c.368 0 .668.298.668.666v6.667zM17 6.345c0 .35-.324.634-.726.634h-3.528c-.398 0-.723-.284-.723-.635V.635c0-.352.324-.635.723-.635h3.528c.4 0 .726.283.726.635v5.71z" class="si-glyph-fill"/></g></svg>