<svg viewBox="0 0 17 16" xmlns="http://www.w3.org/2000/svg" class="si-glyph si-glyph-trolley-remove"><title>766</title><g fill="none" fill-rule="evenodd"><g transform="translate(4 12)" fill="#434343"><circle cx="1.437" cy="1.437" r="1.437" class="si-glyph-fill"/><ellipse cx="7.452" cy="1.485" rx="1.452" ry="1.485" class="si-glyph-fill"/></g><path fill="#434343" class="si-glyph-fill" d="M14 11h3v.958h-3z"/><path d="M6 8h2.062v2.078H6zM5.03 4.97H2.52l.314 2.067H5.03V4.97zM6 5h2.078v2.094H6zM9 5h2.047v2.047H9zM14.078 4.97H12v2.14h1.746l.332-2.14zM3.17 9.994h1.873V7.96H2.86l.31 2.034zM9 8h2.062v2.094H9z"/><path d="M3.563 12.046c-.32 0-.5.056-.5.423 0 .366.18.473.5.473h9.416v-.896H3.562zM11.97 10.03V7.985h1.905l-.28 1.995h1.144l.774-5.985c.057.007.11.018.17.018.715 0 1.295-.6 1.295-1.338 0-.74-.58-1.338-1.296-1.338-.717 0-1.297.6-1.297 1.338l-.172 1.343H1.557c-.318 0-.54.287-.54.654 0 .14.01.27.07.375L2.3 10.5c.04.173.167.3.33.37.08.05.168.083.265.083H12.98v-.922h-1.01zM12 4.97h2.078l-.332 2.14H12V4.97zm-3.03 0h2.046v2.046H8.97V4.97zm-6.45 0h2.512v2.067H2.835L2.52 4.97zm2.523 5.024H3.17L2.86 7.96h2.183v2.034zm2.988.053H5.97V7.97h2.06v2.077zm0-3H5.954V4.953H8.03v2.094zm3 3H8.97V7.953h2.06v2.094z" fill="#434343" class="si-glyph-fill"/></g></svg>