<svg viewBox="0 0 17 17" xmlns="http://www.w3.org/2000/svg" class="si-glyph si-glyph-zip"><title>1215</title><g fill="#434343" fill-rule="evenodd"><path d="M12.945.02h-8.89c-.57 0-1.035.45-1.035 1.005v13.972c0 .555.464 1.004 1.034 1.004h8.89c.57 0 1.035-.448 1.035-1.003V1.025C13.98.47 13.515.02 12.944.02zM10.03 2.048h-1v.906h1v1.094h-1v.906h1v1.094h-1v.922h.985v4.046h-3.03V6.97h1l-.017-1.923h-1V3.953h1v-.906h-1V1.953h1v-1h2.062v1.094z" class="si-glyph-fill"/><path class="si-glyph-fill" d="M8 8h.953v.953H8z"/></g></svg>