<svg viewBox="0 0 17 16" xmlns="http://www.w3.org/2000/svg" class="si-glyph si-glyph-paper-roll"><title>943</title><g fill="#434343" fill-rule="evenodd"><path d="M2.967 2C1.783 2 .86 2.524.365 3.476a3.313 3.313 0 0 0-.363 1.42v8.437s1.187-1.345 3.272 0c2.677 1.6 3.58-.77 4.737 0 1.846 1.43 2.916 0 2.916 0s-.013-6.852 0-7.03c.07-1.145.226-2.165.66-2.927C12.073 2.526 12.737 2 13.47 2h-10.5z" class="si-glyph-fill"/><path d="M15.03 3.713c-.298-.41-.644-.65-1.018-.65-.53 0-1.01.482-1.364 1.26-.314.696-.526 1.63-.58 2.676v1.003c.112 2.215.938 3.936 1.944 3.936 1.08 0 1.958-1.987 1.958-4.44 0-1.605-.376-3.008-.94-3.787zm-1.017 6.334c-.53 0-.966-.99-1.024-2.264v-.58c.028-.6.14-1.14.304-1.536.187-.453.44-.73.72-.73.195 0 .377.138.533.378.298.446.496 1.256.496 2.18 0 1.41-.464 2.552-1.03 2.552z" class="si-glyph-fill"/></g></svg>