<svg viewBox="0 0 17 16" xmlns="http://www.w3.org/2000/svg" class="si-glyph si-glyph-wrench"><title>964</title><path d="M7.982 11.19l4.177-4.185a3.604 3.604 0 0 0 3.794-.832c.698-.7 1.027-1.534 1.084-2.506l-.677.694-2.21.74-2.27-2.256.776-2.174.672-.67c-.946.078-1.8.36-2.487 1.048A3.623 3.623 0 0 0 10 4.82L5.853 8.978c-1.266-.456-2.737-.117-3.765.914a3.596 3.596 0 0 0 0 5.078c1.387 1.39 3.654 1.37 5.066-.045 1.002-1.003 1.23-2.49.83-3.736zm-5.25 3.1a2.5 2.5 0 1 1 3.535 0 2.5 2.5 0 0 1-3.534 0z" fill="#434343" class="si-glyph-fill" fill-rule="evenodd"/></svg>