<svg viewBox="0 0 17 16" xmlns="http://www.w3.org/2000/svg" class="si-glyph si-glyph-blood-bag"><title>675</title><g fill="#434343" fill-rule="evenodd"><path d="M12.958 9.22V1.784s.182-1.73-2.062-1.73H6.084c-2.244 0-2.062 1.73-2.062 1.73V9.22s-.146 1.75 1.062 1.75h1.96v.947h1V14h-1v1h1v.917H9V15h.938v-1H9v-2.083h1v-.948h1.896c1.354 0 1.062-1.75 1.062-1.75zm-2.308.947H10V10H7.042v.167H6.39c-1.546 0-1.478-1.356-1.478-1.356V4.955H6.97v-.9H4.91v-1.1h2.04v-.9H4.966C5.07 1.628 5.388.916 6.39.916h4.26c1.35 0 1.48 1.445 1.48 1.445v6.45s.12 1.355-1.48 1.355z" class="si-glyph-fill"/><path d="M6.023 8.137c0 .696.703.807.703.807h3.54s.705-.026.705-.807v-3.11H6.024v3.11z" class="si-glyph-fill"/></g></svg>