<svg viewBox="0 0 16 16" xmlns="http://www.w3.org/2000/svg" class="si-glyph si-glyph-heart-delete"><title>155</title><g fill="#434343" fill-rule="evenodd"><path d="M11.19 14.2l1.702-1.7-1.703-1.7.63-.63 1.7 1.7 1.7-1.7.632.63-1.7 1.7 1.7 1.7-.63.63-1.7-1.7-1.7 1.7-.632-.63z" class="si-glyph-fill"/><path d="M9.633 10.802l2.188-2.19 1.702 1.703 1.536-1.537c.55-1.094.91-2.326.91-3.716a4.02 4.02 0 0 0-4.01-4.03 4.015 4.015 0 0 0-3.91 3.147A4.054 4.054 0 0 0 4.1 1.03c-2.237 0-4.05 1.825-4.05 4.073 0 6.496 8.005 9.838 8.005 9.838s.73-.303 1.74-.9l1.54-1.54-1.704-1.698z" class="si-glyph-fill"/></g></svg>