<svg viewBox="0 0 16 16" xmlns="http://www.w3.org/2000/svg" class="si-glyph si-glyph-android"><title>Android</title><g fill="#434343" fill-rule="evenodd"><path d="M4.018 6.062s-.008 4.412-.008 5.562c0 1.034.117 1.256 1.02 1.35v2.333c0 .356.438.646.975.646.538 0 .976-.29.976-.646v-2.312L9.033 13v2.307c0 .356.438.646.975.646.537 0 .975-.29.975-.646V12.98c.926-.1.978-.37.978-1.335V6.063H4.02zM13.995 5.03c-.537 0-.975.29-.975.647l.005 3.634c0 .357.438.647.975.647.537 0 .976-.29.976-.646l-.005-3.633c0-.357-.44-.647-.975-.647zM1.985 5.03c-.54 0-.98.295-.98.66v3.643c0 .365.44.66.98.66.543 0 .983-.295.983-.66V5.69c0-.365-.44-.66-.983-.66zM9.974 2.187c.01-.012.026-.018.035-.032L10.937.52c.102-.158.04-.364-.134-.456a.384.384 0 0 0-.5.123L9.378 1.82c-.018.028-.025.06-.033.09a4.17 4.17 0 0 0-1.357-.232 4.2 4.2 0 0 0-1.372.234c-.01-.03-.015-.062-.034-.092L5.71.168a.383.383 0 0 0-.5-.123c-.175.092-.235.298-.134.457l.872 1.653c.01.016.028.023.042.037-1.057.58-1.76 1.598-1.947 2.803h7.948c-.19-1.21-.957-2.23-2.016-2.808zM7.042 4.042H5.938V2.98h1.104v1.062zm3-.02H8.98V2.937h1.062V4.02z" class="si-glyph-fill"/></g></svg>