<svg viewBox="0 0 16 16" xmlns="http://www.w3.org/2000/svg" class="si-glyph si-glyph-arrow-move"><title>104</title><g fill="#434343" fill-rule="evenodd"><path d="M7.946 9.976c1.075 0 2.044-.89 2.044-1.988C9.99 6.89 9.02 6 7.946 6 6.87 6 6 6.89 6 7.988c0 1.098.87 1.988 1.946 1.988zM5.21 3.984c-.198-.23-.236-.68-.034-.914L7.55.136A.466.466 0 0 1 8.277.13l2.537 2.952c.202.23.202.67 0 .902H5.21zM10.82 12.04c.2.17.2.52 0 .69l-2.506 3.103a.587.587 0 0 1-.725 0L5.223 12.73a.467.467 0 0 1 0-.687l5.597-.002zM12.93 5.268l2.934 2.306a.5.5 0 0 1 .006.76l-2.948 2.41c-.228.208-.654.212-.886 0V5.263s.66-.204.894.006zM4.013 10.79c-.23.208-.688.206-.917 0L.164 8.33a.502.502 0 0 1 .004-.76l2.908-2.357c.23-.207.707-.21.937 0v5.576z" class="si-glyph-fill"/></g></svg>