<svg viewBox="0 0 17 16" xmlns="http://www.w3.org/2000/svg" class="si-glyph si-glyph-cross-hair"><title>1016</title><g fill="#434343" fill-rule="evenodd"><path d="M8.5 1C4.364 1 1 4.36 1 8.492c0 4.13 3.364 7.492 7.5 7.492 4.137 0 7.5-3.36 7.5-7.492C16 4.362 12.637 1 8.5 1zm.47 13.945v-1.898h-.94v1.898A6.462 6.462 0 0 1 2.057 9h1.912V8H2.056A6.46 6.46 0 0 1 8 2.057v1.928h.968v-1.93A6.462 6.462 0 0 1 14.943 8h-1.928v.97h1.93a6.46 6.46 0 0 1-5.976 5.975z" class="si-glyph-fill"/><path d="M8.984 6.02h-.94v2.022H6.03v.942h2.013v1.975h.94V8.983h1.955v-.942H8.984v-2.02z" class="si-glyph-fill"/></g></svg>