<svg viewBox="0 0 16 16" xmlns="http://www.w3.org/2000/svg" class="si-glyph si-glyph-call"><title>1018</title><path d="M14.03 11.852c-.427-.54-1.122-1.32-1.717-1.394-.362-.045-.778.255-1.188.538-.08.04-.698.408-.773.43-.396.113-1.24.146-1.752-.32-.492-.45-1.27-1.283-1.898-2.046-.6-.786-1.23-1.73-1.55-2.31-.337-.602-.095-1.397.113-1.747.038-.063.498-.536.6-.646l.016.018c.382-.32.78-.645.826-.997.074-.586-.525-1.44-.953-1.98C5.325.86 4.663-.088 3.76.046c-.34.05-.634.17-.923.34L2.83.375a1.823 1.823 0 0 0-.05.038l-.024.013.003.004c-.167.128-.64.482-.695.53-.586.52-1.468 1.748-.786 3.955.505 1.64 1.584 3.566 3.054 5.514l-.008.006c.072.094.146.18.22.27.07.093.14.185.212.277l.01-.007c1.56 1.88 3.196 3.38 4.69 4.267 2.01 1.192 3.438.655 4.098.228.062-.04.534-.407.694-.528l.004.004c.006-.006.01-.014.018-.02l.043-.033-.006-.008c.24-.234.435-.484.57-.8.35-.828-.42-1.692-.85-2.233z" fill="#434343" class="si-glyph-fill" fill-rule="evenodd"/></svg>