<svg viewBox="0 0 17 16" xmlns="http://www.w3.org/2000/svg" class="si-glyph si-glyph-safe-box"><title>894</title><g fill="none" fill-rule="evenodd"><path d="M13 .98H3.02c-.607 0-1.038.353-1.038 1.037v11.02c0 .685.5 1.005 1.06 1.005h9.94c.562 0 1.06-.375 1.06-1.047V2.015C14.04 1.447 13.5.98 13 .98zM13 13H3V2h10v11z"/><path d="M12.9.016H3.16C2.002.016 1 .906 1 2.006V13c0 1.1.87 1.99 2.028 1.99h.012V16H5v-1.01h6V16h2v-1.012c1.152-.005 1.998-.894 1.998-1.988V2.005c0-1.1-.938-1.99-2.097-1.99zm1.14 12.98c0 .67-.498 1.046-1.06 1.046H3.04c-.56 0-1.06-.32-1.06-1.004V2.018c0-.686.43-1.04 1.037-1.04H13c.5 0 1.038.468 1.038 1.036v10.98z" fill="#434343" class="si-glyph-fill"/><path d="M3 13h10V2H3v11zm5-7a2 2 0 0 1 2 2h1v1H9.723c-.347.595-.984 1-1.723 1a2 2 0 0 1 0-4z" fill="#434343" class="si-glyph-fill"/></g></svg>