<svg viewBox="0 0 17 16" xmlns="http://www.w3.org/2000/svg" class="si-glyph si-glyph-back-pack"><title>672</title><g fill="#434343" fill-rule="evenodd"><path d="M9.033 6c-1.074 0-1.938.33-2.568.984-1.45 1.507-1.443 3.436-1.44 4.996v.216c0 .805.282 1.254.942 1.5.646.243 1.576.262 2.726.262h.682c2.55 0 3.666-.166 3.666-1.762l.002-.216c.004-1.56.01-3.49-1.44-4.996C10.972 6.33 10.106 6 9.032 6z" class="si-glyph-fill"/><path d="M14.945 10.107c-.095-1.677-.37-3.577-1.14-5.116.066.01.127.026.196.026.545 0 .98-.276.98-.617V3.64c0-.342-.436-.618-.98-.618-.54 0-.98.276-.98.618v.134a4.663 4.663 0 0 0-2.057-1.422v-1.32c0-.543-.51-.984-1.134-.984H8.182c-.625 0-1.135.44-1.135.984v1.323a4.69 4.69 0 0 0-2.126 1.52v-.235c0-.342-.426-.618-.954-.618-.524 0-.952.276-.952.618V4.4c0 .34.428.616.952.616.09 0 .17-.018.252-.033-.755 1.51-1.037 3.368-1.137 5.023-2.14.03-2.066 2.22-2.066 3.114 0 .895.944.87 2.107.87v-.19c.497 2.198 2.94 2.142 5.887 2.142 2.902 0 5.32.06 5.868-2.035 1.167 0 2.098-.01 2.098-.835 0-.832.058-2.836-2.03-2.965zM7.953 1.313c0-.187.223-.345.488-.345h1.1c.267 0 .49.158.49.345v.803a6.422 6.422 0 0 0-1.02-.086c-.378 0-.725.04-1.058.094v-.81zm6.09 11.344c0 2.425-2.387 2.425-4.693 2.425h-.738c-1.315 0-2.387-.02-3.197-.298-1.004-.344-1.492-1.04-1.492-2.127l-.002-.21c0-1.646-.01-4.707 1.772-6.398.822-.78 1.928-1.175 3.29-1.175 1.36 0 2.466.396 3.29 1.174 1.782 1.69 1.774 4.752 1.77 6.396v.21z" class="si-glyph-fill"/></g></svg>