<svg viewBox="0 0 17 16" xmlns="http://www.w3.org/2000/svg" class="si-glyph si-glyph-iron"><title>770</title><path d="M16.317 8.083c.303-.62.636-1.136.636-1.946 0-.787-.226-1.354-.67-1.685-.542-.4-1.81-.306-2.41-.23-.087-.043-.2-.2-.303-.2l-6.558.607c-.73.15-1.455.882-1.455.882L1.04 10.265c0 .374.055.692.668.692L13 10.943S12.49 8 14 8V4.867c.537-.043 1.613-.07 1.896.143.26.194.393.572.393 1.127 0 .648-.255 1.168-.548 1.768-.64 1.31-1.367 2.548.273 5.788.06.116.175.184.295.184.05 0 .104-.013.153-.04a.344.344 0 0 0 .14-.46c-1.482-2.93-.865-3.944-.267-5.164l-.02-.13zm-3.24-.944c-.316 0-2.145.148-2.145.14v-.555a.635.635 0 0 0-.627-.645h-.597a.635.635 0 0 0-.628.645v.554c0 .074-4.235.68-4.235.68L6.28 6.145s.447-.61.972-.61l5.34-.617c.27 0 .485.272.485.61v1.61z" fill="#434343" class="si-glyph-fill" fill-rule="evenodd"/></svg>