<svg viewBox="0 0 17 16" xmlns="http://www.w3.org/2000/svg" class="si-glyph si-glyph-glass-water"><title>875</title><path d="M1.365 12.336L4.66 15.64a1.21 1.21 0 0 0 1.713.014l10.25-7.722a1.213 1.213 0 0 0-.013-1.713L10.765.363A1.21 1.21 0 0 0 9.055.35L1.35 10.622c-.47.47-.46 1.237.015 1.714zm5.97-2.564c-1.59.008-3.353-1.247-3.353-1.247l2.677-3.43 2.658-3.408a1.168 1.168 0 0 1 1.63.014l4.394 4.324a1.12 1.12 0 0 1 .012 1.604l-4.565 3.428c-.002 0-1.6-1.293-3.454-1.284z" fill="#434343" class="si-glyph-fill" fill-rule="evenodd"/></svg>