<svg viewBox="0 0 16 16" xmlns="http://www.w3.org/2000/svg" class="si-glyph si-glyph-disc-deny"><title>605</title><g fill="#434343" fill-rule="evenodd"><path d="M13.477 10.98a2.498 2.498 0 0 0 0 4.993 2.498 2.498 0 0 0 0-4.994zm-1.643 2.676c0-1.018.816-1.843 1.82-1.843.288 0 .567.07.82.198l-2.443 2.476a1.853 1.853 0 0 1-.196-.83zm1.494 1.504a1.75 1.75 0 0 1-.723-.16l2.377-2.41a1.826 1.826 0 0 1-1.654 2.57zM7.987 6.05c-1.11 0-2.01.874-2.01 1.954s.9 1.954 2.01 1.954c1.108 0 2.01-.875 2.01-1.954 0-1.08-.9-1.955-2.01-1.955z" class="si-glyph-fill"/><path d="M9.88 13.5c0-1.99 1.622-3.605 3.622-3.605.775 0 1.49.247 2.078.66A7.88 7.88 0 0 0 16 8.028C16 3.632 12.42.07 8.008.07 3.594.07.016 3.632.016 8.03c0 4.395 3.578 7.96 7.992 7.96.887 0 1.738-.154 2.535-.42a3.564 3.564 0 0 1-.664-2.07zM12.422 2.77l.846.845-1.788 1.788-.845-.845 1.786-1.788zM3.548 13.338l-.845-.845 1.788-1.788.846.846-1.788 1.788zM5 8a3 3 0 1 1 6 0 3 3 0 0 1-6 0z" class="si-glyph-fill"/></g></svg>