<svg viewBox="0 0 17 16" xmlns="http://www.w3.org/2000/svg" class="si-glyph si-glyph-microphone-2"><title>1008</title><g fill="#434343" fill-rule="evenodd"><path d="M13.984 7.03l-.04-2.006h-.936l.04 4.63c0 1.927-1.988 3.408-4.53 3.408-2.54 0-4.534-1.48-4.534-3.41v-4.62H3.01v1.984h-.995v.922h.995v2.11c0 1.7 1.74 3.25 3.99 3.75V16h2.978v-2.188c2.275-.485 4.005-2.048 4.005-3.762V7.953h1V7.03h-1z" class="si-glyph-fill"/><path d="M8.495 10.953c1.914 0 3.468-.87 3.468-1.94V7.016H5.025v1.997c0 1.07 1.554 1.94 3.47 1.94zM11.98 3.428C11.98 2.086 10.42 1 8.5 1S5.02 2.086 5.02 3.428V5.99h6.958V3.428z" class="si-glyph-fill"/></g></svg>