<svg viewBox="0 0 16 16" xmlns="http://www.w3.org/2000/svg" class="si-glyph si-glyph-infinity"><title>455</title><path d="M12.273 4.042c-1.33 0-2.836.703-3.77 1.772-.178.206-.774.19-.963-.023-.936-1.055-2.436-1.748-3.763-1.748C1.705 4.042.02 5.822.02 8.01c0 2.19 1.684 3.97 3.757 3.97 1.345 0 2.865-.71 3.8-1.792.173-.2.735-.205.908-.004.93 1.083 2.448 1.796 3.788 1.796 2.067 0 3.746-1.78 3.746-3.97 0-2.188-1.68-3.968-3.747-3.968zm-8.78 7.045C2.05 11.087.876 9.707.876 8.01c0-1.695 1.175-3.076 2.62-3.076 1.533 0 3.475 1.448 3.475 3.076 0 1.63-1.942 3.077-3.476 3.077zm9-.032c-1.53 0-3.474-1.438-3.474-3.056 0-1.617 1.943-3.055 3.473-3.055 1.446 0 2.62 1.37 2.62 3.054 0 1.684-1.174 3.055-2.62 3.055z" fill="#434343" class="si-glyph-fill" fill-rule="evenodd"/></svg>