<svg viewBox="0 0 17 17" xmlns="http://www.w3.org/2000/svg" class="si-glyph si-glyph-gear-1"><title>887</title><g fill="#434343" fill-rule="evenodd"><path d="M8.887 10.025a3.39 3.39 0 0 0-.658-1.55l.765-.765-.688-.687-.77.77a3.434 3.434 0 0 0-1.543-.632V6.067H5.02v1.09a3.45 3.45 0 0 0-1.56.62l-.75-.752-.69.688.74.74a3.36 3.36 0 0 0-.673 1.572H1.062V11H2.08c.082.59.316 1.134.664 1.59l-.724.722.688.687.73-.73a3.44 3.44 0 0 0 1.582.643v1.048h.973v-1.054a3.448 3.448 0 0 0 1.567-.652l.746.747.688-.69-.746-.746c.338-.45.564-.983.645-1.564h1.06v-.974H8.886zm-3.39 2.27a1.782 1.782 0 0 1 0-3.565 1.783 1.783 0 0 1 0 3.565zM14.03 4.37l1.09-.28-.25-.98-1.092.282a2.595 2.595 0 0 0-.46-.672 2.5 2.5 0 0 0-.648-.464l.3-1.08L12 .907l-.3 1.072a2.52 2.52 0 0 0-1.565.382l-.76-.776-.72.707.755.77a2.526 2.526 0 0 0-.44 1.576l-1.04.268.25.977 1.04-.267c.116.243.265.475.464.678a2.5 2.5 0 0 0 .686.486l-.29 1.04.972.27.293-1.048c.542.033 1.092-.1 1.563-.415l.77.786.72-.708-.775-.79c.308-.466.44-1.007.41-1.542zm-2.516 1.617a1.49 1.49 0 1 1 0-2.983 1.49 1.49 0 0 1 0 2.983z" class="si-glyph-fill"/></g></svg>