<svg viewBox="0 0 16 16" xmlns="http://www.w3.org/2000/svg" class="si-glyph si-glyph-dial-number"><title>105</title><g fill="#434343" fill-rule="evenodd"><path d="M14.878 3.64c0 .634-.45 1.15-1.004 1.15h-1.87C11.45 4.79 11 4.274 11 3.64V2.15c0-.635.45-1.15 1.003-1.15h1.87c.556 0 1.005.516 1.005 1.15v1.49zM9.878 3.64c0 .634-.45 1.15-1.004 1.15h-1.87C6.45 4.79 6 4.274 6 3.64V2.15C6 1.515 6.45 1 7.003 1h1.87c.556 0 1.005.516 1.005 1.15v1.49zM4.878 3.64c0 .634-.45 1.15-1.004 1.15h-1.87C1.45 4.79 1 4.274 1 3.64V2.15C1 1.515 1.45 1 2.003 1h1.87c.556 0 1.005.516 1.005 1.15v1.49zM14.878 8.64c0 .634-.45 1.15-1.004 1.15h-1.87C11.45 9.79 11 9.274 11 8.64V7.15c0-.635.45-1.15 1.003-1.15h1.87c.556 0 1.005.516 1.005 1.15v1.49zM9.878 8.64c0 .634-.45 1.15-1.004 1.15h-1.87C6.45 9.79 6 9.274 6 8.64V7.15C6 6.515 6.45 6 7.003 6h1.87c.556 0 1.005.516 1.005 1.15v1.49zM4.878 8.64c0 .634-.45 1.15-1.004 1.15h-1.87C1.45 9.79 1 9.274 1 8.64V7.15C1 6.515 1.45 6 2.003 6h1.87c.556 0 1.005.516 1.005 1.15v1.49zM14.878 13.64c0 .634-.45 1.15-1.004 1.15h-1.87c-.554 0-1.004-.517-1.004-1.15v-1.49c0-.635.45-1.15 1.003-1.15h1.87c.556 0 1.005.516 1.005 1.15v1.49zM9.878 13.64c0 .634-.45 1.15-1.004 1.15h-1.87C6.45 14.79 6 14.274 6 13.64v-1.49c0-.635.45-1.15 1.003-1.15h1.87c.556 0 1.005.516 1.005 1.15v1.49zM4.878 13.64c0 .634-.45 1.15-1.004 1.15h-1.87C1.45 14.79 1 14.274 1 13.64v-1.49c0-.635.45-1.15 1.003-1.15h1.87c.556 0 1.005.516 1.005 1.15v1.49z" class="si-glyph-fill"/></g></svg>