<svg viewBox="0 0 16 16" xmlns="http://www.w3.org/2000/svg" class="si-glyph si-glyph-person-error"><title>179</title><g fill="#434343" fill-rule="evenodd"><path d="M10.972 4.07c0 1.665-1.332 4.847-2.976 4.847-1.645 0-2.98-3.182-2.98-4.846 0-1.664 1.335-3.012 2.98-3.012 1.644 0 2.976 1.348 2.976 3.013zM16.014 10.945l-.996-.996-1.494 1.492L12.03 9.95l-.995.995 1.493 1.493-1.493 1.495.996.996 1.494-1.496 1.494 1.495.996-.997-1.494-1.495 1.494-1.493zM8.704 10.33l-.708.15s-2.904-.283-3.76-1.416C.138 9.064.013 14.93.013 14.93h9.345l-.63-.65 1.95-1.964-1.974-1.986z" class="si-glyph-fill"/></g></svg>