<svg viewBox="0 0 17 16" xmlns="http://www.w3.org/2000/svg" class="si-glyph si-glyph-button-error"><title>970</title><g fill="#434343" fill-rule="evenodd"><path d="M14.646 2.37c-3.11-3.11-8.177-3.11-11.288 0-3.11 3.113-3.11 8.178 0 11.29 3.11 3.11 8.176 3.11 11.288 0 3.112-3.113 3.11-8.177 0-11.29zM4.586 12.43C2.15 9.994 2.147 6.03 4.58 3.595c2.434-2.435 6.4-2.432 8.838.006 2.438 2.438 2.44 6.404.006 8.838-2.436 2.434-6.4 2.43-8.837-.007z" class="si-glyph-fill"/><path d="M11.164 11.063a.557.557 0 0 1-.388-.14L9.01 9.156l-1.696 1.695a.622.622 0 0 1-.423.146.842.842 0 0 1-.602-.265c-.22-.22-.27-.438-.27-.58a.554.554 0 0 1 .14-.4L7.88 8.028 6.2 6.35c-.15-.153-.278-.627.12-1.025.226-.225.447-.272.594-.272.183 0 .32.072.387.14L9.01 6.9l1.695-1.696a.624.624 0 0 1 .424-.146.84.84 0 0 1 .603.266c.378.38.302.81.13.98L10.14 8.03l1.737 1.736c.067.068.146.22.146.424a.834.834 0 0 1-.264.602c-.225.224-.445.27-.592.27z" class="si-glyph-fill"/></g></svg>