<svg viewBox="0 0 17 16" xmlns="http://www.w3.org/2000/svg" class="si-glyph si-glyph-magnifier-2"><title>897</title><g fill="#434343" fill-rule="evenodd"><path d="M16.025 7.5c0-4.143-3.356-7.5-7.5-7.5a7.5 7.5 0 0 0-7.498 7.5 7.5 7.5 0 0 0 7.5 7.5c2.22 0 7.5-.052 7.5-.052l-.002-7.45zm-7.553 5.53a5.506 5.506 0 1 1 .002-11.013 5.506 5.506 0 0 1-.002 11.012zm6.487.928h-1v-1h1v1z" class="si-glyph-fill"/><path d="M7.844 3.044c-2.12 0-3.84 1.616-3.84 3.608 0 .25.027.496.078.73.186.84.53.69.53-.158 0-1.998 1.718-3.61 3.84-3.61.904 0 .607-.57-.608-.57z" class="si-glyph-fill"/></g></svg>