<svg viewBox="0 0 17 16" xmlns="http://www.w3.org/2000/svg" class="si-glyph si-glyph-brightness"><title>954</title><g fill="#434343" fill-rule="evenodd"><path d="M9.04 3C6.327 3 4.126 5.24 4.126 8c0 2.762 2.2 5 4.916 5 2.718 0 4.918-2.238 4.918-5 0-2.76-2.2-5-4.917-5zm.043 8.227a3.227 3.227 0 1 1 0-6.453 3.227 3.227 0 0 1 0 6.453zM8 0h1.958v2H8zM8 14h2v1.958H8zM15 7h1.958v1.958H15zM1 7h1.958v2H1zM14.69 1.793l1.327 1.327-1.326 1.324-1.324-1.328zM3.468 12.714l1.325 1.327-1.367 1.367L2.1 14.08zM14.55 12.778l1.364 1.363-1.326 1.327-1.364-1.364zM3.443 1.775l1.3 1.302L3.42 4.402l-1.3-1.3z" class="si-glyph-fill"/></g></svg>