<svg viewBox="0 0 17 16" xmlns="http://www.w3.org/2000/svg" class="si-glyph si-glyph-fridge"><title>889</title><g fill="#434343" fill-rule="evenodd"><path d="M5 .003c-.553 0-1 .444-1 .992V3.99c0 .547.447.99 1 .99h6c.553 0 1-.443 1-.99V.994a.996.996 0 0 0-1-.992H5zm6.042 2.038H9.958V.96h1.084V2.04zM5 5.99c-.553 0-1 .45-1 1.01v6.894c0 .558.447 1.01 1 1.01L5.02 16h1.96v-1.097h2.04V16h1.96v-1.097a1.01 1.01 0 0 0 1.02-1.01V7c0-.56-.447-1.01-1-1.01H5zm6.042 3.05H9.958V6.876h1.084V9.04z" class="si-glyph-fill"/></g></svg>