<svg viewBox="0 0 17 17" xmlns="http://www.w3.org/2000/svg" class="si-glyph si-glyph-person-prison"><title>771</title><g fill="#434343" fill-rule="evenodd"><path d="M13.697 16.022H4.38a3.35 3.35 0 0 1-3.342-3.35v-9.3A3.348 3.348 0 0 1 4.378.02h9.32a3.348 3.348 0 0 1 3.34 3.35v9.3a3.35 3.35 0 0 1-3.34 3.35zM4.107 1A2.113 2.113 0 0 0 2 3.114v9.77C2 14.05 2.945 15 4.107 15h9.785C15.055 15 16 14.05 16 12.884v-9.77A2.113 2.113 0 0 0 13.892 1H4.107z" class="si-glyph-fill"/><path d="M4 1v13.69h1.04V1H4zM7 1v13.69h1.02V1H7zM10 1v13.69h1.038V1H10zM13 1v13.69h.918V1H13z" class="si-glyph-fill"/><path d="M12.576 11.048c-.4.587-.895 1.46-1.47 2.498-.633 1.146-1.36-.257-2.155-.257-.815 0-1.58 1.35-2.24.175-.567-1.01-1.06-1.826-1.448-2.39-2.01 0-3.046 1.3-3.578 2.872-.534 1.573 15.178 1.566 14.69-.013-.484-1.58-1.536-2.886-3.798-2.886zM11.977 6.154c0 1.66-1.323 4.838-2.955 4.838-1.634 0-2.956-3.177-2.956-4.838 0-1.663 1.322-3.01 2.956-3.01 1.63 0 2.955 1.347 2.955 3.01z" class="si-glyph-fill"/></g></svg>