<svg viewBox="0 0 17 16" xmlns="http://www.w3.org/2000/svg" class="si-glyph si-glyph-quote-close"><title>1030</title><g fill="#434343" fill-rule="evenodd"><path d="M2 14.97c-.553 0-1-.436-1-.97s.447-.97 1-.97c2.757 0 4-1.2 4-3.906V7.978H2.56a1.51 1.51 0 0 1-1.507-1.51V2.51A1.51 1.51 0 0 1 2.56 1h3.934C7.324 1 8 1.676 8 2.51v6.613c0 3.775-2.14 5.846-6 5.846zM11 14.97c-.553 0-1-.436-1-.97s.447-.97 1-.97c2.757 0 4-1.2 4-3.906V7.947h-3.467A1.51 1.51 0 0 1 10.02 6.44V2.506c0-.83.68-1.506 1.513-1.506h3.955A1.51 1.51 0 0 1 17 2.504v6.618c0 3.775-2.14 5.846-6 5.846z" class="si-glyph-fill"/></g></svg>