<svg viewBox="0 0 16 16" xmlns="http://www.w3.org/2000/svg" class="si-glyph si-glyph-disc"><title>1138</title><g fill="none" fill-rule="evenodd"><g transform="translate(3 3)"><path d="M7.466 1.066L8.984-.452l.87.87-1.52 1.517zM.895 10.405l-.868-.87L1.545 8.02l.868.87z"/><ellipse cx="5.115" cy="5.141" rx="3.115" ry="3.141"/><path d="M4.988 3.022a1.977 1.977 0 0 0 0 3.953c1.09 0 1.98-.884 1.98-1.976a1.98 1.98 0 0 0-1.98-1.978z" fill="#434343" class="si-glyph-fill"/></g><path d="M15.958 7.958C15.958 3.516 12.385 0 7.978 0 3.574 0 0 3.516 0 7.958 0 12.398 3.572 16 7.98 16c4.563 0 7.978-3.69 7.978-8.042zM12.26 2.89l.87.87-1.518 1.518-.87-.87 1.52-1.517zM3.634 13.194l-.868-.87 1.518-1.517.868.87-1.517 1.517zm1.252-5.208C4.885 6.25 6.28 4.843 8 4.843c1.72 0 3.115 1.406 3.115 3.142 0 1.733-1.396 3.14-3.115 3.14-1.72 0-3.115-1.406-3.115-3.14z" fill="#434343" class="si-glyph-fill"/></g></svg>