<svg viewBox="0 0 16 16" xmlns="http://www.w3.org/2000/svg" class="si-glyph si-glyph-bicycle-3"><title>613</title><g fill="#434343" fill-rule="evenodd"><path d="M10.84.042c0 1.098-1.744 1.99-2.826 1.99S5.34 1.14 5.34.043H1.1v.916h3.11c.603.915 1.69 2.008 2.86 2.266v5.443s.392-.767.954-.767c.396 0 .812.317.94.75V3.22c1.19-.263 2.45-1.322 3.04-2.263h2.912V.04H10.84v.002zM8.024 10.042c-.53 0-.958.327-.958.73v4.538c0 .404.43.73.958.73.53 0 .958-.326.958-.73v-4.537c0-.404-.428-.73-.958-.73zM5.453 11H3.58c-.29 0-.52.216-.52.48 0 .265.23.48.52.48h1.873c.288 0 .522-.216.522-.48S5.74 11 5.453 11zM12.494 13.042h-1.872c-.288 0-.522.206-.522.458 0 .253.234.46.522.46h1.872c.29 0 .52-.207.52-.46.002-.252-.23-.458-.52-.458z" class="si-glyph-fill"/></g></svg>