<svg viewBox="0 0 16 16" xmlns="http://www.w3.org/2000/svg" class="si-glyph si-glyph-folder-search"><title>Folder-search</title><g fill="#434343" fill-rule="evenodd"><path d="M13.96 1V.043H6.042l1 .957h6.916zM4.002 8.486a3.485 3.485 0 0 0 3.49 3.48 3.485 3.485 0 0 0 3.488-3.48c0-1.92-1.562-3.48-3.488-3.48a3.485 3.485 0 0 0-3.49 3.48zm6.007.014c0 1.414-1.14 2.562-2.54 2.562-1.4 0-2.538-1.147-2.538-2.562 0-1.416 1.137-2.564 2.54-2.564 1.4 0 2.537 1.148 2.537 2.564z" class="si-glyph-fill"/><path d="M3.652 0H1v1H0v12h1.016l.002 1h9.518l-1.3-1.28a4.627 4.627 0 0 1-6.4-4.263 4.625 4.625 0 0 1 4.628-4.615c2.55 0 4.63 2.07 4.63 4.616 0 .59-.124 1.15-.327 1.672L15.484 14h.42l.033-12H6L3.652 0z" class="si-glyph-fill"/><path d="M14.02 14.03l-.936.978-2.582-2.54 1.02-1.042 2.5 2.603z" class="si-glyph-fill"/></g></svg>