<svg viewBox="0 0 17 16" xmlns="http://www.w3.org/2000/svg" class="si-glyph si-glyph-eye-glass"><title>878</title><g fill="#434343" fill-rule="evenodd"><path d="M1.376 8.967a.387.387 0 0 1-.095-.012.353.353 0 0 1-.257-.432L3.305 5.68a.358.358 0 0 1 .088-.15l2.75-1.382a.372.372 0 0 1 .513-.014.346.346 0 0 1 .016.498L3.984 5.946 1.726 8.704a.362.362 0 0 1-.35.263zM16.565 8.967a.354.354 0 0 0 .35-.444L14.633 5.68a.358.358 0 0 0-.088-.15l-2.75-1.382a.372.372 0 0 0-.513-.014.347.347 0 0 0-.016.498l2.688 1.314 2.258 2.758c.043.16.19.263.353.263z" class="si-glyph-fill"/><path d="M4.986 12.832c.728 0 2.963-.758 3.274-2.938.237-.017.473-.034.718-.034.25 0 .482.024.72.042.32 2.192 2.498 2.944 3.228 2.944.786 0 4.043-.77 4.043-3.45 0-2.37-1.637-2.362-3.655-2.362-1.725 0-3.168.113-3.552 1.523a7.496 7.496 0 0 0-.77-.045 7.26 7.26 0 0 0-.802.056c-.387-1.39-1.815-1.503-3.524-1.503-2.008 0-3.635-.04-3.635 2.35 0 2.66 3.173 3.417 3.956 3.417z" class="si-glyph-fill"/></g></svg>