<svg viewBox="0 0 16 16" xmlns="http://www.w3.org/2000/svg" class="si-glyph si-glyph-bag-plus"><title>611</title><g fill="#434343" fill-rule="evenodd"><path d="M9.494 4.01a.49.49 0 0 1-.49-.49 2.512 2.512 0 0 0-2.502-2.515A2.51 2.51 0 0 0 4 3.52a.49.49 0 0 1-.98 0c0-1.93 1.563-3.5 3.482-3.5 1.92 0 3.482 1.57 3.482 3.5a.49.49 0 0 1-.49.49z" class="si-glyph-fill"/><path d="M12.492 4.01a.49.49 0 0 1-.488-.49c0-1.387-1.12-2.515-2.492-2.515a.49.49 0 0 1-.488-.492.49.49 0 0 1 .488-.492c1.912 0 3.47 1.57 3.47 3.5a.49.49 0 0 1-.49.49zM11 13h5v1h-5z" class="si-glyph-fill"/><path class="si-glyph-fill" d="M13 11h1v5h-1zM14.37 3h-1.328v7h1.923V3.565c0-.313-.267-.565-.594-.565zM10 12h1.95l.006-9-10.312.06c-.33 0-.6.253-.6.566V15.4c0 .312.27.6.6.6H12s-.05-.416-.05-1H10v-3z"/></g></svg>