<svg viewBox="0 0 16 16" xmlns="http://www.w3.org/2000/svg" class="si-glyph si-glyph-radio"><title>41</title><g fill="#434343" fill-rule="evenodd"><path class="si-glyph-fill" d="M3 0h.938v4.93H3zM12.018 6.01v10h2.962v-10h-2.962zm2.003 4.01h-1.04V9h1.04v1.02zm0-2h-1.04V7h1.04v1.02zM1.01 16.016h10v-10h-10v10zm4.498-.954a3.548 3.548 0 0 1-2.562-1.094H8.07a3.548 3.548 0 0 1-2.562 1.094zm3.52-3.093a3.54 3.54 0 0 1-.306 1.046h-6.43a3.57 3.57 0 0 1-.307-1.047H9.03zm-7.044-.954c.05-.37.147-.722.3-1.047H8.73c.153.324.252.676.3 1.046H1.985zm3.524-3.11a3.55 3.55 0 0 1 2.576 1.11H2.932a3.55 3.55 0 0 1 2.576-1.11z"/></g></svg>