<svg viewBox="0 0 17 16" xmlns="http://www.w3.org/2000/svg" class="si-glyph si-glyph-paypal"><title>901</title><g fill="#434343" fill-rule="evenodd"><path d="M9.875.074H3.64L.964 12.917h3.31l.942-3.02h4.658c2.272 0 4.116-2.034 4.116-4.542v-.907c0-2.51-1.843-4.374-4.115-4.374zm.25 5.138c0 1.033-.87 1.87-1.373 1.87l-2.928.012.832-4.13h2.096c.503 0 1.373.84 1.373 1.872v.376z" class="si-glyph-fill"/><path d="M15.113 3.868c0 .77-.052 1.47-.052 2.11 0 3.21-1.307 5.104-4.22 5.104H6.556l-1.57 4.907h2.638l.943-3.022h4.28c2.274 0 4.116-1.72 4.116-4.213v-.902c0-1.727-.55-3.226-1.85-3.985z" class="si-glyph-fill"/></g></svg>