<svg viewBox="0 0 17 16" xmlns="http://www.w3.org/2000/svg" class="si-glyph si-glyph-arrow-circle-rycycle"><title>973</title><g fill="#434343" fill-rule="evenodd"><path d="M16.945 9.738l-1.44-.426c.008-.133.018-.264.018-.396 0-3.53-2.42-6.593-5.752-7.28l-.26 1.36c2.71.56 4.675 3.05 4.675 5.92v.006l-1.302-.385a.586.586 0 0 0-.213.78l1.182 2.208c.15.276.486.375.754.223l2.127-1.23a.586.586 0 0 0 .212-.78zM2.438 8.626c0-2.353 1.326-4.454 3.3-5.44l.612 1.658c.3.138.654 0 .788-.314l1.07-2.49a.63.63 0 0 0-.303-.818l-2.4-1.11a.587.587 0 0 0-.788.313l.54 1.465C2.778 3.083 1.1 5.695 1.1 8.627c0 .824.135 1.646.404 2.443l1.262-.457a6.246 6.246 0 0 1-.328-1.987zM8.713 14.607c-1.046 0-2.065-.263-2.955-.81l1.127-1.19a.59.59 0 0 0-.603-.594H3.656a.607.607 0 0 0-.593.625l.018 2.728c.004.343.272.618.605.614L4.8 14.804a6.923 6.923 0 0 0 3.913 1.19c2.013 0 3.946-.895 5.305-2.454l-.992-.93c-1.106 1.27-2.678 1.997-4.313 1.997z" class="si-glyph-fill"/></g></svg>