<svg viewBox="0 0 17 16" xmlns="http://www.w3.org/2000/svg" class="si-glyph si-glyph-image"><title>805</title><g transform="translate(0 2)" fill="#434343" fill-rule="evenodd"><path d="M13.438 11.944H2.558c-1.395 0-2.53-1.163-2.53-2.59v-6.75C.03 1.173 1.165.01 2.56.01h10.88c1.393 0 2.527 1.16 2.527 2.59v6.75c0 1.43-1.135 2.592-2.527 2.592zM2.238.98c-.7 0-1.273.613-1.273 1.37v7.318c0 .757.572 1.37 1.272 1.37h11.517c.702 0 1.273-.613 1.273-1.37V2.35c0-.757-.57-1.37-1.273-1.37H2.237z" class="si-glyph-fill"/><ellipse cx="5.471" cy="3.461" rx="1.471" ry="1.461" class="si-glyph-fill"/><path d="M11.234 3.037l2.76 6.95H2.02L5.498 5.98l3.117.944 2.62-3.887z" class="si-glyph-fill"/></g></svg>