<svg viewBox="0 0 17 17" xmlns="http://www.w3.org/2000/svg" class="si-glyph si-glyph-snow"><title>Snow</title><path d="M13.822 9.445l-.797-.46-.507.878-.934-.54.508-.878-.8-.46-.507.878-.804-.465v-1.78l.805-.466.508.88.8-.462-.51-.88.935-.538.507.88.797-.46-.507-.88.88-.508-.468-.813-.88.51-.51-.88-.796.46.51.88-.935.54-.508-.88-.798.46.506.88-.788.456-1.56-.906v-.937h1.016V3.03H7.97V1.954h1.014V1.03H7.97V.048h-.94v.984H6.017v.923H7.03V3.03H6.017v.923H7.03v.937l-1.558.906-.818-.472.508-.88-.797-.46-.508.88-.933-.54.508-.88-.8-.46-.507.88-.854-.493-.467.814.853.492-.508.88.8.46.507-.88.934.54-.51.88.798.46.507-.88.834.482v1.78l-.835.483L3.678 8l-.797.46.51.88-.935.54L1.947 9l-.8.46.51.88-.854.493.468.813.855-.494.508.88.8-.462-.51-.88.934-.538.508.88.797-.46-.508-.88.832-.48 1.545.898v.92H6.017v.923H7.03v1.078H6.017v.923H7.03v1.016h.94v-1.017h1.014v-.922H7.97v-1.077h1.014v-.922H7.97v-.92l1.544-.897.802.463-.507.88.797.46.508-.88.934.54-.51.88.798.46.508-.88.88.51.47-.814-.88-.508.506-.88z" fill="#434343" class="si-glyph-fill" fill-rule="evenodd"/></svg>