<svg viewBox="0 0 16 16" xmlns="http://www.w3.org/2000/svg" class="si-glyph si-glyph-birthday-cake"><title>92</title><g fill="#434343" fill-rule="evenodd"><path d="M2.002 13.062v1.107c0 1.304-.107 1.774 1.482 1.774h8.91c1.588 0 1.48-.47 1.48-1.775V13.06H2.002zM4 3h.935v3.072H4zM7 3h1v2.97H7zM11 3h.99v2.85H11zM4.965.975c.1.406-.058.873-.437.915-.354.04-.625-.417-.353-.87a2.9 2.9 0 0 0 .353-.96s.32.427.437.915zM7.938 1.02c.105.427-.06.92-.47.963-.38.042-.67-.44-.377-.914.3-.486.38-1.01.38-1.01s.34.45.468.96zM11.974 1.023c.112.426-.066.916-.498.96-.404.042-.714-.438-.4-.913.318-.483.4-1.008.4-1.008s.363.45.498.96z" class="si-glyph-fill"/><path d="M3.146 8.437c.415 0 1.016-.394 1.193-.532.004-.006.726-.684 1.6-.684.872 0 1.624.673 1.655.702.162.14.698.515 1.174.515.56 0 1.107-.505 1.107-.505.04-.038.787-.71 1.688-.71.905 0 1.626.677 1.656.706.162.138.465.34.738.442-.03-1.3-.63-2.34-2.176-2.34H4.26c-1.392 0-2.02.837-2.155 1.95.225.166.688.457 1.04.457zM12.717 9.47c-.018-.017-.557-.52-1.15-.52-.6 0-1.166.507-1.173.513-.026.023-.75.7-1.624.7-.865 0-1.64-.667-1.674-.696-.163-.146-.682-.517-1.154-.517-.562 0-1.104.503-1.11.507-.116.092-.933.706-1.685.706-.386 0-.772-.16-1.07-.325v2.107h11.89V10.13c-.612-.126-1.178-.6-1.25-.66zM0 14h15.85v1.935H0z" class="si-glyph-fill"/></g></svg>