<svg viewBox="0 0 16 16" xmlns="http://www.w3.org/2000/svg" class="si-glyph si-glyph-wheel-steel"><title>Wheel-steel</title><g fill="#434343" fill-rule="evenodd"><path d="M8 16c-4.412 0-8-3.59-8-8s3.588-8 8-8c4.41 0 8 3.59 8 8s-3.59 8-8 8zM8 2C4.69 2 2 4.692 2 8s2.692 6 6 6 6-2.692 6-6-2.69-6-6-6z" class="si-glyph-fill"/><path d="M7.992 6c-2.316 0-4.098.797-4.96 2.346.036.473.153.928.335 1.352 1.22-.652 3.55 1.83 2.818 2.935.58.204 1.14.355 1.797.355a5.94 5.94 0 0 0 1.887-.315c-.735-1.105 1.524-3.535 2.753-2.87a4.31 4.31 0 0 0 .344-1.395C12.095 6.875 10.293 6 7.992 6zm.01 3.156c-.625 0-1.127-.51-1.127-1.14 0-.632.502-1.142 1.127-1.142.62 0 1.123.51 1.123 1.14 0 .632-.504 1.142-1.123 1.142z" class="si-glyph-fill"/></g></svg>