<svg viewBox="0 0 17 16" xmlns="http://www.w3.org/2000/svg" class="si-glyph si-glyph-tic-tac-toe"><title>851</title><g fill="#434343" fill-rule="evenodd"><path d="M13.492 9.02a3.47 3.47 0 1 0 0 6.938 3.47 3.47 0 0 0 0-6.94zm.04 6.097a2.62 2.62 0 0 1-2.628-2.61 2.62 2.62 0 0 1 2.63-2.608c1.452 0 2.63 1.168 2.63 2.608 0 1.44-1.178 2.61-2.63 2.61zM4.512.08a3.427 3.427 0 1 0 .002 6.853A3.427 3.427 0 0 0 4.512.08zm0 6.015a2.59 2.59 0 0 1 0-5.176 2.59 2.59 0 0 1 2.59 2.586 2.59 2.59 0 0 1-2.59 2.59zM8.006 9.97L7.1 9.063l-2.56 2.56-2.56-2.56-.908.907 2.56 2.56-2.56 2.56.907.906 2.56-2.558 2.56 2.558.906-.906-2.56-2.56 2.56-2.56zM17.057.926l-.912-.913-2.577 2.577L10.992.013l-.91.913 2.575 2.576-2.576 2.574.912.912 2.576-2.575 2.577 2.575.912-.912-2.576-2.574L17.058.926z" class="si-glyph-fill"/></g></svg>