<svg viewBox="0 0 17 16" xmlns="http://www.w3.org/2000/svg" class="si-glyph si-glyph-circle-load-left"><title>827</title><path d="M15.947 8.38c-.075-4.123-3.35-7.413-7.303-7.338-3.917.073-6.853 2.89-6.83 6.964H.204c-.217.22-.217.876 0 1.096l1.91 1.758a.546.546 0 0 0 .786 0l1.92-1.758c.22-.22.22-.876 0-1.096H3.204C3.18 4.668 5.463 2.46 8.67 2.402c3.232-.062 5.912 2.63 5.975 6.002.062 3.322-2.445 6.077-5.613 6.216v1.36c3.898-.138 6.99-3.52 6.915-7.6z" fill="#434343" class="si-glyph-fill" fill-rule="evenodd"/></svg>