<svg viewBox="0 0 17 17" xmlns="http://www.w3.org/2000/svg" class="si-glyph si-glyph-game-controll"><title>632</title><g fill="#434343" fill-rule="evenodd"><path d="M6.352 7.083S6.022 6.04 4.35 6.04c-1.67 0-2.006 2.007-2.006 2.007L1.008 14.02c0 1.107.835 2.006 2.005 2.006 1.04 0 1.86-1.714 2.304-2.902.23.143.498.23.787.23.773 0 1.533-.716 1.617-1.466h2.75c.085.75.585 1.465 1.357 1.465a1.5 1.5 0 0 0 .85-.264c.437 1.187 1.247 2.937 2.24 2.937 1.506 0 2.007-.898 2.007-2.005l-1.336-5.974s-.25-2.006-2.006-2.006c-1.755 0-1.88 1.042-1.88 1.042H6.35z" class="si-glyph-fill"/><path d="M10.04 7.46h-1V5.306c-.01-.007-.16-.927.4-1.63.37-.462.937-.696 1.684-.696 1.63 0 1.876-.435 1.876-1.937h1c0 1.835-.48 2.97-2.876 2.97-.43 0-.737.108-.907.32-.272.334-.184.874-.184.874l.008 2.252z" class="si-glyph-fill"/></g></svg>