<svg viewBox="0 0 16 16" xmlns="http://www.w3.org/2000/svg" class="si-glyph si-glyph-pin-location-1"><title>Pin-location-1</title><g fill="#434343" fill-rule="evenodd"><path class="si-glyph-fill" d="M6 6h.956v7.944H6z"/><path d="M6.51.016C4.048.016 2.048 2.024 2.048 4.5c0 2.478 2 4.484 4.464 4.484 2.466 0 4.465-2.007 4.465-4.484S8.977.016 6.51.016zm.16 1.626A3.008 3.008 0 0 0 3.652 4.64c0 .66-.648.345-.648-.646A3.008 3.008 0 0 1 6.022.997c.996 0 1.314.645.648.645zM10.11 11.156v.926c2.476.248 3.728 1.062 3.728 1.47 0 .51-1.887 1.5-5.344 1.5-3.46 0-5.346-.99-5.346-1.5 0-.438 1.342-1.18 3.758-1.42v-.928c-2.38.21-4.872.938-4.872 2.36 0 1.598 3.25 2.433 6.46 2.433s6.46-.835 6.46-2.433c0-1.462-2.56-2.203-4.845-2.408z" class="si-glyph-fill"/></g></svg>