<svg viewBox="0 0 17 16" xmlns="http://www.w3.org/2000/svg" class="si-glyph si-glyph-forcus"><title>1242</title><g fill="#434343" fill-rule="evenodd"><path d="M3 4.875V3.01C3 2.452 3.45 2 4.01 2h1.908V.08H4.066a2.987 2.987 0 0 0-2.983 2.984v1.81H3zM12.083 2h1.948c.56 0 1.013.452 1.013 1.01v1.865h1.875v-1.81A2.988 2.988 0 0 0 13.933.083h-1.85V2zM5.918 14.042H4.01A1.01 1.01 0 0 1 3 13.032v-1.95H1.082v1.85a2.987 2.987 0 0 0 2.983 2.985h1.852v-1.875zM15.043 11.083v1.948c0 .56-.454 1.012-1.012 1.012h-1.947v1.875h1.85a2.988 2.988 0 0 0 2.985-2.984v-1.85h-1.875z" class="si-glyph-fill"/></g></svg>