<svg viewBox="0 0 17 16" xmlns="http://www.w3.org/2000/svg" class="si-glyph si-glyph-quote-open"><title>1031</title><g fill="#434343" fill-rule="evenodd"><path d="M16 14.97c.552 0 1-.436 1-.97s-.448-.97-1-.97c-2.757 0-4-1.2-4-3.906V7.906h3.44c.83 0 1.507-.605 1.507-1.438V2.512A1.51 1.51 0 0 0 15.44 1h-3.934A1.51 1.51 0 0 0 10 2.512v6.612c0 3.775 2.14 5.845 6 5.845zM7 14.97c.552 0 1-.436 1-.97s-.448-.97-1-.97c-2.757 0-4-1.2-4-3.906V7.947h3.467A1.51 1.51 0 0 0 7.98 6.44V2.506A1.51 1.51 0 0 0 6.466 1H2.512A1.51 1.51 0 0 0 1 2.504v6.618C1 12.9 3.14 14.97 7 14.97z" class="si-glyph-fill"/></g></svg>