<svg viewBox="0 0 17 16" xmlns="http://www.w3.org/2000/svg" class="si-glyph si-glyph-hat-chef"><title>902</title><g fill="#434343" fill-rule="evenodd"><path class="si-glyph-fill" d="M4 15h10v1H4zM13.45 3.312A4.243 4.243 0 0 0 9.32.086a4.244 4.244 0 0 0-4.166 3.39 3.28 3.28 0 0 0-.833-.12A3.31 3.31 0 0 0 1.01 6.67c0 1.828 1.188 3.31 3.018 3.31.02 0 .036-.004.056-.004v3.98h9.875v-3.383c1.882-.14 3.01-1.71 3.01-3.627a3.642 3.642 0 0 0-3.52-3.634zM8.9 1.795c-.842.544-1.383 1.4-1.383 2.368h-1.3c0-1.398 1.132-2.57 2.663-2.9.277-.058.452.252.02.532z"/></g></svg>