<svg viewBox="0 0 17 16" xmlns="http://www.w3.org/2000/svg" class="si-glyph si-glyph-puzzle"><title>1085</title><path d="M14.992 6.567l-.01-2.817c0-.91-.8-1.724-1.71-1.724H10.09C10.092.698 9.006.076 7.668.076c-1.337 0-2.42.622-2.42 1.916 0 .012-2.535.034-2.535.034-.908 0-1.68.813-1.68 1.724l.034 2.71c1.322.017 2.39 1.057 2.39 2.342 0 1.284-1.067 2.323-2.39 2.34v3.208c0 .91.736 1.65 1.645 1.65h10.56c.91 0 1.746-.74 1.746-1.65l-.01-3.116c1.16-.14 1.968-1.125 1.968-2.333 0-1.214-.813-2.2-1.984-2.333z" fill="#434343" class="si-glyph-fill" fill-rule="evenodd"/></svg>