<svg viewBox="0 0 17 16" xmlns="http://www.w3.org/2000/svg" class="si-glyph si-glyph-mail-box"><title>753</title><path d="M15.51.053a1.47 1.47 0 0 0-1.498 1.442c-.002.116.012.228.035.336L12.99 2.894C12.94.986 11.52.025 9.97.025c-1.284 0-2.927 1.128-2.927 3.133 0 .812.04 3.78.04 3.78h.99v3.567L4.577 6.938h1.38l-.04-3.864c0-1.92.916-3.05 2.082-3.05H4c-1.906 0-3 1.035-3 3.04v3.874h2.41l4.662 4.732V16h1.846V6.938H13V4.184l1.535-1.54c.248.21.562.347.914.353a1.468 1.468 0 0 0 1.497-1.44A1.472 1.472 0 0 0 15.51.052zm-4.467 3.114H8.918V2h2.125v1.167z" fill="#434343" class="si-glyph-fill" fill-rule="evenodd"/></svg>