<svg viewBox="0 0 17 16" xmlns="http://www.w3.org/2000/svg" class="si-glyph si-glyph-fire-alarm"><title>748</title><g fill="#434343" fill-rule="evenodd"><path d="M10.986 9.977a4.936 4.936 0 0 0 4.93-4.94 4.936 4.936 0 0 0-4.93-4.942 4.936 4.936 0 0 0-4.93 4.94 4.937 4.937 0 0 0 4.93 4.942zm0-7c1.135 0 2.055.92 2.055 2.06 0 1.137-.92 2.058-2.054 2.058a2.056 2.056 0 0 1-2.054-2.06c0-1.137.92-2.058 2.054-2.058z" class="si-glyph-fill"/><path d="M14.283 11.018H7.68a.68.68 0 0 0-.677.684v.646c-1.326-.998-2.27-3.02-2.568-4.748.323-.264.533-.656.533-1.1 0-.794-.658-1.438-1.47-1.438-.81 0-1.468.644-1.468 1.438 0 .67.47 1.228 1.104 1.387.43 2.39 1.877 4.898 3.87 6.052v1.315a.68.68 0 0 0 .677.683h6.603a.68.68 0 0 0 .68-.683V11.7a.68.68 0 0 0-.68-.682z" class="si-glyph-fill"/></g></svg>