<svg viewBox="0 0 17 16" xmlns="http://www.w3.org/2000/svg" class="si-glyph si-glyph-fence"><title>1084</title><path d="M16.004 6.04h-.972L15.017 3l-1.47-3-1.58 3 .016 3.04h-2.02L9.942 3 8.524 0 7.007 3l.023 3.04H4.97L4.94 3 3.525 0 2.006 3l.023 3.04H1.06l.003.98h.967l.012 5.03L1.04 12v1.01h.992V16h2.935v-2.99H7.03V16h2.938v-2.99h2.015V16h3.052l-.02-2.99h.973V12h-.972V7.02h.973l.014-.98zm-11.02.932h2.058v5.08H4.96l.024-5.08zM12.068 12H9.96l-.01-5.072h2.118V12z" fill="#434343" class="si-glyph-fill" fill-rule="evenodd"/></svg>