<svg viewBox="0 0 17 16" xmlns="http://www.w3.org/2000/svg" class="si-glyph si-glyph-sign-p"><title>711</title><g fill="#434343" fill-rule="evenodd"><path d="M11.854 8H6.116C4.95 8 5 7 5 6.903V1c0-1 .084-1 1.116-1h5.738c1.166 0 1.115 0 1.115 1v5.903C12.97 8.06 13 8 11.853 8zM6 1v6.03h6V1H6z" class="si-glyph-fill"/><path class="si-glyph-fill" d="M8 8h1.917v6.28H8zM9.97 3v-.97H8V6h1V4.984h.97v-.968H9V3h.97zM10 3h.938v.97H10z"/><path d="M14 15.96H4c0-1.072 2.238-1.94 5-1.94 2.76 0 5 .868 5 1.94z" class="si-glyph-fill"/></g></svg>