<svg viewBox="0 0 17 16" xmlns="http://www.w3.org/2000/svg" class="si-glyph si-glyph-person-man"><title>737</title><g fill="#434343" fill-rule="evenodd"><path d="M9.918 13.338l-.943 1.62-.942-1.62.488-3.296h.91l.488 3.296zM6.534 15c-1.7-2.254-1.156-5.776-1.324-6C1.123 9 1 15 1 15h5.534zM11.582 15H17s0-6.03-3.68-6.03c-.164.22-.035 3.758-1.738 6.03zM9.008 8.94C7.39 8.94 6 5.733 6 4.065c0-1.67 1.39-3.006 3.008-3.006a3.016 3.016 0 0 1 2.994 3.006c0 1.668-1.374 4.877-2.994 4.877z" class="si-glyph-fill"/></g></svg>