<svg viewBox="0 0 17 16" xmlns="http://www.w3.org/2000/svg" class="si-glyph si-glyph-data-arrow-down"><title>789</title><g fill="#434343" fill-rule="evenodd"><path d="M15.997 10.04H2.023c-.555 0-1.003.833-1.003 1.86v1.24c0 1.026.448 1.86 1.003 1.86h13.974C16.55 15 17 14.165 17 13.14V11.9c0-1.027-.45-1.86-1.003-1.86zM12.5 14.104c-.885 0-1.604-.732-1.604-1.635 0-.904.72-1.637 1.604-1.637.885 0 1.604.732 1.604 1.636 0 .9-.72 1.634-1.604 1.634zM11.766 4.164H9.878V1.687c0-.557-.42-.633-.938-.633-.52 0-.938.076-.938.633v2.477h-1.79a.735.735 0 0 0 0 1.033L8.48 7.765a.725.725 0 0 0 1.027 0l2.26-2.568a.73.73 0 0 0 0-1.033z" class="si-glyph-fill"/></g></svg>