<svg viewBox="0 0 17 16" xmlns="http://www.w3.org/2000/svg" class="si-glyph si-glyph-finger-up"><title>703</title><g fill="#434343" fill-rule="evenodd"><path d="M8.048 13.172v1.626c0 .63.478 1.14 1.066 1.14h4.788c.59 0 1.066-.51 1.066-1.14v-1.626c0-.63-.477-1.142-1.066-1.142H9.114c-.59 0-1.066.51-1.066 1.142zM8.988 4.074L8.998.94S8.8.02 8.126.02c-.747 0-1.107.358-1.107 1.002v3.87c0 2.33-.755 1.955-.755 1.955l-1.908-.785c-1.182 0-1.338.27-1.338.885.4 1.045 4.003 2.857 4.003 2.857 1.133.334 1.68 1.133 1.68 1.133l5.274.062-.02-.523c0-1.56 1.01-1.745 1.01-2.39V4.316c0-.643-.513-1.294-1.146-1.294h-.798v1h-1.06V2.626a.544.544 0 0 0-.06-.24c-.097-.21-.624-.367-.88-.367-.332 0-.986.254-1.012.562l-.01 1.44-1.01.054z" class="si-glyph-fill"/></g></svg>