<svg viewBox="0 0 17 16" xmlns="http://www.w3.org/2000/svg" class="si-glyph si-glyph-button-arrow-down"><title>1186</title><g fill="#434343" fill-rule="evenodd"><path d="M7.984 16c-4.39 0-7.96-3.576-7.96-7.973 0-4.395 3.57-7.97 7.96-7.97 4.39 0 7.96 3.575 7.96 7.97 0 4.397-3.57 7.973-7.96 7.973zM7.977 1.904c-3.363 0-6.102 2.732-6.102 6.086 0 3.357 2.74 6.09 6.102 6.09 3.365 0 6.102-2.733 6.102-6.09-.002-3.354-2.74-6.086-6.103-6.086z" class="si-glyph-fill"/><path d="M5.047 8.05l2.984 3.905 2.917-3.905H8.944V4.786c0-.344-.324-.79-.955-.79-.63 0-.977.483-.977.826v3.23H5.047z" class="si-glyph-fill"/></g></svg>