<svg viewBox="0 0 16 16" xmlns="http://www.w3.org/2000/svg" class="si-glyph si-glyph-slide-show"><title>Slide-show</title><g fill="#434343" fill-rule="evenodd"><path class="si-glyph-fill" d="M7 0h1.906v2.22H7z"/><path d="M15.993 2.62c0-.333-.32-.604-.712-.604H.78c-.393 0-.71.27-.71.605v1.317h.96v8.05h4.435L3.17 14.723c-.16.162-.1.485.136.722l.43.43 3.327-3.77v3.862h1.85v-3.966l3.42 3.872.43-.43c.236-.235.297-.56.135-.72l-2.365-2.74h4.406V3.937h1.055V2.62h-.002zm-1.962 8.486H1.96v-7.17h12.07v7.17z" class="si-glyph-fill"/></g></svg>