<svg viewBox="0 0 16 16" xmlns="http://www.w3.org/2000/svg" class="si-glyph si-glyph-dice-3"><title>1174</title><path d="M13.763 0H2.178C.998 0 .043.966.043 2.155v11.69C.043 15.035.998 16 2.178 16h11.585c1.18 0 2.136-.966 2.136-2.155V2.155C15.897.965 14.942 0 13.762 0zm-9.76 6.153c-1.147 0-2.076-.95-2.076-2.123 0-1.172.93-2.123 2.075-2.123 1.146 0 2.076.95 2.076 2.123 0 1.172-.93 2.123-2.076 2.123zm8 8c-1.147 0-2.076-.95-2.076-2.123 0-1.172.93-2.123 2.075-2.123 1.146 0 2.076.95 2.076 2.123 0 1.172-.93 2.123-2.076 2.123zm-4-4c-1.147 0-2.076-.95-2.076-2.123 0-1.172.93-2.123 2.075-2.123 1.146 0 2.076.95 2.076 2.123 0 1.172-.93 2.123-2.076 2.123z" fill="#434343" class="si-glyph-fill" fill-rule="evenodd"/></svg>