<svg viewBox="0 0 17 16" xmlns="http://www.w3.org/2000/svg" class="si-glyph si-glyph-like"><title>863</title><g fill="#434343" fill-rule="evenodd"><path d="M4.81 13.958H2.195a1.135 1.135 0 0 1-1.146-1.122V7.128c0-.62.515-1.123 1.146-1.123H4.81c.635 0 1.15.503 1.15 1.123v5.708c0 .62-.516 1.122-1.15 1.122zM14.938 10.95v1.083h1.514c-.076 1.146-.658 1.897-1.74 1.897h-4.426c-.688 0-1.03-1.312-2.7-1.312l-.557.02V6.68s1.062-.165 1.418-1.29c0 0 1.45-3.96 2.57-4.356.658 0 1.19-.047 1.19 1.125l-.594 1.813s-.353 2.032 2.14 2.032H15.9c.687 0 1.06.424 1.06 1.05 0 0 .013.356.006.895H14.94v1.084h1.99a16.57 16.57 0 0 1-.22 1.916H14.94z" class="si-glyph-fill"/></g></svg>