<svg viewBox="0 0 17 17" xmlns="http://www.w3.org/2000/svg" class="si-glyph si-glyph-pick"><title>785</title><g fill="#434343" fill-rule="evenodd"><path d="M9.168 5.92c.01.007 1.877 1.89 1.885 1.897l1.314-1.32c3.855 4.404 2.466 7.06 2.615 6.908 1.9-1.9.89-5.99-2.256-9.136C9.58 1.122 5.488.11 3.59 2.01c-.147.147 2.5-1.27 6.91 2.594L9.167 5.92zM14.14 1.604l.88.877-.946.948-.88-.877z" class="si-glyph-fill"/><path d="M8.873 7.166L.29 15.752a.667.667 0 0 0-.01.943c.258.257.68.254.944-.01L9.808 8.1l-.935-.934z" class="si-glyph-fill"/></g></svg>