<svg viewBox="0 0 17 16" xmlns="http://www.w3.org/2000/svg" class="si-glyph si-glyph-poker-4"><title>684</title><path d="M12.372.058H5.627c-.89 0-1.613.73-1.613 1.624v12.69a1.62 1.62 0 0 0 1.613 1.623h6.745c.89 0 1.614-.73 1.614-1.624V1.683A1.62 1.62 0 0 0 12.372.058zM9.022 11S6.035 9.544 6.035 6.71c0-.98.678-1.776 1.513-1.776.72 0 1.318.587 1.475 1.374.15-.787.744-1.374 1.46-1.374.828 0 1.5.787 1.5 1.76C11.98 9.58 9.02 11 9.02 11z" fill="#434343" class="si-glyph-fill" fill-rule="evenodd"/></svg>