<svg viewBox="0 0 17 17" xmlns="http://www.w3.org/2000/svg" class="si-glyph si-glyph-soccer-yard"><title>763</title><g fill="#434343" fill-rule="evenodd"><path d="M5.97 3.085h-.886c-.588 0-1.063.45-1.063 1.007v3.865h1.965c.262-1.165 1.292-2.04 2.526-2.04 1.234 0 2.266.875 2.527 2.04h1.9V4.092c0-.557-.477-1.007-1.063-1.007h-.827v.962H5.97v-.962z" class="si-glyph-fill"/><path d="M8.482 7.038c-.64 0-1.184.4-1.4.962h2.8a1.497 1.497 0 0 0-1.4-.962zM8.51 9.962c.656 0 1.206-.394 1.406-.937H7.104c.2.543.75.937 1.406.937z" class="si-glyph-fill"/><path d="M8.51 11.146a2.602 2.602 0 0 1-2.54-2.1H4.02v3.905c0 .556.477 1.008 1.066 1.008h.852v-1.02H11v1.02h.89c.587 0 1.063-.452 1.063-1.007V9.048h-1.9a2.604 2.604 0 0 1-2.542 2.1z" class="si-glyph-fill"/><path d="M14.44 1.042H2.497A.497.497 0 0 0 2 1.537v13.968c0 .273.223.495.498.495h11.94a.497.497 0 0 0 .5-.495V1.537a.495.495 0 0 0-.5-.495zm-.42 14.02H9.98V14H7.02v1.062H2.937V1.937H7.02v1h2.933v-1h4.068v13.125z" class="si-glyph-fill"/></g></svg>