<svg viewBox="0 0 16 16" xmlns="http://www.w3.org/2000/svg" class="si-glyph si-glyph-angle-2"><title>100</title><g fill="#434343" fill-rule="evenodd"><path d="M.648 15.938a.617.617 0 0 1-.436-1.052L14.946.18a.617.617 0 1 1 .87.872L1.087 15.757a.615.615 0 0 1-.438.18zM5.652 16.01a.615.615 0 0 1-.44-.185.623.623 0 0 1 0-.882l9.722-9.723a.62.62 0 0 1 .88 0 .62.62 0 0 1 0 .883l-9.722 9.722a.615.615 0 0 1-.44.185zM10.633 15.985a.606.606 0 0 1-.426-1.03L14.96 10.2a.602.602 0 0 1 .853 0 .606.606 0 0 1 0 .853l-4.753 4.752a.6.6 0 0 1-.427.178z" class="si-glyph-fill"/></g></svg>