<svg viewBox="0 0 17 16" xmlns="http://www.w3.org/2000/svg" class="si-glyph si-glyph-link-3"><title>660</title><path d="M16.97 2a2 2 0 0 0-1.997-2c-1.102 0-1.96.896-1.96 2 0 .723.41 1.332.987 1.683V7.02h-3.312C10.345 6.42 9.722 6 8.982 6s-1.364.42-1.708 1.02H3a1 1 0 0 0-1 1v4.27c-.588.353-1.006.98-1.006 1.71a2 2 0 0 0 1.996 2 2 2 0 0 0 1.998-2c0-.718-.412-1.325-.988-1.677V8.938h3.252C7.59 9.562 8.225 10 8.982 10s1.39-.438 1.73-1.062H15a1 1 0 0 0 1-1V3.684c.574-.35.97-.96.97-1.684z" fill="#434343" class="si-glyph-fill" fill-rule="evenodd"/></svg>