<svg viewBox="0 0 17 16" xmlns="http://www.w3.org/2000/svg" class="si-glyph si-glyph-box-download"><title>898</title><g fill="#434343" fill-rule="evenodd"><path d="M16.644 4.236a1.022 1.022 0 0 0-1.433.113l-2.06 2.753c-.105-.016-8.144-.016-8.226-.006l-2.16-2.76a1.005 1.005 0 0 0-1.42-.092A1.02 1.02 0 0 0 1.25 5.68L3.28 8.285c-.124.268-.197.56-.197.873v4.745a2.09 2.09 0 0 0 2.09 2.088h7.66a2.09 2.09 0 0 0 2.09-2.088V9.16c0-.29-.06-.563-.166-.815l2-2.68a1.013 1.013 0 0 0-.113-1.43z" class="si-glyph-fill"/><path d="M11.78 2.057l-1.81.373.02-1.436a.978.978 0 0 0-.988-.988C8.45.008 8.002.456 8 1.008L8.03 2.4l-1.78-.343a.698.698 0 0 0-.003.986L8.512 5.72c.27.27.712.27.985-.005l2.278-2.672a.698.698 0 0 0 .006-.986z" class="si-glyph-fill"/></g></svg>