<svg viewBox="0 0 17 16" xmlns="http://www.w3.org/2000/svg" class="si-glyph si-glyph-safe-pin"><title>1125</title><path d="M16.756 12.992c-.066-.122-1.613-5.493-4.037-9.29-.723-1.128-1.5-2.09-2.31-2.69l-.363.44c3.16 3.088 4.87 8.3 5.594 10.61-.602-.048-1.613.07-2.062.518-.442.44-.613 1.133-.57 1.712-.026-.02-.056-.04-.077-.058-1.337-1.046-5.918-5.068-8.67-7.61.132-.353.265-.65.403-.912.064-.12-.04-.382-.148-.425-.5-.2-.856-.692-.856-1.273 0-.758.6-1.373 1.344-1.373.604 0 1.113.408 1.28.97.036.115.33.198.48.11.398-.233.86-.49 1.408-.81L6.076.817c-1.083-1.08-2.92-1-4.102.18C.792 2.174.712 4.008 1.796 5.09c0 0 1.988 1.915 2.244 2.152 2.936 2.727 7.797 6.938 9.768 8.402l.068.05c.435.276.96.364 1.457.264a2.08 2.08 0 0 0 1.63-1.627c.09-.455.017-.93-.207-1.338zm-1.76 2.305a1.283 1.283 0 0 1-1.283-1.28 1.283 1.283 0 0 1 2.567 0c0 .706-.575 1.28-1.284 1.28z" fill="#434343" class="si-glyph-fill" fill-rule="evenodd"/></svg>