<svg viewBox="0 0 17 16" xmlns="http://www.w3.org/2000/svg" class="si-glyph si-glyph-baby"><title>787</title><g fill="#434343" fill-rule="evenodd"><path d="M10.975 1.988A1.98 1.98 0 0 1 9 3.97 1.98 1.98 0 0 1 7.028 1.99 1.98 1.98 0 0 1 9 .005a1.98 1.98 0 0 1 1.975 1.983zM10.854 10.032c.3.31.104.456-.005.565L9.825 11.73c-.3.31-1.38.31-1.677 0l-1-1.112c-.06-.06-.297-.254.005-.566l3.7-.02zM10.875 5.35a1.37 1.37 0 0 0-.862-.315h-2.02c-.328 0-.63.126-.876.328-.02.014-2.036 2.774-2.036 2.774a.464.464 0 0 0 .088.59.346.346 0 0 0 .277.07.365.365 0 0 0 .24-.172L7.02 7.58v.98s-.182.397.46.397h3.11c.347 0 .41-.397.41-.397v-.95l1.335 1.027c.06.095.146.153.24.172a.343.343 0 0 0 .277-.072.458.458 0 0 0 .09-.59S10.93 5.38 10.874 5.35zM7.42 15.964c-.172 0-.523-.126-.625-.3l-1.266-2.31c-.146-.243.91-2.253.91-2.253l1.155 1.282s-.567.655-.586.84c-.02.185.853 1.793.853 1.793.167.276.103.656-.144.844a.478.478 0 0 1-.3.104zM10.53 15.964c.175 0 .526-.126.63-.3l1.264-2.31c.145-.243-.91-2.253-.91-2.253l-1.155 1.282s.567.655.586.84c.02.185-.855 1.793-.855 1.793-.166.276-.102.656.144.844.09.07.196.104.297.104z" class="si-glyph-fill"/></g></svg>