<svg viewBox="0 0 16 16" xmlns="http://www.w3.org/2000/svg" class="si-glyph si-glyph-bag"><title>609</title><g fill="#434343" fill-rule="evenodd"><path d="M9.494 4.01a.49.49 0 0 1-.49-.49 2.512 2.512 0 0 0-2.502-2.515A2.51 2.51 0 0 0 4 3.52a.49.49 0 0 1-.98 0c0-1.93 1.563-3.5 3.482-3.5 1.92 0 3.482 1.57 3.482 3.5a.49.49 0 0 1-.49.49z" class="si-glyph-fill"/><path d="M12.492 4.01a.49.49 0 0 1-.488-.49c0-1.387-1.12-2.515-2.492-2.515a.49.49 0 0 1-.488-.492.49.49 0 0 1 .488-.492c1.912 0 3.47 1.57 3.47 3.5a.49.49 0 0 1-.49.49zM13.042 3.1V16h1.33c.326 0 .593-.254.593-.566V3.626c0-.314-.267-.565-.594-.565l-1.328.04z" class="si-glyph-fill"/><path d="M1.645 3.06c-.33 0-.6.253-.6.566v11.808c0 .312.27.566.6.566H11.95l.007-12.94H1.645z" class="si-glyph-fill"/></g></svg>