<svg viewBox="0 0 17 17" xmlns="http://www.w3.org/2000/svg" class="si-glyph si-glyph-share-1"><title>Share-1</title><path d="M12.97 10.062c-.83 0-1.58.342-2.118.89l-4.96-2.478c.023-.146.046-.29.046-.442 0-.206-.02-.407-.06-.602l4.877-2.44A2.95 2.95 0 0 0 12.97 6 2.97 2.97 0 1 0 10 3.033c0 .03.01.058.01.087l-5.2 2.6a2.943 2.943 0 0 0-1.84-.656 2.97 2.97 0 0 0 0 5.938c.758 0 1.442-.293 1.967-.76l5.09 2.544c-.008.083-.025.163-.025.247a2.97 2.97 0 0 0 5.938 0c0-1.64-1.332-2.97-2.97-2.97zm.06-8.406a1.344 1.344 0 1 1 .002 2.687 1.344 1.344 0 0 1 0-2.687zm-10 7.75A1.405 1.405 0 1 1 4.438 8c0 .777-.628 1.406-1.406 1.406zm10 5a1.405 1.405 0 1 1 0-2.81 1.405 1.405 0 0 1 0 2.81z" fill="#434343" class="si-glyph-fill" fill-rule="evenodd"/></svg>