<svg viewBox="0 0 17 16" xmlns="http://www.w3.org/2000/svg" class="si-glyph si-glyph-like-unlike"><title>1141</title><g fill="#434343" fill-rule="evenodd"><path d="M4.81 2.035H2.195c-.632 0-1.146.502-1.146 1.123v5.707c0 .62.515 1.123 1.146 1.123H4.81c.635 0 1.15-.502 1.15-1.123V3.158c0-.62-.516-1.123-1.15-1.123zM14.938 5.045V3.96h1.514c-.076-1.145-.658-1.897-1.74-1.897h-4.426c-.688 0-1.03 1.312-2.7 1.312l-.557-.018v5.955s1.062.166 1.418 1.29c0 0 1.45 3.962 2.57 4.358.658 0 1.19.047 1.19-1.125l-.594-1.814s-.353-2.032 2.14-2.032H15.9c.687 0 1.06-.424 1.06-1.05 0 0 .013-.356.006-.894H14.94V6.96h1.99a16.57 16.57 0 0 0-.22-1.916H14.94z" class="si-glyph-fill"/></g></svg>