<svg viewBox="0 0 17 16" xmlns="http://www.w3.org/2000/svg" class="si-glyph si-glyph-trolley-2"><title>767</title><g transform="translate(1 1)" fill="#434343" fill-rule="evenodd"><circle cx="4.437" cy="12.437" r="1.437" class="si-glyph-fill"/><ellipse cx="10.452" cy="12.485" rx="1.452" ry="1.485" class="si-glyph-fill"/><path d="M14.684.337c-.717 0-1.297.6-1.297 1.338l-.172 1.343H.557c-.318 0-.54.287-.54.654 0 .14.01.27.07.375L1.3 9.5c.04.173.167.3.33.37.08.05.168.083.265.083H12.36l-.174 1.093H2.564c-.32 0-.5.056-.5.423 0 .366.18.473.5.473h10.79l1.16-8.947c.057.007.11.018.17.018.715 0 1.295-.6 1.295-1.338 0-.74-.582-1.34-1.296-1.34zM12.746 6.11H11V3.967h2.078l-.332 2.14zM2.17 8.993L1.86 6.96h2.183v2.034H2.17zm5.8-5.025h2.046v2.046H7.97V3.97zm-.94 2.077H4.954V3.953H7.03v2.094zm-3-.01H1.835L1.52 3.97h2.512v2.067zm.94.932h2.06v2.077H4.97V6.97zm3-.017h2.06v2.094H7.97V6.953zm3 2.078V6.985h1.905l-.29 2.047H10.97z" class="si-glyph-fill"/></g></svg>