<svg viewBox="0 0 17 16" xmlns="http://www.w3.org/2000/svg" class="si-glyph si-glyph-askterisk"><title>1132</title><path d="M14.99 6.153c-.35 0-1.95.454-3.947.788 1.422-1.58 2.768-2.754 2.96-3.06.577-.918.236-2.093-.762-2.623-.998-.53-2.273-.216-2.85.702-.19.304-.623 1.948-1.39 3.86-.77-1.912-1.2-3.557-1.39-3.86-.578-.92-1.853-1.233-2.85-.703-1 .53-1.34 1.705-.763 2.622.19.306 1.537 1.48 2.96 3.06-1.997-.333-3.6-.787-3.95-.787-1.08 0-1.954.842-1.954 1.882 0 1.038.875 1.88 1.955 1.88.35 0 1.93-.448 3.907-.782-1.408 1.557-2.73 2.71-2.92 3.014-.576.92-.234 2.092.764 2.624.997.53 2.272.217 2.85-.702.19-.304.622-1.948 1.39-3.86.77 1.912 1.2 3.557 1.392 3.86.575.92 1.85 1.233 2.85.703.998-.53 1.34-1.703.763-2.62-.19-.306-1.51-1.46-2.918-3.017 1.978.334 3.557.782 3.905.782 1.08 0 1.956-.842 1.956-1.88 0-1.04-.877-1.882-1.957-1.882z" fill="#434343" class="si-glyph-fill" fill-rule="evenodd"/></svg>