<svg viewBox="0 0 16 16" xmlns="http://www.w3.org/2000/svg" class="si-glyph si-glyph-right-justify"><title>1162</title><g fill="#434343" fill-rule="evenodd"><path d="M16 1.938c0 .518-.42.938-.938.938H.98A.938.938 0 0 1 .98 1h14.082c.518 0 .938.42.938.938zM16 4.938c0 .518-.42.938-.938.938H.98A.938.938 0 0 1 .98 4h14.082c.518 0 .938.42.938.938zM16 7.938c0 .518-.42.938-.938.938H.98A.938.938 0 0 1 .98 7h14.082c.518 0 .938.42.938.938zM16 10.938c0 .518-.42.938-.938.938H.98A.938.938 0 0 1 .98 10h14.082c.518 0 .938.42.938.938zM16 13.938c0 .518-.42.938-.938.938H5.98a.938.938 0 0 1 0-1.876h9.082c.518 0 .938.42.938.938z" class="si-glyph-fill"/></g></svg>