<svg viewBox="0 0 17 16" xmlns="http://www.w3.org/2000/svg" class="si-glyph si-glyph-electron"><title>798</title><g transform="translate(1)" fill="#434343" fill-rule="evenodd"><ellipse cx="7.956" cy="7.964" rx="1.956" ry="1.964" class="si-glyph-fill"/><path d="M11.977 15.997c-2.42 0-5.46-1.544-7.938-4.03C.176 8.09-1.114 3.31 1.102 1.087 1.808.376 2.813 0 4 0c2.422 0 5.463 1.545 7.94 4.032 3.86 3.876 5.15 8.655 2.936 10.88-.705.71-1.708 1.083-2.9 1.083zM4.002 1.342c-.84 0-1.5.232-1.956.69C.416 3.67 1.76 7.786 4.982 11.02c2.235 2.243 4.916 3.638 6.995 3.638.842 0 1.5-.232 1.957-.69 1.63-1.638.285-5.753-2.936-8.987-2.235-2.244-4.916-3.638-6.996-3.638z" class="si-glyph-fill"/><path d="M4.002 15.997c-1.19 0-2.193-.374-2.898-1.083C-1.113 12.69.177 7.91 4.04 4.034 6.517 1.546 9.558 0 11.978 0c1.19 0 2.193.375 2.9 1.084 2.214 2.223.924 7.003-2.936 10.88-2.478 2.487-5.52 4.03-7.94 4.03zM11.977 1.34c-2.08 0-4.76 1.396-6.995 3.64-3.22 3.235-4.565 7.35-2.936 8.987.456.458 1.115.69 1.956.69 2.08 0 4.76-1.394 6.996-3.638 3.22-3.236 4.564-7.353 2.935-8.988-.457-.458-1.115-.69-1.956-.69z" class="si-glyph-fill"/></g></svg>