<svg viewBox="0 0 17 17" xmlns="http://www.w3.org/2000/svg" class="si-glyph si-glyph-blender"><title>833</title><g fill="#434343" fill-rule="evenodd"><path d="M10.822 12.062l-.864.007.03-1.07H7.03l-.01 1.06-.902-.002c-1.19.81-2.097 2.134-2.097 2.983 0 1.23 8.93 1.25 8.93 0 0-.452-.827-2.048-2.128-2.978zm-1.78 2H7.96v-1.104h1.085v1.104zM11.857 2.023c.076-.512.122-.874.122-.992 0-1.31-6.918-1.29-6.918 0 0 1.312 1.682 8.902 3.03 8.902h.734c.448 0 .892-.84 1.287-2.005 3.23-.413 3.882-3.235 3.886-3.293v-2.61h-2.143zM10.48 6.98c.418-1.304.768-2.87.982-4h1.558v1.69c-.008.086-.237 1.892-2.54 2.31z" class="si-glyph-fill"/></g></svg>