<svg viewBox="0 0 17 16" xmlns="http://www.w3.org/2000/svg" class="si-glyph si-glyph-trolley-arrow-up"><title>764</title><g fill="none" fill-rule="evenodd"><path d="M2.17 9.994h1.873V7.96H1.86l.31 2.034zM5 8h2.062v2.078H5zM4.03 4.97H1.52l.314 2.067H4.03V4.97zM11 7.11h1.746l.332-2.14H11v2.14zM8 8h2.062v2.094H8zM10.97 10.03h1.616l.29-2.046h-1.907v2.047z"/><path d="M3.04 13.484a1.437 1.437 0 1 0 2.767-.542h-2.66c-.07.167-.108.35-.108.542zM9.06 13.5c0 .82.65 1.485 1.454 1.485.803 0 1.45-.664 1.45-1.485 0-.197-.038-.385-.106-.557h-2.69c-.068.172-.107.36-.107.557zM10.514 12.016c-.1 0-.2.01-.293.03h.587a1.42 1.42 0 0 0-.293-.03z" fill="#434343" class="si-glyph-fill"/><path d="M10.22 12.046H2.565c-.32 0-.5.056-.5.423 0 .366.18.473.5.473h.583a1.435 1.435 0 0 1 2.66 0h3.36a1.46 1.46 0 0 1 1.054-.897z" fill="#434343" class="si-glyph-fill"/><path d="M14.684 1.337c-.717 0-1.297.6-1.297 1.338l-.172 1.343h-3.172v.95h-.027v2.048H7.97v-.974h-.94v1.005H4.954V4.953h.005v-.936h-4.4c-.32 0-.542.287-.542.654 0 .14.01.27.072.376l1.21 5.454c.04.172.17.3.332.37.08.048.168.082.265.082H12.36l-.174 1.093h-1.38c.48.1.872.443 1.052.897h1.496l1.16-8.948c.057.007.11.018.17.018.715 0 1.295-.6 1.295-1.338 0-.738-.582-1.337-1.296-1.337zM1.52 4.97h2.512v2.067H1.835L1.52 4.97zm2.523 5.024H2.17L1.86 7.96h2.183v2.034zm2.988.053H4.97V7.97h2.06v2.077zm3 0H7.97V7.953h2.06v2.094zm2.556-.016H10.97V7.985h1.905l-.29 2.047zm.16-2.92H11V4.967h2.078l-.332 2.14zM4.477 12.047c-.603 0-1.116.37-1.33.896h2.66a1.435 1.435 0 0 0-1.33-.896z" fill="#434343" class="si-glyph-fill"/><path d="M10.807 12.046h-.586c-.48.1-.87.443-1.052.897h2.69a1.455 1.455 0 0 0-1.05-.897zM7 2.938v2h.98v-2h1L7.48 1 6.02 2.938H7z" fill="#434343" class="si-glyph-fill"/></g></svg>