<svg viewBox="0 0 16 16" xmlns="http://www.w3.org/2000/svg" class="si-glyph si-glyph-excavator"><title>159</title><g fill="#434343" fill-rule="evenodd"><path d="M14.858 12.07H5.14c-.61 0-1.1.582-1.1 1.3v1.3c0 .718.49 1.3 1.1 1.3h9.718c.608 0 1.1-.582 1.1-1.3v-1.3c0-.718-.49-1.3-1.1-1.3zm-7.88 3.035a1.123 1.123 0 0 1-1.114-1.13c0-.628.5-1.133 1.115-1.133.612 0 1.112.505 1.112 1.132 0 .626-.5 1.13-1.113 1.13zm3.008-.01a1.078 1.078 0 0 1-1.076-1.08c0-.598.482-1.082 1.076-1.082a1.08 1.08 0 0 1 1.076 1.08c0 .598-.483 1.08-1.076 1.08zm3.045.03c-.63 0-1.144-.494-1.144-1.107 0-.615.514-1.11 1.145-1.11.632 0 1.146.495 1.146 1.11 0 .613-.514 1.108-1.145 1.108zM11.978 8.02l.02-2.013H7.42L6.583 3.91l-.004-.012-.005.002L3.99 1.204l.347-.9-.864-.336L1.215 6.25A2.368 2.368 0 0 0 .28 9.403c.6 1.146 2.302 1.926 3.44 1.315.88-.472-.52-3.405-1.59-4.27l1.49-4.285 2.16 2.255 1.282 4.585v.996c0 1.607 1.03.944 1.03.944h6.032s.844.39.844-1.007v-1.22c0-.866-.938-.707-.938-.707l-2.052.013zm-.947 2.042H7.938V6.937h3.094v3.125z" class="si-glyph-fill"/></g></svg>