<svg viewBox="0 0 16 16" xmlns="http://www.w3.org/2000/svg" class="si-glyph si-glyph-christmas-mistletoe"><title>173</title><g transform="translate(0 3)" fill="#434343" fill-rule="evenodd"><circle cx="7.428" cy="9.428" r="1.428" class="si-glyph-fill"/><ellipse cx="11.461" cy="8.493" rx="1.461" ry="1.493" class="si-glyph-fill"/><ellipse cx="8.477" cy="5.493" rx="1.477" ry="1.493" class="si-glyph-fill"/><path d="M7.08 2.363c-.075.025-.14.088-.2.145-.24.226-.537.37-.855.443-.42.1-1.16-.21-1.522-.506-.498 1.206-2.152 1.447-2.88.45.102.572.148.825-.274 1.227-.413.392-.84.62-1.34.816.168-.065.325-.116.507-.122.726-.028 1.482.41 1.908 1.002.2.28.338.627.307.985-.005.063-.062.21-.008.245.078.05.277-.116.346-.147a1.77 1.77 0 0 1 .84-.14c.44.028.73.306.98.653.15.205.354 1.273.79.85.152-.148.193-.483.32-.676.148-.227.374-.366.527-.57.19-.25.02-.614-.096-.857a1.557 1.557 0 0 1-.125-.556c-.34-.224-1.19-.63-2.855-.618h-.002a.324.324 0 0 1-.322-.325.324.324 0 0 1 .32-.33h.084c1.424 0 2.325.3 2.844.564.047-.18.105-.36.174-.524.096-.232.275-.358.47-.488.16-.11.32-.248.282-.478-.06-.348-.206-.675-.22-1.037zM16.01.164c-.53.172-1.02.273-1.604.248-.6-.027-.725-.243-1.008-.725.053 1.188-1.434 2.056-2.61 1.486-.103.447-.498 1.14-.898 1.333a2.057 2.057 0 0 1-.974.214c-.084-.004-.177-.01-.252.02-.072.028.525.67.634.725.327.162.67.187.896.48.08.104.158.226.23.35a11.926 11.926 0 0 1 2.482-2.525.356.356 0 0 1 .474.045.297.297 0 0 1-.048.44c-1.594 1.203-2.437 2.487-2.65 2.84a.697.697 0 0 0 .175.37c.29.31.67.172 1.046.276.23.064.45.162.653.283.188.114.307.304.542.318.31.02.54-.12.654-.384.158-.355-.06-.558-.08-.9-.02-.41.033-.798.37-1.1.215-.19.48-.346.767-.425.074-.02.34-.024.37-.11.023-.06-.117-.13-.16-.173-.257-.243-.37-.582-.388-.916-.038-.7.29-1.5.89-1.937.15-.11.31-.17.487-.23z" class="si-glyph-fill"/></g></svg>