<svg viewBox="0 0 17 17" xmlns="http://www.w3.org/2000/svg" class="si-glyph si-glyph-hand-switch"><title>960</title><path d="M14.484 3.062c-.82 0-1.484.637-1.484 1.422 0 .062.01.12.02.18l-3.703 2.19c-.74-1.11-1.866-1.85-3.348-1.85-.01 0-.017.002-.017.002l-.007-2.604c0-.715-.775-1.294-1.525-1.316-.75.022-1.352.602-1.352 1.316v13.13c0 .715.602 1.294 1.353 1.316.75-.022 1.526-.602 1.526-1.316v-2.604l.022.002c2.3 0 3.993-1.775 3.993-3.963 0-.31-.04-.607-.11-.895l3.956-2.332c.204.102.432.164.678.164.82 0 1.484-.637 1.484-1.422 0-.785-.663-1.42-1.484-1.42z" class="si-glyph-fill" fill="#434343" fill-rule="evenodd"/></svg>