<svg viewBox="0 0 17 16" xmlns="http://www.w3.org/2000/svg" class="si-glyph si-glyph-socket"><title>1040</title><g fill="#434343" fill-rule="evenodd"><path d="M8.97 12.98A4.972 4.972 0 0 1 4 8.01c0-2.738 2.227-4.97 4.967-4.97 2.738 0 4.968 2.23 4.968 4.97 0 2.74-2.23 4.97-4.97 4.97zm.038-9.077c-2.247 0-4.075 1.846-4.075 4.114S6.76 12.13 9.008 12.13c2.244 0 4.074-1.846 4.074-4.113 0-2.268-1.83-4.114-4.074-4.114z" class="si-glyph-fill"/><path d="M16.916 15.918H1V0h15.916v15.918zM1.97 15.03h14.06V.938H1.97V15.03z" class="si-glyph-fill"/><path class="si-glyph-fill" d="M7 7h.97v1.812H7zM10 7h.97v1.812H10z"/></g></svg>