<svg viewBox="0 0 16 16" xmlns="http://www.w3.org/2000/svg" class="si-glyph si-glyph-text-search"><title>102</title><g fill="#434343" fill-rule="evenodd"><path class="si-glyph-fill" d="M0 0h13.93v.983H0zM0 2h13.93v.942H0zM0 14h10.958v.95H0zM8.49 4.054C6.01 4.054 4 6.047 4 8.506c0 2.46 2.01 4.452 4.49 4.452 2.48 0 4.49-1.993 4.49-4.452 0-2.46-2.01-4.452-4.49-4.452zm0 7.964a3.54 3.54 0 0 1 0-7.08 3.54 3.54 0 0 1 0 7.08zM15.938 14.61l-1.36 1.362-2.997-2.996s.57-.073.932-.434c.36-.362.43-.928.43-.928l2.996 2.997z"/><path d="M8.677 6.43c.526 0 .33-.4-.403-.4-1.26 0-2.28 1.01-2.28 2.256 0 .725.405.92.405.4C6.397 7.44 7.417 6.43 8.676 6.43zM0 4h3.973v.962H0zM0 6h3v.973H0zM0 8h2.98v.993H0zM0 10h3.02v.973H0zM0 12h4v.93H0z" class="si-glyph-fill"/></g></svg>