<svg viewBox="0 0 17 16" xmlns="http://www.w3.org/2000/svg" class="si-glyph si-glyph-bucket"><title>915</title><g fill="none" fill-rule="evenodd"><path d="M8.76 1.143c-.508-.51-2.357.52-4.13 2.302C2.856 5.227 1.827 7.082 2.335 7.59c.506.51 2.354-.52 4.13-2.303 1.77-1.78 2.8-3.637 2.293-4.144z"/><path d="M16.737 7.88l-.903-.895c-.327.91-.975 1.69-1.93 2.25-1.016.6-2.292.916-3.69.916-.79 0-1.59-.102-2.378-.304a.593.593 0 1 1 .297-1.15c.695.18 1.398.272 2.09.272 1.176 0 2.24-.26 3.078-.753.794-.468 1.315-1.11 1.508-1.86.028-.115.023-.234.038-.35L8.862.06S7.172-.244 4.044 2.9C.91 6.043 1.034 7.833 1.034 7.833s7.16 7.19 7.877 7.907c.718.72 2.992-.207 5.34-2.563 2.348-2.363 3.093-4.688 2.487-5.296zm-14.4-.29c-.51-.51.52-2.363 2.292-4.146C6.4 1.664 8.25.634 8.76 1.142c.506.508-.522 2.363-2.295 4.144C4.69 7.068 2.842 8.098 2.335 7.59z" fill="#434343" class="si-glyph-fill"/><path d="M15.864 6.62c.69-2.684-1.775-5.646-5.498-6.604a.498.498 0 0 0-.604.355.496.496 0 0 0 .356.603c3.063.787 5.157 3.05 4.833 5.136l.807.798c.034-.097.082-.187.107-.287z" fill="#434343" class="si-glyph-fill"/></g></svg>