<svg viewBox="0 0 16 16" xmlns="http://www.w3.org/2000/svg" class="si-glyph si-glyph-briefcase-person"><title>Briefcase-person</title><g fill="#434343" fill-rule="evenodd"><path d="M13.562 3.083H1.437C.643 3.083 0 3.733 0 4.536V13.5c0 .804.643 1.454 1.437 1.454h12.125c.794 0 1.438-.65 1.438-1.454V4.536c0-.802-.644-1.453-1.438-1.453zM7.504 5.906c.855 0 1.55.706 1.55 1.577 0 .872-.694 2.538-1.55 2.538-.856 0-1.55-1.665-1.55-2.537 0-.87.694-1.577 1.55-1.577zm3.5 7.125H4s-.12-3.075 1.677-3.075c.375.594.892 1.164 1.843 1.164.95 0 1.4-.575 1.775-1.18 2.02 0 1.71 3.09 1.71 3.09z" class="si-glyph-fill"/><path d="M5.782 2.682c0-.428.295-.775.66-.775h2.093c.364 0 .66.348.66.775v.885h.78v-1.19c0-.743-.514-1.348-1.144-1.348H6.15c-.632 0-1.147.603-1.147 1.346v1.19h.78v-.884z" class="si-glyph-fill"/></g></svg>