<svg viewBox="0 0 17 16" xmlns="http://www.w3.org/2000/svg" class="si-glyph si-glyph-database-download"><title>635</title><g fill="#434343" fill-rule="evenodd"><g transform="translate(2)"><ellipse cx="6.43" cy="2.421" rx="6.43" ry="2.421" class="si-glyph-fill"/><path d="M6.494 6.05c-3.516 0-6.447-1-6.447-1.673v3.346c0 1.214 2.887 2.196 6.447 2.196s6.447-.983 6.447-2.197V4.377c0 .672-2.93 1.674-6.446 1.674z" class="si-glyph-fill"/></g><path d="M11.014 12.003h2.02V10.5c-1.175.33-2.8.58-4.57.58-3.516 0-6.447-.98-6.447-1.636v3.27c0 1.187 2.887 2.145 6.447 2.145 1.648 0 3.146-.208 4.287-.547l-1.736-2.31zM14.982 11.016v1.987h1.002l-1.492 1.966-1.476-1.967h1.017v-1.987h.95z" class="si-glyph-fill"/></g></svg>