<svg viewBox="0 0 16 16" xmlns="http://www.w3.org/2000/svg" class="si-glyph si-glyph-flower"><title>1056</title><path d="M15.164 8.404c-.17-.094-.522-.237-.982-.403.46-.165.81-.307.98-.4 1.017-.55 1.122-2.16.236-3.6-.887-1.436-2.43-2.156-3.444-1.608a8.64 8.64 0 0 0-.865.597c.077-.46.118-.815.118-1C11.208.89 9.77 0 8 0 6.23 0 4.79.89 4.79 1.99c0 .185.043.54.12.997a8.562 8.562 0 0 0-.862-.596C3.032 1.843 1.488 2.563.603 4c-.885 1.437-.78 3.048.235 3.597.173.095.522.238.985.404-.463.168-.814.31-.986.405-1.016.55-1.12 2.158-.235 3.597.886 1.437 2.43 2.157 3.444 1.608.173-.093.48-.304.865-.595-.077.457-.12.81-.12.997 0 1.1 1.436 1.99 3.21 1.99 1.77 0 3.208-.89 3.208-1.99 0-.187-.04-.542-.12-1 .386.292.694.504.867.597 1.016.548 2.558-.17 3.443-1.608.887-1.44.78-3.05-.234-3.598zM8 11.047a3.047 3.047 0 0 1 0-6.092A3.048 3.048 0 0 1 11.05 8 3.05 3.05 0 0 1 8 11.048z" fill="#434343" class="si-glyph-fill" fill-rule="evenodd"/></svg>