<svg viewBox="0 0 17 16" xmlns="http://www.w3.org/2000/svg" class="si-glyph si-glyph-record"><title>857</title><path d="M12.98 5.004c-2.193 0-3.976 1.793-3.976 3.996 0 .732.21 1.41.555 2H8.353a3.942 3.942 0 0 0 .572-2.026C8.926 6.784 7.15 5 4.968 5 2.786 5 1.01 6.784 1.01 8.975c0 2.19 1.776 3.973 3.958 3.973.01 0 .03.053.03.053h8a4 4 0 0 0 3.96-4c0-2.203-1.785-3.996-3.978-3.996zM5 11c-1.104 0-2-.897-2-2s.896-2 2-2c1.103 0 2 .897 2 2s-.897 2-2 2zm8 0c-1.103 0-2-.897-2-2 0-1.102.898-2 2-2 1.103 0 2 .898 2 2a2 2 0 0 1-2 2z" fill="#434343" class="si-glyph-fill" fill-rule="evenodd"/></svg>