<svg viewBox="0 0 17 17" xmlns="http://www.w3.org/2000/svg" class="si-glyph si-glyph-cloud-snow"><title>726</title><g transform="translate(1 3)" fill="#434343" fill-rule="evenodd"><path d="M13.803 3.424c-.25 0-.486.067-.71.168-.694-1.043-1.828-1.725-3.11-1.725-.208 0-.408.02-.605.056C8.698.785 7.513.03 6.162.03c-1.907 0-3.483 1.5-3.77 3.462-.02 0-.035-.005-.052-.005C1.063 3.487.028 4.6.028 5.97h15.96c-.14-1.433-1.06-2.546-2.185-2.546z" class="si-glyph-fill"/><circle cx="1.973" cy="7.973" r=".973" class="si-glyph-fill"/><circle cx="5.962" cy="9.962" r=".962" class="si-glyph-fill"/><circle cx="9.973" cy="7.973" r=".973" class="si-glyph-fill"/><circle cx="13.962" cy="9.962" r=".962" class="si-glyph-fill"/></g></svg>