<svg viewBox="0 0 17 17" xmlns="http://www.w3.org/2000/svg" class="si-glyph si-glyph-square-eight-angle-point"><title>1202</title><path d="M16 4V1.04h-2.96v1.022H10v-1.02H6.04v1.02H3v-1.02H.04V4h1.012v3.04H.042V11h1.01v3.04H.042V17h2.957v-1.02h3.04V17H10v-1.02h3.04V17H16v-2.96h-1.03V11H16V7.04h-1.03V4H16zM9.062 1.938v1.125H6.978V1.938h2.084zm6 0v1.125h-1.084V1.938h1.084zm-14.083 0h1.083v1.125H.98V1.938zm-.01 6h1.124v2.125H.97V7.938zm1.092 8.146H.978V14.96h1.084v1.124zm4.917-.022v-1.125h2.083v1.125H6.98zm6.988 0v-1.114h1.126v1.114h-1.126zm1.126-5.958H13.97V7.938h1.124v2.166zM13.04 7.04V11h1.012v3.04h-1.01v1.022H10v-1.02H6.04v1.02H3v-1.02H1.97V11H3V7.04H1.97V4H3V2.98h3.04V4H10V2.98h3.04V4h1.012v3.04h-1.01z" fill="#434343" class="si-glyph-fill" fill-rule="evenodd"/></svg>