<svg viewBox="0 0 17 16" xmlns="http://www.w3.org/2000/svg" class="si-glyph si-glyph-calendar-3"><title>1072</title><g fill="none" fill-rule="evenodd"><path d="M15 3.902H3c-1.027 0-1 .03-1 1.098v9c0 1.067-.027 1 1 1h12c1.027 0 1 .067 1-1V5c0-1.066.027-1.098-1-1.098zM13.957 12H12v1.998h-.96V12H6.938v2h-.9v-2H4v-.952h2.037V9H4.03v-.93h2.007V6.066h.9V8.07h4.104V6.068H12V8.07h1.953V9H12v2.048h1.957V12z"/><path d="M12 9h1.953v-.93H12V6.068h-.96V8.07H6.938V6.066h-.9V8.07H4.03V9h2.007v2.048H4V12h2.037v2h.9v-2h4.104v1.998H12V12h1.957v-.952H12V9zm-.975 2.048H6.968V9h4.057v2.048z" fill="#434343" class="si-glyph-fill"/><path d="M14.77 1.05H13V2h-1v-.95H6V2H5v-.95H3.23C1.998 1.05 1 2.06 1 3.307v10.322c0 1.244.998 2.255 2.23 2.255h11.54c1.23 0 2.23-1.01 2.23-2.255V3.306C17 2.06 16 1.05 14.77 1.05zM16 14c0 1.067.027 1-1 1H3c-1.027 0-1 .067-1-1V5h14v9zM5 0h.98v1H5zM12 0h1v1h-1z" fill="#434343" class="si-glyph-fill"/></g></svg>