<svg viewBox="0 0 17 16" xmlns="http://www.w3.org/2000/svg" class="si-glyph si-glyph-battery-low"><title>1168</title><g fill="#434343" fill-rule="evenodd"><path d="M7.062 13.508c0 .248.21.45.467.45h3.91c.256 0 .56-.202.56-.45V11.1l-4.938 2.057v.35z" class="si-glyph-fill"/><path d="M12.252 1H11V.016H8.023V1H6.715C5.78 1 5.02 1.658 5.02 2.583v11.742c0 .924.76 1.675 1.695 1.675h5.536c.937 0 1.695-.75 1.695-1.675V2.583c0-.925-.757-1.583-1.693-1.583zM13 14c0 .516-.484 1-1 1H7c-.515 0-1.064-.484-1.064-1V3c0-.514.55-1.05 1.064-1.05h5c.516 0 1 .535 1 1.05v11z" class="si-glyph-fill"/></g></svg>