<svg viewBox="0 0 17 16" xmlns="http://www.w3.org/2000/svg" class="si-glyph si-glyph-column-wave"><title>778</title><g fill="#434343" fill-rule="evenodd"><path d="M14 2.057C14 1.473 14.447 1 15 1c.55 0 1 .473 1 1.057v12.72c0 .583-.45 1.056-1 1.056-.553 0-1-.473-1-1.057V2.056zM10 5.057C10 4.473 10.45 4 11 4c.552 0 1 .473 1 1.057v9.72c0 .583-.448 1.056-1 1.056-.55 0-1-.473-1-1.057v-9.72zM6.002 8.057C6.002 7.473 6.45 7 7 7c.552 0 1 .473 1 1.057v6.72c0 .583-.448 1.056-1 1.056-.55 0-.998-.473-.998-1.057v-6.72zM2.043 11.057c0-.584.438-1.057.978-1.057s.98.473.98 1.057v3.72c0 .583-.44 1.056-.98 1.056s-.977-.473-.977-1.057v-3.72z" class="si-glyph-fill"/></g></svg>