<svg viewBox="0 0 17 17" xmlns="http://www.w3.org/2000/svg" class="si-glyph si-glyph-kette"><title>742</title><g fill="none" fill-rule="evenodd"><path d="M2.4 4.945l.683 7.262h1.044c.173-3.922.648-5.88 1.33-7.605l-2.975.337a.555.555 0 0 1-.082.005z"/><path d="M4.05 16.08c0 .417.01.477.023.88h9.857c.013-.403.022-.463.022-.88v-.018H4.05v.02zM4.127 12.206H3.083L2.4 4.947a.566.566 0 0 0 .082-.007L5.457 4.6c-.682 1.724-1.157 3.683-1.33 7.604zm8.947-7.878l-.506-.32c-.16-.416-.338-.596-.52-.914h-5.67c-.055.077-4.026.51-4.026.51-.715.024-1.29.626-1.286 1.413l.67 7.17c0 .75.845 1.358 1.582 1.358h.763c-.01.438 0 .95-.003 1.417h9.892c-.03-3.34-.174-5.917-.524-7.898.005-.01 2.462-2.47 2.462-2.47.152-.32-.42-.327-.908-.563 0 0-1.773-.02-1.926.298zM7.03 1.997h4.915c-.735-.845-1.446-.955-2.36-.955-.71 0-1.946.29-2.554.955z" fill="#434343" class="si-glyph-fill"/></g></svg>