<svg viewBox="0 0 17 17" xmlns="http://www.w3.org/2000/svg" class="si-glyph si-glyph-person-woman"><title>738</title><g fill="#434343" fill-rule="evenodd"><path d="M12.677 11c-2.843 2.147-.724 3.424-3.653 3.424-2.932 0-.604-1.19-3.76-3.398-4.908 1.38-4.226 4.884-4.226 4.884h15.875s.65-3.92-4.236-4.91zM12.574 6.998L12 8.878 13.882 9s-1.153-.85-1.31-2.002zM5.394 7.023l.538 1.893L4.045 9s1.17-.826 1.35-1.977zM11.93 5.046c0 1.68-1.324 4.895-2.955 4.895-1.632 0-2.954-3.214-2.954-4.894C6.02 3.363 7.344 2 8.976 2c1.63 0 2.954 1.364 2.954 3.046z" class="si-glyph-fill"/></g></svg>