<svg viewBox="0 0 17 16" xmlns="http://www.w3.org/2000/svg" class="si-glyph si-glyph-wallet"><title>969</title><g fill="#434343" fill-rule="evenodd"><path d="M8.988 10.635V8.327c0-.75.573-1.358 1.28-1.358h4.696V5.53c0-.68-.404-1.25-.957-1.437l-1.65-.013-.02-.058H4.924l-.14.048-2.615-.002-.005-.02c-.636.12-1.148.695-1.148 1.436v7.953c0 .832.648 1.555 1.39 1.555h11.215c.743 0 1.343-.676 1.343-1.508V12.03h-4.697c-.706 0-1.28-.646-1.28-1.395z" class="si-glyph-fill"/><path d="M15.996 8.06H10.99c-.53 0-.96.47-.96 1.046v.816c0 .576.43 1.044.96 1.044h5.007c.528 0 .958-.468.958-1.044v-.816c0-.578-.43-1.045-.96-1.045zm-2.965 1.956h-2.06V9h2.06v1.016zM4.926 4.022l6.63-2.27.78 2.27h1.286c.135 0 .263.03.386.07l-1.39-4.04L2.05 3.57l.118.476c.08-.015.16-.025.242-.025h2.518z" class="si-glyph-fill"/></g></svg>