<svg viewBox="0 0 17 16" xmlns="http://www.w3.org/2000/svg" class="si-glyph si-glyph-hamburger"><title>1037</title><g fill="#434343" fill-rule="evenodd"><path d="M1.02 13.06c0 3.263 7.45 2.88 7.982 2.88.533 0 7.98.532 7.98-2.88H1.022zM1 11h15.95v.95H1zM1.318 9.99a.32.32 0 0 0 .18-.054L3 8.744l1.836 1.18c.105.072.244.07.352-.002l1.828-1.18L8.8 9.91a.31.31 0 0 0 .35 0l1.833-1.168L12.79 9.91c.108.072.245.07.352-.002l1.867-1.152 1.468 1.182c.148.1.348.06.445-.094a.34.34 0 0 0-.09-.463L15.188 8.08a.313.313 0 0 0-.354 0l-1.87 1.154-1.808-1.168a.314.314 0 0 0-.35 0L8.973 9.233 7.187 8.064a.31.31 0 0 0-.35.002L5.008 9.244l-1.837-1.18a.31.31 0 0 0-.352.002L1.14 9.38a.34.34 0 0 0-.09.46c.063.1.165.15.268.15zM16.797 4.958c0-.01.004-.02.002-.03C16.203.662 11.013.066 8.997.066s-7.117.597-7.8 4.862v.03h15.6zm-2.84-2h1.086V4.02h-1.085V2.958zm-11 0h1.074v1.058H2.96V2.958zm3-1h1.06V3h-1.06V1.958zm5 0H12v1.058h-1.042V1.958zm-3 1H9.02V4.02H7.958V2.958zM8.98.974H10v1.053H8.98V.974zM1 6h15.924v.902H1z" class="si-glyph-fill"/></g></svg>