<svg viewBox="0 0 16 16" xmlns="http://www.w3.org/2000/svg" class="si-glyph si-glyph-phone-number"><title>129</title><g fill="#434343" fill-rule="evenodd"><path d="M15.924 3.78c0-3.817-6.137-3.69-8.287-3.69-2.152 0-7.6.046-7.6 3.863h3.91l.004-.957c0-.438.48-1.027 1.554-1.027h5.013c1.046 0 1.537.588 1.537 1.026 0 .154.008.927.008.957h3.86l.002-.174zM4.987 9.338c0 .34-.286.617-.638.617H3.65a.628.628 0 0 1-.64-.617v-.676c0-.34.287-.617.64-.617h.697c.35 0 .637.276.637.617v.676zM12.975 9.345a.637.637 0 0 1-.64.638h-.695a.637.637 0 0 1-.638-.638v-.697c0-.353.285-.638.638-.638h.696c.354 0 .64.285.64.638v.697zM8.986 9.35a.637.637 0 0 1-.638.637H7.65a.637.637 0 0 1-.637-.638V8.65c0-.353.285-.638.637-.638h.698c.353 0 .638.285.638.638v.697zM4.962 12.336c0 .353-.28.638-.628.638h-.686a.633.633 0 0 1-.63-.638v-.697c0-.355.282-.64.63-.64h.686c.347 0 .628.285.628.64v.696zM12.943 12.346a.62.62 0 0 1-.617.628h-.676a.62.62 0 0 1-.617-.628v-.686c0-.35.275-.63.617-.63h.676a.62.62 0 0 1 .617.63v.686zM8.982 12.346a.63.63 0 0 1-.637.628h-.697a.632.632 0 0 1-.638-.628v-.686c0-.35.285-.63.638-.63h.697a.63.63 0 0 1 .637.63v.686zM4.993 15.347a.628.628 0 0 1-.638.618h-.697a.628.628 0 0 1-.64-.618v-.676c0-.34.287-.616.64-.616h.697c.352 0 .638.276.638.617v.677zM12.975 15.357c0 .354-.285.64-.64.64h-.695a.637.637 0 0 1-.638-.64v-.697c0-.353.285-.638.638-.638h.696c.354 0 .64.285.64.638v.697zM8.982 15.357a.63.63 0 0 1-.627.64H7.67a.63.63 0 0 1-.628-.64v-.697a.63.63 0 0 1 .627-.638h.685a.63.63 0 0 1 .627.638v.697zM.992 5.973H3.04s.706.228.886-.973H.066c.168 1.113.926.973.926.973zM12.115 5c.21 1.053.963.973.963.973h1.89s.76.01.944-.973h-3.797z" class="si-glyph-fill"/></g></svg>