<svg viewBox="0 0 16 17" xmlns="http://www.w3.org/2000/svg" class="si-glyph si-glyph-poker-1"><title>618</title><path d="M11.494 1H5.412C4.082 1 3 1.098 3 2.445v13.1c0 1.348 1.082 1.445 2.412 1.445h6.082c1.33 0 2.412-.098 2.412-1.445v-13.1C13.906 1.098 12.824 1 11.494 1zm-2.49 9.564v2.457H7.96v-2.423c-.49.268-1.19.336-1.63.336-.73 0-1.318-.785-1.318-1.754 0-.968.59-1.75 1.317-1.75.244 0 .573.09.902.245-.134-.393-.217-.787-.217-1.078 0-.86.667-1.557 1.486-1.557.816 0 1.48.697 1.48 1.557 0 .297-.083.7-.22 1.102.34-.17.685-.27.937-.27.713 0 1.29.782 1.29 1.75s-.577 1.753-1.29 1.753c-.447 0-1.197-.074-1.692-.37z" fill="#434343" class="si-glyph-fill" fill-rule="evenodd"/></svg>