<svg viewBox="0 0 17 16" xmlns="http://www.w3.org/2000/svg" class="si-glyph si-glyph-wash-machine"><title>997</title><g fill="#434343" fill-rule="evenodd"><path d="M16.03.042h-15v3h15v-3zm-12.988 2H1.938V.958h1.104v1.084zm2 0H3.938V.958h1.104v1.084z" class="si-glyph-fill"/><path d="M1.02 3v13h14.96V3H1.02zm7.492 12.083c-3.068 0-5.555-2.5-5.555-5.583 0-3.084 2.486-5.584 5.555-5.584 3.067 0 5.554 2.5 5.554 5.584 0 3.083-2.487 5.583-5.554 5.583z" class="si-glyph-fill"/><path d="M8.516 5.083c-2.453 0-4.44 1.98-4.44 4.416 0 2.437 1.987 4.417 4.44 4.417 2.454 0 4.442-1.98 4.442-4.418S10.97 5.082 8.516 5.082zm3.283 4.945c.078 0 .15-.02.217-.048a3.527 3.527 0 0 1-3.5 3.037 3.528 3.528 0 0 1-3.538-3.52c0-1.94 1.583-3.515 3.536-3.515 1.79 0 3.266 1.32 3.5 3.036a.53.53 0 1 0-.218 1.01z" class="si-glyph-fill"/></g></svg>