<svg viewBox="0 0 17 16" xmlns="http://www.w3.org/2000/svg" class="si-glyph si-glyph-link-1"><title>820</title><g fill="#434343" fill-rule="evenodd"><path class="si-glyph-fill" d="M5 7h6.98v.96H5z"/><path d="M14.604 5h-4.22c-.742 0-1.35.59-1.35 1.318v2.344c0 .726.607 1.317 1.35 1.317h4.22c.744 0 1.348-.593 1.348-1.318V6.318c0-.727-.604-1.318-1.348-1.318zm.42 3.68c0 .19-.17.347-.38.347h-4.32c-.21 0-.38-.155-.38-.348V6.3c0-.192.17-.35.38-.35h4.32c.21 0 .38.157.38.35V8.68zM6.62 5H2.378c-.75 0-1.357.59-1.357 1.318v2.344c0 .726.608 1.317 1.357 1.317H6.62c.75 0 1.357-.593 1.357-1.318V6.318C7.977 5.59 7.37 5 6.62 5zm.43 3.662c0 .19-.173.343-.382.343H2.35c-.21 0-.38-.153-.38-.343V6.318c0-.19.17-.344.38-.344h4.318c.21 0 .38.154.38.344v2.344z" class="si-glyph-fill"/></g></svg>