<svg viewBox="0 0 17 16" xmlns="http://www.w3.org/2000/svg" class="si-glyph si-glyph-turn-off"><title>1105</title><g fill="#434343" fill-rule="evenodd"><path d="M11.124 1.613v2.35c1.606.886 2.632 2.623 2.632 4.577 0 2.854-2.35 5.17-5.248 5.17-2.896 0-5.246-2.315-5.246-5.17 0-2.017 1.012-3.75 2.696-4.6V1.61c-2.937.976-4.895 3.694-4.895 6.93 0 4.052 3.334 7.335 7.444 7.335 4.11 0 7.446-3.283 7.446-7.335 0-3.177-1.973-5.902-4.83-6.927z" class="si-glyph-fill"/><path d="M8.46 7.873c.778 0 1.412-.48 1.412-1.075V1.115C9.872.52 9.238.04 8.46.04c-.78 0-1.412.48-1.412 1.075v5.683c0 .595.633 1.075 1.412 1.075z" class="si-glyph-fill"/></g></svg>