<svg viewBox="0 0 17 17" xmlns="http://www.w3.org/2000/svg" class="si-glyph si-glyph-circle-load-right"><title>826</title><path d="M.04 7.38C.115 3.256 3.392-.034 7.344.04c3.917.073 6.854 2.93 6.83 7.003h1.545c.216.22.216.58 0 .8L13.872 9.86a.546.546 0 0 1-.785 0l-1.725-2.016a.57.57 0 0 1 0-.8h1.422c.023-3.337-2.26-5.583-5.467-5.643-3.233-.06-5.912 2.63-5.975 6.003-.062 3.322 2.445 6.077 5.613 6.216v1.36C3.06 14.842-.034 11.46.04 7.38z" fill="#434343" class="si-glyph-fill" fill-rule="evenodd"/></svg>