<svg viewBox="0 0 17 16" xmlns="http://www.w3.org/2000/svg" class="si-glyph si-glyph-tank"><title>713</title><g fill="#434343" fill-rule="evenodd"><path d="M4 1V0h-.97v1L3 4.03h1.97V1H4zM9.03 0v1.03H8v4h2V0h-.97z" class="si-glyph-fill"/><path class="si-glyph-fill" d="M2 2h10.037v1H2zM2 8h4v4.004H2zM4.568 4H3.453C2.11 4 2 3.96 2 5.142v1.83h4V5.14C6 3.96 5.91 4 4.568 4zM3.453 15.97h1.115C5.91 15.97 6 16.01 6 14.825v-1.822H2v1.822c0 1.184.11 1.143 1.453 1.143zM9.557 4.05H8.465C7.15 4.05 7 4.01 7 5.194v1.812h4V5.193c0-1.183-.13-1.142-1.443-1.142zM8.465 16.007h1.092c1.314 0 1.443.04 1.443-1.143v-1.85H7v1.85c0 1.184.15 1.143 1.465 1.143zM7 8h4v4H7zM1 6v3.006h.97V6H1zM11 6v3.01h.97V6H11zM11 11v2.97h.97V11H11zM1 11v3.028h.97V11H1z"/><path d="M15.75 14.03c-.506 0-.955-.194-1.336-.58-1.725-1.743-1.35-4.513-1.35-6.39 0-.73-.064-1.47-.064-2.025 0-1.348-.22-2.104-.962-2.104l-.007-.836S14 1.5 14 5.028c0 .562-.003 1.23-.012 1.966-.04 3.48-.294 4.308 1.137 5.755.19.192.39.282.625.282v1z" class="si-glyph-fill"/><ellipse cx="15.484" cy="13.469" rx="1.484" ry="1.469" class="si-glyph-fill"/></g></svg>