<svg viewBox="0 0 17 16" xmlns="http://www.w3.org/2000/svg" class="si-glyph si-glyph-christmass-hat"><title>1070</title><g fill="#434343" fill-rule="evenodd"><path d="M15.33.69c-.494.02-1.045.412-1.498.16-2.182-1.212-6.19-1.157-7.73.963-.83 1.146-.593 2.663-1.372 3.8-1.06 1.548-2.763 2.325-2.7 4.592.032 1.1 1.534.722 2.313.718 1.217-.007 2.754-.01 3.97-.013 1.142-.002 2.67-.004 3.81-.004 2.92 0 1.507-1.327 1.158-3.068-.165-.837-.69-1.95-.987-2.72-.366-.938-1.65-3.04-.178-3.325 2.037-.396.203 1.445 3.218 2.177.88.213 1.638-.74 1.638-1.647 0-.688-.44-1.32-1.087-1.55A1.425 1.425 0 0 0 15.33.69zM14.925 14.67c0 .72-.624 1.302-1.39 1.302H2.422c-.766 0-1.39-.583-1.39-1.303v-1.304c0-.72.624-1.302 1.39-1.302h11.113c.766 0 1.39.583 1.39 1.302v1.303z" class="si-glyph-fill"/></g></svg>