<svg viewBox="0 0 17 17" xmlns="http://www.w3.org/2000/svg" class="si-glyph si-glyph-pallette"><title>806</title><path d="M11.23 8.398c-1.44-1.932 5.642-7.37.204-7.37-4.61 0-8.35 3.49-8.35 7.793 0 8.074 8.493 9.595 10.732 6.875 3.217-3.905-1.236-5.485-2.587-7.297zM9.52 5.03a1.562 1.562 0 0 1 0-3.123 1.56 1.56 0 0 1 0 3.124zm-3 3.004a1.54 1.54 0 0 1 0-3.078c.854 0 1.544.69 1.544 1.54 0 .85-.69 1.538-1.544 1.538zm-.977 4.056c-.87 0-1.575-.704-1.575-1.57 0-.867.704-1.57 1.575-1.57.87 0 1.574.703 1.574 1.57 0 .866-.705 1.57-1.574 1.57zm2.985 3.087a1.613 1.613 0 0 1-1.606-1.618c0-.895.72-1.618 1.606-1.618.89 0 1.606.724 1.606 1.617 0 .89-.717 1.617-1.606 1.617zm3.477-1.96a1.16 1.16 0 0 1-1.16-1.163 1.163 1.163 0 1 1 1.16 1.163z" fill="#434343" class="si-glyph-fill" fill-rule="evenodd"/></svg>