<svg viewBox="0 0 16 16" xmlns="http://www.w3.org/2000/svg" class="si-glyph si-glyph-disc-download"><title>603</title><g fill="#434343" fill-rule="evenodd"><path d="M7.987 6.042c-1.11 0-2.01.88-2.01 1.968 0 1.084.9 1.964 2.01 1.964 1.108 0 2.01-.88 2.01-1.964 0-1.088-.9-1.968-2.01-1.968z" class="si-glyph-fill"/><path d="M10.98 12.963l1.95-.008v-2.018h2.506c.358-.898.565-1.87.565-2.896C16 3.646 12.42.084 8 .084c-4.417 0-8 3.562-8 7.958C0 12.438 3.584 16 8 16c1.192 0 2.318-.267 3.334-.73l.667-.3-1.02-2.007zm1.443-10.28l.846.847-1.788 1.787-.845-.845 1.786-1.788zM3.548 13.25l-.845-.846 1.788-1.787.846.845-1.788 1.788zM8 11a3 3 0 1 1 0-6 3 3 0 0 1 0 6z" class="si-glyph-fill"/><path d="M14.52 15.958l1.374-1.937-.92.004v-1.962h-.945v1.964l-.983.004 1.474 1.928z" class="si-glyph-fill"/></g></svg>