<svg viewBox="0 0 17 16" xmlns="http://www.w3.org/2000/svg" class="si-glyph si-glyph-cloud-sun"><title>734</title><g fill="#434343" fill-rule="evenodd"><path d="M14.798 10.445c-.25 0-.487.066-.712.167-.693-1.035-1.827-1.712-3.11-1.712-.208 0-.41.022-.606.057-.68-1.13-1.867-1.88-3.22-1.88-1.905 0-3.482 1.49-3.77 3.437-.018 0-.034-.006-.05-.006-1.28 0-2.315 1.104-2.315 2.465h15.97c-.14-1.424-1.06-2.528-2.187-2.528zM10.97 8.174c.2-.035.402-.06.61-.06 1.016 0 1.934.447 2.62 1.17.476-.557.77-1.282.77-2.087 0-1.747-1.354-3.163-3.024-3.163-1.415 0-2.594 1.02-2.924 2.394.806.327 1.492.943 1.947 1.746z" class="si-glyph-fill"/></g></svg>