<svg viewBox="0 0 16 16" xmlns="http://www.w3.org/2000/svg" class="si-glyph si-glyph-disc-play"><title>Disc-play</title><g fill="none" fill-rule="evenodd"><g transform="translate(3 3)"><path d="M7.437 1.077L8.954-.44l.87.868-1.518 1.518zM.883 10.403l-.868-.87 1.518-1.516.868.87z"/><ellipse cx="5.115" cy="5.141" rx="3.115" ry="3.141"/><path d="M4.988 3.022a1.977 1.977 0 0 0 0 3.953c1.09 0 1.98-.884 1.98-1.976a1.98 1.98 0 0 0-1.98-1.978z" fill="#434343" class="si-glyph-fill"/></g><path d="M3.593 11.137h1.23v2.146h-1.23z"/><ellipse cx="8.115" cy="8.142" rx="3.115" ry="3.142"/><path d="M11.114 2.744h1.23V4.89h-1.23z"/><path d="M11.99 10.91l2.385 1.846a8.022 8.022 0 0 0 1.583-4.787c0-4.414-3.573-7.907-7.98-7.907C3.574.063 0 3.556 0 7.97c0 4.41 3.572 7.988 7.98 7.988a7.976 7.976 0 0 0 4.012-1.068v-3.98zm.27-8.02l.87.87-1.518 1.518-.87-.87 1.52-1.517zM3.634 13.194l-.868-.87 1.518-1.517.868.87-1.517 1.517zM8 11.125c-1.72 0-3.115-1.406-3.115-3.14C4.885 6.25 6.28 4.843 8 4.843c1.72 0 3.115 1.406 3.115 3.142 0 1.734-1.396 3.14-3.115 3.14z" fill="#434343" class="si-glyph-fill"/><path d="M13.03 16v-2.97l1.94 1.5L13.03 16z" fill="#434343" class="si-glyph-fill"/></g></svg>