<svg viewBox="0 0 17 16" xmlns="http://www.w3.org/2000/svg" class="si-glyph si-glyph-wood-stove"><title>722</title><g fill="#434343" fill-rule="evenodd"><path d="M11.965 3.027V.072h-.95v2.955H3v11.957h2.016L5 15.978h.97v-.994h6.046v.994h.97v-.994H15V3.027h-3.035zm1.05 7.02V12c0 1.002-.074 1.055-1.016 1.055H6.043C5.104 13.055 5 13.002 5 12V6c0-1 .103-1.033 1.044-1.033H12c.94 0 1.016.032 1.016 1.033v2.953h1.016v1.094h-1.017z" class="si-glyph-fill"/><path d="M11.974 7.03c0-.538-.4-.974-.896-.974H6.98c-.493 0-.896.436-.896.975v3.98c0 .537.403.975.897.975h4.098c.495 0 .896-.438.896-.975V7.03zM8 10H7V8h1v2zm2 0H8.964V8H10v2z" class="si-glyph-fill"/></g></svg>