<svg viewBox="0 0 17 16" xmlns="http://www.w3.org/2000/svg" class="si-glyph si-glyph-typewriter"><title>1053</title><g fill="#434343" fill-rule="evenodd"><path class="si-glyph-fill" d="M7 10h.938v.953H7zM9 10h.938v.953H9zM11 10h.938v.953H11z"/><path d="M2.062 14.98c0 .562.45 1.02 1.006 1.02H15.93c.557 0 1.007-.457 1.007-1.02L15 8.96V6h-1.977c0 .01.005.02.005.03 0 1-1.534.82-3.07.97H8.98c-1.527-.15-3.024.03-3.024-.97 0-.01.005-.02.005-.03H4.02v2H1v2.938h1V9h2.01L2.06 14.98zm2.907-4.01h1v-.954h-1l.015-1.047h1.047v1h.938v-1h1.062v1h.938v-1h1.062v1h.938v-1h1.062v1h.938v-1h1.062v1.046h-1v.953h1v1.046h-1.047v-1h-.956v1h-1.052v-1H10.012v.953h.007v.046H8.98v-1h-.973v1H6.97v-1H6v1H4.97V10.97zM4.98 13h9.04v1H4.98v-1zM16.02 3v1.05h-1.08l-.002-3.028-10.913.04V4.05H2.96V3h-.938v3h.938V4.95h13.062V6h.97V3h-.97z" class="si-glyph-fill"/></g></svg>