<svg viewBox="0 0 17 16" xmlns="http://www.w3.org/2000/svg" class="si-glyph si-glyph-clipboard"><title>967</title><g fill="#434343" fill-rule="evenodd"><path d="M11.002 1.016v.937h3.014v13.09H2.97V1.952h2.983v-.906H2V16h13V1.016h-3.998z" class="si-glyph-fill"/><path d="M9.95 1.5C9.95.672 9.298 0 8.49 0c-.807 0-1.46.672-1.46 1.5 0 .176.036.343.09.5h-.056v1h2.873V2H9.86c.055-.157.09-.324.09-.5zm-1.98.516V.96h1.046v1.056H7.97zM11.03 3v1.016H5.97V3H4.03v11h8.95V3h-1.95z" class="si-glyph-fill"/></g></svg>