<svg viewBox="0 0 16 16" xmlns="http://www.w3.org/2000/svg" class="si-glyph si-glyph-mail-has-mail"><title>165</title><g fill="#434343" fill-rule="evenodd"><path d="M3.004 0v7l5.027 4 4.925-4V3.03L8 3.027V0H3.004zm7.965 8.016h-6V6.97h6v1.046zM8.952 5v1h-4V5h4z" class="si-glyph-fill"/><path d="M9 0v1.95h3.848L9 0zM15.34 4.963l-2.566-1.896v1.105l2.32 1.986v.654l-3.03 2.79L15.078 14l-1.095.015-2.59-3.74L8 13.063 4.74 10.29 2.03 14.016H.922L4.06 9.602l-3.15-2.82.015-.69 4.267-3.84L5.174.89.724 4.964c-.358 0-.706.29-.706.65v8.65c0 .36.348.705.707.705h14.617c.36 0 .65-.347.65-.707v-8.65a.654.654 0 0 0-.652-.65z" class="si-glyph-fill"/></g></svg>