<svg viewBox="0 0 17 16" xmlns="http://www.w3.org/2000/svg" class="si-glyph si-glyph-shovel"><title>868</title><path d="M15.732 2.51L13.495.273c-.43-.433-1.15-.415-1.603.038a.364.364 0 0 0-.092.16c-.56 2.234-.547 3.015-.454 3.322L5.08 10.06 3.163 8.14l-2.29 2.29c-.75.748-1.375 3.478-.077 4.775 1.297 1.297 4.024.668 4.77-.08l2.295-2.29-1.88-1.88 6.285-6.282c.342.077 1.158.057 3.27-.47a.362.362 0 0 0 .16-.09c.452-.454.468-1.174.037-1.606zm-.582.95c-1.103.31-2.385.586-2.67.532l-.434-.435c-.062-.266.216-1.56.53-2.67.18-.135.413-.14.553 0l2.017 2.02c.138.138.134.37.003.552z" fill="#434343" class="si-glyph-fill" fill-rule="evenodd"/></svg>