<svg viewBox="0 0 16 17" xmlns="http://www.w3.org/2000/svg" class="si-glyph si-glyph-money-3"><title>916</title><g fill="#434343" fill-rule="evenodd"><path d="M12.345 14.947H1.655c-.9 0-1.634-.703-1.634-1.57v-7.76c0-.865.734-1.572 1.635-1.572h10.69c.9 0 1.635.707 1.635 1.57v7.762c0 .867-.734 1.57-1.635 1.57zM.995 6.414v6.21l1.37 1.433h9.33l1.326-1.385V6.46l-1.326-1.524h-9.33L.994 6.414z" class="si-glyph-fill"/><path d="M14.248 2.033h-11.2l-.005.936h10.213l1.775 1.813v6.154l.897-.016V3.664c0-.87-.766-1.614-1.68-1.63zM2 9h.953v.984H2zM11 9h.984v.953H11z" class="si-glyph-fill"/><g><path class="si-glyph-fill" d="M5 8h.97v.97H5zM9 10h.984v.97H9zM8 6.016h-.97V7.03H6v.94h1.03v1.06H6v.94h1.03v1.06H6v.94h1.03v1H8v-1h.984v-.94H8V9.97h.984v-.94H8V7.97h.984v-.94H8V6.017z"/></g></g></svg>