<svg viewBox="0 0 17 16" xmlns="http://www.w3.org/2000/svg" class="si-glyph si-glyph-tennis-racket-ball"><title>719</title><g transform="translate(1)" fill="#434343" fill-rule="evenodd"><circle cx="13.953" cy="13.953" r="1.953" class="si-glyph-fill"/><path d="M14.754 1.265C12.76-.733 9.038-.26 6.462 2.32c-1.567 1.564-2.35 3.555-2.28 5.32a.337.337 0 0 0-.106.328c.462 2.098-1.378 4.256-1.398 4.28a.304.304 0 0 0-.054.095l-2.38 2.38c-.288.288-.3.744-.024 1.02l.022.02c.272.275.73.265 1.017-.025l2.454-2.452c.167-.127 2.535-1.87 4.24-1.386a.338.338 0 0 0 .306-.062c1.797.11 3.84-.677 5.442-2.28 2.576-2.577 3.048-6.298 1.052-8.293zM6.224 9.84a3.085 3.085 0 0 1-.603-.87l1.356-1.355 1.43 1.43-1.37 1.37a3.082 3.082 0 0 1-.81-.575zm1.46-2.93l1.414-1.417 1.43 1.43-1.416 1.414L7.684 6.91zM9.11 4.094l-1.458-1.46a7.137 7.137 0 0 1 1.71-1.12l1.165 1.165L9.11 4.095zm2.11-.723l1.43 1.43-1.416 1.414-1.43-1.428 1.415-1.416zm-4.275-.03l1.46 1.46L6.99 6.216 5.825 5.05c.275-.59.648-1.17 1.12-1.71zm4.274 4.273l1.503 1.503a7.187 7.187 0 0 1-1.71 1.12L9.806 9.03l1.414-1.415zm.706-.706l1.415-1.417 1.21 1.21a7.082 7.082 0 0 1-1.12 1.708l-1.504-1.5zm3-1.243l-.88-.88 1.01-1.008c.087.592.04 1.237-.13 1.887zm-.776-3.753c.238.24.426.514.574.81l-1.37 1.37-1.43-1.428 1.356-1.354c.32.15.615.347.87.602zM12.205 1l-.972.974-.836-.836A4.815 4.815 0 0 1 12.205 1zM5.45 6.088l.833.836-.973.973a4.8 4.8 0 0 1 .14-1.81zm-1.552 6.225c-.023-.033-.036-.07-.064-.1l-.02-.02c-.03-.03-.067-.042-.1-.065.363-.543.835-1.393 1.05-2.375a4.005 4.005 0 0 0 1.492 1.52c-.934.226-1.8.69-2.358 1.04zm4.192-1.567l1.008-1.01.88.88c-.652.17-1.296.218-1.888.13z" class="si-glyph-fill"/></g></svg>