<svg viewBox="0 0 17 16" xmlns="http://www.w3.org/2000/svg" class="si-glyph si-glyph-key"><title>991</title><path d="M9.885.764C8.678 1.97 8.862 3.474 9.61 4.22l1.12 1.12-9.496 9.498c-.246.246-.23.667.04.937s.69.288.938.04L3.6 14.43l1.555 1.554.534-.532.443-.446.533-.532-1.556-1.557 1.355-1.355 1.066 1.066.98-.98-1.065-1.064 4.263-4.265 1.12 1.12c.784.783 2.435.748 3.458-.275 1.023-1.023.82-2.748.11-3.458l-3.22-3.22c-.592-.592-2.248-.766-3.29.277zm5.42 3.97c.297.296-.162 1.12-.27 1.227-.104.105-.926.563-1.224.266L10.866 3.28c-.297-.296.162-1.117.268-1.223.107-.107.93-.565 1.226-.27l2.945 2.946z" fill="#434343" class="si-glyph-fill" fill-rule="evenodd"/></svg>