<svg viewBox="0 0 17 16" xmlns="http://www.w3.org/2000/svg" class="si-glyph si-glyph-trees"><title>1034</title><path d="M12.986 14.203v-2.278c1.52-.34 2.967-1.952 2.967-3.896 0-2.19-1.648-7.983-3.45-7.983-1.804 0-3.456 5.792-3.456 7.982 0 1.9 1.513 3.488 2.984 3.873v2.21a62.35 62.35 0 0 0-3.01-.072 24.06 24.06 0 0 0-3.067.198v-2.672c1.058-.31 1.97-1.418 1.97-2.75 0-1.57-1.095-5.78-2.442-5.78-1.35 0-2.44 4.21-2.44 5.78 0 1.354.904 2.48 1.992 2.77v2.792c-2.395.413-4.01 1.113-4.01 1.567h16c0-.456-1.627-1.53-4.036-1.742z" fill="#434343" class="si-glyph-fill" fill-rule="evenodd"/></svg>