<svg viewBox="0 0 17 17" xmlns="http://www.w3.org/2000/svg" class="si-glyph si-glyph-helm-wheel"><title>151</title><path d="M14.922 6.992c-.237 0-.62.076-.994.2a5.968 5.968 0 0 0-1.193-2.854c.354-.177.68-.396.848-.563.412-.412.434-1.06.05-1.44-.384-.386-1.03-.363-1.44.048-.17.17-.39.5-.567.854a5.926 5.926 0 0 0-2.858-1.18c.126-.375.203-.762.203-1C8.97.473 8.53 0 7.988 0c-.543 0-.984.474-.984 1.056 0 .24.078.63.204 1.007a5.97 5.97 0 0 0-2.854 1.184c-.177-.354-.396-.683-.566-.852-.41-.412-1.057-.434-1.44-.05-.385.384-.362 1.03.05 1.44.168.17.498.39.853.567a5.97 5.97 0 0 0-1.185 2.856c-.373-.125-.76-.2-.997-.2-.582 0-1.055.44-1.055.983 0 .544.473.985 1.055.985.237 0 .622-.076.995-.2.14 1.067.56 2.04 1.186 2.856-.352.177-.677.395-.843.562-.412.412-.434 1.058-.05 1.44.384.386 1.03.363 1.44-.048.168-.167.384-.488.56-.837a5.95 5.95 0 0 0 2.86 1.18c-.123.37-.197.75-.197.985 0 .582.44 1.055.984 1.055.543 0 .984-.473.984-1.055 0-.235-.074-.615-.196-.985a5.956 5.956 0 0 0 2.856-1.19c.176.348.39.67.557.836.412.412 1.06.434 1.443.05.384-.384.36-1.03-.05-1.44-.167-.167-.49-.383-.837-.56a5.788 5.788 0 0 0 1.182-2.858c.37.12.75.195.983.195.582 0 1.055-.44 1.055-.984 0-.543-.476-.984-1.058-.984zm-3.23-2.113a4.822 4.822 0 0 1 1.12 2.708l-3.533.32a1.205 1.205 0 0 0-.294-.703l2.707-2.326zM8.84 7.057a1.325 1.325 0 0 0-.707-.3l.28-3.582c1.03.09 1.968.502 2.714 1.136L8.84 7.058zM7.626 3.174l.3 3.574c-.282.01-.54.107-.75.264L4.878 4.3a4.81 4.81 0 0 1 2.75-1.126zM4.305 4.87l2.707 2.288c-.19.2-.31.46-.332.748l-3.505-.3a4.818 4.818 0 0 1 1.13-2.736zm2.38 3.262c.032.282.157.536.354.73l-2.713 2.28a4.798 4.798 0 0 1-1.15-2.727l3.508-.283zm.52.867c.205.145.455.232.728.242l-.3 3.574A4.826 4.826 0 0 1 4.9 11.71L7.204 9zM8.42 12.81l-.288-3.58c.262-.03.5-.132.69-.287l2.318 2.72a4.8 4.8 0 0 1-2.72 1.147zm3.284-1.714L8.97 8.806c.17-.19.278-.427.306-.688l3.54.27a4.828 4.828 0 0 1-1.112 2.71z" fill="#434343" class="si-glyph-fill" fill-rule="evenodd"/></svg>