<svg viewBox="0 0 17 16" xmlns="http://www.w3.org/2000/svg" class="si-glyph si-glyph-air-balloon"><title>670</title><g fill="#434343" fill-rule="evenodd"><path d="M10.96 15.312a.678.678 0 0 1-.68.678h-2.6a.678.678 0 0 1-.675-.678v-2.234h3.953v2.234zM13.985 4.75c0-1.768-.89-3.706-3.01-4.445 1.24 1.027 3.43 3.403-1.43 10.664L9.976.154S9.51.032 8.984.032c-.513 0-.942.113-.942.113l.5 10.813C3.668 3.582 5.84 1.295 7.093.294c-2.14.733-3.077 2.683-3.077 4.457 0 2.716 4.545 7.25 3.77 7.25h2.506c-.71 0 3.693-4.48 3.693-7.25z" class="si-glyph-fill"/></g></svg>