<svg viewBox="0 0 17 17" xmlns="http://www.w3.org/2000/svg" class="si-glyph si-glyph-person-door-man"><title>714</title><g fill="#434343" fill-rule="evenodd"><path d="M9.013 8.966c1.648 0 2.983-2.46 2.983-4.268 0-.24-.024-.47-.07-.695H6.098a3.53 3.53 0 0 0-.07.695c0 1.81 1.336 4.268 2.985 4.268zM6 1h5.943v1.927H6zM12.042 10.634v5.328h4.93s.316-5.915-4.206-5.915c-.17.233-.434.42-.724.587zM5.24 10C1.124 10 1 16 1 16h10v-4.985a10.93 10.93 0 0 1-1.986.434S6.1 11.16 5.24 10zm4.776 5.03H8.97v-1.093h1.046v1.094zm.015-2H8.954v-1.06h1.078v1.06z" class="si-glyph-fill"/></g></svg>