<svg viewBox="0 0 17 16" xmlns="http://www.w3.org/2000/svg" class="si-glyph si-glyph-scissor-line-cut"><title>693</title><g fill="none" fill-rule="evenodd"><path d="M6.798 3.142c-.37-.222-.72-.264-.954-.115-.474.298-.42 1.283.113 2.15.37.596.927 1.01 1.38 1.097.18.036.344.024.47-.057.135-.085.222-.23.272-.404.13-.446 0-1.124-.385-1.744-.246-.4-.564-.727-.897-.928zM5.167 8.268c-.342-.222-.79-.36-1.264-.393-1.027-.066-1.923.396-1.957 1.012-.032.58.833 1.186 1.823 1.248.686.044 1.306-.148 1.658-.467.173-.155.285-.34.297-.543a.76.76 0 0 0-.148-.47 1.463 1.463 0 0 0-.41-.387z"/><path d="M16.922 9.938s-.45-.92-.65-.938l-6.516.062L8.67 6.69c.488-.69.397-1.906-.303-3.037-.343-.557-.8-1.02-1.278-1.312-.644-.384-1.285-.433-1.763-.133-.862.545-.88 2.03-.044 3.386.342.556.796 1.022 1.28 1.31.36.217.715.314 1.047.318l.796 1.855-1.714.016c-.152-.31-.613-1.06-.994-1.288-.482-.29-1.105-.64-1.757-.678-1.57-.094-2.85.788-2.912 1.8-.03.55.31 1.084.945 1.464.483.29 1.107.47 1.757.51 1.267.074 2.33-.23 2.733-.936l2.367-.005 1.31 3h1.396l-1.34-3.003 6.726-.016zM8.078 5.812c-.05.176-.137.32-.272.404-.126.08-.29.093-.47.057-.453-.087-1.01-.5-1.38-1.098-.534-.866-.587-1.852-.113-2.15.235-.147.583-.105.954.116.333.202.65.53.896.928.386.62.515 1.298.385 1.744zm-2.65 3.856c-.352.318-.972.51-1.658.467-.99-.062-1.855-.67-1.823-1.248.034-.615.93-1.078 1.957-1.012.473.03.922.17 1.264.393.18.117.315.25.41.39.104.15.157.31.148.468-.012.202-.124.387-.297.542zM10 13h1.984v1H10zM6 13h1.984v.97H6zM14 13h1.984v.97H14zM2 13h1.984v.97H2z" fill="#434343" class="si-glyph-fill"/></g></svg>