<svg viewBox="0 0 17 16" xmlns="http://www.w3.org/2000/svg" class="si-glyph si-glyph-umbrella-open"><title>1000</title><g fill="#434343" fill-rule="evenodd"><path d="M16.98 7.984c0-3.763-3.16-6.66-7.012-6.953V.47C9.968.21 9.798 0 9.52 0c-.276 0-.49.21-.49.468v.555c-3.94.205-7.017 3.14-7.017 6.962h.955V6.97H4.03v1.015h1.938V6.97h1.08v1.015h1.904V6.97h1.094l-.016 1.015h1.95V6.97H13v1.015h1.937V6.97h1.078v1.015h.965zM9.02 14.202c0 .48-.507.816-1.003.816-.316 0-1.035-.016-1.035-.494a.474.474 0 0 0-.48-.466c-.264 0-.478.21-.478.466 0 .99.97 1.473 1.993 1.473 1.025 0 1.978-.803 1.978-1.795v-6.17H9.02v6.17z" class="si-glyph-fill"/></g></svg>