<svg viewBox="0 0 17 17" xmlns="http://www.w3.org/2000/svg" class="si-glyph si-glyph-dice-2"><title>1173</title><path d="M14.763 0H3.178c-1.18 0-2.135.966-2.135 2.155v11.69c0 1.19.955 2.154 2.135 2.154h11.585c1.18 0 2.136-.966 2.136-2.155V2.155C16.897.965 15.942 0 14.762 0zm-8.76 10.153c-1.147 0-2.076-.95-2.076-2.123 0-1.172.93-2.123 2.075-2.123 1.146 0 2.076.95 2.076 2.123 0 1.172-.93 2.123-2.076 2.123zm6 0c-1.147 0-2.076-.95-2.076-2.123 0-1.172.93-2.123 2.075-2.123 1.146 0 2.076.95 2.076 2.123 0 1.172-.93 2.123-2.076 2.123z" fill="#434343" class="si-glyph-fill" fill-rule="evenodd"/></svg>