<svg viewBox="0 0 16 16" xmlns="http://www.w3.org/2000/svg" class="si-glyph si-glyph-targer"><title>Targer</title><g fill="#434343" fill-rule="evenodd"><ellipse cx="5.469" cy="9.441" rx="1.469" ry="1.441" class="si-glyph-fill"/><path d="M14.994 3.67l-1.38 1.395-2.15-.812-5.745 5.69c-.118.11-.388.032-.555-.138-.163-.168-.216-.416-.1-.528l5.698-5.72-.826-2.104 1.46-1.428.596 3.008c.004.004.012.006.016.012.025.03 2.984.626 2.984.626z" class="si-glyph-fill"/><path d="M5.514 14.994C2.5 14.994.047 12.53.047 9.5c0-3.03 2.452-5.494 5.467-5.494 3.014 0 5.466 2.464 5.466 5.494s-2.453 5.494-5.466 5.494zm0-10.094c-2.52 0-4.57 2.063-4.57 4.6 0 2.537 2.05 4.6 4.57 4.6 2.52 0 4.57-2.063 4.57-4.6 0-2.537-2.05-4.6-4.57-4.6z" class="si-glyph-fill"/><path d="M5.507 12.99a3.476 3.476 0 0 1-3.472-3.47c0-1.915 1.56-3.472 3.472-3.472a3.475 3.475 0 0 1 3.47 3.47 3.475 3.475 0 0 1-3.47 3.472zm0-6.066A2.598 2.598 0 0 0 2.91 9.52a2.598 2.598 0 0 0 2.597 2.596A2.598 2.598 0 0 0 8.102 9.52a2.598 2.598 0 0 0-2.595-2.596zM1.914 15.784a.51.51 0 0 1-.722.013.51.51 0 0 1 .014-.72l1.467-1.467c.204-.203.91.504.708.707l-1.466 1.467zM9.818 15.076a.51.51 0 0 1 .012.722.508.508 0 0 1-.72-.014l-1.466-1.467c-.203-.204.504-.91.707-.708l1.468 1.466z" class="si-glyph-fill"/></g></svg>