<svg viewBox="0 0 17 16" xmlns="http://www.w3.org/2000/svg" class="si-glyph si-glyph-camera-projector"><title>1149</title><g fill="#434343" fill-rule="evenodd"><path d="M7.997 5.51A3.49 3.49 0 0 0 4.51 2.02a3.492 3.492 0 0 0-3.488 3.49c0 1.085.24 1.904 1.018 2.545l.007 6.154c0 .434.403.733.833.733h5.117V5.51zM4.5 7C3.675 7 3 6.327 3 5.5 3 4.674 3.675 4 4.5 4 5.326 4 6 4.674 6 5.5S5.326 7 4.5 7zM16.312 5.032H9.006v5.938h7.306c.366 0 .662-.3.662-.667V5.698a.662.662 0 0 0-.662-.666zm-.296 3H13.97V6.95h2.046v1.08z" class="si-glyph-fill"/></g></svg>