<svg viewBox="0 0 16 16" xmlns="http://www.w3.org/2000/svg" class="si-glyph si-glyph-disk-antenna"><title>146</title><g fill="#434343" fill-rule="evenodd"><path d="M10.916 8.877c-2.558 2.56-6.535 2.734-8.877.39l9.268-9.27c2.342 2.345 2.17 6.32-.392 8.88zM4.625 5.958c-.846-.845-.783-2.274.137-3.194.92-.92 2.35-.98 3.193-.137l-3.33 3.33z" class="si-glyph-fill"/><path d="M13.644 15.997H6.378a.363.363 0 0 1-.318-.542l3.69-6.582a.363.363 0 0 1 .64.003l3.573 6.582a.364.364 0 0 1-.32.54z" class="si-glyph-fill"/></g></svg>