<svg viewBox="0 0 17 16" xmlns="http://www.w3.org/2000/svg" class="si-glyph si-glyph-lock-unlock"><title>782</title><path d="M12.927 0C10.78 0 9.03 1.802 9.03 4.017V5.68a5.403 5.403 0 0 0-2.55-.652 5.457 5.457 0 0 0-5.46 5.458c0 3.017 2.442 5.46 5.46 5.46a5.458 5.458 0 0 0 5.457-5.46 5.38 5.38 0 0 0-1-3.106V4.018c0-1.112.943-2.017 1.99-2.017h.176C14.15 2 15 2.906 15 4.02V6.9h2V4.02C17 1.802 15.25 0 13.103 0h-.177zm-5.51 11.467l2.577-.753a3.528 3.528 0 0 1-3.515 3.312 3.54 3.54 0 0 1 0-7.076A3.532 3.532 0 0 1 10 10.3l-2.573-.782a1.352 1.352 0 0 0-.947-.388 1.358 1.358 0 1 0 0 2.716c.362 0 .692-.147.936-.38z" fill="#434343" class="si-glyph-fill" fill-rule="evenodd"/></svg>