<svg viewBox="0 0 17 16" xmlns="http://www.w3.org/2000/svg" class="si-glyph si-glyph-arrow-four-way"><title>1068</title><path d="M16.844 7.747l-2.062-2.59a.55.55 0 0 0-.78 0V7.03H9.99V2.97h1.854a.558.558 0 0 0 0-.78L9.39.187a.54.54 0 0 0-.77 0l-2.432 2a.554.554 0 0 0 0 .78H8.01v4.063H3.985V5.173a.55.55 0 0 0-.78 0S1.013 7.576 1.013 8.07c0 .428 2.194 2.68 2.194 2.68a.55.55 0 0 0 .78 0V8.984H8.01v4.047H6.172a.54.54 0 0 0 0 .76s2.332 2.193 2.826 2.193c.43 0 2.846-2.192 2.846-2.192a.54.54 0 0 0 0-.76H9.99V8.985h4.013v1.812a.55.55 0 0 0 .78 0l2.06-2.27a.55.55 0 0 0 0-.78z" fill="#434343" class="si-glyph-fill" fill-rule="evenodd"/></svg>