<svg viewBox="0 0 17 16" xmlns="http://www.w3.org/2000/svg" class="si-glyph si-glyph-time-reload"><title>687</title><g fill="#434343" fill-rule="evenodd"><path d="M9.55 1.046c-3.86 0-6.82 3.192-7.167 6.985H1.06l1.89 1.953L5.017 8.03h-1.34c.332-3.228 2.748-5.957 5.938-5.957 3.412 0 6.19 2.888 6.19 6.437 0 3.55-2.778 6.438-6.19 6.438-1.695 0-3.232-.713-4.35-1.865l-.82.826a7.364 7.364 0 0 0 5.105 2.064c4.09 0 7.418-3.35 7.418-7.464 0-4.115-3.327-7.464-7.42-7.464z" class="si-glyph-fill"/><path d="M9 3.99V9h3.96V8H9.97V3.99H9z" class="si-glyph-fill"/></g></svg>