<svg viewBox="0 0 16 16" xmlns="http://www.w3.org/2000/svg" class="si-glyph si-glyph-map-square"><title>175</title><g fill="#434343" fill-rule="evenodd"><path d="M15.938 6.234v-3.05l-1.52 1.525 1.52 1.524zM10.324 3.375L6.84 6.872l2.057 2.06 3.486-3.498-2.06-2.06zM13.133 6.207L9.683 9.67l2.075 2.063 3.45-3.465-2.075-2.06zM.042 10.792l3.883-3.917L1.82 4.77.083 6.5l-.04 4.292zM.026 4.91l1.362-1.364-1.362-1.36V4.91zM1.227.007c-.322 0-.61.14-.814.36l2.062 2.068L4.903.007H1.227zM5.387 5.408L8.695 2.09 6.61 0h-.016L3.29 3.305l2.097 2.103zM14.883.062L8.485.054 9.58 1.15l.702-.7 3.537 3.536 2.147-2.155.023-.658a1.11 1.11 0 0 0-1.107-1.11zM14.84 15.94c.617 0 1.114-.5 1.114-1.116V10.31l-5.63 5.63h4.517zM.177 14.855c0 .617.497 1.117 1.114 1.116l6.24.002.807-.842-3.522-3.535.768-.73 3.522 3.533 1.17-1.18-4.897-4.912-5.202 5.2v1.35z" class="si-glyph-fill"/></g></svg>