<svg viewBox="0 0 17 16" xmlns="http://www.w3.org/2000/svg" class="si-glyph si-glyph-mark-snorker"><title>689</title><g fill="#434343" fill-rule="evenodd"><path d="M13.555 2.037h-9.07c-1.89 0-3.424 1.402-3.424 3.132v1.604c0 1.73.872 3.133 2.762 3.133h1.862c1.44 0 2.67-.5 3.177-1.65.072-.165.268-.175.336-.017.5 1.16 1.73 1.667 3.167 1.667h1.854c1.883 0 2.746-1.402 2.746-3.133V5.17c0-1.73-1.527-3.133-3.408-3.133zm2.49 4.92c0 1.156-.293 2.096-1.512 2.096h-1.97c-1.05 0-1.96-.395-2.168-1.368 0 0-.2-.647-1.39-.647s-1.355.644-1.355.644c-.21.978-1.13 1.372-2.186 1.372H3.488c-1.23 0-1.53-.94-1.53-2.097v-1.86C1.96 3.942 2.96 3 4.19 3h9.64c1.222 0 2.214.94 2.214 2.097v1.86z" class="si-glyph-fill"/><path d="M12.743 7.98h1.36l.705-3.488a2.268 2.268 0 0 0-1.275-.415l-.79 3.903zM12.164 11.193l-.543 2.48c-.104.526-.856.92-1.374.816-.504-.103-.95-.42-.87-.928.93-.28 1.604-1.07 1.592-2-.004-.31-.282-.555-.624-.55-.34.003-.614.256-.61.564.007.537-.472.98-1.065.986-.596.008-1.085-.423-1.092-.96-.004-.308-.283-.554-.623-.55-.342.004-.613.258-.61.564.012.95.73 1.735 1.695 1.977-.06 1.13.83 1.945 1.957 2.172 1.238.25 2.68-.574 2.932-1.83l.595-2.738a210.32 210.32 0 0 1-1.36-.004zM15.643.89a.713.713 0 0 0-.553-.844.715.715 0 0 0-.836.563l-.213 1.177c.493.043.954.174 1.368.38L15.643.89z" class="si-glyph-fill"/></g></svg>