<svg viewBox="0 0 17 16" xmlns="http://www.w3.org/2000/svg" class="si-glyph si-glyph-calculator-2"><title>890</title><path d="M13.58 0H4.322A1.33 1.33 0 0 0 3 1.334v13.333C3 15.404 3.592 16 4.322 16h9.258c.73 0 1.42-.596 1.42-1.333V1.334C15 .598 14.31 0 13.58 0zM7.02 14H4.988v-1H7.02v1zm0-5.98H4.988V7H7.02v1.02zM10 14H7.986v-1H10v1zm-2.98-3H4.988v-1H7.02v1zM10 11H7.986v-1H10v1zm0-3H7.986V7H10v1zm3 6h-2V9.98h2V14zm0-5.98h-2.014V7H13v1.02zM14.014 6H4V2h10.014v4z" fill="#434343" class="si-glyph-fill" fill-rule="evenodd"/></svg>