<svg viewBox="0 0 17 16" xmlns="http://www.w3.org/2000/svg" class="si-glyph si-glyph-two-arrow-in-down-up"><title>934</title><g fill="#434343" fill-rule="evenodd"><path d="M12.77 4.096a.664.664 0 0 0 0-.946.678.678 0 0 0-.953 0L9.99 4.503V1c0-.553-.445-1-.993-1a.995.995 0 0 0-.992 1v3.564L6.187 3.18a.674.674 0 0 0-1.15.473c0 .17.066.343.2.474l3.74 2.82 3.794-2.85zM12.77 11.876a.664.664 0 0 1 0 .946.678.678 0 0 1-.953 0L9.99 11.494V15c0 .553-.445 1-.993 1a.995.995 0 0 1-.992-1v-3.428l-1.818 1.266a.674.674 0 0 1-1.15-.473c0-.17.066-.343.2-.474l3.74-2.837 3.794 2.823z" class="si-glyph-fill"/></g></svg>