<svg viewBox="0 0 17 16" xmlns="http://www.w3.org/2000/svg" class="si-glyph si-glyph-dish"><title>1147</title><g fill="#434343" fill-rule="evenodd"><path d="M8.98 4.06a3.933 3.933 0 0 0-3.927 3.93 3.933 3.933 0 0 0 3.926 3.93 3.933 3.933 0 0 0 3.925-3.93A3.933 3.933 0 0 0 8.98 4.06z" class="si-glyph-fill"/><path d="M9.007.072c-4.4 0-7.964 3.562-7.964 7.957a7.96 7.96 0 0 0 7.964 7.96c4.397 0 7.965-3.563 7.965-7.96 0-4.395-3.568-7.958-7.965-7.958zM8.98 13.136A5.15 5.15 0 0 1 3.835 7.99 5.15 5.15 0 0 1 8.98 2.842 5.15 5.15 0 0 1 14.12 7.99a5.152 5.152 0 0 1-5.143 5.146z" class="si-glyph-fill"/></g></svg>