<svg viewBox="0 0 16 16" xmlns="http://www.w3.org/2000/svg" class="si-glyph si-glyph-tag-price"><title>Tag-price</title><g fill="#434343" fill-rule="evenodd"><path d="M15.46 8.894L7.127.544c-.74-.74-1.967-.713-2.74.062l-.09.09L4.265.66C3.41-.194 1.987-.16 1.088.74L.833.996c-.9.9-.933 2.323-.078 3.18l.035.034-.165.166c-.773.773-.8 2.002-.06 2.744l8.333 8.35c.74.74 1.97.713 2.74-.06l3.763-3.77c.775-.776.8-2.004.06-2.746zM3.433 5.168c-.866 0-1.567-.734-1.57-1.64 0-.907.704-1.64 1.57-1.64.866 0 1.564.734 1.567 1.64-.003.906-.703 1.64-1.567 1.64zm9 7.91L11.35 11.99c-.652.463-1.47.61-2.184.362a.633.633 0 0 1-.373-.333.656.656 0 0 1-.02-.515.683.683 0 0 1 .855-.41c.238.08.51.046.76-.07L9.137 9.77c-.953.68-2.22.66-2.992-.11-.778-.777-.795-2.047-.104-2.998L4.978 5.6l.63-.63 1.068 1.065c.658-.46 1.476-.607 2.192-.36a.65.65 0 0 1 .392.85.69.69 0 0 1-.857.41c-.238-.083-.508-.05-.758.063l1.262 1.257c.947-.665 2.198-.638 2.965.128.767.767.797 2.013.133 2.955l1.08 1.076-.65.663z" class="si-glyph-fill"/><path d="M7.124 8.722c.268.267.698.295 1.08.107L7.018 7.635c-.19.385-.162.817.107 1.086zM10.924 9.35c-.258-.258-.668-.29-1.04-.123l1.165 1.162c.166-.372.132-.782-.126-1.04z" class="si-glyph-fill"/></g></svg>