<svg viewBox="0 0 16 16" xmlns="http://www.w3.org/2000/svg" class="si-glyph si-glyph-car-garage"><title>car-garage</title><g fill="#434343" fill-rule="evenodd"><path d="M.043 2.083v11.855h1.94V3.943h12.035v9.995h1.94V2.083H.043z" class="si-glyph-fill"/><path class="si-glyph-fill" d="M3 5h9.956v.952H3zM3 7h9.957v.97H3zM11.97 12.96v.515c0 .27-.438.492-.975.492-.536 0-.974-.22-.974-.492h.002v-.485H5.946v.498c0 .247-.434.45-.964.45s-.96-.203-.96-.45v-.51h.138c-1.287-.116-1.156-1.13-1.156-1.13 0-.728.152-1.9.996-2.4V8h1v1.192l.06-.008S7.095 9 8 9c.904 0 2.79.215 2.902.23l.098.02V8h1v1.457c.756.33 1 1.354 1 2.392 0 0-.027.93-1.03 1.11zm-7-.99h-1v-1h1v1zm3.99-.012h-2v-1h2v1zm3.01.01h-1v-1h1v1z"/></g></svg>