<svg viewBox="0 0 17 16" xmlns="http://www.w3.org/2000/svg" class="si-glyph si-glyph-first-aid-briefcase"><title>1100</title><g fill="#434343" fill-rule="evenodd"><path d="M14.82 3H3.18C1.975 3 1 3.99 1 5.21v7.58C1 14.01 1.975 15 3.18 15h11.64c1.205 0 2.18-.99 2.18-2.21V5.21C17 3.99 16.026 3 14.82 3zm-4.785 7.016v1.953H8v-1.954H5.987V8H8V5.97h2.035V8h1.952v2.016h-1.952zM11.972 1.97c0-1.04-.84-1.923-1.867-1.923h-2.19C6.885.047 6 .93 6 1.97l.972-.008c0-.598.363-1.026.956-1.026h2.167c.594 0 .984.43.984 1.026l.892.007z" class="si-glyph-fill"/></g></svg>