<svg viewBox="0 0 17 16" xmlns="http://www.w3.org/2000/svg" class="si-glyph si-glyph-battery-charging"><title>834</title><g fill="#434343" fill-rule="evenodd"><path d="M11.56 1.003H9.907V.03H7v.973H5.4c-.766 0-1.384.52-1.384 1.163V14.8c0 .642.618 1.163 1.384 1.163h6.16c.76 0 1.38-.52 1.38-1.164V2.165c0-.644-.62-1.163-1.38-1.163zm.47 13.467c0 .343-.323.62-.72.62H5.633c-.395 0-.72-.277-.72-.62V2.53c0-.344.325-.622.72-.622h5.68c.395 0 .72.278.72.62V14.47z" class="si-glyph-fill"/><path d="M10 3.006L6.04 10.69l1.965-1.27-.99 4.584 3.953-7.82L8.88 7.5 10 3.006z" class="si-glyph-fill"/></g></svg>