<svg viewBox="0 0 17 16" xmlns="http://www.w3.org/2000/svg" class="si-glyph si-glyph-adjustment-vertical"><title>1196</title><g fill="#434343" fill-rule="evenodd"><path d="M2 0v5.007h1.95V0H2zM2 11v4.958h2.01V11H2zM8 14v1.976h1.966V14H8zM8 0v8h2V0H8zM14 9v6.942h1.977V9H14zM14 0v2.933h2.01V0H14zM14.917 8.05c1.06 0 2.094-.995 2.094-2.082C17.01 4.88 15.977 4 14.918 4 13.857 4 13 4.88 13 5.968c0 1.087.858 2.08 1.917 2.08zM8.917 13.01c1.06 0 2.04-1.05 2.04-2.104 0-1.053-.98-1.906-2.04-1.906S7 9.853 7 10.906s.858 2.103 1.917 2.103zM2.917 9.99c1.06 0 2.057-1.014 2.057-2.073C4.974 6.857 3.976 6 2.917 6 1.857 6 1 6.858 1 7.917c0 1.06.858 2.072 1.917 2.072z" class="si-glyph-fill"/></g></svg>