<svg viewBox="0 0 16 17" xmlns="http://www.w3.org/2000/svg" class="si-glyph si-glyph-network-2"><title>619</title><g fill="#434343" fill-rule="evenodd"><path d="M8.494 15.958C4.36 15.958 1 12.622 1 8.52s3.36-7.438 7.494-7.438c4.133 0 7.495 3.336 7.495 7.438s-3.363 7.438-7.496 7.438zm.016-14.02A6.58 6.58 0 0 0 1.938 8.51a6.58 6.58 0 0 0 6.572 6.573 6.58 6.58 0 0 0 6.573-6.573A6.58 6.58 0 0 0 8.51 1.938z" class="si-glyph-fill"/><path class="si-glyph-fill" d="M8 2h.922v14.084H8z"/><path class="si-glyph-fill" d="M1 8h13.96v.922H1zM2 5h12.406v.906H2zM2 11h12.406v.922H2z"/><path d="M8.317 15.854C5.72 14.58 4.043 11.662 4.043 8.417c0-3.17 1.623-6.062 4.138-7.367l.462.887c-2.187 1.137-3.6 3.68-3.6 6.48 0 2.865 1.46 5.432 3.715 6.538l-.44.9z" class="si-glyph-fill"/><path d="M8.74 15.79l-.47-.884c2.14-1.134 3.522-3.68 3.522-6.49 0-2.774-1.36-5.31-3.46-6.456l.48-.877c2.417 1.318 3.98 4.197 3.98 7.334 0 3.175-1.59 6.068-4.052 7.372z" class="si-glyph-fill"/></g></svg>