<svg viewBox="0 0 17 16" xmlns="http://www.w3.org/2000/svg" class="si-glyph si-glyph-button-starburst"><title>966</title><path d="M14.584 7.94c1.535-.507 2.47-1.01 2.4-1.38-.067-.37-1.117-.53-2.735-.49 1.264-.99 1.966-1.775 1.773-2.1-.19-.325-1.234-.12-2.742.458.847-1.354 1.23-2.327.94-2.57-.293-.24-1.204.3-2.417 1.353.32-1.556.342-2.6-.018-2.73-.357-.127-1.024.687-1.797 2.08C9.748.99 9.402 0 9.02 0c-.382 0-.726.99-.966 2.56-.772-1.394-1.44-2.208-1.8-2.08-.36.128-.337 1.173-.016 2.73C5.026 2.157 4.114 1.616 3.82 1.856c-.292.24.093 1.216.938 2.57-1.507-.58-2.553-.783-2.743-.458-.19.324.51 1.11 1.777 2.1-1.62-.04-2.672.12-2.738.49-.067.37.867.873 2.4 1.38-1.533.505-2.467 1.01-2.4 1.378.067.37 1.12.53 2.738.49-1.268.988-1.97 1.773-1.777 2.1.19.326 1.236.123 2.74-.458-.844 1.355-1.228 2.33-.936 2.57.294.243 1.204-.3 2.416-1.35-.32 1.556-.343 2.6.017 2.73.36.128 1.028-.687 1.8-2.083.24 1.57.585 2.56.968 2.56.382 0 .727-.99.968-2.56.772 1.395 1.44 2.21 1.8 2.08.36-.127.337-1.172.015-2.728 1.213 1.05 2.124 1.592 2.416 1.35.294-.242-.09-1.216-.937-2.57 1.506.582 2.55.783 2.742.46.19-.327-.512-1.112-1.775-2.102 1.617.04 2.668-.12 2.735-.49.068-.37-.866-.873-2.4-1.38z" fill="#434343" class="si-glyph-fill" fill-rule="evenodd"/></svg>