<svg viewBox="0 0 17 16" xmlns="http://www.w3.org/2000/svg" class="si-glyph si-glyph-sewing-roll"><title>911</title><g fill="#434343" fill-rule="evenodd"><path d="M12.982.986c0 .518-.41.938-.917.938h-10a.927.927 0 0 1-.917-.938c0-.52.41-.938.917-.938h10c.507 0 .917.42.917.938zM12.982 14.986c0 .518-.41.938-.917.938h-10a.927.927 0 0 1-.917-.938c0-.52.41-.938.917-.938h10c.507 0 .917.42.917.938zM3 3h7.917v.96H3zM3 5h7.917v.96H3zM3 7h7.917v.96H3zM3 9h7.917v.96H3zM3 11h7.917v.96H3zM3 13h7.917v.96H3z" class="si-glyph-fill"/><path d="M16.836 15c-1.305-.208-1.68-2.154-1.78-2.98-.088-.716-.18-4.562-2.383-5.545-.612-.273-1.293-.402-1.878-.46-.513-.05-.685-.038-.63-.097l-.747-.682c.294-.307.838-.28 1.418-.22.734.07 1.518.213 2.21.53 2.62 1.203 2.95 5.732 3.024 6.354.14 1.144.54 2.053.93 2.114l-.164.986z" class="si-glyph-fill"/></g></svg>