<svg viewBox="0 0 16 16" xmlns="http://www.w3.org/2000/svg" class="si-glyph si-glyph-baby-stroller"><title>Baby-stroller</title><g fill="#434343" fill-rule="evenodd"><path d="M4.002 12.037a1.962 1.962 0 0 0-1.967 1.955c0 1.08.882 1.956 1.967 1.956a1.962 1.962 0 0 0 1.967-1.956c0-1.08-.882-1.955-1.968-1.955zm0 3.174a1.222 1.222 0 0 1-1.225-1.218c0-.674.55-1.22 1.225-1.22.676 0 1.227.546 1.227 1.22 0 .674-.552 1.22-1.228 1.22zM11.993 12.037a1.955 1.955 0 1 0 0 3.913 1.955 1.955 0 0 0 0-3.913zm0 3.176a1.22 1.22 0 1 1 .003-2.44 1.22 1.22 0 0 1-.003 2.44zM11.12 0S8.65 3.41 8.34 4.908h7.57C15.908-.642 13.118 0 11.12 0z" class="si-glyph-fill"/><path d="M15.943 6.107H6.396L4.093 4.04H.51c-.28 0-.508.21-.508.466s.227.463.507.463H3.67l1.27 1.138H.068C.136 9.29-.68 11.92 7.658 11.92c8.72 0 8.272-2.6 8.285-5.813z" class="si-glyph-fill"/></g></svg>