<svg viewBox="0 0 16 16" xmlns="http://www.w3.org/2000/svg" class="si-glyph si-glyph-basket-error"><title>624</title><g fill="#434343" fill-rule="evenodd"><path d="M11.504 13.524l-.566-.567c-.098.172-.26.293-.455.293h-.02c-.303 0-.546-.273-.546-.61V8.482c0-.338.243-.61.545-.61h.02c.302 0 .547.272.547.61v2.54l.99-.99 1.225 1.227.234-4.342h.765c.4 0 .725-1.16.725-1.16 0-.37-.324-.673-.725-.673h-1.928l-1.035-3.73a.614.614 0 0 0-.838-.285l-.07.036a.657.657 0 0 0-.29.863l.74 3.115H4.172L4.94 2a.658.658 0 0 0-.282-.864l-.07-.036a.616.616 0 0 0-.842.277L2.673 5.085H.783c-.4 0-.725.302-.725.672 0 0 .324 1.16.725 1.16h.636l.448 6.736s.052 1.31 2.113 1.31h6.09l1.434-1.44zm.434-7.555h1.094v1.093h-1.094V5.97zM3.03 7.03H1.97V5.97h1.06v1.06zm2.032 5.712c0 .35-.25.633-.56.633H4.48c-.31 0-.56-.283-.56-.633v-4.33c0-.35.25-.63.56-.63h.023c.308 0 .56.28.56.63v4.33zm3.04-.195c0 .334-.26.605-.578.605H7.5c-.322 0-.58-.27-.58-.605v-4.1c0-.333.258-.603.58-.603h.024c.318 0 .578.27.578.604v4.1z" class="si-glyph-fill"/><path d="M15.97 15.28l-1.8-1.8 1.78-1.78-.667-.663-1.78 1.78-1.77-1.77-.706.708 1.77 1.77-1.745 1.746.664.664 1.745-1.745 1.8 1.8.71-.71z" class="si-glyph-fill"/></g></svg>