<svg viewBox="0 0 17 16" xmlns="http://www.w3.org/2000/svg" class="si-glyph si-glyph-mask-2"><title>1063</title><path d="M16.836 2.867c.115-.773.125-1.334.125-1.334 0-1.036-.587.112-2.526-.466-1.33-.397-3.65 1.09-5.443 1.09-1.8 0-4.128-1.483-5.464-1.084-1.924.58-2.503-.572-2.503.46 0 0-.19 5.63 3.353 6.433C6.378 8.24 7.82 6.91 8.99 6.91c1.195 0 2.196 1.453 4.677 1.046.69-.09 1.226-.925 1.658-1.38l1.257 9.382.254-13.09zM7.08 5.207c-.152-.06-.363-.2-.646-.116-.458.137-1.128.103-1.815-.128C3.506 4.59 2.916 2.92 2.916 2.92s1.61-.117 2.723.254c.516.175.648.255.96.507.632.51.634 1.587.48 1.528zm4.358-1.534c.313-.252.444-.332.96-.507 1.112-.37 2.723-.255 2.723-.255s-.59 1.672-1.702 2.044c-.686.23-1.355.265-1.813.13-.283-.086-.494.057-.647.116-.154.06-.152-1.017.48-1.527z" fill="#434343" class="si-glyph-fill" fill-rule="evenodd"/></svg>