<svg viewBox="0 0 17 16" xmlns="http://www.w3.org/2000/svg" class="si-glyph si-glyph-document-music"><title>747</title><g fill="#434343" fill-rule="evenodd"><path d="M10.016 3.984h4.98L10.017.016v3.968z" class="si-glyph-fill"/><path d="M8.97 5.016V.01H3.033v15.96h11.942V5.015H8.97zm3.057 6.642c-.045.38-.566.935-1.07 1.143-.656.272-1.34.12-1.528-.335-.19-.456.19-1.046.846-1.316.23-.097.48-.15.71-.16V8.364l-2.974.7.004 3.547c-.045.38-.65 1.02-1.153 1.228-.655.27-1.34.12-1.53-.336-.187-.456.193-1.046.85-1.316.28-.116.527-.19.787-.166V8.142l5.062-1.188-.005 4.704z" class="si-glyph-fill"/></g></svg>