<svg viewBox="0 0 16 16" xmlns="http://www.w3.org/2000/svg" class="si-glyph si-glyph-hammer"><title>164</title><g fill="#434343" fill-rule="evenodd"><path d="M14.216 14.95c.532.532.86.153 1.295-.282.437-.436.816-.764.285-1.296 0 0-7.64-7.632-9.468-9.455L4.75 5.494l9.466 9.455zM2.048 7.015l.614-.604s-.27-.742.126-1.098c.397-.356 1.067-.136 1.067-.136L6.01 3.093s-.15-1.083.05-1.283c.2-.2 2.433-1.29 2.65-1.507l-.46-.46S5.124.22 4.785.56c-.2.2-1.69 1.704-2.75 2.766 0 0 .266.76-.084 1.11-.35.35-1.14.098-1.14.098l-.624.623c-.263.265-.108.637.215.96l.687.686c.325.324.698.478.96.215z" class="si-glyph-fill"/></g></svg>