<svg viewBox="0 0 17 16" xmlns="http://www.w3.org/2000/svg" class="si-glyph si-glyph-book-person"><title>1153</title><g fill="#434343" fill-rule="evenodd"><path class="si-glyph-fill" d="M2 0h.918v16H2zM14.905 0H4v16h10.905C15.51 16 16 15.547 16 14.99V1.01C16 .452 15.51 0 14.905 0zm-4.9 2.875c1.096 0 1.986.886 1.986 1.98 0 1.092-.89 3.183-1.984 3.183-1.096 0-1.984-2.09-1.984-3.184a1.98 1.98 0 0 1 1.984-1.98zM14.976 12H5.003s-.17-2.987 2.387-2.987c.536.577 1.27.93 2.624.93s2-.36 2.53-.943c2.877 0 2.432 3 2.432 3z"/></g></svg>