<svg viewBox="0 0 16 16" xmlns="http://www.w3.org/2000/svg" class="si-glyph si-glyph-bicycle-1"><title>638</title><g fill="#434343" fill-rule="evenodd"><path d="M2.998 8.023a2.987 2.987 0 0 0-2.982 2.982 2.987 2.987 0 0 0 2.982 2.983 2.986 2.986 0 0 0 2.983-2.983A2.986 2.986 0 0 0 3 8.023zm0 5.024a2.043 2.043 0 0 1-2.04-2.04c0-1.126.915-2.04 2.04-2.04 1.126 0 2.04.914 2.04 2.04 0 1.124-.914 2.04-2.04 2.04zM12.985 8.065a2.946 2.946 0 0 0-2.935 2.952 2.945 2.945 0 0 0 2.935 2.95c1.616 0 2.932-1.323 2.932-2.95 0-1.627-1.315-2.952-2.932-2.952zm-.036 4.965a2.03 2.03 0 0 1-2.03-2.024 2.03 2.03 0 0 1 4.058 0 2.027 2.027 0 0 1-2.03 2.024z" class="si-glyph-fill"/><path d="M6.712 9.944a.535.535 0 0 1-.535-.534l-.773-3.504h-.8c-.327 0-.584-.382-.584-.868 0-.494.252-.867.585-.867 2.442.325 2.364.727 2.364.86 0 .496-.175.876-.51.876h-.03l.684 2.707 4.465-2.158-.294-.906a.533.533 0 0 1 .12-.53l1.115-2.062h-1.915a.534.534 0 0 1-.534-.533c0-.295.24-.425.535-.425h2.85c.214 0 .407.018.49.213a.533.533 0 0 1-.1.577l-1.456 2.696.563 2.092a.537.537 0 0 1-1.02.325l-.13-.333c.002 0-5.037 2.374-5.09 2.374z" class="si-glyph-fill"/></g></svg>