<svg viewBox="0 0 17 17" xmlns="http://www.w3.org/2000/svg" class="si-glyph si-glyph-t-shirt"><title>1052</title><g fill="#434343" fill-rule="evenodd"><path d="M9.02 1.062c-.916 0-1.704-.27-2.04-1.062-.205.012-.734.033-.934.067C6.43 1.155 7.798 1.94 9.02 1.94c1.224 0 2.58-.785 2.964-1.873-.2-.034-.72-.056-.922-.067-.334.793-1.123 1.062-2.04 1.062z" class="si-glyph-fill"/><path d="M13.396.29c-.82 1.62-2.48 2.74-4.412 2.74-1.924 0-3.572-1.11-4.398-2.716C2.33 1.33 1.043 3.83 1.043 6.466v.486H4.03v7.983h9.95V6.952H17v-.486c0-2.663-1.306-5.183-3.604-6.177z" class="si-glyph-fill"/></g></svg>