<svg viewBox="0 0 17 16" xmlns="http://www.w3.org/2000/svg" class="si-glyph si-glyph-gate"><title>697</title><path d="M15.59 7.076h-1.802l-.622-3.123h1.218c.278 0 .522-.152.522-.325V2.326c0-.173-.244-.325-.522-.325H2.538c-.278 0-.522.153-.522.326v1.302c0 .173.244.325.522.325h1.33l-.605 3.123H1.41c-.227 0-.41.14-.41.314v1.26c0 .174.184.314.41.314h1.487l-.83 4.288a.336.336 0 0 0 .244.407l1.302.323c.026.006.056.01.082.01.154 0 .288-.105.332-.276l.92-4.753h7.164l.923 4.634a.336.336 0 0 0 .406.245l1.302-.324c.18-.046.29-.228.25-.386l-.83-4.17h1.427c.227 0 .41-.14.41-.314V7.39c0-.173-.184-.314-.41-.314zm-10.277 0l.605-3.123h5.194l.622 3.123h-6.42z" fill="#434343" class="si-glyph-fill" fill-rule="evenodd"/></svg>