<svg viewBox="0 0 17 16" xmlns="http://www.w3.org/2000/svg" class="si-glyph si-glyph-load"><title>830</title><g fill="#434343" fill-rule="evenodd"><path d="M9.968 1.866c0 1.012-.437 4.06-.976 4.06-.537 0-.977-3.048-.977-4.06 0-1.014.44-1.835.977-1.835.54 0 .976.823.976 1.836zM8.016 14.088c0-1.006.438-4.03.977-4.03.538 0 .975 3.024.975 4.03 0 1.004-.437 1.818-.975 1.818-.54 0-.977-.814-.977-1.818zM2.86 7.03c1.024 0 4.112.43 4.112.96s-3.088.96-4.113.962C1.83 8.95 1 8.522 1 7.992s.832-.96 1.86-.962zM15.123 8.982c-1.02 0-4.092-.44-4.092-.983 0-.544 3.07-.984 4.093-.984 1.02-.002 1.846.44 1.846.983 0 .542-.828.982-1.847.982z" class="si-glyph-fill"/><g><path d="M14.182 4.193c-.715.715-3.18 2.562-3.56 2.182-.38-.38 1.464-2.848 2.18-3.562.716-.717 1.608-.986 1.988-.607.382.382.108 1.27-.608 1.987zM3.816 11.846c.71-.712 3.16-2.542 3.54-2.16.382.38-1.45 2.828-2.16 3.54-.71.71-1.595.976-1.976.596-.38-.383-.114-1.267.596-1.976zM5.176 2.818c.726.725 2.604 3.213 2.23 3.588-.376.375-2.862-1.506-3.59-2.23-.725-.727-1.01-1.618-.635-1.993.376-.375 1.27-.09 1.996.635zM12.812 13.198c-.723-.722-2.582-3.205-2.198-3.59.384-.384 2.867 1.477 3.588 2.2.723.718.994 1.615.61 2-.384.383-1.28.11-2-.61z" class="si-glyph-fill"/></g></g></svg>