<svg viewBox="0 0 16 16" xmlns="http://www.w3.org/2000/svg" class="si-glyph si-glyph-basket-arrow-left"><title>612</title><g fill="#434343" fill-rule="evenodd"><path d="M10.46 13.486l2.726-2.14.293-5.37h.765c.4 0 .725-1.22.725-1.22 0-.37-.363-.712-.764-.712h-1.928L11.27.374a.614.614 0 0 0-.837-.286l-.07.036a.657.657 0 0 0-.29.863l.713 3.057H4.132L4.918.98a.658.658 0 0 0-.282-.866l-.07-.036a.616.616 0 0 0-.84.277l-1.093 3.69H.743c-.4 0-.686.34-.686.71 0 0 .324 1.22.725 1.22h.636l.45 6.677s.05 1.31 2.112 1.31H11c.02 0 .034-.005.053-.005l-.592-.47zM11.94 4.97h1.094v1.093h-1.094V4.97zM3.03 6.03H1.97V4.97h1.06v1.06zm2.032 5.712c0 .35-.25.633-.56.633H4.48c-.31 0-.56-.283-.56-.633v-4.33c0-.35.25-.63.56-.63h.023c.308 0 .56.28.56.63v4.33zm2.998-.195c0 .334-.237.605-.53.605h-.02c-.293 0-.53-.27-.53-.605v-4.1c0-.333.237-.603.53-.603h.02c.293 0 .53.27.53.604v4.1zm1.856.092V7.482c0-.338.243-.61.545-.61h.023c.3 0 .546.272.546.61v4.156c0 .337-.246.61-.547.61h-.022c-.3 0-.544-.273-.544-.61zM13.943 12.022l-1.87 1.47 1.87 1.487v-.99h2.047v-.964h-2.047v-1.004z" class="si-glyph-fill"/></g></svg>