<svg viewBox="0 0 16 16" xmlns="http://www.w3.org/2000/svg" class="si-glyph si-glyph-arrow-three-way-1"><title>Arrow-three-way</title><g fill="#434343" fill-rule="evenodd"><path d="M10.816 3.99a.577.577 0 0 0 0-.818L8.433.17a.578.578 0 0 0-.818 0L5.232 3.17a.577.577 0 0 0 0 .817h1.81v11.978H8.98V3.988h1.836z" class="si-glyph-fill"/><path d="M14.516 5.008l-2.986.35a.46.46 0 0 0-.454.462l.808.82-1.86 1.89V16h1.956V9.36l1.29-1.307.903.92a.46.46 0 0 0 .455-.462l.342-3.04a.458.458 0 0 0-.454-.462zM5.002 8.842a.463.463 0 0 0-.462-.462L1.5 8.03a.462.462 0 0 0-.463.462l.35 3.04c0 .256.207.463.462.463l.883-.883 1.314 1.622v3.197l1.9.053v-4.025L4.13 9.714 5 8.842z" class="si-glyph-fill"/></g></svg>