<svg viewBox="0 0 16 17" xmlns="http://www.w3.org/2000/svg" class="si-glyph si-glyph-arrow-two-way"><title>Arrow-two-way</title><path d="M13.8 10.167a.55.55 0 0 0-.78 0v.888H9.98c-.345-.073-2.035-.643-2.035-3.144 0-2.455 1.563-2.893 1.972-2.96H13v.904a.55.55 0 0 0 .78 0l2.06-1.427a.55.55 0 0 0 0-.78l-2.06-1.48a.55.55 0 0 0-.78 0v.847l-3.26.006c-1.2.13-3.315 1.176-3.712 4.022H1c-.553 0-1 .377-1 .93a1 1 0 0 0 1 1h5.044c.437 2.75 2.53 3.813 3.698 3.988l3.278.01v.863a.55.55 0 0 0 .78 0l2.038-1.405a.55.55 0 0 0 0-.78L13.8 10.17z" fill="#434343" class="si-glyph-fill" fill-rule="evenodd"/></svg>