<svg viewBox="0 0 17 16" xmlns="http://www.w3.org/2000/svg" class="si-glyph si-glyph-customer-support"><title>715</title><g fill="#434343" fill-rule="evenodd"><path d="M9.005 12.094c-1.442 0-2.907-.856-3.762-1.99-4.102 0-4.226 5.86-4.226 5.86h15.975s.322-5.885-4.29-5.885c-.855 1.146-2.255 2.014-3.697 2.014zM12.44 5.07c0 1.685-1.538 4.91-3.438 4.91-1.897 0-3.437-3.226-3.437-4.91 0-1.686 1.54-3.054 3.437-3.054 1.9 0 3.44 1.37 3.44 3.053z" class="si-glyph-fill"/><path d="M13.975 3.614c0-.316-.44-.57-.986-.573v-.65c0-.097.036-2.368-3.976-2.368-4.01 0-3.973 2.27-3.973 2.368v.674c-.01 0-.017-.003-.026-.003-.543 0-.98.252-.98.563v2.754c0 .31.438.56.98.56s.982-.25.982-.56V3.623c0-.043-.027-.082-.043-.122v-.75c0-.07-.288-1.783 3.06-1.783 3.35 0 3.003 1.714 3.003 1.783v.79c-.006.026-.025.048-.025.074V6.43c0 .318.444.575.993.575.012 0 .02-.004.033-.004v1.03h-.984V9h1.953l-.01-5.386z" class="si-glyph-fill"/></g></svg>