<svg viewBox="0 0 17 16" xmlns="http://www.w3.org/2000/svg" class="si-glyph si-glyph-balloon"><title>113</title><path d="M8.998 13.272c-1.634 0-1.838-.415-1.863-.497-.102-.352.514-1.103.996-1.512l-.026-.04c2.15-.668 3.807-4.534 3.807-6.774C11.91 1.99 9.92 0 7.47 0a4.446 4.446 0 0 0-4.443 4.45c0 2.35 1.818 6.485 4.12 6.848-.392.462-.786 1.106-.61 1.702.197.674.98.988 2.463.988.123 0 .18.147.068.305-.332.457-1.217.99-2.62.99V16c2.17 0 3.374-1.17 3.374-1.977a.73.73 0 0 0-.255-.572.88.88 0 0 0-.57-.178zM4.643 4.648c0 .688-.596.396-.596-.604C4.047 2.356 5.38.986 7.025.986c.978 0 1.27.613.595.613-1.643 0-2.977 1.36-2.977 3.048z" fill="#434343" class="si-glyph-fill" fill-rule="evenodd"/></svg>