<svg viewBox="0 0 17 16" xmlns="http://www.w3.org/2000/svg" class="si-glyph si-glyph-site-map-revert"><title>755</title><g fill="#434343" fill-rule="evenodd"><path d="M10.334 12.02H7.667a.662.662 0 0 0-.667.655V15.3c0 .363.3.657.667.657h2.667A.662.662 0 0 0 11 15.3v-2.625a.66.66 0 0 0-.666-.655zM13.667 4.916h2.667c.367 0 .666-.29.666-.646V1.686c0-.355-.3-.646-.666-.646h-2.667a.657.657 0 0 0-.667.646V4.27c0 .356.3.646.667.646zM7.667 4.916h2.667c.367 0 .666-.29.666-.646V1.686c0-.355-.3-.646-.666-.646H7.667A.657.657 0 0 0 7 1.686V4.27c0 .356.3.646.667.646zM1.667 4.916h2.667c.367 0 .666-.29.666-.646V1.686c0-.355-.3-.646-.666-.646H1.667A.657.657 0 0 0 1 1.686V4.27c0 .356.3.646.667.646zM14.047 7.04H9.97v-.98H8.03v.98H3.96v-.98H2.02v2.907h6.01v2.015h1.94V8.967h5.988V6.06h-1.91v.98z" class="si-glyph-fill"/></g></svg>