<svg viewBox="0 0 16 16" xmlns="http://www.w3.org/2000/svg" class="si-glyph si-glyph-cloud-upload"><title>137</title><g fill="#434343" fill-rule="evenodd"><path d="M6.53 5.906l2.124 3.06h7.332c-.14-1.435-1.06-2.546-2.186-2.546-.25 0-.486.066-.71.167-.694-1.042-1.827-1.724-3.113-1.724-.206 0-.407.022-.604.057-.682-1.137-1.866-1.892-3.22-1.892-1.905 0-3.483 1.5-3.77 3.46-.018 0-.035-.006-.05-.006-1.28 0-2.315 1.11-2.315 2.482H4.36l2.17-3.058z" class="si-glyph-fill"/><path d="M6.016 11.973v-1.99H5.014L6.506 8.02l1.476 1.964H6.965v1.99h-.95z" class="si-glyph-fill"/></g></svg>