<svg viewBox="0 0 17 16" xmlns="http://www.w3.org/2000/svg" class="si-glyph si-glyph-phone-fax"><title>1071</title><g fill="#434343" fill-rule="evenodd"><path d="M3.964 13.945c0 .565-.476 1.023-1.063 1.023h-.806c-.586 0-1.062-.458-1.062-1.023V1.055C1.032.49 1.51.03 2.094.03H2.9c.59 0 1.064.46 1.064 1.024v12.89zM15.88 0H6.035C5.464 0 5 .46 5 1.023v12.89a1.03 1.03 0 0 0 1.034 1.024h.924v-2.02H15v2.02h.88c.574 0 1.036-.458 1.036-1.023V1.024A1.03 1.03 0 0 0 15.88 0zM8 12.02H6.97V10.97H8v1.053zm0-2H6.97V8.97H8v1.053zm0-2H6.97V6.985H8V8.02zm2 4H8.97V10.97H10v1.053zm0-2H8.97V8.954H10v1.068zm0-2H8.97V6.97H10V8.02zm2 4h-1.03v-1.036H12v1.037zm0-2h-1.03V8.985H12v1.037zm0-2h-1.03V6.954H12V8.02zm3.016.955v1.047H12.97V8.975h2.046zM12.97 8.02V6.96h2.046v1.06H12.97zm2.046-3.99H6.97V1.97h8.046v2.06z" class="si-glyph-fill"/><path d="M13.97 15.97l-.003-1.948h-5.95l.003 1.947h5.95z" class="si-glyph-fill"/></g></svg>