<svg viewBox="0 0 17 16" xmlns="http://www.w3.org/2000/svg" class="si-glyph si-glyph-bikini"><title>696</title><g fill="#434343" fill-rule="evenodd"><path d="M12.942 10.074C10 10.074 6 10.07 4.138 10.07c-.354 0-.03.467.104.503 1.645.44 3.027 2.347 3.734 4.97.148.55.97.592 1.114.053.702-2.643 1.957-4.383 3.73-5.018.192-.07.476-.504.122-.504zM12.084 3.632c-.478-1.448-1.52-3.55-3.556-3.55-2.052 0-3.095 2.133-3.566 3.582-.535.572-.908 2.064-.908 2.988 0 2.168 2.693 1.038 3.52.1.32.08.655.123.995.123.315 0 .623-.037.92-.105.845.926 3.503 2.01 3.503-.117 0-.945-.364-2.476-.91-3.02zM7.86 5.926c-.05-.935-1.213-2.094-1.967-2.47.43-1.175 1.24-2.623 2.635-2.623 1.396 0 2.206 1.458 2.638 2.636-.766.393-1.944 1.55-1.98 2.474a3.33 3.33 0 0 1-.62.063c-.24 0-.476-.03-.705-.08z" class="si-glyph-fill"/></g></svg>