<svg viewBox="0 0 16 16" xmlns="http://www.w3.org/2000/svg" class="si-glyph si-glyph-database-remove"><title>655</title><g fill="#434343" fill-rule="evenodd"><path d="M7.43 5c3.55 0 6.43-1.242 6.43-2.58C13.86 1.085 10.98 0 7.43 0S1 1.084 1 2.42C1 3.76 3.88 5 7.43 5zM13.88 12.917a.716.716 0 0 0 .03-.204v-3.27c0 .656-2.932 1.637-6.447 1.637s-6.447-.98-6.447-1.636v3.27c0 1.187 2.887 2.145 6.447 2.145.885 0 1.728-.06 2.495-.167v-1.776h3.92z" class="si-glyph-fill"/><path d="M7.494 9.92c3.56 0 6.447-.983 6.447-2.197V4.377c0 .672-2.93 1.674-6.446 1.674-3.515 0-6.447-1-6.447-1.673v3.346c0 1.214 2.887 2.196 6.447 2.196zM11 14h4v.912h-4z" class="si-glyph-fill"/></g></svg>