<svg viewBox="0 0 17 16" xmlns="http://www.w3.org/2000/svg" class="si-glyph si-glyph-spanner"><title>858</title><path d="M6.838 11.784l5.906-5.905c1.172.604 2.567.492 3.463-.403.69-.69.924-1.682.716-2.638L15.4 4.357l-1.355.266L12.405 3l.28-1.397 1.51-1.49c-.955-.208-1.947.023-2.638.714-.896.896-1.008 2.29-.402 3.464L5.25 10.198c-1.174-.605-2.57-.492-3.466.402-.688.69-.922 1.68-.715 2.636l1.522-1.52 1.355-.264 1.643 1.625-.284 1.396-1.51 1.49c.956.207 1.948-.023 2.638-.714.896-.896 1.01-2.292.404-3.466z" fill="#434343" class="si-glyph-fill" fill-rule="evenodd"/></svg>