<svg viewBox="0 0 16 16" xmlns="http://www.w3.org/2000/svg" class="si-glyph si-glyph-edit"><title>Edit</title><g fill="#434343" fill-rule="evenodd"><path d="M15.682 2.91l-1.535-1.514c-.41-.408-1.218-.577-1.607-.19L6.485 7.235s-1.32 3.913-1.446 4.242c-.1.262.23.59.46.475.373-.185 4.104-1.63 4.104-1.63l6.07-6.057c.39-.388.42-.946.008-1.353zm-6.66 6.944l-2.568.974-.46-.425 1.224-2.965.74.546h1.06l.003 1.87z" class="si-glyph-fill"/><path d="M12.042 10.345v3.697H.958V3l8.183-.083.813-.86H0V15h13l-.057-5.422-.9.767z" class="si-glyph-fill"/></g></svg>