<svg viewBox="0 0 16 16" xmlns="http://www.w3.org/2000/svg" class="si-glyph si-glyph-telescope"><title>Telescope</title><g fill="#434343" fill-rule="evenodd"><path d="M13.058 1.4l.66 1.95-.944.302-.43-1.273-8.592 2.905.686 2.027-.933.29-.687-2.028-.526.215c-.11.22-.132.502-.327.852l-2.004.682L.81 9.83l1.794-.644c.377.162.783.268 1.014.368l10.947-3.696.216.637 1.182-.4-1.72-5.093-1.184.398z" class="si-glyph-fill"/><path d="M8.916 13.09V8.83c.39-.23.385-.7.387-1.187A1.32 1.32 0 0 0 7.99 6.317a1.32 1.32 0 0 0-1.323 1.316c-.002.494-.003.92.396 1.15v4.254c-1.896.102-3.07 1.287-3.07 1.93h8c-.002-.642-1.18-1.777-3.077-1.877z" class="si-glyph-fill"/></g></svg>