<svg viewBox="0 0 17 16" xmlns="http://www.w3.org/2000/svg" class="si-glyph si-glyph-wash-machine-2"><title>996</title><g fill="#434343" fill-rule="evenodd"><path d="M16.03.042h-15v3h15v-3zM3 1.958H2v-1h1v1zm2 0H4v-1h1v1z" class="si-glyph-fill"/><path d="M1.02 3v13h14.96V3H1.02zm7.437 12a5.5 5.5 0 1 1 0-11 5.5 5.5 0 0 1 0 11z" class="si-glyph-fill"/><path d="M8.516 5.083c-2.453 0-4.44 1.98-4.44 4.416 0 2.437 1.987 4.417 4.44 4.417 2.454 0 4.442-1.98 4.442-4.418S10.97 5.082 8.516 5.082zm3.283 4.945c.078 0 .15-.02.217-.048-.235 1.716-2.19 1.256-3.5.037-1.532-1.424-3.538 1.425-3.538-.52 0-1.94 1.583-3.515 3.536-3.515 1.79 0 3.266 1.32 3.5 3.036a.53.53 0 1 0-.218 1.01z" class="si-glyph-fill"/></g></svg>