<svg viewBox="0 0 16 16" xmlns="http://www.w3.org/2000/svg" class="si-glyph si-glyph-sos"><title>837</title><g fill="#434343" fill-rule="evenodd"><path d="M1.992 8c-.585 0-1.06-.444-1.06-.99s.475-.99 1.06-.99c.433 0 .816.242.98.618.11.25.382.355.61.237a.513.513 0 0 0 .218-.66 1.97 1.97 0 0 0-1.81-1.188 1.982 1.982 0 0 0 .007 3.964c.59 0 1.067.45 1.067.998 0 .547-.477.994-1.067.994-.438 0-.825-.246-.99-.624-.106-.25-.38-.356-.608-.24-.23.116-.328.413-.22.66a1.977 1.977 0 0 0 1.817 1.196A1.988 1.988 0 1 0 1.992 8zM12.98 7.988c-.58 0-1.05-.443-1.05-.987 0-.542.47-.985 1.05-.985.43 0 .812.242.975.617.106.247.378.354.604.236.227-.116.322-.41.215-.66a1.956 1.956 0 0 0-1.795-1.182c-1.08 0-1.957.887-1.957 1.975 0 1.09.877 1.975 1.966 1.975.584 0 1.058.446 1.058.99 0 .548-.474.992-1.06.992-.433 0-.818-.244-.98-.622-.108-.247-.377-.353-.605-.237-.227.115-.323.41-.217.656a1.963 1.963 0 0 0 1.804 1.19 1.976 1.976 0 0 0 1.968-1.978 1.982 1.982 0 0 0-1.98-1.978zM7.53 5.026h-.075c-1.004 0-2.444.806-2.444 1.795v3.354c0 .99 1.44 1.796 2.445 1.796h.074c1.004 0 2.443-.805 2.443-1.796V6.82c0-.988-1.44-1.794-2.444-1.794zm1.505 4.927c0 .616-.895 1.117-1.52 1.117h-.047c-.624 0-1.52-.5-1.52-1.117V7.055c0-.615.896-1.117 1.52-1.117h.047c.625 0 1.52.502 1.52 1.117v2.898z" class="si-glyph-fill"/></g></svg>