<svg viewBox="0 0 16 16" xmlns="http://www.w3.org/2000/svg" class="si-glyph si-glyph-network"><title>91</title><g fill="#434343" fill-rule="evenodd"><path d="M11.783 10.094c-1.7.998-3.766 1.684-5.678 1.95a1.662 1.662 0 0 1-.684.934c.513 1.093 1.25 2.087 2.14 2.987a7.983 7.983 0 0 0 6.702-3.074c.03-.037.055-.08.083-.118-.244-.914-.648-1.784-1.145-2.644-.09.026-.176.046-.26.062-.144.04-.292.068-.447.068a1.66 1.66 0 0 1-.71-.164zM9.05 5.492a17.647 17.647 0 0 0-2.003-1.256 1.67 1.67 0 0 1-1.907.985c-.407 1.536-.624 3.163-.51 4.695a1.67 1.67 0 0 1 1.52 1.354c1.694-.28 3.47-.88 4.966-1.74a1.672 1.672 0 0 1-.297-.948c0-.413.155-.786.402-1.078-.654-.736-1.39-1.443-2.17-2.012zM4 9.99c-.137-1.635.104-3.393.54-5.033a1.673 1.673 0 0 1-.712-1.37c0-.196.04-.385.104-.56a18.102 18.102 0 0 0-1.974-.248c-.09.103-.185.203-.27.313A7.983 7.983 0 0 0 .46 10.64c.772.33 1.567.547 2.398.666A1.67 1.67 0 0 1 4 9.99zM13.928 9.69c-.03.036-.064.066-.096.1.433.735.8 1.48 1.053 2.267a7.98 7.98 0 0 0 .832-6.122c-.09.133-.176.267-.27.396-.437.602-.876 1.218-1.355 1.773.045.152.076.31.076.48v.003c.084.374.013.78-.24 1.103zM7.164 3.447c.8.414 1.584.898 2.33 1.44.84.61 1.627 1.373 2.324 2.164.207-.09.434-.144.676-.144.5 0 .945.225 1.252.572.404-.492.783-1.022 1.16-1.54.195-.268.373-.543.545-.82A7.96 7.96 0 0 0 7.7.012c-.114.146-.228.29-.338.44-.4.55-.74 1.08-1.04 1.636.04.03.064.066.1.1.417.276.697.734.742 1.26zM2.88 11.965a10.14 10.14 0 0 1-2.07-.487 7.954 7.954 0 0 0 5.805 4.397 10.97 10.97 0 0 1-1.753-2.66 1.675 1.675 0 0 1-1.983-1.25zM4.514 2.242a1.32 1.32 0 0 1 1.2-.416c.31-.586.663-1.143 1.08-1.722a7.974 7.974 0 0 0-4.247 2.062c.59.066 1.176.14 1.76.252.064-.064.134-.12.207-.176z" class="si-glyph-fill"/></g></svg>