<svg viewBox="0 0 17 16" xmlns="http://www.w3.org/2000/svg" class="si-glyph si-glyph-pet-carrier"><title>721</title><path d="M12.504 3.037h-.535V2.022c0-.564-.447-1.022-.996-1.022H7.032c-.55 0-.994.458-.994 1.022v1.015h-.543C1.813 3.037 1 14.827 1 14.827c0 .58.515 1.053 1.148 1.053h13.704c.634 0 1.148-.474 1.148-1.054 0 0-.883-11.79-4.496-11.79zm-5.546 7.98V8.934H11v2.083H6.958zM11.04 12v2H6.988v-2h4.052zm-.01-6.083V8.02H6.96V5.918h4.073zm3.662 2.104h-2.755V5.918h2.125c.25.64.46 1.366.63 2.104zm-8.66 0H3.284c.165-.728.367-1.472.615-2.103h2.13V8.02zm-.01.914v2.083H2.75c.086-.616.196-1.36.346-2.083H6.02zm5.957-.03h2.92c.153.73.27 1.488.36 2.112h-3.28V8.903zm-5.003-6.72c0-.17.148-.308.33-.308H10.7c.182 0 .33.14.33.31v.852H6.977v-.853zm-4.46 11.042s.036-.45.133-1.226h3.37v2H3.366c-.47 0-.848-.35-.848-.774zM14.63 14h-2.65v-2h3.362c.1.768.14 1.233.14 1.233 0 .422-.384.767-.853.767z" fill="#434343" class="si-glyph-fill" fill-rule="evenodd"/></svg>