<svg viewBox="0 0 17 16" xmlns="http://www.w3.org/2000/svg" class="si-glyph si-glyph-dashboard"><title>1013</title><g fill="#434343" fill-rule="evenodd"><path d="M8.52 15.98c-4.11 0-7.458-3.36-7.458-7.49C1.062 4.36 4.41 1 8.522 1c4.11 0 7.457 3.36 7.457 7.49 0 4.13-3.347 7.49-7.46 7.49zM8.513 2.955c-3.052 0-5.534 2.486-5.534 5.545 0 3.06 2.482 5.546 5.534 5.546 3.05 0 5.532-2.487 5.532-5.545s-2.482-5.544-5.532-5.544z" class="si-glyph-fill"/><path d="M8.965 10.062V7.64c0-.348-.213-.627-.477-.627s-.48.28-.48.626v2.422c-.386.192-.967.542-.967 1.438 0 .896.82 1.484 1.447 1.484.627 0 1.428-.59 1.428-1.484 0-.895-.56-1.245-.95-1.438zM8 4h.96v.976H8zM5 5h.998v.98H5zM11 5h.998v.98H11z" class="si-glyph-fill"/></g></svg>