<svg viewBox="0 0 16 16" xmlns="http://www.w3.org/2000/svg" class="si-glyph si-glyph-cup-cake"><title>Cup-cake</title><g fill="#434343" fill-rule="evenodd"><path d="M12.807 8.328c-.39 0-.75-.09-1.073-.238-.595-.27-1.044-.31-1.204-.895-.246.69-1.008.797-1.996 1.02a4.27 4.27 0 0 1-.956.113c-.335 0-.653-.045-.956-.114-1.06-.236-1.846-.407-2.03-1.17H4.55c-.12.65-.566.745-1.195 1.042-.323.15-.683.242-1.07.242-.3 0-.582-.054-.844-.146l1.35 5.045c.105.522.56 1.736 1.52 1.736h6.556c.95 0 1.363-1.214 1.52-1.736L13.74 8.16c-.29.108-.602.168-.933.168zM8.02 14.062H6.947V9.937H8.02v4.125zM5.27 13.97l-.872.108-.605-3.943.88-.11.598 3.944zm5.24-3.946l.88.11-.606 3.943-.873-.11.598-3.943zM7.6.06C3.526.06.173 2.52.173 4.697c0 .04-.024.305-.024.404C.15 6.15 1.16 7 2.403 7c.376 0 .727-.085 1.04-.224.636-.282 1.087-.81 1.184-1.436.146.732.933 1.328 1.994 1.554.295.063.604.105.93.105.328 0 .637-.043.93-.106.963-.204 1.7-.71 1.942-1.35.156.54.592.986 1.17 1.236.315.135.665.22 1.044.22 1.262 0 2.283-.85 2.283-1.9l.002-.405C14.922 2.518 11.672.06 7.6.06z" class="si-glyph-fill"/></g></svg>