<svg viewBox="0 0 16 16" xmlns="http://www.w3.org/2000/svg" class="si-glyph si-glyph-dna"><title>DNA</title><path d="M8.105 3.55a3.03 3.03 0 0 1 .05-.07C9.145 2.12 10 .94 10 .043H9c0 .242-.14.576-.352.96H6.334C6.13.627 6 .296 6 .04H5c0 .96.877 2.142 1.89 3.512 0 .002.002.003.002.003C5.902 4.942 5 6.337 5 7.535c0 1.2.908 2.564 1.896 3.915l-.05.07C5.855 12.882 5 14.06 5 14.96h1c0-.248.144-.59.363-.98h2.29c.212.382.347.72.347.98h1c0-.962-.876-2.143-1.89-3.513l-.003-.004C9.097 10.06 10 8.665 10 7.467c0-1.2-.907-2.567-1.895-3.916zM8.038 1.96c-.173.25-.356.507-.543.766-.19-.26-.376-.515-.552-.766h1.095zM8.53 6H6.493c.273-.52.63-1.064 1.01-1.608.39.542.755 1.088 1.03 1.608zM9 7.467c0 .166-.035.347-.084.533H6.064A2.028 2.028 0 0 1 6 7.533c0-.172.037-.36.09-.555h2.84c.04.17.07.335.07.49zm-2.04 5.575c.175-.25.358-.51.546-.767.19.26.375.516.55.767H6.962zM6.458 8.98h2.06c-.272.523-.634 1.077-1.02 1.628-.393-.55-.765-1.104-1.04-1.63z" fill="#434343" class="si-glyph-fill" fill-rule="evenodd"/></svg>