<svg viewBox="0 0 17 16" xmlns="http://www.w3.org/2000/svg" class="si-glyph si-glyph-briefcase"><title>1108</title><g fill="#434343" fill-rule="evenodd"><path d="M6.96 3.08c0-.62.48-1.125 1.07-1.125h1.84c.59 0 1.183.505 1.183 1.124v-.06h.92v-.473c0-.86-.48-1.548-1.46-1.548H7.386c-.654 0-1.362.73-1.362 1.547v.474h.937v.06z" class="si-glyph-fill"/><path d="M11 5.97v1.01h6V3.017H.985V6.98h6.003V5.97H11zM7 8.998v-.995H1.02V16H17V8.003h-5.987v.995H7zM8 7v.967h1.99V7H8z" class="si-glyph-fill"/></g></svg>