<svg viewBox="0 0 17 16" xmlns="http://www.w3.org/2000/svg" class="si-glyph si-glyph-hightheel"><title>809</title><path d="M4.396 8.91s-.52-.24-.876 1.24c-.27 1.42-.538 1.734-.538 1.734H2.36s.007-.652.007-1.14c0-.49-.283-2.063-.987-3.22C.678 6.367.88 4.88 2.764 3.026c.074-.072.442-.21.902.23.598.574 3.32 3.392 5.63 4.372 2.167.92 3.626-.12 3.626-.12s2.825.63 3.88 2.412c1.056 1.784-2.295 1.908-2.295 1.908s-4.17.24-5.175-.605C9.182 11.03 5.21 8.75 4.396 8.91z" fill="#434343" class="si-glyph-fill" fill-rule="evenodd"/></svg>