<svg viewBox="0 0 17 16" xmlns="http://www.w3.org/2000/svg" class="si-glyph si-glyph-house"><title>984</title><g fill="#434343" fill-rule="evenodd"><path d="M16.794 8.77l-3.81-3.906V2.017l-.968.022v1.727L9.502 1.245a.71.71 0 0 0-1.003 0L1.205 8.77a.713.713 0 0 0 0 1.003.71.71 0 0 0 1.003 0L9 2.982l6.793 6.79a.704.704 0 0 0 1 0 .715.715 0 0 0 0-1.003z" class="si-glyph-fill"/><path d="M4.043 9.532v5.69c0 .394.218.786.567.786h2.277l.064-3.993h4.075l-.002 3.993h2.303c.35 0 .632-.39.632-.786v-5.69L9 4.624 4.043 9.532z" class="si-glyph-fill"/></g></svg>