<svg viewBox="0 0 17 16" xmlns="http://www.w3.org/2000/svg" class="si-glyph si-glyph-head-set"><title>813</title><path d="M15.665 6.733l-.01.002V5.632c0-3.066-2.6-5.56-5.798-5.56H8.195c-3.197 0-5.797 2.493-5.797 5.56V6.74c-.025 0-.05-.008-.076-.008-.707 0-1.282.59-1.282 1.317v2.686c0 .728.575 1.314 1.282 1.314.062 0 .125-.01.185-.02.58 1.732 2.68 3.067 5.29 3.315.277.367.397.63 1.248.63 1.092 0 1.913-.43 1.913-.96s-.82-.96-1.913-.96c-.844 0-.96.26-1.244.62-2.354-.234-4.235-1.41-4.685-2.913.447 0 .816-.608.816-1.027v-.122h.007v-5.04c0-2.546 1.518-3.617 4.258-3.617h1.662C12.59 1.956 14 2.992 14 5.586v5.04h.014v.11c0 .727.752 1.22 1.466 1.22s1.478-.493 1.478-1.22V8.047c0-.725-.58-1.315-1.293-1.315z" fill="#434343" class="si-glyph-fill" fill-rule="evenodd"/></svg>