<svg viewBox="0 0 17 16" xmlns="http://www.w3.org/2000/svg" class="si-glyph si-glyph-lock"><title>781</title><path d="M13 4.017C13 1.802 11.252 0 9.104 0H7.927C5.78 0 4.03 1.802 4.03 4.017V7.33a5.456 5.456 0 0 0 4.448 8.615 5.458 5.458 0 0 0 5.46-5.46A5.38 5.38 0 0 0 13 7.465V4.016zM9.104 2C10.15 2 11 2.904 11 4.017v1.646a5.398 5.398 0 0 0-2.52-.636c-.92 0-1.783.23-2.543.63v-1.64C5.937 2.903 6.88 2 7.927 2h1.177zm-.625 9.846c.362 0 .692-.147.936-.38l2.578-.752a3.528 3.528 0 0 1-3.515 3.312 3.54 3.54 0 0 1 0-7.076A3.532 3.532 0 0 1 12 10.3l-2.573-.782a1.352 1.352 0 0 0-.947-.388 1.358 1.358 0 1 0 0 2.716z" fill="#434343" class="si-glyph-fill" fill-rule="evenodd"/></svg>