<svg viewBox="0 0 17 16" xmlns="http://www.w3.org/2000/svg" class="si-glyph si-glyph-keyboard"><title>922</title><path d="M1 4.03V11h14.997V4.03H1zM11.97 5h1.046v1.023H11.97V5zm1.046 1.97v1.046h-1.03V6.97h1.03zm-3.05-1.99h1.05v1.06h-1.05V4.98zm1.056 1.995v1.062H9.98V6.975h1.042zM7.982 4.98h1.033v1.035H7.982V4.98zm-.017 1.995h1.078V8.06H7.965V6.974zm-2.993-1.98h1.054v1.028H4.972V4.995zM7 6.988v1.05H5.985v-1.05H7zm-1.97-.013v1.062H3.97V6.975h1.06zm-2.06-1.99h1.06V6.03H2.97V4.985zm-1 1.994H3v1.036H1.97V6.98zM4 10H2V9h2v1zm8.02.02H4.97V8.97h7.05v1.053zM15 10h-2V9h2v1zm.016-2h-1.03V6.97h1.03V8zm0-1.977H13.97V5h1.046v1.023z" fill="#434343" class="si-glyph-fill" fill-rule="evenodd"/></svg>