<svg viewBox="0 0 16 16" xmlns="http://www.w3.org/2000/svg" class="si-glyph si-glyph-document-forward"><title>127</title><g fill="#434343" fill-rule="evenodd"><path d="M2.017.058v15.896h12.006V5.032h-6.07V.058H2.016zM8.922 9v-.953l.04-.04a.527.527 0 0 1 .385-.145.63.63 0 0 1 .447.172l2.097 1.613c.202.21.202.55 0 .756l-2.107 1.603a.64.64 0 0 1-.393.118.6.6 0 0 1-.43-.155l-.038-.04v-.904c-1.315.025-2.843.842-3.36 1.805-.03.052-.174.307-.378.307-.192 0-.288-.187-.288-.554 0-2 2.153-3.557 4.026-3.583z" class="si-glyph-fill"/><path d="M9.004.016v3.978h4.946L9.004.016z" class="si-glyph-fill"/></g></svg>