<svg viewBox="0 0 17 16" xmlns="http://www.w3.org/2000/svg" class="si-glyph si-glyph-helicopter-pad"><title>773</title><g fill="#434343" fill-rule="evenodd"><path d="M8 .055c-4.418 0-8 3.566-8 7.968 0 4.4 3.582 7.968 8 7.968s8-3.566 8-7.967C16 3.62 12.418.055 8 .055zm.004 15.057c-3.934 0-7.12-3.18-7.12-7.105C.883 4.083 4.07.902 8.003.902c3.933 0 7.12 3.18 7.12 7.105 0 3.924-3.186 7.105-7.12 7.105z" class="si-glyph-fill"/><path d="M8.018 2.08c-3.264 0-5.91 2.654-5.91 5.927 0 3.273 2.646 5.927 5.91 5.927 3.264 0 5.91-2.654 5.91-5.927 0-3.273-2.647-5.927-5.91-5.927zm2.06 8.04h-1.14V9.06H7.06v1.057H5.944V5.96h1.118v1.915h1.875V5.96h1.14v4.16z" class="si-glyph-fill"/></g></svg>