<svg viewBox="0 0 17 16" xmlns="http://www.w3.org/2000/svg" class="si-glyph si-glyph-no-smoke"><title>1019</title><g fill="#434343" fill-rule="evenodd"><path class="si-glyph-fill" d="M4 8h1.973v.965H4zM7 8h5.938v.923H7zM12.816 5.963c-.36-.27-.693-.332-1.094-.448-.885-.256-1.28-1.3-1.322-2.114-.117.547-.06 1.1.015 1.46.11.542.414 1.05.903 1.324.412.227.958.246 1.398.472.426.217.78.51.907.692 0 0-.23-.95-.807-1.385z"/><path d="M8.995.067C4.603.067 1.03 3.63 1.03 8.013c0 4.38 3.573 7.944 7.965 7.944 4.39 0 7.963-3.563 7.963-7.944 0-4.382-3.573-7.946-7.963-7.946zm7.11 8.023a7.1 7.1 0 0 1-1.6 4.496L4.467 2.534A7.122 7.122 0 0 1 8.955.944c3.943 0 7.15 3.204 7.15 7.146zM1.968 7.986c0-1.72.615-3.3 1.635-4.528l9.96 9.993a7.042 7.042 0 0 1-4.51 1.63c-3.908 0-7.085-3.184-7.085-7.094z" class="si-glyph-fill"/></g></svg>