<svg viewBox="0 0 17 16" xmlns="http://www.w3.org/2000/svg" class="si-glyph si-glyph-calculator"><title>958</title><g fill="#434343" fill-rule="evenodd"><path d="M15.69.04h-5.607v6.877h6.875V1.3c0-.695-.567-1.26-1.27-1.26zm-.646 4.005h-3.106V2.938h3.106v1.107zM10 15.958h5.674c.71 0 1.284-.57 1.284-1.274V9.042H10v6.916zm1.953-4.99h3.07v1.063h-3.07v-1.06zm0 1.985H15v1.094h-3.047v-1.094zM7.898.04H2.326A1.25 1.25 0 0 0 1.083 1.3v5.623h6.815V.04zM6 4.024h-.984v1.04H3.98v-1.04H2.96v-1.04h1.02V1.98h1.036v1.002H6v1.04zM1.083 14.676c0 .71.562 1.282 1.255 1.282h5.62V9H1.083v5.676zm2.36-3.967l1.046 1.046 1.047-1.05.732.733-1.05 1.048 1.062 1.06-.735.737-1.062-1.06-1.022 1.02-.732-.732 1.022-1.02-1.045-1.048.736-.736z" class="si-glyph-fill"/></g></svg>