<svg viewBox="0 0 17 16" xmlns="http://www.w3.org/2000/svg" class="si-glyph si-glyph-shower"><title>704</title><g fill="#434343" fill-rule="evenodd"><path d="M6.004 3.05C4.857 3.195 3 4.768 3 6.954h6.953c0-2.157-1.778-3.743-2.955-3.896-.01-1.562.007-2.14 3.47-2.14 3.22 0 3.547 1.425 3.547 4.43V15.41c0 .274.208.498.484.498a.5.5 0 0 0 .5-.5V5.35C15 2.148 14.935 0 10.47 0 6.59 0 6.043.83 6.003 3.05zM3 8h.96v.916H3z" class="si-glyph-fill"/><path class="si-glyph-fill" d="M6 8h.96v.916H6zM9 8h.96v.916H9zM4 10h.96v.916H4zM8 10h.96v.916H8z"/></g></svg>