<svg viewBox="0 0 17 16" xmlns="http://www.w3.org/2000/svg" class="si-glyph si-glyph-inbox-download"><title>844</title><g fill="none" fill-rule="evenodd"><path d="M6.198 4.256l2.19 2.513a.81.81 0 0 0 1.143 0l2.19-2.514c.314-.315.363-.876.05-1.19H9.964V1.144c0-.56-.433-1.01-.968-1.01-.535 0-.97.45-.97 1.01v1.922h-1.78c-.315.315-.364.874-.05 1.19z" fill="#434343" class="si-glyph-fill"/><path d="M7 10h4.03v1.03H7z"/><path d="M14.993 1.006H11.03v.975h3.147l1.363 7.03H2.505l1.407-7.03H6.97v-.974H3.072L1.013 9.76v4.17c0 1.335.472 2.03 1.804 2.03h12.28c1.246 0 1.885-.528 1.885-2.112V9.76l-1.99-8.754zM11.016 11h-4.03V9.97h4.03V11z" fill="#434343" class="si-glyph-fill"/></g></svg>