<svg viewBox="0 0 17 17" xmlns="http://www.w3.org/2000/svg" class="si-glyph si-glyph-candy-stick"><title>Candy-stick</title><path d="M11.75.468A5.582 5.582 0 0 0 10.682.13 5.476 5.476 0 0 0 9.496.01 5.35 5.35 0 0 0 7.28.526a4.487 4.487 0 0 0-2.013 1.908c-.05.093-5.12 11.542-5.12 11.542-.32.72.013 1.56.737 1.872a1.45 1.45 0 0 0 1.898-.743l4.97-11.263c.222-.503.722-.847 1.345-.952a2.38 2.38 0 0 1 .393-.037 2.735 2.735 0 0 1 1.797.66l.635.825c.195.434.23.9.045 1.318-.12.275-.146.568-.094.843.083.42.355.79.764.992.025.013.045.028.07.04.502.216 1.083.1 1.494-.23.17-.137.313-.308.405-.513.164-.375.264-.76.317-1.147.28-2.067-.967-4.23-3.172-5.175z" fill="#434343" class="si-glyph-fill" fill-rule="evenodd"/></svg>