<svg viewBox="0 0 17 17" xmlns="http://www.w3.org/2000/svg" class="si-glyph si-glyph-scissor"><title>130</title><path d="M15.958 4.146s-1.33-.81-1.534-.71l-6.3 3.86-2.155-1.86c.07-.94-.716-2.05-2.034-2.73-.647-.337-1.35-.522-1.978-.522-.836 0-1.48.322-1.762.883-.515 1.016.32 2.45 1.9 3.268.646.335 1.35.52 1.978.52.47 0 .866-.11 1.185-.298l1.578 1.527-1.523 1.48c-.324-.21-.738-.336-1.234-.336-.628 0-1.327.184-1.974.52-1.56.813-2.373 2.233-1.852 3.235.285.546.922.86 1.746.86.628 0 1.33-.185 1.975-.522 1.255-.653 2.014-1.698 1.994-2.604l2.153-1.844 6.3 3.86c.204.1 1.535-.71 1.535-.71L9.43 8.083l6.528-3.938zM4.87 5.48c-.074.15-.226.257-.417.326-.484.177-1.255.1-1.95-.26C1.492 5.024.877 4.11 1.158 3.553c.14-.277.496-.437.978-.437.436 0 .93.133 1.392.372.723.373 1.236.947 1.37 1.45.05.198.05.385-.03.543zm-1.295 7.09c-.982.51-2.132.474-2.41-.057-.292-.562.32-1.486 1.34-2.017.47-.244.974-.38 1.42-.38.23 0 .433.04.597.108.18.074.316.185.39.328.098.187.088.414.004.65-.17.485-.662 1.013-1.34 1.368z" fill="#434343" class="si-glyph-fill" fill-rule="evenodd"/></svg>