<svg viewBox="0 0 17 16" xmlns="http://www.w3.org/2000/svg" class="si-glyph si-glyph-jump-double-page-left-right"><title>957</title><g fill="#434343" fill-rule="evenodd"><path d="M16 8.062L14.172 5.25a.827.827 0 0 0-1.17 0v1.776h-2.058v-5.5s-.43-.5-.958-.5c-.53 0-.958.5-.958.5V14.5s.43.5.958.5c.527 0 .958-.5.958-.5V9h2.058v1.758a.83.83 0 0 0 1.17 0L16 8.062zM5.986 1.026c-.53 0-.958.5-.958.5v5.557l-2.058-.01v-1.77a.83.83 0 0 0-1.17 0L0 8l1.8 2.75a.83.83 0 0 0 1.17 0V8.966l2.06-.008V14.5s.428.5.957.5c.527 0 .958-.5.958-.5V1.526s-.43-.5-.96-.5z" class="si-glyph-fill"/></g></svg>