<svg viewBox="0 0 17 16" xmlns="http://www.w3.org/2000/svg" class="si-glyph si-glyph-champion-cup"><title>109</title><path d="M11.97 1H3.08v1.03h-3.09v4.837c0 1.87 2.086 3.407 4.133 3.567.672.72 1.854 1.243 2.906 1.466v1.264c-1.005.31-2.802 1.035-2.905 1.826h6.904c-.105-.79-2.085-1.518-3.093-1.826V11.9c1.056-.223 2.29-.746 2.964-1.466 2.047-.16 4.04-1.698 4.04-3.567V2.03h-2.97V1zM.94 2.947h2.07v4.166c0 .822.212 1.604.585 2.308C2.047 8.93.94 7.66.94 6.173V2.947zm8.105 5.08L7.5 7.178l-1.545.85.295-1.8L5 4.955l1.727-.263.774-1.635.773 1.636L10 4.955 8.75 6.228l.295 1.8zm2.295 1.527c.375-.736.59-1.55.59-2.41v-4.17h2.074V6.16c0 1.553-1.11 2.88-2.664 3.394z" fill="#434343" class="si-glyph-fill" fill-rule="evenodd"/></svg>