<svg viewBox="0 0 16 16" xmlns="http://www.w3.org/2000/svg" class="si-glyph si-glyph-christmass-tree"><title>652</title><g fill="#434343" fill-rule="evenodd"><path d="M6.78 3.98l1.222-.935 1.217.936-.466-1.515 1.22-.938H8.466L8.002.01l-.467 1.517H6.028l1.22.938L6.78 3.98z" class="si-glyph-fill"/><path d="M10.984 11.98l1.934.015-2.902-4.03H12L7.985 3.98 4.03 7.996h2.032L3.015 11.95H5.03l-3.015 4.015 11.977-.017-3.008-3.97zm-4.968 3.03H4.97v-1.06h1.046v1.06zm1-4H5.97V9.95h1.046v1.06zm1.015-4H6.97V5.95h1.06v1.06zm.94 2.938h1.046v1.062H8.97V9.948zm1 5.063v-1.06h1.046v1.06H9.97z" class="si-glyph-fill"/><path class="si-glyph-fill" d="M12 7.995h.97v.984H12zM13 11.995h.97v.984H13zM2 11.995h.97v.984H2zM3 7.995h.97v.984H3z"/></g></svg>