<svg viewBox="0 0 17 16" xmlns="http://www.w3.org/2000/svg" class="si-glyph si-glyph-axe"><title>762</title><g fill="#434343" fill-rule="evenodd"><path d="M7.038 8.5c-.67.672-2.108.652-4.198-1.438C.752 4.974.793 3.474 1.402 2.865c.61-.61.883.455 2.363-.47 1.48-.93 1.8-1.908 2.316-1.392L8.898 3.82c.518.517-.797 1.173-1.39 2.316-.55 1.065.202 1.694-.47 2.364zM16.297 14.957c-.142.143-.46.053-.715-.2l-6.96-6.96c-.253-.254-.345-.574-.202-.717l.577-.576c.14-.143.462-.05.716.2l6.96 6.962c.253.253.343.572.2.715l-.576.577z" class="si-glyph-fill"/><path class="si-glyph-fill" d="M3.008.137h.972V1.84h-.972z"/></g></svg>