<svg viewBox="0 0 17 16" xmlns="http://www.w3.org/2000/svg" class="si-glyph si-glyph-float"><title>1059</title><path d="M9 .062c-4.398 0-7.98 3.576-7.98 7.97S4.603 16 9 16c4.4 0 7.98-3.576 7.98-7.97S13.4.06 9 .06zM15.947 7h-2.133a4.958 4.958 0 0 0-4.23-3.896H10v-2.05A7.03 7.03 0 0 1 15.948 7zM4.994 8.02A3.972 3.972 0 0 1 8.96 4.043c2.19 0 3.964 1.78 3.964 3.98A3.972 3.972 0 0 1 8.96 12a3.972 3.972 0 0 1-3.966-3.98zM8 1.056v2.05h.332A4.958 4.958 0 0 0 4.102 7H2.055A7.028 7.028 0 0 1 8 1.056zM2.053 8.98h2.042A4.97 4.97 0 0 0 8 12.9v2.045A7.028 7.028 0 0 1 2.053 8.98zM10 14.946v-2.055h-.022a4.973 4.973 0 0 0 3.845-3.913h2.126A7.03 7.03 0 0 1 10 14.946z" fill="#434343" class="si-glyph-fill" fill-rule="evenodd"/></svg>