<svg viewBox="0 0 17 16" xmlns="http://www.w3.org/2000/svg" class="si-glyph si-glyph-coffee-machine"><title>691</title><g fill="#434343" fill-rule="evenodd"><path d="M1.02 15.085v.88H17v-2.93H3.027c-1.11 0-2.006.918-2.006 2.05zM6.035 12h.918c1.104 0 2-.926 2-2.067V8.037H4.035v.99h-1v.906h1c0 1.14.897 2.067 2 2.067z" class="si-glyph-fill"/><path d="M1.083.083v1.834c0 1.076.85.947 1.917.99v1.05h2.042v2H6v.918h.96V3.958h1.915v-1.04H11v9.066h6V.084H1.083zm4.96 3H4.916V1.917h1.125v1.168zm2 0H6.916V1.917h1.125v1.168z" class="si-glyph-fill"/></g></svg>