<svg viewBox="0 0 16 16" xmlns="http://www.w3.org/2000/svg" class="si-glyph si-glyph-old-phone"><title>176</title><g fill="#434343" fill-rule="evenodd"><path d="M13.936 8.888C13.936 6.714 10.752 6 10.752 6c-.324 0-.748-.002-1.752 0V4.958l.993.013V3.084H9v1H6v-1H5V4.97l1.042-.012V6H4.176S1 6.637 1 8.88c0 2.242-.945 5.778-.945 5.778s.736.048.736 1.31h13.334c0-1.208.858-1.315.858-1.315s-1.046-3.59-1.046-5.765zM7.52 15.083a3.605 3.605 0 1 1 .002-7.21 3.605 3.605 0 0 1 0 7.21z" class="si-glyph-fill"/><path d="M1.273 4.88h1.305s1.266.17 1.305-.82H.05c0 .926 1.223.82 1.223.82zM4 2.29C4 1.95 4.82 2 5.165 2H9.88c.34 0 1.135.05 1.135.39v.502h3.947c0-.01.002.008.002 0 0-2.938-5.77-2.84-7.793-2.84C5.15.05.028-.024.028 2.916H4c.002-.02 0-.812 0-.626zM12.44 4.88h1.284s1.222.19 1.237-.82h-3.824c.048.88 1.305.82 1.305.82zM8 11h2v.964H8z" class="si-glyph-fill"/><ellipse cx="7.477" cy="11.492" rx="1.477" ry="1.492" class="si-glyph-fill"/></g></svg>