<svg viewBox="0 0 17 16" xmlns="http://www.w3.org/2000/svg" class="si-glyph si-glyph-sound-mute"><title>1002</title><g fill="#434343" fill-rule="evenodd"><path class="si-glyph-fill" d="M2.47 13.513l14-11.142.873 1.098-14 11.142zM4.953 9.912V5.01H3.128c-1.283 0-2.115 1.084-2.115 2.46v1.024c0 1.46.77 2.46 2.115 2.46h.386l1.44-1.042zM7.877 12.66l5.06 3.312c.585 0 1.06-.4 1.06-.895V7.92l-6.12 4.74zM13.987.97c0-.506-.5-.92-1.115-.92L7.114 3.73C6.5 3.73 6 4.142 6 4.65v4.19l7.987-6.244V.97z"/></g></svg>