<svg viewBox="0 0 16 16" xmlns="http://www.w3.org/2000/svg" class="si-glyph si-glyph-curtain"><title>Curtain</title><g fill="#434343" fill-rule="evenodd"><path d="M15.963 15.96h-.9V.952L.937.96v15H.043V.046h15.92V15.96z" class="si-glyph-fill"/><path d="M1.295 11.253C7.052 9.02 5.89.953 5.89.953h-.874c.188 4.64-.88 7.297-3.04 8.89.18-.254 2.118-1.624 2.01-8.89H3.03c-.023.996.265 7.182-2.463 9.602 0 0 1.58-2.226 1.368-9.6H.126v15.038h1.836c-.025-2.095-.267-3.503-.96-4.01 0 0 1.997-.047 2.046 4.01h.938c-.002 0 .264-3.946-2.69-4.74zM14.717 11.23C8.96 9.003 10.123.97 10.123.97H11c-.28 4.576.877 7.27 3.037 8.854-.178-.253-2.21-1.62-1.96-8.854h.892c.024.994-.253 7.153 2.475 9.565 0 0-1.626-2.218-1.413-9.565h1.932v14.982h-1.912c.027-2.087.27-3.435.965-3.938 0 0-2.03-.104-2.078 3.938h-.907c-.002 0-.455-3.733 2.684-4.722z" class="si-glyph-fill"/></g></svg>