<svg viewBox="0 0 16 16" xmlns="http://www.w3.org/2000/svg" class="si-glyph si-glyph-contact-book"><title>Contact-book</title><g fill="#434343" fill-rule="evenodd"><path d="M1.06 2.917h1.023v1.215H1.06v7.835h.99v1.117h-.99v2.797H12.96V0H1.06v2.917zm3.385 1.475c.03-.024.27-.204.357-.27h-.006l.017-.008c.005-.006.02-.017.024-.02l.004.005c.147-.087.298-.147.47-.173.462-.068.8.412 1.018.687.22.272.523.706.486 1.003-.022.18-.227.344-.42.506l-.008-.01c-.053.057-.287.296-.307.328-.108.18-.23.582-.06.886.164.295.486.773.79 1.172.323.387.718.81.968 1.037.262.237.693.22.895.162.04-.01.354-.197.395-.217.21-.144.42-.296.607-.273.303.038.656.434.875.707.22.274.613.712.433 1.132-.07.16-.17.286-.293.405l.004.005-.022.016-.006.01h-.004l-.354.27c-.336.216-1.066.487-2.092-.116-.76-.45-1.596-1.21-2.393-2.163l-.004.004a6.555 6.555 0 0 1-.108-.14c-.037-.047-.076-.09-.114-.138l.004-.003c-.748-.987-1.298-1.965-1.556-2.796-.347-1.12.102-1.74.4-2.005zM0 3h.98v.992H0zM0 12h.977v.943H0zM14 2h.916v2.875H14zM14 11h.887v2.847H14zM14 6h.9v3.895H14z" class="si-glyph-fill"/></g></svg>