<svg viewBox="0 0 17 16" xmlns="http://www.w3.org/2000/svg" class="si-glyph si-glyph-retroeexcavadora"><title>694</title><g transform="translate(1 1)" fill="#434343" fill-rule="evenodd"><circle cx="12.473" cy="11.473" r="1.473" class="si-glyph-fill"/><path d="M3.502 6.035C1.566 6.035 0 7.588 0 9.503s1.566 3.467 3.502 3.467c1.932 0 3.5-1.552 3.5-3.467s-1.568-3.468-3.5-3.468zm0 5.127a1.668 1.668 0 0 1-1.677-1.66c0-.916.75-1.66 1.677-1.66.924 0 1.675.744 1.675 1.66 0 .918-.75 1.66-1.675 1.66z" class="si-glyph-fill"/><path d="M15.332 6.68a.893.893 0 0 0-.89-.896l-.505-.07v-.732h.024v-2.86H13V4h-.97v1.45l-2.436-.335C8.992 3.447 7.564.095 7.006.095l-5.45.668C.563.763.03 6 .03 6c.672-.39 2.542-1.062 3.375-1.062 2.526 0 4.64 2.16 4.64 4.688 0 .48-.078.902-.215 1.338h2.1c.147-1.245 1.108-2.13 2.394-2.13 1.283 0 2.33.89 2.477 2.136h.31c.492 0 .89-.32.89-.816l-.668-3.474zM2.938 4.03V1.938l3.125-.5 1 2.594H2.938z" class="si-glyph-fill"/></g></svg>