<svg viewBox="0 0 17 16" xmlns="http://www.w3.org/2000/svg" class="si-glyph si-glyph-apron"><title>884</title><path d="M15.75 6.318c-1.443-.513-2.355 1.072-3.107 1.65 0 0-.888.225-.888.05 0-3.216 2.703-4.855.015-4.855V3.16l-.108-.44C11.208 1.06 10.457.047 9.485.047c-.962 0-1.754.996-2.21 2.63 0 0-.09.355-.11.442-2.52 0 .02 1.76.02 4.936 0 .164-.89-.085-.89-.085-.75-.58-1.597-2.21-3.04-1.696-.178.062-.262.238-.188.39.074.152.28.224.458.16.906-.32 1.354.86 2.298 1.587 0 0 .79.615 1.29.782-.35 3.17-1.956 6.78-1.956 6.78l8.695.024s-1.648-3.646-2.02-6.808c.498-.168 1.283-.778 1.283-.778.944-.728 1.458-1.863 2.364-1.543.177.063.383-.008.457-.16.075-.15-.01-.326-.187-.39zM9.48 5.055c-.792 0-1.377-.888-1.502-1.57.334-1.712.98-2.578 1.577-2.578h-.133c.6 0 1.243.866 1.577 2.58-.126.68-.71 1.568-1.503 1.568H9.48z" fill="#434343" class="si-glyph-fill" fill-rule="evenodd"/></svg>