<svg viewBox="0 0 17 16" xmlns="http://www.w3.org/2000/svg" class="si-glyph si-glyph-ring"><title>700</title><path d="M14.163 4.847c.492-.24.833-.738.833-1.322 0-.814-.66-1.474-1.474-1.474-.77 0-1.4.6-1.462 1.357a6.484 6.484 0 0 0-1.68-.455L12.94.01H6.043l2.61 2.942c-.593.08-1.162.232-1.693.46a1.462 1.462 0 0 0-1.46-1.33c-.814 0-1.475.65-1.475 1.458 0 .58.344 1.075.838 1.31A6.563 6.563 0 0 0 2.98 9.456c0 3.622 2.932 6.568 6.535 6.568s6.533-2.946 6.533-6.568c0-1.794-.72-3.422-1.885-4.61zm-4.647 9.178c-2.5 0-4.535-2.05-4.535-4.568S7.016 4.89 9.517 4.89c2.5 0 4.533 2.05 4.533 4.567 0 2.518-2.034 4.568-4.534 4.568z" fill="#434343" class="si-glyph-fill" fill-rule="evenodd"/></svg>