<svg viewBox="0 0 17 16" xmlns="http://www.w3.org/2000/svg" class="si-glyph si-glyph-bus"><title>817</title><g transform="translate(1 3)" fill="#434343" fill-rule="evenodd"><ellipse cx="3.492" cy="8.48" rx="1.492" ry="1.48" class="si-glyph-fill"/><circle cx="12.485" cy="8.485" r="1.485" class="si-glyph-fill"/><path d="M14.078.024h-7.91c-2.104 0-3.137.5-3.137 2.99 0 0-.887.994-1.585.994S0 4.45 0 4.993v3.13c0 .41.22.73.918.82-.03-.157-.05-.32-.05-.485 0-1.438 1.183-2.605 2.638-2.605 1.455 0 2.637 1.167 2.637 2.605 0 .176-.02.346-.053.512l3.822.002a2.67 2.67 0 0 1-.048-.477 2.644 2.644 0 0 1 2.642-2.643c1.46 0 2.64 1.185 2.64 2.643a2.6 2.6 0 0 1-.048.478h.887V3.01c0-1.864-.67-2.986-1.907-2.986zM7.016 3.03H3.918C3.918.81 4.865.98 5.21.98L7.024.968 7.016 3.03zm5.027-.01H7.97V.98h4.073V3.02zm.93 0V.98h1.436c.69 0 .67 2.043.67 2.043h-2.106z" class="si-glyph-fill"/></g></svg>