<svg viewBox="0 0 17 16" xmlns="http://www.w3.org/2000/svg" class="si-glyph si-glyph-cherry"><title>1039</title><path d="M13.74 9.09c-.117-.28-.24-.552-.354-.8-.713-1.55-1.645-3.086-2.45-4.165-.83-1.113-3.964-3.803-4.57-4.043l-.26.645C6.595.92 7.592 1.79 7.592 1.79c.177.15.412 1.022.41 1.164a2.598 2.598 0 0 0 0 .266c.027.613-.078 1.288-.323 2.06-.486 1.534-1.577 2.812-2.712 3.833-.164-.023-.328-.05-.5-.05-1.916 0-3.47 1.54-3.47 3.438 0 1.9 1.554 3.44 3.47 3.44 1.916 0 3.47-1.54 3.47-3.44 0-1.43-.882-2.653-2.136-3.17C6.884 8.29 7.89 7.022 8.372 5.5c.27-.854.386-1.61.353-2.313-.003-.057 1.158.904 1.658 1.576.783 1.05 1.676 2.324 2.388 3.87.07.148.145.31.22.478-1.688.233-2.99 1.654-2.99 3.39 0 1.9 1.552 3.44 3.468 3.44s3.47-1.54 3.47-3.44c0-1.807-1.41-3.27-3.198-3.41z" fill="#434343" class="si-glyph-fill" fill-rule="evenodd"/></svg>