<svg viewBox="0 0 17 16" xmlns="http://www.w3.org/2000/svg" class="si-glyph si-glyph-eye-drop"><title>963</title><g fill="#434343" fill-rule="evenodd"><path d="M7.66 4.05c.235-1.076-.05-2.228-.86-3.045-1.29-1.3-3.42-1.26-4.76.09C.705 2.442.664 4.588 1.955 5.888c.81.815 1.95 1.102 3.023.867l.602.586-.58.583.5.506.547-.552 5.062 5.073h2.874v-2.766L8.777 5.13l.528-.534-.5-.505-.555.56-.59-.6zm5.356 6.372l.005 1.623-1.803.01-4.545-4.71L8.22 5.718l4.796 4.702zM15.985 14.84c0 .62-.44 1.122-.986 1.122s-.986-.503-.986-1.122c0-.62.985-1.777.985-1.777s.985 1.157.985 1.777z" class="si-glyph-fill"/></g></svg>