<svg viewBox="0 0 16 16" xmlns="http://www.w3.org/2000/svg" class="si-glyph si-glyph-forward-page"><title>88</title><g fill="#434343" fill-rule="evenodd"><path d="M15.798 3.516L11.892.266c-.277-.288-.593-.335-.87-.048 0 0 .036 2.19.005 2.19-.68 0-1.083.113-1.7.314A6.33 6.33 0 0 0 7.12 3.99C5.842 5.113 5.025 6.392 5.025 8.203c0 1.182.523.752.742.34 1.035-1.946 2.923-2.93 5.28-2.93.03 0 0 2.147 0 2.147.278.287.628.253.87.047l3.88-3.25a.754.754 0 0 0 0-1.04z" class="si-glyph-fill"/><path d="M14 8.08v4.982H.938V3.937h5.215c.276-.312.62-.717 1.223-.92H.008v10.965H14.97V7.258l-.97.82z" class="si-glyph-fill"/></g></svg>