<svg viewBox="0 0 16 16" xmlns="http://www.w3.org/2000/svg" class="si-glyph si-glyph-document-backward"><title>128</title><g fill="#434343" fill-rule="evenodd"><path d="M2.017.058v15.896h11.926V5.032h-5.99V.058H2.016zm9.025 12.524c0 .367-.096.554-.288.554-.205 0-.35-.255-.377-.306-.52-.963-2.046-1.78-3.36-1.805v.905l-.04.038a.595.595 0 0 1-.43.155.642.642 0 0 1-.392-.118l-2.108-1.603a.55.55 0 0 1 0-.756l2.097-1.613a.633.633 0 0 1 .447-.172c.16 0 .294.052.387.147l.04.04V9c1.872.026 4.025 1.582 4.025 3.582z" class="si-glyph-fill"/><path d="M9.004.016v3.978h4.946L9.004.016z" class="si-glyph-fill"/></g></svg>