<svg viewBox="0 0 17 16" xmlns="http://www.w3.org/2000/svg" class="si-glyph si-glyph-tag"><title>1124</title><path d="M5.38.68l-.09.09-.035-.034C4.4-.118 2.98-.082 2.082.816l-.255.254C.93 1.967.894 3.388 1.75 4.243l.033.034-.164.165c-.774.772-.802 2-.06 2.738l8.324 8.328c.742.74 1.967.712 2.742-.06l3.758-3.76c.772-.772.8-1.998.06-2.738L8.118.622c-.74-.74-1.967-.713-2.738.06zM4.522 5.11a1.596 1.596 0 0 1-1.592-1.6c0-.88.715-1.597 1.593-1.597a1.6 1.6 0 0 1 0 3.197z" fill="#434343" class="si-glyph-fill" fill-rule="evenodd"/></svg>