<svg viewBox="0 0 16 16" xmlns="http://www.w3.org/2000/svg" class="si-glyph si-glyph-hat"><title>629</title><g fill="#434343" fill-rule="evenodd"><path d="M12.708 8.21c-.43.918-2.16 2.03-4.708 2.03-2.532 0-4.333-1.098-4.712-2.014C1.375 8.312 0 9.456 0 10.136c0 1.128 3.58 2.728 8 2.728 4.418 0 8-1.6 8-2.728 0-.69-1.375-1.567-3.292-1.925z" class="si-glyph-fill"/><path d="M10.077 3.197c-.516 0-1.582.354-2.065.354-.483 0-1.55-.353-2.064-.353-1.114 0-1.81 1.372-1.907 1.897L4.02 7.52c.563.507 1.612 1.143 2.762 1.24a15.34 15.34 0 0 0 2.52 0c1.15-.098 2.074-.655 2.668-1.222l-.005-2.413c-.086-.546-.784-1.928-1.888-1.928z" class="si-glyph-fill"/></g></svg>