<svg viewBox="0 0 17 16" xmlns="http://www.w3.org/2000/svg" class="si-glyph si-glyph-watch"><title>680</title><g fill="#434343" fill-rule="evenodd"><path d="M8.97 6h-.954v2.94h.07v.044H10V8.03H8.97V6z" class="si-glyph-fill"/><path d="M12.936 8.016a4.443 4.443 0 0 0-1.133-2.52A4.643 4.643 0 0 0 11 4.81V1H6v3.81c-.316.22-.607.472-.86.76a4.41 4.41 0 0 0-1.116 2.92c0 .946.3 1.82.804 2.543.315.453.715.843 1.173 1.154v3.767h5v-3.77a4.55 4.55 0 0 0 1.082-1.03A4.458 4.458 0 0 0 12.94 9h1.03v-.983h-1.034zm-.936.62c-.03.73-.282 1.4-.695 1.95A3.493 3.493 0 0 1 8.507 12a3.5 3.5 0 0 1-2.877-1.508A3.473 3.473 0 0 1 5 8.5c0-.878.337-1.673.875-2.287A3.482 3.482 0 0 1 8.507 5c1.025 0 1.94.45 2.58 1.153A3.47 3.47 0 0 1 12 8.383v.254z" class="si-glyph-fill"/></g></svg>