<svg viewBox="0 0 17 16" xmlns="http://www.w3.org/2000/svg" class="si-glyph si-glyph-button-arrow-right"><title>1189</title><g fill="#434343" fill-rule="evenodd"><path d="M16.97 8.04c0 4.39-3.583 7.96-7.987 7.96C4.583 16 1 12.43 1 8.04 1 3.653 4.584.083 8.984.083c4.404 0 7.986 3.57 7.986 7.96zm-14 0c0 3.306 2.71 5.997 6.044 5.997 3.333 0 6.047-2.69 6.047-5.996 0-3.304-2.712-5.995-6.046-5.995S2.97 4.735 2.97 8.04z" class="si-glyph-fill"/><path d="M9.057 10.97l3.904-3.003-3.904-2.95v2.002H5.793c-.346 0-.79.323-.79.954 0 .63.482.975.825.975h3.23v2.02z" class="si-glyph-fill"/></g></svg>