<svg viewBox="0 0 16 16" xmlns="http://www.w3.org/2000/svg" class="si-glyph si-glyph-binocular"><title>78</title><g fill="#434343" fill-rule="evenodd"><path class="si-glyph-fill" d="M0 14h6v.916H0zM10 14h6v.916h-6zM2.04 3.012L.667 12.917h4.667l-.687-3.905H5.97v-6h-.986V1.98h.98v-.95H2.007v.95H3V3.01h-.96zM11 3.012h-.97v6h1.345l-.71 3.905h4.668l-1.375-9.905h-.974V1.98h.98v-.95h-3.958v.95H11V3.01z"/><path d="M8.984 2.016H7.016V3H5.97v1.97h1.065v3.06H5.97v1.94h4.06V8.03H8.995V4.97h1.037V3H8.985v-.984z" class="si-glyph-fill"/></g></svg>