<svg viewBox="0 0 17 16" xmlns="http://www.w3.org/2000/svg" class="si-glyph si-glyph-helicopter"><title>709</title><g fill="#434343" fill-rule="evenodd"><path d="M3.276 9.667C2.02 9.667 1 8.63 1 7.355 1 6.08 2.023 5.043 3.277 5.043c.444 0 .874.13 1.244.376l-.364.544a1.58 1.58 0 0 0-.88-.266c-.893 0-1.62.743-1.62 1.657 0 .913.728 1.657 1.62 1.657v.655zM16.254 4.052s-4.723.162-4.723.362v.132h-.042v-.132c0-.2-4.72-.362-4.72-.362-.39 0-.706.162-.706.362v.205c0 .198.315.36.705.36 0 0 3.104-.107 4.277-.253v2.19h.922v-2.19c1.17.146 4.287.253 4.287.253.39 0 .705-.162.705-.36v-.206c0-.2-.314-.362-.704-.362zM14.778 14.948H8.863c-1.21 0-2.842-.904-2.842-1.62 0-.173.153-.312.34-.312.19 0 .34.14.34.312 0 .31 1.315.788 2.163.788h5.915c.847 0 1.48-.475 1.48-.782 0-.173.153-.312.34-.312.187 0 .34.14.34.312 0 .715-.948 1.614-2.16 1.614z" class="si-glyph-fill"/><path d="M12.59 6.125c-1.254 0-2.892.388-4.178.878H2.955a.626.626 0 0 0-.622.63l.698.228c0 .348.28.63.623.63l3.448.866c1.007 1.51 1.718 3.562 5.49 3.562 2.407 0 4.358-1.487 4.358-3.323 0-1.836-1.95-3.47-4.358-3.47zm.56 3.928c-.682 0-1.23-.72-1.23-1.605s-.156-1.604.522-1.604c.683 0 2.726.72 2.726 1.604 0 1.724-1.338 1.605-2.02 1.605z" class="si-glyph-fill"/></g></svg>