<svg viewBox="0 0 16 16" xmlns="http://www.w3.org/2000/svg" class="si-glyph si-glyph-hand-lamp"><title>602</title><path d="M11.95 7.98l1.007.012-1.04-.975v-2.15C11.918 2.553 9.808.06 7.49.06h-.97c-2.315 0-4.437 2.547-4.437 4.858v2.117l-1.13.892 1.09.01-.006 4.647-.975 1.395 2.602.654 1.986.438 1.348.862 1.352-.858 2.006-.4 2.624-.614-1.02-1.615-.01-4.468zm-5.915 6l-3.098-.578V7.917l3.098.372v5.69zm5.002-.49l-3.07.466v-5.59l3.07-.356v5.48zM8.05 4.828c.134-.19.214-.418.214-.664 0-.67-.582-1.213-1.297-1.213s-1.295.544-1.295 1.214c0 .247.08.476.215.668L2.943 6.644V5.02c0-1.83 1.647-4.024 3.59-4.024H7.5c1.943 0 3.525 2.193 3.525 4.025v1.62L8.05 4.83z" fill="#434343" class="si-glyph-fill" fill-rule="evenodd"/></svg>