<svg viewBox="0 0 17 16" xmlns="http://www.w3.org/2000/svg" class="si-glyph si-glyph-cheese"><title>788</title><path d="M11.744 2.128c-.22.04-1.438.41-2.94 1.085.3.464.382.945.157 1.266-.345.5-1.294.415-2.118-.19-.052-.035-.096-.078-.144-.117C3.92 5.453 1.03 6.84 1.03 6.84v2.595c1.208.125 2.155 1.123 2.165 2.354l7.752.697c.144-.975.73-1.706 1.434-1.706.767 0 1.39.866 1.458 1.968l2.43.218.242-2.24c-.727-.065-1.283-.397-1.283-.8 0-.436.647-.787 1.46-.81 0 0 .108-.962.247-2.274.304-1.774-3.886-4.943-5.19-4.714zm2.79 2.583c.463 0 .838.355.838.793 0 .435-.375.79-.838.79-.46 0-.837-.355-.837-.79 0-.44.376-.792.837-.792zm-3.003-.944c.567 0 1.026.312 1.026.697 0 .385-.46.696-1.025.696s-1.023-.313-1.023-.697c0-.386.458-.697 1.024-.697zm-5.013.924c.458 0 .827.348.827.78 0 .43-.37.776-.827.776-.458 0-.827-.348-.827-.777 0-.432.37-.78.827-.78zm-.01 6.435c-.888 0-1.605-.502-1.605-1.125 0-.62.717-1.125 1.604-1.125.885 0 1.603.504 1.603 1.125-.002.623-.72 1.125-1.604 1.125zM16.03 8.03h-3.01c-.227.483-.713 1.017-1.505 1.017-.794 0-1.285-.533-1.512-1.016h-8.02V6.938h8.05c.256-.447.68-.984 1.435-.984s1.266.537 1.52.984h3.043V8.03z" fill="#434343" class="si-glyph-fill" fill-rule="evenodd"/></svg>