<svg viewBox="0 0 17 16" xmlns="http://www.w3.org/2000/svg" class="si-glyph si-glyph-disc-add"><title>905</title><g fill="#434343" fill-rule="evenodd"><path class="si-glyph-fill" d="M11 12h5.938v1.97H11z"/><path class="si-glyph-fill" d="M13 10h1.97v5.938H13zM8.988 6.022a1.977 1.977 0 0 0 0 3.953c1.09 0 1.98-.884 1.98-1.976a1.98 1.98 0 0 0-1.98-1.978z"/><path d="M16.958 7.97c0-4.414-3.573-7.907-7.98-7.907C4.574.063 1 3.556 1 7.97c0 4.41 3.572 7.988 7.98 7.988.34 0 .673-.026 1-.07V10.95a2.998 2.998 0 0 1-.98.173c-1.72 0-3.114-1.406-3.114-3.14C5.886 6.25 7.28 4.843 9 4.843c1.72 0 3.116 1.406 3.116 3.142 0 .356-.072.695-.182 1.015h4.933c.053-.348.09-.693.09-1.03zM6.15 11.675l-1.518 1.518-.868-.87 1.518-1.517.868.87zm6.462-6.4l-.87-.868 1.52-1.518.868.87-1.518 1.517z" class="si-glyph-fill"/></g></svg>