<svg viewBox="0 0 16 14" xmlns="http://www.w3.org/2000/svg" class="si-glyph si-glyph-handcuff"><title>65</title><g fill="#434343" fill-rule="evenodd"><path d="M10.556 6.076c-.366-.167-1.68.44-1.524.83.162.466.31 1.5.064 2.273-.094.298-.14.542-.193.606-.075.146.77 1.2 1.412 1.005.22-.335.27-.61.42-1.08.392-1.242.292-3.36-.18-3.634zM6.852.066c-.41-.084-1.254-.104-1.484.14-.023.025-.05.05-.06.08l-1.444 2.49c-.514.15-.994.387-1.44.684A5.33 5.33 0 0 0 .285 6.3a5.4 5.4 0 0 0 .083 3.51c.227.616.564 1.187.997 1.683a5.275 5.275 0 0 0 2.364 1.568 5.21 5.21 0 0 0 2.97.075c-.635-.447-.98-.916-1.434-1.64a3.413 3.413 0 0 1-.99-.158c-.42-.136-.79-.35-1.114-.613A3.545 3.545 0 0 1 2.093 9.27a3.575 3.575 0 0 1-.105-2.418c.268-.84.82-1.5 1.512-1.93.51-.322 1.096-.51 1.71-.535h.05c.26-.008.36.01.55.07.105-.154.466-.666.91-.863l.5-2.487c.134-.3.414-.492.548-.653L6.98.098C6.945.086 6.9.076 6.853.066z" class="si-glyph-fill"/><path d="M13.524 4.24l-.895-2.474c-.003-.38-1.063-.684-1.455-.682L9.61 1.09c-.356 0-1.374.262-1.542.6-.015.03-.033.06-.033.09l-.623 2.48c-.455.3-.852.672-1.195 1.088A5.177 5.177 0 0 0 5.01 8.68a5.2 5.2 0 0 0 1.182 3.275 5.43 5.43 0 0 0 1.506 1.277c.82.475 1.78.75 2.807.748 3.02-.01 5.465-2.398 5.455-5.336-.01-1.835-.974-3.453-2.436-4.403zM10.97 1.985h1.06V3h-1.06V1.984zm-2 0h1.06V3H8.97V1.984zM10.42 12.25c-2.097 0-3.797-1.686-3.797-3.766s1.7-3.766 3.797-3.766c2.096 0 3.797 1.686 3.797 3.766s-1.702 3.766-3.798 3.766z" class="si-glyph-fill"/></g></svg>