<svg viewBox="0 0 17 16" xmlns="http://www.w3.org/2000/svg" class="si-glyph si-glyph-circle-help"><title>976</title><path d="M9 0a8 8 0 0 0-8 8 8 8 0 0 0 8 8 8 8 0 0 0 8-8 8 8 0 0 0-8-8zm0 14a1 1 0 1 1 0-2 1 1 0 0 1 0 2zm1.647-5.757c-.473.365-.734.566-.734 1.147v.814c0 .46-.406.834-.907.834-.502 0-.91-.375-.91-.834V9.39c0-1.357.832-1.998 1.38-2.422.475-.366.735-.566.735-1.146a1.2 1.2 0 0 0-1.204-1.188c-.665 0-1.205.533-1.205 1.188 0 .46-.407.833-.908.833-.5 0-.91-.372-.91-.833 0-1.574 1.358-2.854 3.024-2.854 1.665 0 3.02 1.28 3.02 2.854 0 1.356-.83 1.996-1.38 2.42z" fill="#434343" class="si-glyph-fill" fill-rule="evenodd"/></svg>