<svg viewBox="0 0 16 16" xmlns="http://www.w3.org/2000/svg" class="si-glyph si-glyph-cloud-remove"><title>854</title><g fill="#434343" fill-rule="evenodd"><path d="M7.965 10.99V8.988l5.05-.034v2.03l2.995-.032c-.14-1.43-1.062-2.538-2.19-2.538a1.74 1.74 0 0 0-.713.168c-.694-1.04-1.83-1.72-3.118-1.72-.208 0-.41.022-.606.056C8.702 5.783 7.514 5.03 6.16 5.03c-1.91 0-3.49 1.497-3.78 3.45-.018 0-.034-.005-.05-.005-1.282 0-2.32 1.108-2.32 2.476l7.955.04z" class="si-glyph-fill"/><path class="si-glyph-fill" d="M9 10h2.96v.99H9z"/></g></svg>