<svg viewBox="0 0 16 16" xmlns="http://www.w3.org/2000/svg" class="si-glyph si-glyph-botl-milk"><title>Botl</title><g fill="#434343" fill-rule="evenodd"><path d="M10.137 15.984H4.885c-1.013 0-1.837-.747-1.837-1.666V7.022c0-.42.444-1.397 1.173-2.956.423-.898.997-2.127 1.003-2.375 0-.123-.21-.35-.35-.502C4.635.93 4.39.664 4.543.36c.148-.294.554-.335.974-.335H9.5c.53.004.91.066 1.053.354.148.304-.107.576-.332.817-.138.147-.347.37-.347.493.002.25.562 1.494.975 2.4.7 1.546 1.126 2.515 1.126 2.93v7.297c0 .92-.826 1.667-1.837 1.667zM5.543 1.04c.22.243.453.586.453.94 0 .347-.324 1.113-.965 2.506-.448.97-1.058 2.3-1.058 2.6v7.043c0 .532.475.965 1.055.965H9.99c.584 0 1.058-.433 1.058-.966V7.085c0-.3-.587-1.62-1.018-2.58-.604-1.36-1.01-2.18-1.01-2.53 0-.36.308-.69.53-.93.016-.02-.076-.07-.167-.07H5.627c-.053 0-.1.045-.084.065z" class="si-glyph-fill"/><path d="M9.963 13.092c0 .7-.52.887-1.164.887H6.234c-.643 0-1.163-.187-1.163-.888V6.538c0-.7.63 1.534 1.985.474 1.356-1.056 2.906-1.175 2.906-.474v6.554z" class="si-glyph-fill"/></g></svg>