<svg viewBox="0 0 17 17" xmlns="http://www.w3.org/2000/svg" class="si-glyph si-glyph-arrow-thick-thin-down"><title>741</title><g fill="#434343" fill-rule="evenodd"><path d="M2.336 8.667c.2 0 .404.045.596.14l6.07 3.035 6.07-3.034a1.332 1.332 0 1 1 1.192 2.385l-6.668 3.333a1.332 1.332 0 0 1-1.193 0l-6.666-3.333a1.332 1.332 0 0 1 .598-2.526z" class="si-glyph-fill"/><path d="M2.336 4.334c.1 0 .2.022.297.07l6.37 3.184 6.366-3.184a.67.67 0 0 1 .894.298c.164.33.03.73-.3.895L9.3 8.93a.665.665 0 0 1-.597 0L2.037 5.597a.668.668 0 0 1 .3-1.263z" class="si-glyph-fill"/></g></svg>