<svg viewBox="0 0 16 17" xmlns="http://www.w3.org/2000/svg" class="si-glyph si-glyph-repeat"><title>110</title><path d="M13.986 4.016H6.94L4.934 2.193a.645.645 0 0 0-.91 0v1.823H1.997a2 2 0 0 0-1.998 2v3.97a2 2 0 0 0 1.998 2h7.238l1.826 1.827c.252.25.66.25.912 0v-1.828h2.012a2 2 0 0 0 1.998-2v-3.97a2 2 0 0 0-1.998-2zm-2.924 4.187L9.15 10.03H1.984V5.97h2.04v1.745c.253.26.66.26.91 0l1.88-1.746h7.2l.003 4.06h-2.043V8.204a.632.632 0 0 0-.912 0z" fill="#434343" class="si-glyph-fill" fill-rule="evenodd"/></svg>