<svg viewBox="0 0 17 16" xmlns="http://www.w3.org/2000/svg" class="si-glyph si-glyph-podium"><title>774</title><path d="M13.432 14.035h-.48V5.72a.69.69 0 0 0-.687-.692L11 5.254V3.67l.068.028a.65.65 0 0 0 .854-.35.646.646 0 0 0-.354-.848L8.984 1.354c-.075-.74-.7-1.32-1.47-1.32-.818 0-1.483.657-1.483 1.468 0 .81.666 1.47 1.485 1.47.392 0 .745-.154 1.01-.4l1.48.692V5.44l-5.27.975a.69.69 0 0 0-.69.693v6.93h-.54c-.278 0-.505.43-.505.96 0 .532.227.963.506.963h9.926c.28 0 .506-.43.506-.962 0-.534-.227-.963-.506-.963z" fill="#434343" class="si-glyph-fill" fill-rule="evenodd"/></svg>