<svg viewBox="0 0 16 16" xmlns="http://www.w3.org/2000/svg" class="si-glyph si-glyph-document-search"><title>150</title><g fill="#434343" fill-rule="evenodd"><path d="M10.03.03v3.94h3.872L10.032.03zM6.492 9.02a2.478 2.478 0 0 0-2.05 3.868L2.06 15.273l.707.707 2.398-2.398c.385.246.838.394 1.328.394A2.48 2.48 0 0 0 8.97 11.5a2.48 2.48 0 0 0-2.476-2.48zm.024 4.08a1.58 1.58 0 0 1-1.578-1.58c0-.87.708-1.577 1.578-1.577.87 0 1.578.708 1.578 1.578 0 .87-.71 1.58-1.578 1.58z" class="si-glyph-fill"/><path d="M9 5V0H2.042v13.876l1.06-1.06c-.16-.408-.257-.85-.257-1.315a3.625 3.625 0 1 1 3.625 3.626c-.428 0-.832-.088-1.213-.223L4.222 16H14V5H9z" class="si-glyph-fill"/></g></svg>