<svg viewBox="0 0 17 16" xmlns="http://www.w3.org/2000/svg" class="si-glyph si-glyph-sign-board"><title>736</title><g fill="#434343" fill-rule="evenodd"><path d="M4.958 14.828C4.958 15.475 4.53 16 4 16s-.958-.524-.958-1.172V1.256c0-.646.43-1.17.958-1.17.53 0 .958.523.958 1.17v13.572z" class="si-glyph-fill"/><path d="M15.69 2.042c.69 0 1.247.438 1.247.98 0 .54-.558.978-1.246.978H2.247C1.558 4 1 3.562 1 3.02c0-.54.558-.978 1.246-.978H15.69zM13.993 6.044H7.965c-1.126 0-1.924-.09-1.924 1.036v4.865c0 1.127.914 1.035 2.04 1.035h5.818c1.126 0 2.04.092 2.04-1.035V7.08c0-1.127-.82-1.036-1.945-1.036z" class="si-glyph-fill"/><path class="si-glyph-fill" d="M7 3h.937v2.874H7zM14 3h.937v2.874H14z"/></g></svg>