<svg viewBox="0 0 16 16" xmlns="http://www.w3.org/2000/svg" class="si-glyph si-glyph-telephone-box"><title>756</title><path d="M13 15.02V4h-1V2.917h.852c0-1.61-1.83-2.834-4.852-2.834-3.02 0-5 1.223-5 2.834h1.023V4H3v11.02H2V16h12v-.98h-1zM5 3h6v1H5V3zm1 12.02H5v-2.04h1v2.04zM6 12H5v-2h1v2zm0-3H5V7h1v2zm0-3H5V5h1v1zm3 9.02H7v-2.04h2v2.04zM7 11.96v-2h2v2H7zM7 9V7h2v2H7zm2-3.042H7v-1h2v1zm.958-.98H11v1.04H9.958V4.98zM11 7v2h-1V7h1zm.02 8.02H10v-2.04h1.02v2.04zm0-3H10V9.98h1.02v2.04z" fill="#434343" class="si-glyph-fill" fill-rule="evenodd"/></svg>