<svg viewBox="0 0 16 16" xmlns="http://www.w3.org/2000/svg" class="si-glyph si-glyph-sms"><title>838</title><g fill="#434343" fill-rule="evenodd"><path d="M2.002 11.984a1.988 1.988 0 0 1-1.822-1.2c-.106-.247-.01-.545.22-.662.23-.116.503-.01.612.24.163.38.55.628.99.628.59 0 1.068-.45 1.068-1s-.48-.996-1.068-.996a1.988 1.988 0 0 1-1.984-1.99c0-1.096.887-1.988 1.977-1.988.787 0 1.497.468 1.812 1.19.108.25.01.547-.22.664-.228.118-.5.01-.608-.237a1.064 1.064 0 0 0-.984-.623c-.586 0-1.06.447-1.06.994 0 .547.474.992 1.06.992a1.994 1.994 0 0 1 .006 3.988zM13.997 11.928a1.96 1.96 0 0 1-1.798-1.18c-.105-.244-.01-.536.217-.65.226-.113.495-.01.603.234.162.375.545.617.978.617.58 0 1.054-.442 1.054-.98 0-.542-.473-.982-1.054-.982a1.955 1.955 0 0 1-.01-3.91c.778 0 1.48.46 1.788 1.17a.507.507 0 0 1-.216.653c-.224.117-.494.012-.6-.232a1.05 1.05 0 0 0-.972-.61c-.576 0-1.045.438-1.045.976s.47.976 1.045.976c1.09 0 1.967.88 1.967 1.96a1.96 1.96 0 0 1-1.958 1.958zM5.5 11.98c-.342 0-.482-.312-.482-.694V5.74c0-.303.154-.662.426-.662C5.984 5.078 8 7.643 8 7.643s2-2.595 2.52-2.595c.274 0 .474.4.474.702v5.484c0 .382-.135.722-.477.722-.343 0-.5-.31-.5-.692V6.89S8.2 8.986 8 8.986C7.81 8.96 5.986 6.86 5.986 6.86v4.394c0 .382-.142.725-.485.725z" class="si-glyph-fill"/></g></svg>