<svg viewBox="0 0 16 16" xmlns="http://www.w3.org/2000/svg" class="si-glyph si-glyph-christmass-egg"><title>653</title><g fill="#434343" fill-rule="evenodd"><path d="M12.764 3.12C11.707 1.23 9.99 0 8.044 0 6.14 0 4.447 1.188 3.385 3.02c1.468.582 3.1.91 4.817.91 1.62 0 3.16-.29 4.564-.81zM2.223 10.865C2.818 14.28 5.198 16 8.045 16c2.8 0 5.143-1.663 5.787-4.96-1.69.805-3.756 1.388-5.78 1.388-2.17 0-4.057-.65-5.83-1.563zM4.174 7.79c.723 0 1.418-.264 1.906-.726l.15-.14.15.14c.486.463 1.18.727 1.904.727.705 0 1.363-.24 1.855-.677l.144-.13.146.13c.49.437 1.15.678 1.855.678.61 0 1.195-.19 1.662-.532a9.9 9.9 0 0 0-.9-3.223c-1.488.578-3.125.9-4.845.9-1.82 0-3.552-.364-5.11-1.01a9.824 9.824 0 0 0-.914 3.053l.072.07c.49.473 1.19.743 1.924.743zm8.068-2.976l1.05.894-1.05.894-1.05-.894 1.05-.894zm-4.185.565l1.05.893-1.05.894-1.05-.894 1.05-.894zm-4.2-.568l1.05.893-1.05.894-1.05-.895 1.05-.893z" class="si-glyph-fill"/><path d="M13.982 8.234c-.498.247-1.084.474-1.695.474-.75 0-1.45-.28-2.002-.636-.55.355-1.252.636-2 .636-.766 0-1.502-.3-2.055-.673-.555.374-1.292.673-2.057.673-.764 0-1.494-.297-2.045-.67-.033.278-.052.56-.052.847 0 .367.032.71.082 1.043 1.774.79 3.687 1.366 5.892 1.366 2.064 0 4.163-.52 5.858-1.22.067-.374.104-.768.104-1.19.002-.22-.01-.435-.03-.65zM5.945 10.3c-.502 0-.91-.296-.91-.66 0-.364.408-.66.91-.66s.91.296.91.66c0 .364-.408.66-.91.66zm4.266.02c-.5 0-.91-.295-.91-.66 0-.364.41-.66.91-.66.504 0 .912.296.912.66 0 .365-.408.66-.91.66z" class="si-glyph-fill"/></g></svg>