<svg viewBox="0 0 17 16" xmlns="http://www.w3.org/2000/svg" class="si-glyph si-glyph-arrow-three-way-2"><title>883</title><g fill="#434343" fill-rule="evenodd"><path d="M12.062 4.938L8.958.058 6.03 4.94H8v1.806c0 .74.234 1.16.974 1.16.737 0 .995-.42.995-1.16V4.94l2.092-.002zM11.04 14.934l5.783-.006L14.27 9.84l-1.054 1.663-1.525-.968c-.624-.397-1.104-.424-1.5.2-.397.622-.18 1.065.446 1.462l1.525.968-1.12 1.77zM6.94 14.85l-5.783-.006L3.71 9.757l1.054 1.662 1.525-.97c.624-.396 1.105-.423 1.5.2.396.623.18 1.066-.446 1.463l-1.525.968 1.12 1.77z" class="si-glyph-fill"/></g></svg>