<svg viewBox="0 0 16 16" xmlns="http://www.w3.org/2000/svg" class="si-glyph si-glyph-weight-down"><title>656</title><path d="M12.905 5.01c0-1.088-.912-1.97-2.038-1.97h-.923A2.31 2.31 0 0 0 10 2.53C10 1.136 8.877 0 7.495 0S4.99 1.135 4.99 2.53c0 .19.026.356.068.51h-.922C3.01 3.04 2.1 3.92 2.1 5.01L.082 13.985c0 1.09.912 1.972 2.04 1.972H12.88c1.126 0 2.037-.882 2.037-1.972L12.905 5.01zm-7.08-2.48c0-.948.748-1.722 1.67-1.722.92 0 1.67.773 1.67 1.723 0 .18-.034.347-.083.51H5.906a1.743 1.743 0 0 1-.082-.51zm1.138 7.417v-2.99h1.074v2.97l2.07.02L7.46 13.04 4.97 9.946h1.993z" fill="#434343" class="si-glyph-fill" fill-rule="evenodd"/></svg>