<svg viewBox="0 0 17 16" xmlns="http://www.w3.org/2000/svg" class="si-glyph si-glyph-casette"><title>662</title><g transform="translate(1 3)" fill="none" fill-rule="evenodd"><path d="M4.63 4C3.177 4 2 5.19 2 6.656c0 1.467 1.178 2.656 2.63 2.656s2.628-1.19 2.628-2.656C7.258 5.19 6.082 4 4.628 4zM11.61 4C10.17 4 9 5.19 9 6.656c0 1.467 1.17 2.656 2.61 2.656 1.442 0 2.61-1.19 2.61-2.656C14.22 5.19 13.054 4 11.61 4z"/><path d="M14.654 0h-.347l-.843 1.954H2.61L1.756 0h-.36C.65 0 .046.624.046 1.392L0 9.608C0 10.376.606 11 1.35 11h13.322c.745 0 1.284-.624 1.284-1.392L16 1.392C16.003.624 15.4 0 14.655 0zM4.5 9a2.5 2.5 0 1 1 0-5 2.5 2.5 0 0 1 0 5zm7 0a2.5 2.5 0 1 1 0-5 2.5 2.5 0 0 1 0 5z" fill="#434343" class="si-glyph-fill"/><path d="M3.53.908h8.706l.69-.908H3.034l.496.908z" fill="#434343" class="si-glyph-fill"/><ellipse fill="#434343" cx="4.453" cy="6.469" rx="1.453" ry="1.469" class="si-glyph-fill"/><ellipse fill="#434343" cx="11.453" cy="6.469" rx="1.453" ry="1.469" class="si-glyph-fill"/></g></svg>