<svg viewBox="0 0 16 16" xmlns="http://www.w3.org/2000/svg" class="si-glyph si-glyph-backward-page"><title>87</title><g fill="#434343" fill-rule="evenodd"><path d="M.252 4.516l3.905-3.25c.276-.288.593-.335.87-.048 0 0-.036 2.19-.005 2.19.68 0 1.083.113 1.7.314A6.33 6.33 0 0 1 8.93 4.99c1.276 1.123 2.093 2.402 2.093 4.213 0 1.182-.523.752-.742.34C9.247 7.596 7.36 6.612 5 6.612 4.97 6.614 5 8.76 5 8.76a.607.607 0 0 1-.87.047l-3.88-3.25a.752.752 0 0 1 0-1.04z" class="si-glyph-fill"/><path d="M1.954 9.08v4.982h13.118V4.937h-5.2c-.276-.312-.62-.717-1.22-.92H16v10.965H1.08V8.258l.874.82z" class="si-glyph-fill"/></g></svg>