<svg viewBox="0 0 16 16" xmlns="http://www.w3.org/2000/svg" class="si-glyph si-glyph-hammer-and-wrench"><title>Hammer-and-wrench</title><g fill="#434343" fill-rule="evenodd"><path d="M14.217 15.95c.53.532.86.153 1.295-.282.436-.435.814-.764.283-1.296 0 0-7.402-7.395-9.23-9.218L4.987 6.73l9.23 9.22zM2.048 8.015l.614-.604s-.27-.742.126-1.098c.397-.356 1.067-.136 1.067-.136L6.01 4.093s-.15-1.083.05-1.283c.2-.2 2.434-1.29 2.65-1.507l-.46-.46s-3.127.377-3.466.715c-.2.2-1.688 1.704-2.75 2.766 0 0 .266.76-.084 1.11-.35.35-1.14.1-1.14.1l-.624.62c-.263.266-.108.638.215.96l.687.687c.325.325.698.478.96.215zM11.733 6.515c1.077.51 2.428.354 3.322-.54.69-.69.964-1.64.817-2.53l-1.52 1.518-1.295.32-1.462-1.44.343-1.338 1.507-1.488c-.893-.146-1.902.065-2.592.756-.895.895-1.017 2.28-.506 3.357l-.994.993 1.388 1.385.993-.993zM7.432 11.12L5.927 9.614l-1.308 1.31a.822.822 0 0 0-.182.265c-.077-.03-.12-.03-.147-.02a2.504 2.504 0 0 0-.79-.14c-1.38 0-2.5 1.106-2.5 2.47s1.12 2.47 2.5 2.47S6 14.863 6 13.5c0-.283-.06-.55-.146-.804-.005-.024-.006-.046-.02-.08a.853.853 0 0 0 .288-.19l1.31-1.307zM3.5 14.937c-.812 0-1.47-.643-1.47-1.438 0-.795.657-1.438 1.47-1.438s1.47.643 1.47 1.438c0 .795-.658 1.438-1.47 1.438z" class="si-glyph-fill"/></g></svg>