<svg viewBox="0 0 16 16" xmlns="http://www.w3.org/2000/svg" class="si-glyph si-glyph-finder"><title>182</title><g fill="#434343" fill-rule="evenodd"><path d="M8.198 1l-.126.312C6.752 4.562 6.308 5.81 6.16 7.455L6.11 8H9.1a.46.46 0 0 1 .443.583c-.256.95-.652 1.614-.76 3.286-.022.38-.03.76-.02 1.135.034 1.02.216.983.66 1.714l.145.24H16V1H8.198zm1.952 13c-.267-.576-.378-.287-.385-1.163 1.97-.428 2.63-1.334 3.274-2.044a.562.562 0 0 0-.033-.79.546.546 0 0 0-.778.03c-.443.485-.774 1.23-2.418 1.638.106-1.26.37-1.617.696-2.824.12-.438.026-.913-.25-1.27A1.47 1.47 0 0 0 9.1 7H7.21c.18-1.634.615-2.3 1.664-5H15v12h-4.85z" class="si-glyph-fill"/><path d="M6.32 12.028c-.007.306.002.613.024.92.352.024.71.042 1.075.042.452 0 .9-.025 1.343-.064a7.47 7.47 0 0 1 .022-.932c-.446.045-.9.077-1.365.077-.375 0-.74-.014-1.1-.042zM11 4h.988v.938H11z" class="si-glyph-fill"/><path d="M2.167 10.836a.566.566 0 0 1-.052-.79c.2-.235.55-.256.78-.054.892.792 1.602 1.697 3.718 1.92.023-1.45.215-1.832.428-2.828H5.084a1 1 0 0 1-1-1C4.083 7.9 4.11 5.88 5.947 1H0v14h7.02c-.296-.89-.335-.967-.387-1.965-2.437-.228-3.43-1.28-4.466-2.2zM2 4h1v1H2V4z" class="si-glyph-fill"/></g></svg>