<svg viewBox="0 0 17 16" xmlns="http://www.w3.org/2000/svg" class="si-glyph si-glyph-bubble-message-hi"><title>1036</title><path d="M8.98.02c-4.4 0-7.97 2.793-7.97 6.236 0 3.143 2.977 5.734 6.842 6.164l-2.047 3.55 6.12-3.925c2.94-.917 5.022-3.16 5.022-5.79 0-3.443-3.568-6.234-7.968-6.234zm.06 8.998H7.972V7.075h-1.94v1.943L4.96 9.04V3.993l1.072-.023v2.017h1.94V3.97H9.04v5.048zm1.96 0H9.954v-3.08H11v3.08zm.03-3.977H9.955V3.938h1.077V5.04zm3 3.976H12.97V7.963h1.063v1.053zm-.014-2H12.97V3.954h1.046v3.062z" fill="#434343" class="si-glyph-fill" fill-rule="evenodd"/></svg>