<svg viewBox="0 0 16 17" xmlns="http://www.w3.org/2000/svg" class="si-glyph si-glyph-hardware"><title>Hardware</title><g fill="#434343" fill-rule="evenodd"><path d="M8.007 4.014a2.977 2.977 0 0 0 0 5.954 2.977 2.977 0 0 0 0-5.954zm0 5.02a2.046 2.046 0 0 1 0-4.092 2.046 2.046 0 0 1 0 4.093zM6 14h3.965v2H6zM6 11h3.964v1.96H6z" class="si-glyph-fill"/><g class="si-glyph-fill"><path class="si-glyph-fill" d="M2.473 4.53l2.1-3.066 1.21.83-2.1 3.065zM-.077 2.904l2.1-3.066L3.23.665 1.133 3.73z"/></g><path class="si-glyph-fill" d="M11.596 1.17h3.734V4.63h-3.734z"/></g></svg>