<svg viewBox="0 0 17 16" xmlns="http://www.w3.org/2000/svg" class="si-glyph si-glyph-desktop"><title>633</title><g fill="#434343" fill-rule="evenodd"><path d="M16.09.064H1.912A.912.912 0 0 0 1 .974V11.05c0 .504.41.912.913.912H16.09a.91.91 0 0 0 .91-.912V.975a.912.912 0 0 0-.91-.91zM2.97 9.37V2.574c0-.375.284-.677.634-.677h10.794c.35 0 .633.302.633.677V9.37c0 .372-.28.675-.632.675H3.604c-.35 0-.633-.303-.633-.676zM14.447 14.083H9.91v-2.04H8.053v2.04h-4.47c-.28 0-.51.792-.51 1.193 0 .403.23.623.51.623h10.865c.282 0 .51-.22.51-.624 0-.4-.228-1.193-.51-1.193z" class="si-glyph-fill"/></g></svg>