<svg viewBox="0 0 17 16" xmlns="http://www.w3.org/2000/svg" class="si-glyph si-glyph-tent-1"><title>793</title><path d="M16 9v2.13c-2.678-1.053-5.068-5.983-6.25-8.42L10.917.5a.357.357 0 0 0-.1-.455c-.137-.094-.316-.043-.4.115l-.992 1.88c-.218-.438-.364-.703-.424-.703s-.206.265-.424.703L7.584.16C7.5.002 7.32-.05 7.184.045a.357.357 0 0 0-.1.455L8.25 2.71c-1.187 2.446-3.59 7.405-6.28 8.433V9H1v6.977h.97v-.028h4v-4.194c2.35-2 3.03-5.75 3.03-5.75s.86 3.71 3.016 5.716v4.228H16v.028h1V9h-1z" fill="#434343" class="si-glyph-fill" fill-rule="evenodd"/></svg>