<svg viewBox="0 0 17 16" xmlns="http://www.w3.org/2000/svg" class="si-glyph si-glyph-chair-2"><title>819</title><g fill="#434343" fill-rule="evenodd"><path d="M8 14.095V11h1.938v3.085c1.74.205 3.03.972 3.03 1.886H5.046c0-.9 1.254-1.656 2.955-1.875zM11.38 7.953H6.62L6.027 1.34S5.68.016 9 .016c3.32 0 2.975 1.324 2.975 1.324l-.596 6.613z" class="si-glyph-fill"/><path d="M12.97 11.225c0 .416-.232.752-.63.752H5.66c-.396 0-.63-.336-.63-.752 0 0 .46-2.195 1.358-2.195h5.066c1.024 0 1.515 2.195 1.515 2.195zM13.975 7.51c0 .395-.213.475-.476.475-.264 0-.477-.08-.477-.475V4.485c0-.396.213-.453.476-.453.262 0 .475.058.475.453V7.51zM4.975 7.51c0 .395-.213.475-.476.475-.264 0-.477-.08-.477-.475V4.485c0-.396.213-.453.476-.453.262 0 .475.058.475.453V7.51z" class="si-glyph-fill"/></g></svg>