<svg viewBox="0 0 17 16" xmlns="http://www.w3.org/2000/svg" class="si-glyph si-glyph-history"><title>688</title><g fill="#434343" fill-rule="evenodd"><path d="M8.48 1.046c3.858 0 6.818 3.192 7.165 6.985h1.324l-1.893 1.953-2.065-1.952h1.338c-.33-3.228-2.746-5.957-5.936-5.957-3.412 0-6.19 2.888-6.19 6.437 0 3.55 2.778 6.438 6.19 6.438 1.695 0 3.23-.713 4.35-1.865l.822.826a7.37 7.37 0 0 1-5.107 2.064c-4.093 0-7.42-3.35-7.42-7.464 0-4.115 3.327-7.464 7.42-7.464z" class="si-glyph-fill"/><path d="M8.058 4.03L8 8.953 12 9V8l-3.032.062v-4.03h-.91z" class="si-glyph-fill"/></g></svg>