<svg viewBox="0 0 17 16" xmlns="http://www.w3.org/2000/svg" class="si-glyph si-glyph-stele"><title>634</title><g fill="#434343" fill-rule="evenodd"><path d="M1 14v1.99h15.003V14H1zM10 6h.905v.898H10zM4 6h.95v.905H4z" class="si-glyph-fill"/><path d="M1 5.412v7.59h13V5.41C14 .068 9.014.024 7.06.024 5.106.024 1 .068 1 5.412zm4.967 4.574H4.894V7.954h-.887v2.003h-1.04v-4.97h2.986v2.027H5.02v.86h.947v2.112zm1.986-.032h-1v-5h1v5zm2.085-1.958v1.958H9v-5h2.995L12 7.984l-1.962.012z" class="si-glyph-fill"/></g></svg>