<svg viewBox="0 0 16 16" xmlns="http://www.w3.org/2000/svg" class="si-glyph si-glyph-airplane"><title>86</title><g fill="#434343" fill-rule="evenodd"><path d="M9.264 10.32l3.52 5.48a.798.798 0 0 0 .51.2.744.744 0 0 0 .53-.208c.39-.58-.56-4.316-1.86-8.172l-2.7 2.7z" class="si-glyph-fill"/><path d="M15.613.42c-.584-.586-1.328-.525-1.828-.027l-4.08 4.064C7.268 3.68 2.86 2.182 1.195 2.182c-.232 0-.334.026-.37.037a.758.758 0 0 0-.013 1.01l6.107 4-3.033 3.02s-2.34-.48-2.68-.526c-.478-.062-1.028.356-.003.88 1.197.608 2.6 1.316 2.6 1.316s.862 1.68 1.39 2.604c.67 1.12 1.064.576.984 0L5.83 12.01l2.884-2.993 2.83-2.82 4.025-4.01c.5-.498.625-1.183.043-1.767z" class="si-glyph-fill"/></g></svg>