<svg viewBox="0 0 17 16" xmlns="http://www.w3.org/2000/svg" class="si-glyph si-glyph-arrow-thick-thin-up"><title>740</title><g fill="#434343" fill-rule="evenodd"><path d="M15.666 8.333c-.2 0-.404-.045-.596-.14L9.002 5.157l-6.07 3.034A1.332 1.332 0 1 1 1.74 5.807l6.665-3.333a1.332 1.332 0 0 1 1.193 0l6.666 3.333a1.332 1.332 0 0 1-.598 2.526z" class="si-glyph-fill"/><path d="M15.666 12.666a.66.66 0 0 1-.297-.07L9 9.412l-6.37 3.184a.667.667 0 0 1-.596-1.193L8.704 8.07a.665.665 0 0 1 .596 0l6.665 3.333a.668.668 0 0 1-.3 1.263z" class="si-glyph-fill"/></g></svg>