<svg viewBox="0 0 17 16" xmlns="http://www.w3.org/2000/svg" class="si-glyph si-glyph-horse"><title>931</title><path d="M14.572 12.36c-1.89-2.274-.475-5.31-2.205-8.448a4.144 4.144 0 0 0-1.564-1.63.975.975 0 0 0 .033-.03c.916-.928 1.412-1.903 1.106-2.178-.305-.277-1.296.252-2.212 1.18-.176.178-.33.356-.472.533-.976-.08-2.003.242-2.895 1.095 0 0-3.91 3.697-4.95 4.697-1.043.997.368 1.533.368 1.533s4.004-.967 4.834-.645c1.445.558-2.03 2.992-1.918 6.148.066 2.044 5.214 1.205 8.562.225 1.825-.532 1.67-2.053 1.314-2.48z" fill="#434343" class="si-glyph-fill" fill-rule="evenodd"/></svg>