<svg viewBox="0 0 16 16" xmlns="http://www.w3.org/2000/svg" class="si-glyph si-glyph-biscuit"><title>607</title><path d="M14.8 6.826a.862.862 0 0 0-.217-.307l-.024-.01c-.12-.106-.26-.19-.42-.24L9.353 4.127c.38-.436.617-.997.617-1.62a2.476 2.476 0 0 0-4.955 0c0 .634.244 1.205.635 1.643L.863 6.31C.22 6.514-.12 7.248.1 7.95l.026.08c.222.7.922 1.104 1.564.9l1.982-.963c.49-.045.898-.032 1.015.08.312.294-1.82 4.368-2.424 5.56-.438.86-.235 1.84.452 2.188l.075.04c.688.348 1.558-.09 2.036-.926.344-.604 1.518-3.583 2.576-3.583s2.476 2.977 2.782 3.582c.438.858 1.35 1.272 2.036.924l.076-.04c.688-.348.89-1.328.45-2.187-.384-.76-2.834-5.06-2.625-5.56.07-.165.576-.127 1.24-.022l1.95.865c.642.203 1.34-.2 1.563-.902l.025-.08c.125-.383.075-.77-.098-1.082zM8.06 5.98v1.05H6.908V5.98H8.06zm.002 4.082H6.906V8.906h1.156v1.156z" fill="#434343" class="si-glyph-fill" fill-rule="evenodd"/></svg>