<svg viewBox="0 0 17 16" xmlns="http://www.w3.org/2000/svg" class="si-glyph si-glyph-bomb-2"><title>663</title><g fill="#434343" fill-rule="evenodd"><path d="M16.427.016c-.093.952-.854 1.255-2.095 1.64-.584.18-1.205.378-1.712.72-.89-.474-1.51-.364-1.51-.364L9.807 3.628a6.034 6.034 0 0 1 3.104 2.27L14.2 4.297s.095-.688-.958-1.513c.378-.2.825-.344 1.287-.487C15.663 1.944 16.853 1.464 17 0l-.573.016zM8.857 4.364a5.96 5.96 0 0 0-1.895-.312 5.964 5.964 0 1 0 4.957 2.65 5.968 5.968 0 0 0-3.063-2.338zM7.3 6.077c-2.708 0-4.163 1.51-4.163 3.966H2.03c0-2.635 2.213-4.81 5.04-5.08-.002 0 .387 1.114.23 1.114z" class="si-glyph-fill"/></g></svg>