<svg viewBox="0 0 16 16" xmlns="http://www.w3.org/2000/svg" class="si-glyph si-glyph-faucet"><title>727</title><g fill="#434343" fill-rule="evenodd"><path d="M15.957 14.12c0 1.02-.66 1.85-1.475 1.85-.814 0-1.475-.828-1.475-1.85 0-1.022 1.475-3.12 1.475-3.12s1.475 2.098 1.475 3.12zM14.632 6.445C13.427 5.237 11.782 5.083 10 5.063V5.05c0-.534-.374-.968-.835-.968H7.98V2.954c.707-.1 1.277-.47 1.513-.958.262.116.62.19 1.016.19.8 0 1.448-.295 1.448-.66 0-.364-.648-.66-1.45-.66-.39 0-.742.072-1.003.186C9.24.466 8.49.042 7.598.042c-.87 0-1.604.4-1.888.963C5.427.885 5.043.81 4.617.81c-.87 0-1.575.31-1.575.69 0 .38.704.686 1.575.686.42 0 .8-.073 1.084-.19.21.437.69.775 1.3.914v1.173H5.832c-.46 0-.832.434-.832.967v.01H1.436C.702 5.06.02 5.76.02 6.5c0 .736.596 1.463 1.33 1.463h3.653c.007.527.375.953.83.953h3.333c.45 0 .812-.417.828-.934 1.197.05 2.184.218 2.675.71.276.277.496.647.616 1.267H15.9c-.158-1.406-.52-2.763-1.268-3.515z" class="si-glyph-fill"/></g></svg>