<svg viewBox="0 0 17 16" xmlns="http://www.w3.org/2000/svg" class="si-glyph si-glyph-mocule"><title>666</title><path d="M17 9.935v-3.85c-.043.028-.076.07-.117.1l-2.193-2.23c.165-.286.267-.614.267-.97a1.954 1.954 0 0 0-3.908 0c0 .364.104.7.278.992l-2.336 2.3c-.285-.16-.61-.26-.962-.26-.375 0-.723.11-1.02.292L4.72 3.986c.16-.284.26-.608.26-.958 0-1.088-.89-1.97-1.984-1.97-1.098 0-1.986.882-1.986 1.97a1.977 1.977 0 0 0 3.014 1.676l2.29 2.325c-.162.285-.26.61-.26.96 0 .36.104.693.273.984l-2.355 2.318a1.983 1.983 0 0 0-.963-.257c-1.088 0-1.97.868-1.97 1.94s.882 1.94 1.97 1.94 1.97-.868 1.97-1.94a1.9 1.9 0 0 0-.285-.992l2.337-2.3c.293.17.63.276.994.276.36 0 .69-.105.98-.272l2.31 2.344a1.9 1.9 0 0 0-.272.968c0 1.07.874 1.938 1.954 1.938A1.946 1.946 0 0 0 14.954 13c0-.364-.108-.7-.284-.992l2.205-2.182c.043.035.08.08.125.11zm-4.973 1.395L9.72 8.987A1.96 1.96 0 0 0 10 7.99c0-.375-.11-.72-.292-1.02l2.33-2.292c.285.163.61.264.963.264.36 0 .694-.104.985-.275l2.262 2.297a2.4 2.4 0 0 0-.244 1.046c0 .38.093.727.24 1.036l-2.297 2.27a1.946 1.946 0 0 0-.947-.252c-.356 0-.686.102-.973.266z" fill="#434343" class="si-glyph-fill" fill-rule="evenodd"/></svg>