<svg viewBox="0 0 16 16" xmlns="http://www.w3.org/2000/svg" class="si-glyph si-glyph-basket-arrow-right"><title>608</title><g fill="#434343" fill-rule="evenodd"><path d="M10.98 13.012c-.1.142-.324.238-.498.238h-.022c-.302 0-.545-.273-.545-.61V8.482c0-.338.243-.61.545-.61h.022c.3 0 .546.272.546.61v4.156c0 .133-.046.25-.11.35h2.076v-2.05l.257.2.23-4.164h.765c.4 0 .725-1.22.725-1.22 0-.37-.324-.672-.725-.672h-1.928l-1.035-3.637a.614.614 0 0 0-.838-.286l-.07.037a.657.657 0 0 0-.29.863l.74 3.023H4.172l.77-3.02a.658.658 0 0 0-.282-.864l-.07-.037a.616.616 0 0 0-.842.277L2.673 5.083H.783c-.4 0-.725.302-.725.672 0 0 .324 1.22.725 1.22h.636l.448 6.677s.052 1.31 2.113 1.31h7v-1.95zm.958-7.043h1.094v1.093h-1.094V5.97zM3.03 7.03H1.97V5.97h1.06v1.06zm2.032 5.712c0 .35-.25.633-.56.633H4.48c-.31 0-.56-.283-.56-.633v-4.33c0-.35.25-.63.56-.63h.023c.308 0 .56.28.56.63v4.33zm2.998-.195c0 .334-.237.605-.53.605h-.02c-.293 0-.53-.27-.53-.605v-4.1c0-.333.237-.603.53-.603h.02c.293 0 .53.27.53.604v4.1zM14.07 15.96l1.868-1.45-1.868-1.466v.974h-2.04v.95h2.04v.99z" class="si-glyph-fill"/></g></svg>