<svg viewBox="0 0 17 16" xmlns="http://www.w3.org/2000/svg" class="si-glyph si-glyph-circle-error"><title>1048</title><path d="M13.618 2.397c-3.105-3.105-8.136-3.11-11.235-.01-3.1 3.1-3.098 8.13.01 11.235 3.104 3.105 8.136 3.11 11.234.01 3.1-3.1 3.097-8.13-.01-11.235zM9.615 11.35L7.927 9.664 6.24 11.35c-.69.69-1.208 1.29-2.03.47-.82-.822-.223-1.34.47-2.03l1.687-1.687L4.68 6.415c-.69-.69-1.29-1.207-.47-2.03.822-.82 1.34-.22 2.03.47L7.926 6.54l1.688-1.685c.69-.69 1.205-1.29 2.027-.47.822.823.223 1.34-.467 2.03L9.487 8.102l1.688 1.687c.69.69 1.29 1.208.467 2.03-.82.82-1.337.22-2.027-.47z" fill="#434343" class="si-glyph-fill" fill-rule="evenodd"/></svg>