<svg viewBox="0 0 16 16" xmlns="http://www.w3.org/2000/svg" class="si-glyph si-glyph-wrench-screwdriver"><title>140</title><g fill="#434343" fill-rule="evenodd"><path d="M5.81 11.8l5.853-5.853c1.162.6 2.544.49 3.432-.398.684-.686.915-1.667.71-2.614l-1.51 1.506-1.344.262-1.625-1.61.28-1.384L13.1.235c-.947-.207-1.93.022-2.613.706-.89.89-1 2.27-.398 3.434l-5.853 5.852c-1.163-.6-2.545-.488-3.433.398-.684.686-.915 1.666-.708 2.613l1.508-1.505 1.343-.263 1.628 1.608-.28 1.385-1.496 1.476c.945.205 1.928-.023 2.612-.708.887-.888.998-2.27.4-3.433z" class="si-glyph-fill"/><path d="M14.107 12.334l-1.83-.598L9.94 9.4l-.58.58 2.337 2.334.637 1.872L15.4 16.02l.58-.58-1.873-3.106zM7.277 5.107L2.477.29C2.076-.114 1.368-.064.9.408L.367.94c-.467.472-.52 1.18-.115 1.585L5.05 7.342l2.227-2.235z" class="si-glyph-fill"/></g></svg>