<svg viewBox="0 0 17 16" xmlns="http://www.w3.org/2000/svg" class="si-glyph si-glyph-cloud-thunder"><title>850</title><g fill="#434343" fill-rule="evenodd"><path d="M11.125 6.915l-.998 2.046h6.89C16.88 7.53 15.958 6.42 14.83 6.42c-.25 0-.488.067-.714.168-.694-1.04-1.83-1.722-3.118-1.722-.207 0-.407.02-.606.056-.682-1.135-1.87-1.89-3.223-1.89-1.913 0-3.493 1.5-3.782 3.456-.018 0-.033-.005-.05-.005-1.282 0-2.32 1.11-2.32 2.48h4.664l.944-2.058 4.5.013z" class="si-glyph-fill"/><path d="M9.7 10.07H8.59l.648-2.05H7.38l-1.028 2.925 1.336-.013-.657 3.037 2.67-3.9z" class="si-glyph-fill"/></g></svg>