<svg viewBox="0 0 17 16" xmlns="http://www.w3.org/2000/svg" class="si-glyph si-glyph-money-bag"><title>718</title><g fill="#434343" fill-rule="evenodd"><path class="si-glyph-fill" d="M9 11h.922v1.96H9zM7 8h.938v1.974H7z"/><path d="M9.296 4.78c.858-1 1.47-3.258 1.47-4.075 0-1.726-1.03.44-2.298.44-1.27 0-2.298-2.188-2.298-.44 0 .83.63 3.148 1.512 4.123-2.608.74-4.664 4.494-4.664 7.794 0 2.918 2.455 3.364 5.482 3.364s5.48-.486 5.48-3.364c0-3.006-2.003-7.2-4.684-7.843zm1.735 8.267h-1v.984h-1v1.032H7.97v-1.03h-1v-.985l.012-.016H5.97v-1.06h1.046v1.02l.016-.02h.938v-1.94H7v-.983H5.953V7.985H7V6.97h.97V5.937h1.06v1.03h1v1h.985v1.063H9.968V8.01l-.016.006H9.03V9.97h1.016v1.015h.984v2.062z" class="si-glyph-fill"/></g></svg>