<svg viewBox="0 0 17 16" xmlns="http://www.w3.org/2000/svg" class="si-glyph si-glyph-resize-in-frame"><title>895</title><g fill="#434343" fill-rule="evenodd"><path d="M9.994 12.967c0 1.134-.92 2.054-2.055 2.054H4.03a2.055 2.055 0 0 1-2.054-2.053v-3.91c0-1.133.92-2.053 2.054-2.053h3.91c1.134 0 2.054.92 2.054 2.053v3.91zM11.778 4.104l-1.17-2.056a.55.55 0 0 0-.552.548L10.038 6.4c0 .304.247.55.552.55l3.765.016a.55.55 0 0 0 .553-.548l-2.014-1.206 3.816-3.794a.768.768 0 0 0 .23-.55.77.77 0 0 0-.23-.554.794.794 0 0 0-1.117 0l-3.815 3.79z" class="si-glyph-fill"/><path d="M16.04 7.02v6.585c0 .795-.642 1.44-1.435 1.44H3.375a1.44 1.44 0 0 1-1.434-1.44V2.395c0-.793.645-1.44 1.436-1.44H9.98v-.93H3.057c-1.13 0-2.05.922-2.05 2.054v11.83c0 1.132.92 2.054 2.05 2.054h11.88c1.132 0 2.052-.922 2.052-2.053V7.02h-.95z" class="si-glyph-fill"/></g></svg>