<svg viewBox="0 0 17 16" xmlns="http://www.w3.org/2000/svg" class="si-glyph si-glyph-button-sale"><title>686</title><g fill="#434343" fill-rule="evenodd"><path class="si-glyph-fill" d="M7 7h.968v1.94H7z"/><path d="M13.513 3.002l-5.075 1.06-4.965-1.06C2.108 3.002 1 4.334 1 5.977v5.036c0 1.644 1.107 2.976 2.473 2.976l5.09-1.083 4.95 1.082c1.364 0 2.472-1.333 2.472-2.977V5.977c0-1.643-1.108-2.975-2.472-2.975zM5.047 7.016H3.014v.97h1.002v.983h1.03v1.046H4.044v1H1.97V9.954h2v-.95h-.996v-.985H1.97V6.982h1.004V5.955h2.073v1.06zm3.966 4.03H7.97v-1.03h-.954v1.03H5.97v-4.06h1V5.97h1.046v1.015h.997v4.062zm3.003-.03H9.97V5.954h1.046V9.97h1v1.046zm3.015-4h-1.02v.938h.994v1.078h-.973v.933h1v1.052h-2.06V5.97h2.06v1.046z" class="si-glyph-fill"/></g></svg>