<svg viewBox="0 0 17 16" xmlns="http://www.w3.org/2000/svg" class="si-glyph si-glyph-button-arrow-up"><title>1187</title><g fill="#434343" fill-rule="evenodd"><path d="M8.984.057c4.39 0 7.96 3.562 7.96 7.94s-3.57 7.94-7.96 7.94c-4.39 0-7.96-3.562-7.96-7.94S4.597.058 8.985.058zM8.97 14.083c3.346 0 6.073-2.73 6.073-6.083S12.316 1.917 8.97 1.917c-3.35 0-6.074 2.73-6.074 6.083 0 3.354 2.724 6.083 6.073 6.083z" class="si-glyph-fill"/><path d="M11.975 7.906L8.973 4.002l-2.95 3.905h2.002v3.264c0 .345.324.79.955.79.63 0 .975-.482.975-.825v-3.23h2.02z" class="si-glyph-fill"/></g></svg>