<svg viewBox="0 0 17 16" xmlns="http://www.w3.org/2000/svg" class="si-glyph si-glyph-building"><title>907</title><g fill="#434343" fill-rule="evenodd"><path d="M14.96 3.03h-.99v-.996h-1.017V.03h-.938v2.004h-.957v.997h-1.023v2H9V16h6.982V5.03h-1.02v-2zm-1.99.94h1v1h-1v-1zm-2 .014h1v1h-1v-1zm.03 9.972h-1v-1h1v1zm0-2h-1v-1h1v1zm0-1.998h-1v-1h1v1zM11 8h-1V7h1v1zm2 5.956h-1v-1h1v1zm0-2h-1v-1h1v1zm0-1.998h-1v-1h1v1zM13 8h-1V7h1v1zm2 5.956h-1v-1h1v1zm0-2h-1v-1h1v1zm0-1.998h-1v-1h1v1zm0-2.01h-1v-1h1v1zM6.96 3.05H5.925V2.05h-.95V.047h-.927v2.005H3.014v.997h-.98v1.997H1V16h6.982V5.047h-1.02V3.05zm-2.003.91h1v1h-1v-1zM3 3.96h1v1H3v-1zm0 10.033H2v-1h1v1zm0-2.004H2v-1h1v1zm0-2.02H2v-1h1v1zM3 8H2V7h1v1zm2 5.97H4v-1h1v1zm0-1.996H4v-1h1v1zM5 9.98H4v-1h1v1zm0-2.005H4v-1h1v1zm2 5.984H6v-1h1v1zm0-2H6v-1h1v1zm0-1.997H6v-1h1v1zm0-2.008H6v-1h1v1z" class="si-glyph-fill"/></g></svg>