<svg viewBox="0 0 17 16" xmlns="http://www.w3.org/2000/svg" class="si-glyph si-glyph-foot-sign"><title>860</title><g fill="#434343" fill-rule="evenodd"><path d="M5.428 13.572l-3.8-1.43-.483 1.173s-.463 1.898 1.197 2.523c1.662.627 2.62-1.087 2.62-1.087l.466-1.178zM8.207 3.193C6.565 2.533 4.26 3.98 3.463 5.8c-.328.75-.477 1.56-.6 2.357-.06.38-.102.772-.177 1.152-.096.476-.24.935-.38 1.398-.198.643.02.75.618.86l2.098.793c.214.103.632.36.847.12.19-.215.15-.607.278-.862.164-.33.348-.668.55-.98C7.15 9.94 8 9.43 8.58 8.828c.714-.748 1.11-1.498 1.327-2.49.29-1.32-.377-2.616-1.698-3.145zM9.977 9.29l3.655 1.442s-.754 2.953-2.986 2.094c-2.232-.86-.67-3.537-.67-3.537zM15.19.217c1.56.58 2.188 3.038 1.53 4.807-.27.727-.702 1.38-1.145 2.014-.212.302-.442.598-.643.91-.247.39-.453.802-.66 1.212-.292.57-.513.505-.997.206l-1.965-.773c-.213-.064-.67-.152-.657-.45.01-.27.296-.52.378-.775.107-.333.204-.685.27-1.028.152-.768-.096-1.66-.092-2.44 0-.97.227-1.74.732-2.566.677-1.106 1.992-1.582 3.25-1.117z" class="si-glyph-fill"/></g></svg>