<svg viewBox="0 0 16 16" xmlns="http://www.w3.org/2000/svg" class="si-glyph si-glyph-ambulance"><title>831</title><g fill="#434343" fill-rule="evenodd"><g transform="translate(2 2)"><circle cx="1.433" cy="9.433" r="1.433" class="si-glyph-fill"/><ellipse cx="9.451" cy="9.474" rx="1.451" ry="1.474" class="si-glyph-fill"/><path d="M8.953 2.047c0-1.122.1-2.03-.944-2.03-1.046 0-.994.908-.994 2.03h1.937z" class="si-glyph-fill"/></g><path d="M15.338 7.735S12.728 4 11.994 4H1.392C.66 4 .064 4.6.064 5.336v5.315c0 .737.328 1.337.328 1.337h.553a2.656 2.656 0 0 1-.043-.43 2.6 2.6 0 0 1 5.2 0c0 .146-.02.29-.043.43h2.886a2.656 2.656 0 0 1-.043-.43 2.6 2.6 0 0 1 5.2 0c0 .146-.02.29-.043.43h.594c.734 0 1.33-.6 1.33-1.336V9.32c-.003-.833-.646-1.585-.646-1.585zm-7.29-.688H7.042v1.005H5.958V7.047H4.953V5.963h1.005V4.958h1.085v1.005h1.004v1.084zm1.87.995V4.904h1.367c.636 0 1.375 1.03 1.375 1.03l1.464 2.107H9.918v.002z" class="si-glyph-fill"/></g></svg>