<svg viewBox="0 0 17 16" xmlns="http://www.w3.org/2000/svg" class="si-glyph si-glyph-cloud-plus"><title>853</title><g fill="#434343" fill-rule="evenodd"><path d="M8.916 9.94V7.938H10v-1h3.03v.97h1.032v2.03l2.947.014c-.14-1.43-1.063-2.538-2.19-2.538a1.74 1.74 0 0 0-.714.168c-.694-1.04-1.83-1.72-3.118-1.72-.207 0-.408.022-.605.056C9.7 4.783 8.513 4.03 7.158 4.03c-1.91 0-3.49 1.497-3.78 3.45-.017 0-.033-.005-.05-.005-1.28 0-2.318 1.108-2.318 2.476l7.906-.01z" class="si-glyph-fill"/><path d="M12.97 9h-1.032v-.994h-.876V9H10.01v.96h1.052v.988h.876v-.99h1.03V9z" class="si-glyph-fill"/></g></svg>