<svg viewBox="0 0 16 16" xmlns="http://www.w3.org/2000/svg" class="si-glyph si-glyph-film-35mm"><title>98</title><g fill="#434343" fill-rule="evenodd"><path d="M8.027 4.038v8.946l6.95-.012V4.08l-6.95-.042zM6.348 15.97h7.27c.73 0 1.32-.552 1.32-1.23v-.698H5.027v.698c0 .678.59 1.23 1.322 1.23zM13.633 1.027H11.97V.58c0-.31-.235-.564-.525-.564H8.56c-.29 0-.524.254-.524.565v.447h-1.67c-.732 0-1.323.542-1.323 1.21v.728h9.913v-.73c0-.666-.593-1.208-1.323-1.208zM6.984 13.02l.01-9h-.963v1.002H4.954v-1h-.997c0 .21-.083 1.43-.083 1.43C3.81 7.876.03 8.967.03 10.01v3.01H1v-1.036h1.03v1.037h.94V12H4v1.02h.97v-1.005h1.06v1.006h.954zM3.157 8.436c1.05-.677 1.452-2.41 1.452-2.41L6 6l-.063 5H1s.452-1.465 2.157-2.565z" class="si-glyph-fill"/></g></svg>