<svg viewBox="0 0 17 16" xmlns="http://www.w3.org/2000/svg" class="si-glyph si-glyph-align-right"><title>1130</title><g fill="#434343" fill-rule="evenodd"><path d="M17 1.938c0 .518-.42.938-.938.938H1.98A.938.938 0 0 1 1.98 1h14.082c.518 0 .938.42.938.938zM17 13.938c0 .518-.42.938-.938.938H1.98a.938.938 0 0 1 0-1.876h14.082c.518 0 .938.42.938.938zM17 7.938c0 .518-.42.938-.938.938H5.98A.938.938 0 0 1 5.98 7h10.082c.518 0 .938.42.938.938zM17 10.938c0 .518-.42.938-.938.938H7.98a.938.938 0 0 1 0-1.876h8.082c.518 0 .938.42.938.938zM17 4.938c0 .518-.42.938-.938.938H9.98A.938.938 0 0 1 9.98 4h6.082c.518 0 .938.42.938.938z" class="si-glyph-fill"/></g></svg>