<svg viewBox="0 0 17 16" xmlns="http://www.w3.org/2000/svg" class="si-glyph si-glyph-balance"><title>892</title><g fill="#434343" fill-rule="evenodd"><path d="M10.953 14H6.016v1.03H5V16h7v-.97h-1.047V14zM8.016 4v8.953h.953V4h4.53L8.97 2.833V1.016h-.954v1.817L3.47 4h4.546zM3.492 5.98l1.9 4.004.566-.207-2.225-4.61c-.053-.097-.157-.16-.298-.15-.128.004-.24.074-.28.174L1.013 9.8l.588.162L3.492 5.98zM13.182 5.195l-2.158 4.62.592.16 1.902-3.99L15.43 10l.57-.208-2.238-4.62c-.053-.096-.16-.158-.3-.15-.13.003-.24.075-.28.173zM15.984 11.03c0 1.062-1.112 1.923-2.484 1.923-1.372 0-2.484-.86-2.484-1.922h4.968zM5.984 11.03c0 1.062-1.112 1.923-2.484 1.923-1.372 0-2.484-.86-2.484-1.922h4.968z" class="si-glyph-fill"/></g></svg>