<svg viewBox="0 0 17 16" xmlns="http://www.w3.org/2000/svg" class="si-glyph si-glyph-button-buy"><title>760</title><g fill="#434343" fill-rule="evenodd"><path d="M13.36 2.094l-5.36 1-5.318-1c-1.45 0-2.63 1.318-2.63 2.945v4.98c0 1.627 1.18 2.944 2.63 2.944L8 11.937l5.36 1.027c1.453 0 2.63-1.317 2.63-2.943V5.04c0-1.628-1.177-2.946-2.63-2.946zM6 9.04h-.968V10H2V5h3.032v1H6v3.04zm4 .96H7V5h1v4.025h1V5h1v5zm4-1.975L13.04 8v2h-1.08l.02-1.975H11V5h.98v3.025h1.06V5H14v3.025z" class="si-glyph-fill"/><path d="M3 8v1.037h2.006V8H3zM3 6h2.026v1.03H3z" class="si-glyph-fill"/></g></svg>