<svg viewBox="0 0 17 16" xmlns="http://www.w3.org/2000/svg" class="si-glyph si-glyph-car"><title>859</title><g transform="translate(1 4)" fill="none" fill-rule="evenodd"><circle fill="#434343" cx="12.49" cy="6.49" r="1.49" class="si-glyph-fill"/><circle fill="#434343" cx="3.49" cy="6.49" r="1.49" class="si-glyph-fill"/><path d="M6.514 1.607C6.32 2.14 5.934 3 5.934 3h3.092V.957H7.544c-.28 0-.843.13-1.03.65zM12.446.967H9.968V3h4.086l-.484-1.447s-.41-.586-1.124-.586z"/><path d="M6.514 1.607C6.32 2.14 5.934 3 5.934 3h3.092V.957H7.544c-.28 0-.843.13-1.03.65zM12.446.967H9.968V3h4.086l-.484-1.447s-.41-.586-1.124-.586z"/><path d="M16 4.836c0-.597-.078-1.137-.753-1.524l-.585-1.974c0-.39-.915-1.338-2.044-1.338h-5.28C6.21 0 5.297 1.088 5.297 1.338L4.432 3l-.78.107C1.63 3.107.58 4.334.58 5.515l-.558 1.47H1.03a2.454 2.454 0 0 1-.055-.52 2.508 2.508 0 0 1 2.52-2.497A2.508 2.508 0 0 1 6.01 6.466c0 .178-.02.35-.056.518h4.074a2.454 2.454 0 0 1-.056-.518 2.508 2.508 0 0 1 2.52-2.498c1.39 0 2.518 1.118 2.518 2.498 0 .178-.02.35-.056.518H16V4.836zM9.025 3H5.933s.385-.858.58-1.393c.188-.52.75-.65 1.03-.65h1.482V3zm.944 0V.967h2.477c.714 0 1.124.586 1.124.586L14.056 3H9.97z" fill="#434343" class="si-glyph-fill"/></g></svg>