<svg viewBox="0 0 17 16" xmlns="http://www.w3.org/2000/svg" class="si-glyph si-glyph-can-water"><title>792</title><path d="M16.168 5.07c-.506-2.65-2.262-4.038-4.626-4.038-2.362 0-4.125 1.384-4.636 4.027-.473.01-.85.313-.85.69v1.846l-2.152-2.02c-.002-.003-.004-.003-.004-.003.314-.55.385-1.075.12-1.346-.39-.398-1.343-.1-2.13.668-.787.77-1.11 1.715-.723 2.113.266.273.797.214 1.355-.092l3.534 6.1v2.258c0 .382.39.692.873.692h9.157c.483 0 .873-.31.873-.692V5.75c.002-.36-.348-.647-.792-.68zM11.528 2C13.31 2 14.59 2.938 15 5H8c.41-2.062 1.744-3 3.527-3z" fill="#434343" class="si-glyph-fill" fill-rule="evenodd"/></svg>