<svg viewBox="0 0 17 16" xmlns="http://www.w3.org/2000/svg" class="si-glyph si-glyph-clamp"><title>925</title><path d="M6.297 1.938h5.656V.042H6.297A2.27 2.27 0 0 0 4 2.335v6.37c0 1.288 1.01 2.274 2.297 2.274H9v3.088h-.64v.815c-.825.266-1.39.74-1.39 1.116h4.982c0-.377-.56-.847-1.375-1.113v-.82h-.64V10.98h2V9.04h-2V6.948l.093-.03h.906v-.892H8.04v.89h.853c.036.013.066.024.105.035v2.09H6.295a.335.335 0 0 1-.334-.334V2.27a.337.337 0 0 1 .337-.332z" fill="#434343" class="si-glyph-fill" fill-rule="evenodd"/></svg>