<svg viewBox="0 0 16 16" xmlns="http://www.w3.org/2000/svg" class="si-glyph si-glyph-battery-full"><title>1170</title><g fill="#434343" fill-rule="evenodd"><path d="M10.446 3H6.534C6.28 3 6 3.3 6 3.58v9.902c0 .273.278.497.535.497h3.912c.254 0 .553-.225.553-.498V3.58c0-.28-.297-.58-.554-.58z" class="si-glyph-fill"/><path d="M11.306 1.02H10V.006H7V1.02H5.77c-.936 0-1.694.767-1.694 1.71v11.562c0 .942.76 1.71 1.694 1.71h5.536c.936 0 1.694-.768 1.694-1.71V2.73c0-.944-.76-1.71-1.694-1.71zM12 14c0 .525-.494 1-1 1H6c-.506 0-1.01-.475-1.01-1V3c0-.523.504-1 1.01-1h5c.506 0 1 .476 1 1v11z" class="si-glyph-fill"/></g></svg>