<svg viewBox="0 0 16 16" xmlns="http://www.w3.org/2000/svg" class="si-glyph si-glyph-trash"><title>630</title><g fill="#434343" fill-rule="evenodd"><path d="M1.982 5.073L3.007 15.34c0 .365.307.66.684.66h7.58a.673.673 0 0 0 .685-.66L12.98 5.072H1.982zm6.05 8.995h-1.07v-7.08h1.07v7.08zm2 0h-1.07l1-7.08h1.07l-1 7.08zm-4 0h-1.07l-1-7.08h1.07l1 7.08zM13.075 2.105H9.937V.71C9.937.316 9.48 0 9.08 0H5.987c-.4 0-.955.225-.955.615V2.01l-3.144.095c-.4 0-.727.316-.727.708v1.155H13.8V2.813a.715.715 0 0 0-.725-.708zM5.947 1.44c0-.312.35-.565.783-.565h1.564c.432 0 .782.254.782.565v.665h-3.13V1.44z" class="si-glyph-fill"/></g></svg>