<svg viewBox="0 0 16 16" xmlns="http://www.w3.org/2000/svg" class="si-glyph si-glyph-basket-checked"><title>615</title><g fill="none" fill-rule="evenodd"><path d="M9.652 13.02l.28-.29c-.005-.03-.017-.058-.017-.09V8.482c0-.338.243-.61.545-.61h.02c.302 0 .547.272.547.61v3.113l.7-.725 1.125 1.118.372-.386.253-4.627h.766c.4 0 .725-1.22.725-1.22 0-.37-.324-.672-.725-.672h-1.928L11.28 1.446a.614.614 0 0 0-.838-.286l-.07.036a.657.657 0 0 0-.29.863l.74 3.022H4.17l.767-3.02a.658.658 0 0 0-.28-.864l-.07-.036a.616.616 0 0 0-.843.277L2.67 5.08H.78c-.4 0-.724.302-.724.672 0 0 .324 1.22.725 1.22h.637l.45 6.677s.05 1.31 2.112 1.31H11c.215 0 .393-.02.566-.046L9.652 13.02zm2.286-7.05h1.094v1.093h-1.094V5.97zM3.03 7.03H1.97V5.97h1.06v1.06zm2.032 5.712c0 .35-.25.633-.56.633H4.48c-.31 0-.56-.283-.56-.633v-4.33c0-.35.25-.63.56-.63h.023c.308 0 .56.28.56.63v4.33zm3-.195c0 .334-.238.605-.53.605h-.02c-.294 0-.53-.27-.53-.605v-4.1c0-.333.236-.603.53-.603h.02c.292 0 .53.27.53.604v4.1z" fill="#434343" class="si-glyph-fill"/><path d="M11.092 12.972L13 14.958l2.943-3.972" stroke="#434343" class="si-glyph-fill si-glyph-stroke si-glyph-fill-stroke si-glyph-thick-stroke si-glyph-thick"/></g></svg>