<svg viewBox="0 0 17 16" xmlns="http://www.w3.org/2000/svg" class="si-glyph si-glyph-box-upload"><title>899</title><g fill="#434343" fill-rule="evenodd"><path d="M16.644 4.236a1.022 1.022 0 0 0-1.433.113l-2.06 2.753c-.105-.016-8.144-.016-8.226-.006l-2.16-2.76a1.005 1.005 0 0 0-1.42-.092A1.02 1.02 0 0 0 1.25 5.68L3.28 8.285c-.124.268-.197.56-.197.873v4.745a2.09 2.09 0 0 0 2.09 2.088h7.66a2.09 2.09 0 0 0 2.09-2.088V9.16c0-.29-.06-.563-.166-.815l2-2.68a1.013 1.013 0 0 0-.113-1.43z" class="si-glyph-fill"/><path d="M6.236 3.944l1.812-.373-.02 1.437c-.004.55.438.992.988.988.55-.002 1-.45 1-1.002L9.987 3.6l1.78.344a.697.697 0 0 0 .004-.986L9.505.282a.696.696 0 0 0-.985.004L6.242 2.958a.7.7 0 0 0-.006.986z" class="si-glyph-fill"/></g></svg>