<svg viewBox="0 0 17 17" xmlns="http://www.w3.org/2000/svg" class="si-glyph si-glyph-television"><title>981</title><path d="M15.38 5.06H9.47l2.74-3.79-1.013-.223L8.303 5.06h-.008L5.403 1.047 4.39 1.27l2.738 3.79H.656a.582.582 0 0 0-.593.57v10.786c0 .317.265.572.593.572H15.38c.328 0 .593-.255.593-.572V5.63a.578.578 0 0 0-.592-.57zM13 14.67c0 .206-.152.372-.342.372H2.263c-.188 0-.34-.166-.34-.372V7.304c0-.204.15-.372.34-.372h10.395c.19 0 .342.168.342.372v7.366zm2 .372h-1V14h1v1.042z" fill="#434343" class="si-glyph-fill" fill-rule="evenodd"/></svg>