<svg viewBox="0 0 17 16" xmlns="http://www.w3.org/2000/svg" class="si-glyph si-glyph-bookcase"><title>677</title><path d="M14.667.037H3.332A1.32 1.32 0 0 0 2.016 1.36l.01 14.075c0 .376.642.58.995.58.355 0 .94-.204.94-.58v-1.407c.008 0 .016.003.016.003h10.01c.013 0 .023-.002.036-.003v1.408c0 .376.635.602.98.602.346 0 .957-.226.957-.602l.026-14.075c0-.73-.59-1.323-1.32-1.323zm-1.688.92h1.04V3h-1.04V.958zm-2.022 0h1v2h-1v-2zm-1.985 0h1.048v2H8.974v-2zm6.048 9.064H2.98V8.98h12.04v1.04zM3.96 8V6h1v2h-1zm2.014-.007v-2h1v2h-1zM7.962 8V5.993h1V8h-1zm7.06-3H2.98V3.98h12.04V5z" fill="#434343" class="si-glyph-fill" fill-rule="evenodd"/></svg>