<svg viewBox="0 0 17 17" xmlns="http://www.w3.org/2000/svg" class="si-glyph si-glyph-ying-yang"><title>927</title><g transform="translate(1)" fill="#434343" fill-rule="evenodd"><path d="M7.984.053C3.6.053.044 3.613.044 8.006c0 4.392 3.556 7.953 7.94 7.953s7.94-3.562 7.94-7.954c0-4.392-3.555-7.953-7.94-7.953zM7.49 2.045c.838 0 1.52.654 1.52 1.46 0 .806-.682 1.46-1.52 1.46-.84 0-1.52-.654-1.52-1.46 0-.806.68-1.46 1.52-1.46zm.545 12.863c-3.05 0-5.693-3.99.066-6.924 5.257-2.676 2.804-7.24-.065-6.976 4.375 0 6.94 3.11 6.94 6.95 0 3.84-3.108 6.95-6.94 6.95z" class="si-glyph-fill"/><ellipse cx="8.493" cy="11.445" rx="1.493" ry="1.445" class="si-glyph-fill"/></g></svg>