<svg viewBox="0 0 17 16" xmlns="http://www.w3.org/2000/svg" class="si-glyph si-glyph-magnifier"><title>1142</title><g fill="#434343" fill-rule="evenodd"><path d="M17 5.954C17 2.664 14.317 0 11.01 0 7.697 0 5.015 2.665 5.015 5.954c0 3.287 2.683 5.952 5.993 5.952 3.307 0 5.99-2.665 5.99-5.952zM5.934 6.02A5.082 5.082 0 0 1 11.026.942a5.08 5.08 0 0 1 5.088 5.076 5.08 5.08 0 0 1-5.088 5.074c-2.813 0-5.092-2.272-5.092-5.075zM2.822 15.964L1 14.142l4.037-4.038s.096.765.58 1.247c.482.485 1.242.577 1.242.577L2.82 15.964z" class="si-glyph-fill"/><path d="M14.398 5.073c0 .572.44.356.44-.44a2.48 2.48 0 0 0-2.48-2.48c-.796 0-1.01.44-.438.44a2.48 2.48 0 0 1 2.478 2.48z" class="si-glyph-fill"/></g></svg>