<svg viewBox="0 0 17 17" xmlns="http://www.w3.org/2000/svg" class="si-glyph si-glyph-clock"><title>918</title><g fill="#434343" fill-rule="evenodd"><path d="M9.008 16.93c-4.385 0-7.95-3.564-7.95-7.943 0-4.38 3.565-7.944 7.95-7.944 4.384 0 7.95 3.563 7.95 7.944 0 4.378-3.566 7.942-7.95 7.942zM8.973 2.862c-3.354 0-6.084 2.742-6.084 6.11 0 3.37 2.73 6.112 6.083 6.112 3.355 0 6.085-2.742 6.085-6.11 0-3.37-2.73-6.112-6.085-6.112z" class="si-glyph-fill"/><path class="si-glyph-fill" d="M8 5h.96v3.978H8zM8 9h3.938v.98H8z"/></g></svg>