<svg viewBox="0 0 17 16" xmlns="http://www.w3.org/2000/svg" class="si-glyph si-glyph-spray"><title>768</title><g fill="#434343" fill-rule="evenodd"><path d="M5.254.02L5.03.97l1.954.014L5.254.02zM12.963 7.024v-.95S11.3 3.04 10.936 3.04H9.97L9.984.015h-1.97V1.98h1v1.06h-.95c-.363 0-2.06 3.034-2.06 3.034v9.27c0 .37.325.67.726.67h5.51c.4 0 .724-.3.724-.67v-8.3h.018c-.007-.005-.013-.013-.02-.02zm-.947 8.007h-1.022V7h1.022v8.03zM5.027 2.03l.232.915 1.678-.883-1.91-.03z" class="si-glyph-fill"/></g></svg>