<svg viewBox="0 0 17 16" xmlns="http://www.w3.org/2000/svg" class="si-glyph si-glyph-fire-wood"><title>701</title><g fill="#434343" fill-rule="evenodd"><path d="M15.884 10.69c.23.517.033 1.063-.442 1.222L3.376 15.915c-.478.158-1.05-.133-1.282-.65-.23-.517-.034-1.064.442-1.222l12.066-4.004c.476-.16 1.048.132 1.282.65zM14.602 15.915c.477.158 1.05-.133 1.282-.65.23-.517.033-1.064-.442-1.222l-1.59-.527-3.242 1.075 3.992 1.325zM3.375 10.04c-.478-.16-1.05.132-1.282.65-.23.517-.034 1.063.442 1.222l1.592.527 3.24-1.077-3.992-1.324zM10.518 9.953s3.934-1.43 1.88-3.85c-.603-.774-1.01-1.8-.556-3.017 0 0-1.348 1.265-.943 2.542C10.712 5.345 8.85 4.616 9 1.04c0 0-2.255 1.78-2.255 3.957 0 0 .213 2.512 1.44 2.904 0 0-1.873-.473-2.25-2.84-.09.284-2.408 2.858.765 4.817 0 0-1.17-.784-.6-2.263 1.154 1.95 3.46.563 3.46.563s-2.392-.55-1.09-3.673c.298 1.62 1.737 2.48 2.65 2.622-.48-.966.348-.223.705.38.47 1.17-1.307 2.447-1.307 2.447z" class="si-glyph-fill"/></g></svg>