<svg viewBox="0 0 16 16" xmlns="http://www.w3.org/2000/svg" class="si-glyph si-glyph-three-ball"><title>647</title><g fill="#434343" fill-rule="evenodd"><path d="M4.518 7.07C2.046 7.07.04 9.067.04 11.53c0 2.46 2.006 4.455 4.478 4.455s4.476-1.995 4.476-4.456a4.468 4.468 0 0 0-4.476-4.46zm.564 1.384a3.64 3.64 0 0 0-3.633 3.642c0 .822-.718.47-.718-.72a3.637 3.637 0 0 1 3.635-3.64c1.186 0 1.535.718.715.718z" class="si-glyph-fill"/><path d="M11.518 7.07a4.45 4.45 0 0 0-2.742.958c.13.157.25.322.36.493a3.6 3.6 0 0 1 2.23-.784c1.187 0 1.536.718.716.718-.953 0-1.812.376-2.46.978a5.46 5.46 0 0 1 .417 2.098c0 1.33-.476 2.548-1.265 3.5a4.45 4.45 0 0 0 2.742.956c2.472 0 4.476-1.995 4.476-4.456a4.466 4.466 0 0 0-4.475-4.46zM8.018 7.197a5.57 5.57 0 0 1 4.678-1.104c.184-.488.298-1.01.298-1.563 0-2.463-2.004-4.458-4.476-4.458S4.04 2.067 4.04 4.53c0 .51.104.992.263 1.448.072-.003.143-.01.215-.01 1.326 0 2.542.46 3.5 1.23zm.35-6.46c1.185 0 1.534.717.714.717A3.64 3.64 0 0 0 5.45 5.096c0 .822-.718.47-.718-.72A3.637 3.637 0 0 1 8.367.737z" class="si-glyph-fill"/></g></svg>