<svg viewBox="0 0 17 17" xmlns="http://www.w3.org/2000/svg" class="si-glyph si-glyph-cashier-machine"><title>708</title><path d="M13.64 4.012h-1.655V2.957h1.352c.346 0 .625-.346.625-.77V.77c0-.427-.28-.77-.625-.77h-3.69C9.3 0 9.02.345 9.02.77v1.414c0 .426.278.77.624.77h1.378v1.056h-6.67c-.37 0-.67.3-.67.668l-1.67 8.63V16H16.01v-2.69l-1.698-8.63a.67.67 0 0 0-.67-.668zm-7.624 8.004h-1.03V10.97h1.03v1.046zm-1.032-2V8.97h1.03v1.046h-1.03zm3.032 2.015h-1.03v-1.06h1.03v1.06zm0-2.03H6.97V8.984h1.046V10zm2 2.03H8.97v-1.062h1.046v1.06zM8.97 10V8.97h1.046V10H8.97zm1.046-2h-5.03V6h5.03v2zM13 8h-2.018V6.98H13V8z" class="si-glyph-fill" fill="#434343" fill-rule="evenodd"/></svg>