<svg viewBox="0 0 16 17" xmlns="http://www.w3.org/2000/svg" class="si-glyph si-glyph-saw"><title>1004</title><g fill="#434343" fill-rule="evenodd"><path d="M7.73 4.266L5.94 1.292a.837.837 0 0 0-1.18-.016l.027 1.187L1.43 5.8.237 5.776a.824.824 0 0 0 .015 1.17l2.992 1.78a.838.838 0 0 0 1.18.015l3.32-3.303a.824.824 0 0 0-.015-1.17zM6.46 5.48L4.43 7.498c-.222.22-.63.17-.912-.107l-.82.01c-.28-.28-.33-.687-.11-.905l2.86-2.842c.224-.222.63-.174.91.106l-.008.816c.282.278.33.685.11.904zM8.217 7.056L6 9.36l.568.593.605-.626 1.296 1.345-.605.626.533.554.604-.627 1.294 1.343-.604.626.535.556.604-.626 1.294 1.343-.604.627.533.553.605-.626.297.345-.605.626.008.01 3.624-.923-7.765-8.02z" class="si-glyph-fill"/></g></svg>