<svg viewBox="0 0 16 17" xmlns="http://www.w3.org/2000/svg" class="si-glyph si-glyph-clapboard-play"><title>617</title><g fill="#434343" fill-rule="evenodd"><path d="M.98 8.954L15.894 5.43l-.98-4.055L0 4.898l.98 4.056zm11.507-3.597L11.04 3.045l2.01-.486 1.448 2.31-2.01.487zm-3.35.81l-1.45-2.312 2.01-.485 1.45 2.312-2.01.485zm-3.352.81L4.337 4.665l2.01-.485 1.45 2.312-2.012.485zm-3.35.81L.988 5.475l2.01-.485 1.448 2.312-2.01.485zM1 9.037v8h15v-8H1zm6.904 6.13v-4.25l3.232 2.17-3.232 2.08z" class="si-glyph-fill"/></g></svg>