<svg viewBox="0 0 17 16" xmlns="http://www.w3.org/2000/svg" class="si-glyph si-glyph-ping-pong-racket"><title>783</title><g fill="#434343" fill-rule="evenodd"><path d="M13.297 10.802c-.45-.452-.447-.9-.372-1.144.2-.67.474-1.415.632-2.234L8.53 12.45c.793-.16 1.517-.427 2.168-.62.25-.074.723-.053 1.197.42.473.476 2.906 3.643 2.906 3.643l2.165-2.163s-3.216-2.476-3.668-2.928zM13.318 6.166c-.01-1.285-.493-2.733-2.094-4.336a5.938 5.938 0 0 0-8.396 8.396c1.484 1.483 2.832 1.993 4.047 2.062l6.443-6.122zm-6.847 2.9a1.537 1.537 0 0 1-1.525-1.55c0-.853.684-1.546 1.526-1.546.845 0 1.53.693 1.53 1.547 0 .857-.686 1.55-1.53 1.55z" class="si-glyph-fill"/></g></svg>