<svg viewBox="0 0 16 16" xmlns="http://www.w3.org/2000/svg" class="si-glyph si-glyph-multifunction-knife"><title>Multifunction-knife</title><g class="si-glyph-fill si-glyph-fill" fill="none" fill-rule="evenodd"><path d="M11.812 9.886c.55.095.998 2.334 1.808 1.267.98-1.293 1.683-2.64 2.206-4.46.958-3.324-3.986-.657-2.273-.827 1.338-.133-.314 3.588-1.68 3.07" fill="#434343" class="si-glyph-fill"/><path d="M9.38 1.198c-.07-.136-.347-.256-.52.08-.405.786-1.002 1.47-.735 4.753L11.97 10s.073-3.674-2.59-8.802zM12.12 11.376L6.81 5.79a2.347 2.347 0 0 1-.224.013c-1.28 0-2.32-1.087-2.32-2.426 0-.078.006-.156.013-.234l-.917-.958c-.566-.592-1.436-.53-1.828-.093L.137 3.532c-.37.372-.263 1.487.136 1.885l8.757 9.19c.566.594 1.567.51 2.235-.19l.67-.704c.67-.697.752-1.745.185-2.337zm-1.75 2.322a.77.77 0 0 1-.76-.78c0-.43.34-.78.76-.78.425 0 .765.35.765.78 0 .432-.34.78-.764.78z" fill="#434343" class="si-glyph-fill"/><path d="M9.126 13.52h-1.67c-1.205 0-1-1-1.998-1-1 0-1.17 2-2 2-.832 0-1.045-2-2-2-.957 0-1 1-1 1" stroke="#434343" class="si-glyph-fill si-glyph-stroke si-glyph-stroke-fill si-glyph-thick si-glyph-thick-stroke"/></g></svg>