<svg viewBox="0 0 17 16" xmlns="http://www.w3.org/2000/svg" class="si-glyph si-glyph-clover"><title>1106</title><g fill="#434343" fill-rule="evenodd"><path d="M12.538 7.99H9.035V4.46c0-1.896 1.62-3.46 3.515-3.46a3.432 3.432 0 0 1 3.43 3.434c0 1.897-1.55 3.553-3.442 3.553zM7.948 8.014h-3.52C2.535 8.014 1 6.334 1 4.434A3.434 3.434 0 0 1 4.43 1c1.895 0 3.52 1.538 3.52 3.435v3.58zM8.02 12.557c0 1.897-1.743 3.436-3.61 3.436-1.87 0-3.384-1.538-3.384-3.436s1.49-3.552 3.358-3.552c.956 0 3.636.025 3.636.025v3.527zM12.547 15.993c-1.887 0-3.513-1.548-3.513-3.446 0-.943.02-3.545.02-3.545h3.493c1.886 0 3.416 1.657 3.416 3.555 0 1.897-1.53 3.436-3.416 3.436z" class="si-glyph-fill"/></g></svg>