<svg viewBox="0 0 16 16" xmlns="http://www.w3.org/2000/svg" class="si-glyph si-glyph-person-people"><title>786</title><g fill="#434343" fill-rule="evenodd"><path d="M10.247 11.46c-.646 1.026-1.39-1.53-2.2-1.53-.834 0-1.612 2.51-2.287 1.46-.58-.907-1.082-1.882-1.48-2.385C.176 9.005.09 14.97.09 14.97h15.994s.282-5.99-4.335-5.99c-.41.523-.915 1.55-1.503 2.48z" class="si-glyph-fill"/><path d="M7.99 9C6.492 9 5.015 4.83 5.015 3.117 5.016 1.4 6.493.01 7.99.01c1.495 0 2.97 1.39 2.97 3.108 0 1.714-1.475 5.88-2.97 5.88z" class="si-glyph-fill"/></g></svg>