<svg viewBox="0 0 16 16" xmlns="http://www.w3.org/2000/svg" class="si-glyph si-glyph-folder-contact"><title>Folder-contact</title><g fill="#434343" fill-rule="evenodd"><path d="M7 8v1.957h2.014V8H7zM10 7h1v3h-1z" class="si-glyph-fill"/><path d="M7.35 4L5.788 2.042H2.02v1.02H.024v9.914h1.02l.002 1h14.902L15.967 4H7.35zm3.643 6l-.018 1L7 11.067v-.99l-1-.02V7.97h1v-.98l3-.01V6H6v1h-.984v3.964h1v1.007h3.957V13H6v-1l-1 .058v-1.02H3.953V7.033H4.96v-1.01H6V5h3.958v1.01H11v.982h.953V10h-.96z" class="si-glyph-fill"/><path d="M12.958 2.98h-4.27l-.667-.96h4.938v.96z" class="si-glyph-fill"/></g></svg>