<svg viewBox="0 0 16 16" xmlns="http://www.w3.org/2000/svg" class="si-glyph si-glyph-forklift"><title>80</title><g transform="translate(0 2)" fill="#434343" fill-rule="evenodd"><circle cx="7.953" cy="8.953" r="1.953" class="si-glyph-fill"/><circle cx="13.477" cy="9.477" r="1.477" class="si-glyph-fill"/><path d="M13.477 6.925c1.23 0 2.252.882 2.475 2.044h.002L16 1.944C16.004.928 15.09.028 14.06.025L9.656.016C8.626.013 8.142.735 7.78 1.852L6.673 4.476c0 .144-.72.25-.913.39-.45.318-.742.78-.744 1.447l.002 1.658.168-.003a2.992 2.992 0 0 1 2.816-1.993 3 3 0 0 1 3 2.995v.01H11a2.523 2.523 0 0 1 2.477-2.055zm-1.49-5.09c.007-.932.146-.856.98-.854l1.042.003c.716.002.974.09.972.86l-.01 2.136-2.99-.01.006-2.136zM10.95 4l-2.99-.006.654-2.08S8.887 1 9.716 1c.616 0 1.245.004 1.245.004L10.95 4zM3.033 2.375L3.015 9.03.3 9.033c-.366 0-.37.964-.002.965h3.05c.368 0 .603-.297.605-.666l.02-6.953c0-.367-.94-.37-.94-.002z" class="si-glyph-fill"/></g></svg>