<svg viewBox="0 0 17 16" xmlns="http://www.w3.org/2000/svg" class="si-glyph si-glyph-clipboard-checked"><title>968</title><g fill="#434343" fill-rule="evenodd"><path d="M12.002 1.016v.937h3.014v13.09H3.97V1.952h2.983v-.906H3V16h13V1.016h-3.998z" class="si-glyph-fill"/><path d="M10.95 1.5c0-.828-.652-1.5-1.46-1.5-.807 0-1.46.672-1.46 1.5 0 .176.036.343.09.5h-.056v1h2.873V2h-.076c.055-.157.09-.324.09-.5zm-1.98.516V.96h1.046v1.056H8.97zM12.03 4.016H6.97V3H5.03v11h8.95V3h-1.95v1.016zm-4.577 4.11l.762-.76L9.63 8.778l2.087-2.09.81.81-2.85 2.852-2.224-2.225z" class="si-glyph-fill"/></g></svg>