<svg viewBox="0 0 17 16" xmlns="http://www.w3.org/2000/svg" class="si-glyph si-glyph-arrow-shuffle"><title>757</title><g fill="#434343" fill-rule="evenodd"><path d="M12.12 5.958h1.935v.854a.55.55 0 0 0 .778 0l1.965-1.352a.552.552 0 0 0 0-.778l-1.965-1.495a.548.548 0 0 0-.778 0v.85H12.09c-.195-.01-1.936-.033-3.238 1.22-.857.825-1.292 1.663-1.292 3.104 0 .874-.226 1.535-.67 1.965-.696.675-1.77.742-1.817.74h-3.99v1.9h4.063c.45 0 1.955-.09 3.113-1.193.86-.82 1.296-1.968 1.296-3.41 0-.874.226-1.227.672-1.663.702-.687 1.86-.738 1.893-.742zM16.84 11.687l-2.027-1.52a.55.55 0 0 0-.778 0v.914H11.88s-.652.01-1.28-.28l-.908 1.652c.964.445 1.906.48 2.163.48h2.18v.9a.55.55 0 0 0 .778 0l2.027-1.37a.55.55 0 0 0 0-.775zM6.555 6.33l1.052-1.62c-1.188-.665-2.445-.632-2.54-.63H1v1.89h4.11c.013.004.78-.015 1.445.36z" class="si-glyph-fill"/></g></svg>