<svg viewBox="0 0 17 17" xmlns="http://www.w3.org/2000/svg" class="si-glyph si-glyph-wheel-chair"><title>823</title><g transform="translate(2 1)" fill="#434343" fill-rule="evenodd"><ellipse cx="6.49" cy="1.471" rx="1.49" ry="1.471" class="si-glyph-fill"/><path d="M12.6 14.95a.98.98 0 0 1-.82-.44l-1.27-2.512H5.992a.993.993 0 0 1-.987-1V5.065a.99.99 0 0 1 .987-.998c.543 0 .986.445.986.998V10h4.055c.33 0 .636.166.817.443l1.084 2.225.654-.268a.98.98 0 0 1 1.323.45 1.004 1.004 0 0 1-.444 1.337l-1.432.66a.957.957 0 0 1-.438.104z" class="si-glyph-fill"/><path d="M5.38 15.974c-2.935 0-5.323-2.384-5.323-5.313 0-1.725.845-3.35 2.26-4.345.3-.213.72-.14.93.162.214.3.142.717-.16.93a3.983 3.983 0 0 0-1.692 3.254 3.986 3.986 0 0 0 3.987 3.978c1.1 0 2.123-.437 2.885-1.23a.668.668 0 0 1 .964.925 5.292 5.292 0 0 1-3.85 1.64z" class="si-glyph-fill"/></g></svg>