<svg viewBox="0 0 17 16" xmlns="http://www.w3.org/2000/svg" class="si-glyph si-glyph-coconut"><title>1007</title><path d="M11.574 6.456c1.594-.3 3.322.218 3.322.218-.576-1.486-2.635-1.486-2.635-1.486-.124-1.008 2.636-2.52 2.636-2.52-2.143-.745-4.035.917-4.035.917C10.53 2.26 12.508 0 12.508 0 9.624.195 8.884 3.294 8.884 3.294c-1.32-1.27-4.86-1.16-4.86-1.16 1.482.134 2.8 2.506 2.8 2.506-3.54 1.23-2.718 3.838-2.718 3.838.857-.66 1.52-1.026 2.026-1.223.428-.033 1.34-.117 1.206 1.04-.85 5.29 1.12 7.705 1.12 7.705h3.54c-2.46-2.446-2.722-5.562-2.805-7.315-.02.002-.005-1.907 2.38-2.23z" fill="#434343" class="si-glyph-fill" fill-rule="evenodd"/></svg>