<svg viewBox="0 0 16 16" xmlns="http://www.w3.org/2000/svg" class="si-glyph si-glyph-weight-kilograms"><title>Weight-kilograms</title><g fill="#434343" fill-rule="evenodd"><path class="si-glyph-fill" d="M9 9h.905v.92H9z"/><path d="M12.017 4.424c0-.732-.597-1.407-1.335-1.407h-.77A2.493 2.493 0 0 0 7.486 0 2.492 2.492 0 0 0 5.06 3.017h-.745c-.735 0-1.332.675-1.332 1.407l-1.975 9.25A1.33 1.33 0 0 0 2.344 15h10.313a1.33 1.33 0 0 0 1.333-1.326l-1.973-9.25zM6 2.508C6 1.676 6.673 1 7.5 1 8.326 1 9 1.676 9 2.508A1.5 1.5 0 0 1 8.912 3H6.09A1.473 1.473 0 0 1 6 2.508zm1.047 6.497H6.045v.948h1.002v1.067H5.982v-1.005h-.94v1.005h-1.08V5.91h1.08v3.032h.94V7.937h1.065v1.068zm4 4.018h-1v1.023H8.985v-1.008l.064-.063.89-.017.013-1.937H7.986l-.008-3.068 3.07.013v5.058z" class="si-glyph-fill"/></g></svg>