<svg viewBox="0 0 17 16" xmlns="http://www.w3.org/2000/svg" class="si-glyph si-glyph-arrow-two-way-right-bottom"><title>1103</title><path d="M16.807 2.894L14.05.134a.666.666 0 0 0-.945.006l-.01 1.963H4.383c-.738 0-1.336.6-1.336 1.335v8.622l-1.912.012c-.26.26-.256.68.006.943L3.93 15.8a.663.663 0 0 0 .943.007l2.76-2.758c.26-.26.257-.757-.006-1.02l-1.666.013V5.94c0-.737.272-.982 1.01-.982h6.113l-.01 1.67c.26.26.682.258.943-.004l2.79-2.787a.667.667 0 0 0 .004-.943z" fill="#434343" class="si-glyph-fill" fill-rule="evenodd"/></svg>