<svg viewBox="0 0 17 16" xmlns="http://www.w3.org/2000/svg" class="si-glyph si-glyph-microphone-1"><title>728</title><g fill="#434343" fill-rule="evenodd"><path d="M16.608 13.715L11.04 7.3C10.554 8.5 9.52 9.474 8.337 10.02l6.416 5.525a1.323 1.323 0 0 0 1.856 0 1.28 1.28 0 0 0 0-1.832zM8.736 1.49c-.42 1.39-1.244 2.744-2.39 3.89-1.14 1.14-2.51 1.96-3.89 2.38a4.455 4.455 0 0 0 3.012 1.178c2.47 0 4.47-1.986 4.47-4.438 0-1.166-.462-2.218-1.202-3.01z" class="si-glyph-fill"/><path d="M7.877.77A4.46 4.46 0 0 0 5.47.063C3 .062 1 2.048 1 4.5a4.4 4.4 0 0 0 .733 2.428c1.364-.314 2.76-1.106 3.907-2.255C6.79 3.523 7.56 2.15 7.877.77z" class="si-glyph-fill"/></g></svg>