<svg viewBox="0 0 17 16" xmlns="http://www.w3.org/2000/svg" class="si-glyph si-glyph-hanger"><title>908</title><path d="M16.542 11.375s-6.7-4.422-6.963-4.53V5.96c.826-.233 1.38-1.005 1.38-1.915 0-1.098-.886-1.99-1.972-1.99-1.086 0-1.97.893-1.97 1.99 0 .293.238.53.532.53.293 0 .426-.343.426-.636 0-.513.545-.982 1.044-.982.5 0 1.02.575 1.02 1.087 0 .51-.553.928-1.053.928-.294 0-.473.237-.473.53v1.32c-.198.074-6.995 4.552-6.995 4.552-.504.513-1.19 2.582 1.205 2.582h12.58c2.195 0 1.718-2.094 1.237-2.582zm-.985 1.646h-13.1c-.672 0-.653-.755-.348-1.085L8.457 7.92c.343-.183.774-.207 1.113-.005l6.37 4.02c.308.33.232 1.086-.383 1.086z" fill="#434343" class="si-glyph-fill" fill-rule="evenodd"/></svg>