<svg viewBox="0 0 16 16" xmlns="http://www.w3.org/2000/svg" class="si-glyph si-glyph-congratulation-hat"><title>congratulation-hat</title><g fill="#434343" fill-rule="evenodd"><path d="M8 13.1l-3.875-2.46v3.154s0 .548.355.633c1.114.264 2.28.516 3.52.516 1.27 0 2.485-.19 3.604-.543.27-.058.27-.55.27-.55v-3.21L8 13.1zM1.246 8.066h-.48C.356 9.63.052 14.603.052 14.912c0 .028.007.057.013.084h1.883a.395.395 0 0 0 .01-.084c0-.308-.304-5.28-.712-6.846z" class="si-glyph-fill"/><path d="M8 1.062l-8 4.98 1.33 1 5.555-1.258c.092-.53.528-.94 1.084-.94a1.125 1.125 0 0 1 0 2.25 1.07 1.07 0 0 1-.784-.353L2.374 7.83 8 11.702l8-5.66-8-4.98z" class="si-glyph-fill"/></g></svg>