<svg viewBox="0 0 16 16" xmlns="http://www.w3.org/2000/svg" class="si-glyph si-glyph-paper-clip"><title>Paper-clip</title><path d="M6.346 16C5.01 16 4 14.907 4 13.725V3.998C4 1.634 5.254 0 7.698 0h.67C11.045 0 12 1.56 12 3.998v7.007h-.954V3.998C11.046 2.414 10.41 1 8.366 1h-.684C5.872 1 5 2.318 5 3.998v9.727C5 14.463 5.448 15 6.345 15h1.338c.852 0 1.38-.49 1.38-1.275v-7.97c0-.53-.082-.715-1.12-.764-1.06.053-.943.272-.943.766v4.254H6V5.756c0-1.12.635-1.696 1.943-1.758C9.25 4.058 10 4.616 10 5.756v7.97C10 14.945 8.966 16 7.682 16H6.346z" fill="#434343" class="si-glyph-fill" fill-rule="evenodd"/></svg>