<svg viewBox="0 0 17 16" xmlns="http://www.w3.org/2000/svg" class="si-glyph si-glyph-weight-up"><title>674</title><path d="M12.867 3.04h-.923A2.31 2.31 0 0 0 12 2.53C12 1.136 10.877 0 9.495 0S6.99 1.135 6.99 2.53c0 .19.026.356.068.51h-.922C5.01 3.04 4.1 3.92 4.1 5.01l-2.017 8.975c0 1.09.79 1.972 1.917 1.972h11c1.126 0 1.917-.882 1.917-1.972L14.905 5.01c0-1.088-.912-1.97-2.038-1.97zm-5.043-.51c0-.948.75-1.722 1.67-1.722.922 0 1.67.773 1.67 1.723 0 .18-.033.347-.082.51H7.906a1.743 1.743 0 0 1-.082-.51zm2.23 7.55v2.96H8.946V10.1l-2.133-.02 2.73-3.06 2.564 3.06h-2.053z" fill="#434343" class="si-glyph-fill" fill-rule="evenodd"/></svg>