<svg viewBox="0 0 17 16" xmlns="http://www.w3.org/2000/svg" class="si-glyph si-glyph-column-increase"><title>804</title><g fill="#434343" fill-rule="evenodd"><path d="M16 14.977c0 .537-.275.974-.615.974H1.615c-.34 0-.615-.436-.615-.973 0-.54.275-.976.615-.976h13.77c.34 0 .615.438.615.977zM4.947 12.258c0 .377-.366.686-.816.686H2.91c-.45 0-.815-.31-.815-.686v-3.44c0-.378.364-.686.815-.686H4.13c.45 0 .817.308.817.686v3.44zM9.91 12.26c0 .377-.364.684-.814.684H7.872c-.45 0-.815-.307-.815-.685V7.78c0-.38.365-.686.815-.686h1.224c.45 0 .815.307.815.685v4.48zM14.938 12.232c0 .375-.367.68-.824.68h-1.236c-.456 0-.824-.305-.824-.68V5.727c0-.375.368-.68.824-.68h1.236c.457 0 .824.305.824.68v6.505zM1.734 6.92a.703.703 0 0 1-.705-.672.698.698 0 0 1 .68-.72c5.005-.176 9.77-2.104 13.075-5.292a.714.714 0 0 1 1 .012.69.69 0 0 1-.01.985C12.167 4.71 7.19 6.73 1.76 6.92h-.026z" class="si-glyph-fill"/></g></svg>