<svg viewBox="0 0 17 16" xmlns="http://www.w3.org/2000/svg" class="si-glyph si-glyph-zoom-in"><title>864</title><g fill="#434343" fill-rule="evenodd"><path d="M17 6.01C17 2.725 14.33.063 11.035.063 7.74.063 5.07 2.725 5.07 6.01c0 3.284 2.67 5.948 5.965 5.948S17 9.294 17 6.01zM5.89 6c0-2.807 2.288-5.08 5.115-5.08C13.83.92 16.12 3.194 16.12 6c0 2.806-2.29 5.078-5.115 5.078C8.178 11.078 5.89 8.806 5.89 6zM2.91 15.938l-1.824-1.823 4.148-4.148s.088.773.57 1.256c.484.484 1.253.566 1.253.566L2.91 15.937z" class="si-glyph-fill"/><path d="M13.938 5.996c0 .523-.326.948-.73.948H8.772c-.4 0-.728-.425-.728-.948 0-.525.326-.95.73-.95h4.437c.402 0 .728.425.728.95z" class="si-glyph-fill"/></g></svg>