<svg viewBox="0 0 16 16" xmlns="http://www.w3.org/2000/svg" class="si-glyph si-glyph-star-stick"><title>746</title><g fill="#434343" fill-rule="evenodd"><path d="M14.775 1.206L13.73 4.29l1.946 2.606-3.254-.04-1.88 2.655-.965-3.106L6.47 5.44l2.657-1.88-.04-3.255L11.69 2.25l3.083-1.044z" class="si-glyph-fill"/><path d="M1.852 15.533c-.39.39-.922.492-1.188.226l-.406-.406c-.266-.266-.164-.797.227-1.188L10.788 3.863c.39-.39.922-.492 1.188-.227l.406.406c.266.266.165.797-.227 1.188L1.852 15.533zM13.51 13.95s.163-1.06-.61-1.824c-.772-.762-1.87-.626-1.87-.626s1.267.02 1.896-.603c.63-.623.586-1.847.586-1.847s.133 1.35.634 1.847c.505.496 1.847.603 1.847.603s-1.26.102-1.82.652c-.56.553-.662 1.797-.662 1.797zM8.51 15.95s.163-1.06-.61-1.824c-.772-.762-1.87-.626-1.87-.626s1.267.02 1.896-.603c.63-.623.586-1.847.586-1.847s.133 1.35.634 1.847c.505.496 1.847.603 1.847.603s-1.26.102-1.82.652c-.56.553-.662 1.797-.662 1.797zM3.51 4.95s.163-1.06-.61-1.824C2.13 2.364 1.03 2.5 1.03 2.5s1.267.02 1.896-.603c.63-.623.586-1.847.586-1.847s.133 1.35.634 1.847c.505.496 1.847.603 1.847.603s-1.26.102-1.82.652c-.56.553-.662 1.797-.662 1.797z" class="si-glyph-fill"/></g></svg>