<svg viewBox="0 0 16 16" xmlns="http://www.w3.org/2000/svg" class="si-glyph si-glyph-wifi-1"><title>Wifi-1</title><g transform="translate(0 2)" fill="#434343" fill-rule="evenodd"><circle cx="7.989" cy="5.989" r="1.989" class="si-glyph-fill"/><path d="M3.574 11.996C1.35 10.69.028 8.486.028 6.06c0-2.47 1.42-4.768 3.72-6.038l.43.73C2.167 1.876.93 3.894.93 6.062c0 2.127 1.15 4.062 3.09 5.214l-.446.72zM11.668 11.28c2.095-1.08 3.387-3.093 3.387-5.3 0-2.16-1.254-4.154-3.284-5.248l.437-.695c2.308 1.236 3.734 3.498 3.734 5.944 0 2.5-1.47 4.785-3.853 6.006l-.42-.707z" class="si-glyph-fill"/><path d="M5.342 9.975c-1.434-.86-2.315-2.363-2.315-3.965 0-1.627.898-3.14 2.36-3.994l.434.76c-1.175.7-1.897 1.924-1.897 3.234 0 1.296.713 2.514 1.872 3.218l-.453.747zM10.004 9.244c1.277-.675 2.062-1.91 2.062-3.27 0-1.302-.734-2.51-1.93-3.2l.447-.728c1.465.84 2.366 2.327 2.366 3.928 0 1.664-.96 3.184-2.516 4.01l-.43-.74z" class="si-glyph-fill"/></g></svg>