<svg viewBox="0 0 17 16" xmlns="http://www.w3.org/2000/svg" class="si-glyph si-glyph-align-left"><title>1131</title><g fill="#434343" fill-rule="evenodd"><path d="M1.043 1.938c0 .518.42.938.938.938h14.083a.938.938 0 0 0 0-1.876H1.983a.938.938 0 0 0-.94.938zM1.043 13.938c0 .518.42.938.938.938h14.083a.938.938 0 0 0 0-1.876H1.983a.938.938 0 0 0-.94.938zM1.043 7.938c0 .518.42.938.938.938h10.083a.938.938 0 0 0 0-1.876H1.983a.938.938 0 0 0-.94.938zM1.043 10.938c0 .518.42.938.938.938h8.083a.938.938 0 0 0 0-1.876h-8.08a.938.938 0 0 0-.94.938zM1.043 4.938c0 .518.42.938.938.938h6.083a.938.938 0 0 0 0-1.876h-6.08a.938.938 0 0 0-.94.938z" class="si-glyph-fill"/></g></svg>