<svg viewBox="0 0 17 17" xmlns="http://www.w3.org/2000/svg" class="si-glyph si-glyph-delete"><title>1227</title><path d="M12.566 8l3.045-3.044c.42-.42.42-1.103 0-1.522L12.567.39a1.078 1.078 0 0 0-1.523 0L8 3.432 4.954.39a1.078 1.078 0 0 0-1.523 0L.388 3.433a1.074 1.074 0 0 0 0 1.522L3.43 8 .388 11.044c-.42.42-.42 1.103 0 1.523l3.045 3.044c.42.422 1.102.422 1.523 0L8 12.568l3.043 3.044c.42.422 1.103.422 1.523 0l3.045-3.043c.42-.42.42-1.103 0-1.523L12.567 8z" fill="#434343" class="si-glyph-fill" fill-rule="evenodd"/></svg>