<svg viewBox="0 0 17 16" xmlns="http://www.w3.org/2000/svg" class="si-glyph si-glyph-window"><title>921</title><g fill="#434343" fill-rule="evenodd"><path d="M8.885 7.826L9.78 1.59a8.133 8.133 0 0 1-.837-.44C6.855-.13 4.673-.084 3.053.258l-.985 6.566c1.524-.345 4.208-.586 6.817 1.003zM16.177 7.688l.763-6.14c-1.033.47-3.404 1.292-5.962.405l-.887 6.183c2.475 1.334 4.94.237 6.087-.448zM8.674 9.2C6.11 7.612 3.357 7.955 1.972 8.285l-.907 5.735c1.16-.483 4.05-.752 6.935.488l.718-5.284-.044-.025zM15.238 15.737L16.04 9.3c-.853.433-2.108.903-3.526.903-.812 0-1.68-.16-2.553-.57l-.7 5.208c.066.04.135.067.204.108 2.12 1.257 4.257 1.15 5.774.79z" class="si-glyph-fill"/></g></svg>