<svg viewBox="0 0 17 16" xmlns="http://www.w3.org/2000/svg" class="si-glyph si-glyph-button-plus"><title>971</title><g fill="#434343" fill-rule="evenodd"><path d="M9.02.114c-4.393 0-7.968 3.554-7.968 7.922s3.575 7.922 7.97 7.922c4.394 0 7.968-3.554 7.968-7.922S13.415.114 9.02.114zM9.014 14.07c-3.33 0-6.04-2.724-6.04-6.07 0-3.348 2.71-6.072 6.04-6.072s6.04 2.725 6.04 6.07c0 3.35-2.71 6.072-6.04 6.072z" class="si-glyph-fill"/><path d="M8.996 11.97c-.654 0-.96-.438-.96-.732V8.983H5.814c-.265 0-.782-.298-.782-.986 0-.654.44-.96.733-.96h2.27V4.802c0-.263.3-.78.987-.78.654 0 .96.437.96.73v2.286h2.235c.265 0 .783.3.783.987 0 .653-.438.958-.732.958H9.98v2.207c.002.263-.295.782-.984.782z" class="si-glyph-fill"/></g></svg>