<svg viewBox="0 0 17 17" xmlns="http://www.w3.org/2000/svg" class="si-glyph si-glyph-share-2"><title>40</title><path d="M14.025 5c-1.08.008-1.95.912-1.94 2.016.003.53.212 1.007.544 1.362l-1.036 2.716a1.875 1.875 0 0 0-.562-.094c-.143 0-.28.018-.416.047l-3.28-4.594c.405-.36.665-.885.665-1.475a1.97 1.97 0 0 0-1.958-1.98 1.97 1.97 0 0 0-1.957 1.98c0 .448.152.857.4 1.19l-1.664 3A1.946 1.946 0 0 0 2.033 9c-1.088 0-1.97.897-1.97 2 0 1.105.882 2 1.97 2 1.086 0 1.97-.895 1.97-2a2 2 0 0 0-.405-1.2l1.668-3.005a1.942 1.942 0 0 0 1.183.12L9.73 11.51A2.004 2.004 0 0 0 9.064 13c0 1.103.88 2 1.97 2C12.117 15 13 14.102 13 13c0-.54-.212-1.026-.552-1.386l1.03-2.71c.187.058.378.097.58.095 1.08-.01 1.95-.913 1.942-2.017C15.99 5.88 15.107 4.99 14.025 5z" fill="#434343" class="si-glyph-fill" fill-rule="evenodd"/></svg>