<svg viewBox="0 0 16 16" xmlns="http://www.w3.org/2000/svg" class="si-glyph si-glyph-person-public"><title>601</title><g fill="#434343" fill-rule="evenodd"><path d="M9.855 10.053c-.423.57-1.834.72-1.834.72s-1.44-.143-1.864-.707c-2.035 0-3.098 2.923-3.098 2.923h9.926c0-.002-.838-2.937-3.13-2.937zM9.943 5.918C9.943 6.978 9.063 9 7.978 9 6.89 9 6.01 6.977 6.01 5.918 6.01 4.858 6.89 4 7.98 4c1.084 0 1.965.86 1.965 1.918zM14.104 8.02c-.37.576-1.527.882-1.527.882s-1.355-.3-1.73-.867c0 0-.01.664-.576 1.436 1.8-.23 2.58 1.504 2.58 1.504l3.13.006s.14-2.96-1.876-2.96zM13.99 4.533c0 .848-.662 2.465-1.48 2.465-.82 0-1.48-1.617-1.48-2.465 0-.846.663-1.533 1.48-1.533.818 0 1.48.688 1.48 1.533zM1.918 8.02c.378.572 1.55.876 1.55.876s1.372-.3 1.747-.86c0 0 .014.66.586 1.425-1.823-.23-2.61 1.493-2.61 1.493l-3.17.005S-.12 8.02 1.92 8.02zM2.002 4.566c0 .828.664 2.41 1.48 2.41.818 0 1.48-1.582 1.48-2.41 0-.83-.663-1.5-1.48-1.5A1.49 1.49 0 0 0 2 4.565z" class="si-glyph-fill"/></g></svg>