<svg viewBox="0 0 17 16" xmlns="http://www.w3.org/2000/svg" class="si-glyph si-glyph-circle-backward"><title>841</title><path d="M9.03.02C4.638.02 1.077 3.59 1.077 7.99c0 4.402 3.562 7.97 7.955 7.97 4.394 0 7.956-3.568 7.956-7.97 0-4.402-3.562-7.97-7.955-7.97zm3.47 10.326c-.793-1.45-1.416-2.126-3.232-2.126h-.236v1.6a.488.488 0 0 1-.678.034l-3.23-2.422a.552.552 0 0 1 0-.775l3.23-2.422c.215-.215.465-.25.678-.036V5.83h.256c2.616 0 3.785 1.734 3.785 4.263 0 .88-.406.558-.573.25z" fill="#434343" class="si-glyph-fill" fill-rule="evenodd"/></svg>