<svg viewBox="0 0 17 16" xmlns="http://www.w3.org/2000/svg" class="si-glyph si-glyph-rugby-ball"><title>999</title><g fill="#434343" fill-rule="evenodd"><path d="M4.516 8.938c.213 0 .414.043.6.12.285-.366.59-.737.912-1.116a1.487 1.487 0 0 1-.074-.45 1.558 1.558 0 0 1 1.882-1.52c.362-.37.743-.74 1.143-1.115a1.575 1.575 0 0 1 1.52-1.935c.198 0 .387.04.56.11 1.19-.974 2.5-1.947 3.968-2.9-1.836-.253-6.53-.464-10.37 3.44-4.01 4.083-4 9.507-3.24 11.345a32.274 32.274 0 0 1 1.933-3.4 1.536 1.536 0 0 1-.395-1.024 1.555 1.555 0 0 1 1.56-1.555z" class="si-glyph-fill"/><path d="M16.572.5c-1.56.76-3.16 1.917-4.706 3.254a1.575 1.575 0 0 1-1.366 2.34c-.316 0-.61-.098-.857-.262-.275.274-.543.55-.81.83.153.24.245.524.245.83 0 .858-.7 1.555-1.562 1.555a1.54 1.54 0 0 1-.69-.166c-.296.35-.585.69-.862 1.03.072.18.115.376.115.582 0 .858-.7 1.555-1.563 1.555-.072 0-.14-.012-.21-.02-1.19 1.596-2.01 2.887-2.262 3.474 1.77.79 7.33.868 11.362-3.214C17.49 8.153 17.264 2.07 16.572.5z" class="si-glyph-fill"/></g></svg>