<svg viewBox="0 0 17 16" xmlns="http://www.w3.org/2000/svg" class="si-glyph si-glyph-site-map"><title>822</title><g fill="#434343" fill-rule="evenodd"><path d="M7.666 3.98h2.667A.662.662 0 0 0 11 3.323V.698c0-.362-.3-.656-.667-.656H7.666A.66.66 0 0 0 7 .698v2.626c0 .36.298.655.666.655zM4.333 11.082H1.666a.657.657 0 0 0-.666.646v2.584c0 .355.298.646.666.646h2.667c.368 0 .667-.29.667-.646v-2.584c0-.356-.3-.646-.667-.646zM10.333 11.082H7.666a.657.657 0 0 0-.666.646v2.584c0 .355.298.646.666.646h2.667c.368 0 .667-.29.667-.646v-2.584c0-.356-.3-.646-.667-.646zM16.333 11.082h-2.667a.657.657 0 0 0-.666.646v2.584c0 .355.298.646.666.646h2.667c.368 0 .667-.29.667-.646v-2.584c0-.356-.3-.646-.667-.646zM3.953 8.958H8.03v.98h1.94v-.98h4.072v.98h1.937V7.03H9.97V5.017H8.03V7.03H2.043V9.94h1.91v-.98z" class="si-glyph-fill"/></g></svg>