<svg viewBox="0 0 16 16" xmlns="http://www.w3.org/2000/svg" class="si-glyph si-glyph-bandage"><title>Bandage</title><g fill="#555" fill-rule="evenodd"><path d="M.927 10.543C-.238 11.71-.25 13.59.902 14.743l.354.353c1.15 1.15 3.03 1.14 4.195-.027l1.537-1.535-4.525-4.523-1.535 1.53zM15.13 1.222l-.355-.354c-1.152-1.15-3.033-1.138-4.205.03L9.008 2.464l4.527 4.525 1.562-1.563c1.17-1.17 1.182-3.052.032-4.203zM3.47 7.97L8 12.47l4.562-4.44-4.588-4.645L3.47 7.97zm4.556-1.944H6.98V4.98h1.046v1.046zm2 2.016H8.98V6.98h1.046v1.062zm-.015 2H8.98V8.98h1.03v1.062zm-2-2H6.98V6.98h1.03v1.062zm-2 0H4.98V6.98h1.03v1.062zm2.016 2H6.98V8.98h1.046v1.062z" class="si-glyph-fill"/></g></svg>