<svg viewBox="0 0 16 16" xmlns="http://www.w3.org/2000/svg" class="si-glyph si-glyph-person-checked"><title>178</title><g fill="#434343" fill-rule="evenodd"><path d="M10.926 4.12c0 1.68-1.31 4.892-2.922 4.892-1.613 0-2.923-3.21-2.923-4.89 0-1.68 1.31-3.04 2.924-3.04 1.613 0 2.922 1.36 2.922 3.04zM9.033 12.796l2.393-2.42 1.28 1.334 1.642-1.662c-.63-.65-1.405-.998-2.67-.998-.853 1.156-3.688 1.453-3.688 1.453s-2.9-.285-3.753-1.427c-4.093 0-4.217 5.91-4.217 5.91h11.1l-2.087-2.19z" class="si-glyph-fill"/><path d="M15.094 10.8l-2.38 2.382-1.417-1.417-.925.924 2.342 2.34 3.306-3.304-.926-.925z" class="si-glyph-fill"/></g></svg>