<svg viewBox="0 0 16 16" xmlns="http://www.w3.org/2000/svg" class="si-glyph si-glyph-book-@"><title>Book-@</title><g fill="#434343" fill-rule="evenodd"><path class="si-glyph-fill" d="M0 0h2v16H0zM11 6v3h.885L12 6h-1z"/><path d="M3 0v16h10.82c.65 0 1.18-.453 1.18-1.01V1.01C15 .452 14.472 0 13.82 0H3zm10.05 9.053h-.97l-.018 1.01H7.906l.018-1.02h-.967V6.99h.958V5.948l3.042-.01V5.05h-3.93v.998h-.998v3.91h1.01v1.017h4.007v1.04H6.96v-.952H5.96v-1.03H4.953V5.99h1.02V4.974h.965V3.938h4.094v1.02h.98v.99h1.04v3.105z" class="si-glyph-fill"/><path class="si-glyph-fill" d="M8 7h2v2H8z"/></g></svg>