<svg viewBox="0 0 16 16" xmlns="http://www.w3.org/2000/svg" class="si-glyph si-glyph-cruise"><title>649</title><g fill="#434343" fill-rule="evenodd"><path d="M4.143 12.728c.07.064.234.175.36.168.08-.002.173-.058.265-.164.3-.35.635-.538.992-.558.54-.03.95.342 1.146.52.27.243.385.264.422.26.047-.005.426-.42.625-.546v-6.35l-2.974.655V3.558c0-.343.288-.62.642-.62H8.02v3.14c.263-.058.694-.058.96 0v-3.14h2.406a.63.63 0 0 1 .642.62l.015 3.182-3-.68v6.166c.077-.02.16-.033.25-.035.267 0 .668.075 1.057.496.13.138.268.215.34.214.09-.005.273-.208.287-.222.047-.047.475-.46 1.053-.447.244.008.604.092.928.465.14.16.27.254.367.26.158.012.393-.204.492-.295.225-.202.517-.42.875-.472 0 0 .57-2.447.137-3.53-.23-.577-.286-1.08-1.51-1.502-.11-.038-.226-.065-.338-.103V3.388c0-.755-.636-1.368-1.42-1.368H9.98v-2h-.978v2H7.98V.042h-.978V2.02H5.455c-.783 0-1.42.613-1.42 1.368v3.668c-.11.035-.222.062-.33.1-1.215.423-1.236.96-1.504 1.52-.513 1.075.286 3.79.286 3.79.3-.21.574-.25.772-.237.486.032.79.375.885.498zM15.918 14.747c-.268-.44-.58-.683-.927-.72a.92.92 0 0 0-.252.014c-.367.065-.667.345-.898.6-.102.114-.34.39-.504.375-.096-.007-.234-.128-.375-.33-.332-.473-.7-.58-.95-.59-.594-.015-1.03.508-1.078.57a.35.35 0 0 0-.04.06c-.044.074-.162.213-.257.22-.073.002-.213-.098-.344-.273-.4-.532-.81-.63-1.08-.626a1.14 1.14 0 0 0-.26.043c-.174.05-.32.137-.444.232-.206.16-.33.336-.355.37-.017.024-.03.052-.044.08-.11.17-.197.237-.243.242-.044.006-.16-.02-.437-.328-.204-.226-.625-.7-1.186-.663-.366.027-.71.265-1.023.708-.096.137-.19.208-.27.212-.133.006-.3-.134-.373-.215-.097-.156-.413-.59-.913-.632-.204-.02-.488.03-.795.3-.097.084-.2.19-.3.325-.094.125-.243.268-.373.27-.16 0-.33-.188-.375-.255-.15-.216-.426-.26-.62-.096a.535.535 0 0 0-.09.688c.042.066.442.63 1.06.648.273.008.683-.096 1.08-.627.01-.013.018-.02.025-.032.125-.155.248-.246.322-.242.092.006.212.146.25.213a.365.365 0 0 0 .046.067c.048.06.484.602 1.078.568.25-.007.616-.117.948-.59.145-.2.28-.322.38-.328.16-.005.398.258.503.373.26.292.612.617 1.052.617.03 0 .064 0 .096-.004.2-.02.385-.117.56-.27.13-.117.253-.262.366-.45.007-.01.01-.02.016-.028.017-.02.037-.042.06-.063.075-.072.183-.15.286-.152h.003c.137 0 .275.148.37.272.418.556.82.646 1.095.624.5-.04.816-.475.914-.633.054-.06.23-.232.368-.213.085 0 .176.073.273.21.313.442.66.682 1.024.706.258.02.49-.077.684-.207.22-.146.395-.334.504-.454.275-.31.396-.336.434-.328.052.005.15.083.275.287.138.227.415.287.618.135.2-.15.257-.456.12-.683z" class="si-glyph-fill"/></g></svg>