<svg viewBox="0 0 17 16" xmlns="http://www.w3.org/2000/svg" class="si-glyph si-glyph-gear"><title>759</title><path d="M15.97 8.97V7.01H13.9a5.943 5.943 0 0 0-1.02-2.464l1.463-1.463L12.93 1.67 11.465 3.13A5.954 5.954 0 0 0 9 2.112V.04H7v2.07a5.94 5.94 0 0 0-2.464 1.02L3.073 1.67 1.688 3.052l1.46 1.46A5.95 5.95 0 0 0 2.1 7.01H.033v1.96h2.063a5.943 5.943 0 0 0 1.026 2.506L1.66 12.94l1.414 1.413 1.463-1.463c.72.513 1.557.867 2.465 1.02v2.07h2v-2.07a5.955 5.955 0 0 0 2.5-1.045l1.457 1.458 1.385-1.384-1.463-1.464a5.95 5.95 0 0 0 1.025-2.507h2.064zM8.02 11.06a3.084 3.084 0 0 1 0-6.166 3.084 3.084 0 0 1 0 6.166z" fill="#434343" class="si-glyph-fill" fill-rule="evenodd"/></svg>