<svg viewBox="0 0 17 16" xmlns="http://www.w3.org/2000/svg" class="si-glyph si-glyph-money-$"><title>893</title><path d="M11.98 10.596c0-1.695-1.36-3.104-3.012-3.38V3.827c.504.156 1.025.195 1.235.67.19.428.67.61 1.072.41.403-.202.573-.714.384-1.143-.474-1.066-1.543-1.494-2.677-1.688V0H8v2.066c-1.664.25-2.995 1.67-2.995 3.383C5.005 7.16 6.33 8.575 8 8.83v3.41c-.536-.148-1.033-.198-1.252-.695-.188-.43-.668-.613-1.068-.412-.404.2-.576.71-.388 1.14.48 1.09 1.554 1.532 2.724 1.712V16h.938v-2.02c1.646-.273 3.025-1.686 3.025-3.384zM6.616 5.45c0-.775.598-1.425 1.413-1.634v3.27c-.815-.212-1.413-.86-1.413-1.637zm2.344 6.773V8.97c.816.224 1.41.864 1.41 1.626 0 .762-.594 1.402-1.41 1.627z" fill="#434343" class="si-glyph-fill" fill-rule="evenodd"/></svg>