<svg id="Layer_1" xmlns="http://www.w3.org/2000/svg" width="792.9" height="725.2" viewBox="0 0 792.9 725.2"><style>.color:hover{fill:red}.color{fill:#008aab}.black{fill:#111414}</style><path class="color" d="M387.7 240c0 .1 0 .1 0 0zM259.9 399.6h.1l-.1-.5z"/><path class="black" d="M534.2 478.8c7-4.7 12.9-9.3 17.7-13.9 4.8-4.6 8.7-9.3 11.8-14.2 3.1-4.9 5.3-10 6.7-15.4 1.4-5.4 2.1-11.3 2.1-17.7 0-8.5-1.6-16.3-4.7-23.4-3.1-7.1-7.7-13.3-13.6-18.5-6-5.2-13.5-9.2-22.4-12.1-9-2.9-19.2-4.3-30.6-4.3-14 0-26.8 2.9-38.4 8.6-10.3 5.1-19.5 11-27.6 17.6l20.1 30.8c5.7-5.3 12.2-10.1 19.4-14.3 7.2-4.2 14.8-6.4 22.6-6.4 10 0 17.7 2 23.1 5.9 5.4 3.9 8.1 9.6 8.1 17 0 4.7-1.2 9.1-3.5 13.2s-5.7 8.3-10 12.4c-4.4 4.1-9.6 8.4-15.8 12.9-6.2 4.5-13.1 9.2-20.7 14.3l-28.6 19.2c7.3 1.3 14.2 3.2 20.7 5.7l2.4.9c6.4 10.8 9.8 24.3 9.8 32.3 0 1.6-.1 3.1-.2 4.6H574v-37.3h-66.2l26.4-17.9z"/><path class="color" d="M500.5 407.9c2.2-3.6 5-6.9 8-10.5.2-.2.4-.4.6-.7-2.1-.4-4.3-.8-6.7-.9-1.8 2.2-3.6 4.4-5.2 6.8l-4.3-6.7c-.4 0-.9.1-1.3.2-.2 0-.4.1-.7.1-.2 0-.4.1-.6.1-.3 0-.5.1-.8.1-.2 0-.3.1-.5.1-.3.1-.6.1-.8.2-3.1.7-6.2 1.7-9.2 3.1l-.6.3c-.2.1-.5.2-.7.3-.2.1-.4.2-.5.3-.3.1-.5.3-.8.4-.1.1-.3.2-.4.2-.4.2-.8.5-1.2.7-.6.3-1.2.7-1.7 1-.1.1-.3.2-.4.3-.5.3-1 .6-1.5 1-.1 0-.1.1-.2.1-.6.4-1.2.7-1.7 1.1-.1.1-.2.1-.2.2-.5.4-1.1.7-1.6 1.1l-.1.1c-1.2.8-2.3 1.7-3.5 2.5-1.1.9-2.3 1.7-3.4 2.6-1.7 1.4-3.4 2.9-5 4.3l-1.3-2c-.6 3.3-.9 6.8-.9 10.6v.2c1.2 14 5.2 27.4 11.5 38.8-3.3-2-6.8-3.7-10.4-5.2-9.3-3.7-19.1-5.6-29.2-5.6-16.6 0-27.9 6-37.3 12.7v7.1c9.7-7.3 20.3-14.1 37.3-14.1 17.4 0 34.1 6.1 46.7 17.1l5.1-3.5c-10.7-13.3-16.6-30.6-18.1-47.8 0-1 0-2 .1-2.9l8.9 13.7h5.1c2.1 13.4 8 23.2 14.2 30.1 1.6-1.1 3.2-2.2 4.7-3.3-5.7-6.1-11.1-14.8-13.2-26.8h12.8c2.3 8.8 7.3 14.8 11.7 18.7 1.6-1.2 3.2-2.4 4.6-3.6-4.5-3.7-8.3-8.7-10.3-15h20.9l-17.9-27.6z"/><path class="color" d="M685.7 268.8c-7.3-7.5-17.3-11.7-28.1-11.7-14 0-20.8 5.7-27.4 11.3-6.1 5.1-11.9 10-23.9 10-18.8 0-33.5-14.7-33.5-33.5 0-14.2 7-23.4 14.4-33.1 8.3-10.9 17.7-23.2 17.7-44 0-11.3-2.1-21.9-6.3-31.6-3.9-9.1-9.6-17.2-16.8-23.9-7-6.5-15.1-11.6-24.2-15.1-9-3.5-18.6-5.3-28.4-5.3-20.8 0-33.1 9.4-44 17.7-9.7 7.4-18.9 14.4-33.1 14.4-18.8 0-33.5-14.7-33.5-33.5 0-12 4.9-17.8 10-23.9 5.6-6.6 11.3-13.4 11.3-27.4 0-10.8-4.1-20.8-11.7-28.1C420.8 3.9 411 0 400.6 0c-10.4 0-20.2 3.9-27.6 11.1-7.5 7.3-11.7 17.3-11.7 28.1 0 14 5.7 20.8 11.3 27.4 5.1 6.1 10 11.9 10 23.9 0 18.8-14.7 33.5-33.5 33.5-14.2 0-23.4-7-33.1-14.4-10.9-8.3-23.2-17.7-44-17.7-9.8 0-19.4 1.8-28.4 5.3-9.1 3.5-17.2 8.6-24.2 15.1-7.2 6.8-12.9 14.8-16.8 23.9-4.2 9.7-6.3 20.3-6.3 31.6s2.1 21.9 6.3 31.5c1 2.3 2.1 4.6 3.4 6.8-2.2-1.2-4.4-2.3-6.7-3.3-9.7-4.2-20.3-6.3-31.5-6.3-11.3 0-21.9 2.1-31.6 6.3-9.1 3.9-17.2 9.6-23.9 16.8-6.5 6.9-11.6 15.1-15.1 24.1-3.5 9-5.3 18.6-5.3 28.4 0 17.3 6.5 28.7 13.5 38.4l-26.9 70.2c-4.8-1.9-8.3-4.9-12-7.9-6.6-5.6-13.4-11.3-27.4-11.3-10.8 0-20.8 4.1-28.1 11.7-7.1 7.4-11 17.2-11 27.6 0 10.4 3.9 20.2 11.1 27.6 7.3 7.5 17.3 11.7 28.1 11.7 9.5 0 15.7-2.7 20.8-6.1h44l3.8-10.5c9.8 5.8 16.3 16.4 16.3 28.9 0 14.2-7 23.4-14.4 33.1-2.4 3.2-4.9 6.5-7.3 10.1H79.7v38.7h12.5c.5 8.1 2.2 16 5.1 23.6 3.5 9.1 8.6 17.2 15.1 24.2 6.8 7.2 14.8 12.9 23.9 16.8 3.7 1.6 7.5 2.9 11.5 3.9v117.4h43.9V600.1c7.9-3.5 14.2-8.3 20.1-12.8 9.7-7.4 18.9-14.4 33.1-14.4 18.8 0 33.5 14.7 33.5 33.5 0 12-4.9 17.8-10 23.9-5.6 6.6-11.3 13.4-11.3 27.4 0 10.8 4.1 20.8 11.7 28.1 7.3 7.2 17.1 11.1 27.6 11.1 10.4 0 20.2-3.9 27.6-11.1 7.5-7.3 11.7-17.3 11.7-28.1 0-14-5.7-20.8-11.3-27.4-5.1-6.1-10-11.9-10-23.9 0-17.2 12.3-31 28.8-33.2.8 2.9 1.8 5.6 3.1 8.1 3.6 7.3 8.5 13.5 14.6 18.6 6.1 5.1 13.2 9.3 21.3 12.7 8 3.4 16.5 6.5 25.4 9.2 9.5 3 17.6 5.8 24.3 8.6 6.7 2.8 12.1 5.7 16.2 8.7 4.1 3.1 7.1 6.5 9 10.2 1.9 3.7 2.9 7.9 2.9 12.5 0 7.8-3.6 14.1-10.8 18.9-7.2 4.8-17.1 7.1-29.8 7.1-12.1 0-23.8-2.5-35.2-7.5-11-4.8-21-10.6-30.2-17.4-1.2 14.3-7 27.5-16.8 37.7 10.2 7.1 21.4 12.8 33.7 17.1 14.4 5 29.8 7.5 46.3 7.5 12.7 0 24.4-1.4 35.2-4.1 10.8-2.7 20-6.9 27.8-12.4 7.7-5.5 13.8-12.5 18.2-21.1 4.4-8.6 6.7-18.8 6.7-30.6 0-11.6-2.3-21.5-6.8-29.7-4.6-8.1-10.3-15-17.3-20.5-5.6-4.4-11.8-8.2-18.4-11.4 5.5-3 10.5-6.6 15.1-10.9 7.2-6.8 12.9-14.8 16.8-23.9 3.5-8.2 5.6-17.1 6.1-26.5h-5.7c-1.8 28.9-18.4 48.7-39.2 58.3-.4.2-.9.4-1.3.6-.1 0-.2.1-.3.1-6.4-2.6-12.7-5-18.8-6.9 17.6-2.7 28.5-12.2 34.8-20.4 5.2-6.8 8.6-14.3 10.5-21.2.1-.3.2-.7.3-1v-.1c.1-.3.2-.6.2-.9v-.1c.1-.3.2-.6.2-.9v-.1c.1-.3.1-.6.2-.9.3-1.6.6-3.2.8-4.6v-.3c0-.2.1-.4.1-.6v-.4-.5c.1-.7.1-1.4.2-2.2v-.2-.8-.3-.2-1c0-7.5-3-19.7-8.5-30 0 0-.8-1.5-1.3-2.3l-2.4-.9c-3.2-1.2-6.4-2.3-9.8-3.3-.3-.1-.7-.2-1-.3-.5-.1-.9-.2-1.4-.4-.4-.1-.7-.2-1.1-.3-.5-.1-.9-.2-1.4-.3-.3-.1-.7-.2-1-.2-.5-.1-1.1-.2-1.6-.3-.3-.1-.6-.1-.9-.2-.8-.2-1.6-.3-2.4-.4-7.3-1.3-15-1.9-23.1-1.9-13.8 0-26 1.6-36.7 4.8-.2.1-.4.1-.6.2.5-.4 1.1-.9 1.6-1.3 9.3-7.5 18.2-14.6 33.9-14.6 13.3 0 23.1 4 30.2 9.1l5-3.4c-8-6.3-19.4-11.4-35.3-11.4-17.7 0-27.7 8-37.4 15.7v6.4c-9.6 3.1-17.8 7.3-24.5 12.6-.7.5-1.4 1.1-2.1 1.7-.9.7-1.7 1.5-2.5 2.3-.8.8-1.6 1.6-2.3 2.4l-.1.1-2.1 2.4-.1.1c-.7.8-1.3 1.7-1.9 2.5 0 .1-.1.1-.1.2-.6.8-1.2 1.7-1.8 2.6 0 .1-.1.1-.1.2-.2.3-.4.6-.5.9-1.1 1.8-2.1 3.6-3 5.5-.2.3-.3.7-.5 1-.1.2-.2.5-.3.7-.2.6-.5 1.1-.7 1.7h-.5c-18 .8-34.9 7.8-48.1 20.1-6.6-6.1-14.8-11.1-23.9-14.7-4.1-1.6-8.4-2.9-12.6-3.8v-6.2c13.6-2.7 26.2-9.2 36.6-18.9 13 12.1 29.6 19.1 47.3 20.1V522c-17.1-1-33.1-8.1-45.3-20.4l-2-2-2 2c-9.7 9.7-21.6 16.2-34.6 19v-12.8c9.7-2.6 18.5-7.6 25.8-14.9 4.5-4.5 8.1-9.6 10.9-15.1 2.8 5.6 6.4 10.7 10.9 15.1 9.3 9.3 23.2 15.5 36.4 16.6v-5.7c-9.7-.9-22.7-5.2-32.4-14.9-5.5-5.5-9.7-12.1-12.2-19.4l-2.7-7.7-2.7 7.7c-2.6 7.3-6.7 13.9-12.2 19.4-6.2 6.2-13.6 10.6-21.8 13v-6.6H216v-.2c-1.3-.8-2.5-1.7-3.8-2.7-8.6-6.6-18.9-19-18.9-40.3 0-13.8 5.4-26.8 15.1-36.6 2.3-2.3 4.8-4.4 7.5-6.2v-97.8h13.5c7.3-9.8 14.3-21.5 14.3-39.4 0-9.8-1.8-19.4-5.3-28.4-1.4-3.5-3-6.9-4.8-10.1 3.2 1.8 6.5 3.4 10 4.7 9 3.5 18.6 5.3 28.4 5.3 20.8 0 33.1-9.4 44-17.7 8.4-6.4 16.5-12.6 27.8-14.1v223.6h43.9v-87.7h22.9l24.6 37.7c8-6.6 17.2-12.5 27.6-17.6.4-.2.8-.4 1.1-.6.1 0 .2-.1.3-.1.3-.1.6-.3.9-.4.1 0 .2-.1.3-.1.3-.1.6-.3.9-.4.1 0 .2-.1.3-.1.3-.1.6-.3.9-.4.1 0 .2-.1.2-.1.3-.1.7-.3 1-.4.1 0 .1 0 .2-.1.4-.1.7-.3 1.1-.4h.1c.4-.1.8-.3 1.1-.4.4-.1.8-.3 1.2-.4l-14.1-22.1c5.5-2.1 10.8-4.8 16-7.9 2-1.2 3.9-2.6 5.8-4.1 3.2 5.2 5.1 11.3 5.1 18 0 4.9-.8 9.3-2.3 13.2 2.1-.4 4.2-.8 6.3-1 1-3.7 1.7-7.7 1.7-12.2 0-8-2.3-15.6-6.5-21.9 1.3-1.3 2.6-2.8 3.9-4.3 1.6-1.9 3-3.9 4.3-6 8.4 10.6 11.4 23.6 11.4 32.3 0 4.2-.4 8-1 11.4 1.9 0 3.9.1 5.7.2.6-3.5 1-7.4 1-11.6 0-13.1-5.5-27.5-14.2-37.7 1-2.1 1.9-4.2 2.7-6.5.8-2.1 1.4-4.3 1.9-6.6l1.4 1.4c13.2 13.2 20.5 30.8 20.5 49.4 0 4.9-.4 9.2-1 13.1 1.9.3 3.8.7 5.6 1.2.7-4.3 1.1-9 1.1-14.3 0-19.2-7.2-37.4-20.2-51.4 13.2-14.1 20.3-32.3 20.3-51.5 0-9.8-1.8-19.4-5.2-28.4-3.5-9.1-8.6-17.2-15.1-24.1-6.8-7.2-14.8-12.8-23.9-16.8-9.6-4.2-20.3-6.3-31.5-6.3-8.7 0-18.5 2-27.6 5.5-9.1 3.6-17.3 8.6-23.9 14.7-14-13.1-32.2-20.2-51.5-20.2-26.7 0-38.8 10.2-49.5 19.2-8.1 6.8-15.2 12.8-27.6 12.8-23 0-33.6-20-33.6-33.5s10.7-33.5 33.6-33.5c12.4 0 19.4 5.9 27.6 12.8 10.7 9 22.8 19.2 49.5 19.2 19.3 0 37.5-7.2 51.5-20.2 6.6 6.1 14.8 11.1 23.9 14.7 9.1 3.6 18.9 5.5 27.6 5.5 26.7 0 38.8-10.2 49.5-19.2 8.1-6.8 15.2-12.8 27.6-12.8 23 0 33.6 20 33.6 33.5 0 12.4-5.9 19.4-12.8 27.6-9 10.7-19.2 22.8-19.2 49.5 0 8.7 2 18.5 5.5 27.6 3.6 9.1 8.6 17.3 14.7 23.9-13.1 14-20.2 32.2-20.2 51.5 0 6 .5 11.3 1.4 15.9 2.2.7 4.3 1.5 6.4 2.4-1.3-5.2-2.1-11.2-2.1-18.3 0-18.7 7.3-36.3 20.5-49.5l2-2-2-2c-15.1-15.1-20.5-36.1-20.5-49.5 0-24.6 9.1-35.4 17.9-45.8 7.2-8.6 14.1-16.8 14.1-31.2 0-9.2-3.7-19-10-26.2-5.2-6-14.5-13.1-29.3-13.1-14.5 0-22.6 6.8-31.2 14.1-10.4 8.8-21.3 17.9-45.9 17.9-13.4 0-34.3-5.4-49.5-20.5l-2-2-2 2c-13.2 13.2-30.8 20.5-49.5 20.5-24.6 0-35.4-9.1-45.9-17.9-8.6-7.2-16.8-14.1-31.2-14.1-14.8 0-24.1 7.1-29.3 13.1-6.3 7.2-10 17-10 26.2s3.7 19 10 26.2c5.2 6 14.5 13.1 29.3 13.1 14.5 0 22.6-6.8 31.2-14.1 10.4-8.8 21.3-17.9 45.9-17.9 18.7 0 36.3 7.3 49.5 20.5l2 2 2-2c15.1-15.1 36.1-20.5 49.5-20.5 45.5 0 70.1 36 70.1 69.8 0 18.6-7.3 36.2-20.6 49.5l-1 1c1-5.1 1.5-10.8 1.5-17.2 0-1.5 0-3-.1-4.4 5.1-8.7 7.8-18.6 7.8-28.9 0-9.5-3.4-24.1-12.8-36.3-7.4-9.6-21.2-21.1-44.8-21.1-15.3 0-29.8 6-40.6 16.8-4.5 4.5-8.1 9.6-10.9 15.1-2.8-5.6-6.4-10.7-10.9-15.1-10.2-10.2-26.1-16.8-40.5-16.8-21.5 0-33 9.2-43.2 17.4-9.3 7.5-18.2 14.6-33.9 14.6-21.3 0-33.7-10.3-40.3-18.9-8.6-11.1-11.6-24.3-11.6-32.9 0-8.6 3-21.7 11.6-32.9 6.6-8.6 19-18.9 40.3-18.9 15.7 0 24.6 7.1 33.9 14.6 10.2 8.2 21.7 17.4 43.2 17.4 14.4 0 30.3-6.6 40.5-16.8 4.5-4.5 8.1-9.6 10.9-15.1 2.8 5.6 6.4 10.7 10.9 15.1 10.8 10.8 25.3 16.8 40.6 16.8 21.5 0 33-9.2 43.2-17.4 9.3-7.5 18.2-14.6 33.9-14.6 21.3 0 33.7 10.3 40.3 18.9 8.6 11.1 11.6 24.3 11.6 32.9 0 15.7-7.1 24.6-14.5 33.9-8.1 10.2-17.4 21.7-17.4 43.2 0 15.3 6 29.8 16.9 40.7 4.5 4.5 9.6 8.1 15.1 10.9-5.6 2.8-10.7 6.4-15.1 10.9-10.2 10.2-16.8 26.1-16.8 40.5 0 13.9 3.9 23.6 8.8 31.5 3 3.2 5.5 6.7 7.6 10.5l.9 1.2c7.5 9.3 14.6 18.2 14.6 33.9 0 21.5-10.3 34.7-19 42-10.2 8.6-21.8 12.3-29.8 13l-8 5.5c1.8.2 3.5.3 5.1.3 9.3 0 23.8-3.8 36.4-14.5 9.6-8.1 21-22.6 21-46.4 0-17.8-8-27.8-15.8-37.5-8.3-10.4-16.2-20.1-16.2-39.6 0-9.9 4-25.3 15.1-36.5 5.5-5.5 12.1-9.7 19.4-12.2l7.7-2.7-7.7-2.7c-7.3-2.6-13.9-6.7-19.4-12.2-9.8-9.8-15.2-22.8-15.2-36.6 0-19.4 7.8-29.2 16.1-39.6 7.8-9.7 15.8-19.7 15.8-37.5 0-9.5-3.4-24.1-12.8-36.3-7.4-9.6-21.2-21.1-44.8-21.1-17.8 0-27.8 8-37.5 15.8-10.4 8.3-20.1 16.2-39.6 16.2-13.8 0-26.8-5.4-36.6-15.2-5.5-5.5-9.7-12.1-12.2-19.4l-2.7-7.7-2.7 7.7c-2.6 7.3-6.7 13.9-12.2 19.4-11.2 11.2-26.7 15.2-36.5 15.2-19.5 0-29.2-7.8-39.6-16.2-9.7-7.8-19.7-15.8-37.5-15.8-23.6 0-37.4 11.5-44.8 21.1-9.4 12.2-12.8 26.8-12.8 36.3 0 9.5 3.4 24.1 12.8 36.3 7.4 9.6 21.2 21.1 44.8 21.1 17.8 0 27.8-8 37.5-15.8 10.4-8.3 20.1-16.2 39.6-16.2 9.9 0 25.3 4 36.5 15.1 1 1 2 2.1 2.9 3.1.1.2.3.3.4.5.2.2.3.4.4.5.1.2.3.3.4.5.1.2.3.4.4.5.1.2.3.3.4.5.1.2.3.4.4.6.1.2.2.3.4.5s.3.5.5.7c.1.2.3.4.4.6.2.3.4.5.5.8.1.2.2.3.3.5.1.2.3.4.4.7.1.2.2.3.3.5.1.2.3.4.4.7.1.2.2.3.3.5.1.3.3.5.4.8.1.1.1.3.2.4l.6 1.2c.1.1.1.2.2.3.1.3.3.6.4.9.1.1.1.3.2.4.1.3.2.5.3.8.1.2.1.3.2.5.1.3.2.6.3.8.1.1.1.3.2.4.2.4.3.8.5 1.2l2.7 7.7 2.7-7.7c.1-.4.3-.8.5-1.3.1-.1.1-.3.2-.4.1-.3.2-.6.3-.8.1-.2.1-.3.2-.5.1-.3.2-.5.3-.8.1-.1.1-.3.2-.4.1-.3.3-.6.4-.9.1-.1.1-.2.2-.3l.6-1.2c.1-.1.1-.3.2-.4.1-.3.3-.5.4-.8.1-.2.2-.3.3-.5.1-.2.3-.4.4-.7.1-.2.2-.3.3-.5.1-.2.3-.4.4-.6.1-.2.2-.3.3-.5.2-.3.3-.5.5-.8.1-.2.3-.4.4-.6.2-.2.3-.5.5-.7.1-.2.2-.3.4-.5.1-.2.3-.4.4-.6.1-.2.3-.3.4-.5.1-.2.3-.4.4-.5.1-.2.3-.3.4-.5.1-.2.3-.4.4-.5.1-.2.3-.3.4-.5.9-1.1 1.9-2.1 2.9-3.1 9.8-9.8 22.8-15.1 36.6-15.1 21.3 0 33.7 10.3 40.3 18.9 8.6 11.1 11.6 24.2 11.6 32.8 0 6.3-1.1 12.5-3.3 18.3-1-5-2.5-9.6-4.5-13.9-1.5-3.1-3.2-6-5.1-8.7-.9-8.5-4.7-16.8-11.2-23.4-7.4-7.4-17.3-11.5-27.7-11.5-7.7 0-15 2.2-21.3 6.2 0 0-.1 0-.1.1-.2.2-.5.3-.7.5-.1 0-.1.1-.2.1-.2.2-.5.3-.7.5-.1 0-.1.1-.2.1-.2.2-.4.3-.6.5-.1 0-.1.1-.2.1-.2.2-.4.3-.6.5l-.2.2c-.2.2-.4.3-.6.5-.1.1-.2.1-.2.2-.2.2-.4.3-.5.5-.1.1-.2.1-.2.2-.2.2-.4.3-.5.5l-.2.2-.7.7-.7.7-.6.6-.1.1c-1.2 1.3-2.2 2.6-3.2 4-.2.3-.4.5-.5.8 0 0 0 .1-.1.1-.2.2-.3.5-.5.7 0 .1-.1.1-.1.2-.1.2-.3.5-.4.7 0 .1-.1.1-.1.2-.1.2-.2.4-.4.7 0 .1-.1.2-.1.2l-.3.6c0 .1-.1.2-.1.2l-.3.6c0 .1-.1.2-.1.3l-.3.6c0 .1-.1.2-.1.3l-.3.6c0 .1-.1.2-.1.3l-.3.6c0 .1-.1.2-.1.3-.1.2-.2.4-.2.6 0 .1-.1.2-.1.3-.1.2-.2.4-.2.6 0 .1-.1.2-.1.3-.1.2-.1.4-.2.7 0 .1-.1.2-.1.3-.1.2-.1.4-.2.7 0 .1-.1.2-.1.3-.1.2-.1.5-.2.7 0 .1 0 .2-.1.3-.1.2-.1.5-.2.7 0 .1 0 .2-.1.2-.1.2-.1.5-.2.7v.2c0 .2-.1.5-.1.7v.2c0 .2-.1.5-.1.7v.2c0 .3-.1.5-.1.8v.2c0 .3-.1.5-.1.8v.2c0 .3-.1.6-.1.8v.1c0 .3 0 .6-.1.9v1c-.3 10.4 3.5 20.9 11.5 28.8 7.4 7.4 17.3 11.5 27.7 11.5 1.5 0 3.1-.1 4.6-.3-.9 8.8-4.1 15.3-9.6 19.7-6.6 5.3-16.5 7.9-29.9 7.9h-29.5V239v-1.3c0-.1 0-.2-.1-.3v-.2c0-.2-.1-.5-.2-.7v-.2-.2c0-.1 0-.2-.1-.2-.1-.3-.1-.6-.2-.9 0-.1 0-.1-.1-.2-.1-.4-.2-.7-.3-1.1 0-.1 0-.2-.1-.2-.1-.3-.2-.6-.3-1 0-.1 0-.1-.1-.2-.1-.4-.3-.7-.4-1.1 0-.1-.1-.2-.1-.2 0-.1-.1-.2-.1-.3l-.3-.6c0-.1 0-.1-.1-.2 0-.1-.1-.1-.1-.2-.1-.1-.1-.2-.2-.4s-.1-.3-.2-.5c0-.1-.1-.1-.1-.2s-.1-.1-.1-.2c-.1-.1-.1-.3-.2-.4-.1-.1-.1-.2-.2-.3 0-.1-.1-.1-.1-.2-.1-.1-.1-.2-.2-.3-.1-.1-.1-.3-.2-.4 0-.1-.1-.2-.1-.2 0-.1-.1-.1-.1-.2-.1-.1-.1-.2-.2-.3-.1-.1-.1-.3-.2-.4 0 0 0-.1-.1-.1-.1-.2-.2-.4-.3-.5-.1-.2-.2-.3-.3-.5-.2-.4-.4-.7-.7-1.1-.1-.2-.2-.3-.3-.5-.1-.2-.3-.4-.4-.6-.1-.2-.2-.3-.4-.5-.1-.2-.3-.4-.5-.6-.1-.2-.2-.3-.4-.5s-.3-.4-.5-.6c-.1-.1-.2-.3-.4-.4-.2-.2-.4-.4-.6-.7l-.3-.3c-.3-.3-.6-.7-.9-1l-.8-.8-.2-.2-.6-.6-.2-.2c-.2-.2-.5-.4-.7-.6l-.1-.1c-7-5.9-15.9-9.2-25.5-9.2-16.1 0-26.5 7.9-36.5 15.6-10.7 8.1-21.7 16.5-40.5 16.5-33.9 0-69.9-24.6-69.9-70.1 0-45.6 36-70.2 69.9-70.2 18.8 0 29.9 8.4 40.5 16.5 10 7.7 20.4 15.6 36.5 15.6 10.8 0 20.8-4.1 28.1-11.7 7.2-7.3 11.1-17.1 11.1-27.6 0-14.1-6-21.3-11.3-27.6-5.1-6.1-10-11.8-10-23.7 0-18.8 14.7-33.5 33.5-33.5s33.5 14.7 33.5 33.5c0 11.9-4.8 17.6-10 23.7-5.3 6.3-11.3 13.5-11.3 27.6 0 10.4 3.9 20.2 11.1 27.6 7.3 7.5 17.3 11.7 28.1 11.7 16.1 0 26.5-7.9 36.5-15.6 10.7-8.1 21.7-16.5 40.5-16.5 33.9 0 69.9 24.6 69.9 70.2 0 18.8-8.4 29.9-16.5 40.5-7.7 10-15.6 20.4-15.6 36.5 0 10.8 4.1 20.8 11.7 28.1 7.3 7.2 17.1 11.1 27.6 11.1 14.1 0 21.3-6 27.6-11.4 6.1-5.1 11.8-10 23.7-10 18.8 0 33.5 14.7 33.5 33.5s-14.7 33.5-33.5 33.5c-11.9 0-17.6-4.8-23.7-10-6.3-5.3-13.5-11.3-27.6-11.3-10.4 0-20.2 3.9-27.6 11.1-7.5 7.3-11.7 17.3-11.7 28.1 0 16.1 7.9 26.5 15.6 36.5 8.1 10.7 16.5 21.7 16.5 40.5 0 34.2-24.4 69.5-65.5 72h25.1c.6-.3 1.2-.5 1.8-.8 9.1-4.1 17.1-10 23.9-17.6 12.9-14.3 20.3-33.9 20.3-53.6 0-20.8-9.4-33.1-17.7-44-7.4-9.7-14.4-18.9-14.4-33.1 0-18.8 14.7-33.5 33.5-33.5 12 0 17.8 4.9 23.9 10 6.6 5.6 13.4 11.3 27.4 11.3 10.8 0 20.8-4.1 28.1-11.7 7.2-7.3 11.1-17.1 11.1-27.6s-3.6-20-10.7-27.4zM71.8 398.6l-.4-.3c-5.1-3.2-9.7-6.7-15.6-11.2l-1.9-1.5c-4.5-3.6-9.6-5.6-14.5-5.8h-.8c-5.3 0-10.2 2.1-14.2 6-8.2 8.2-8.2 21.6 0 29.8 3.8 3.8 8.7 5.9 14 5.9h1c4.9-.2 9.9-2.1 14.4-5.5 2.8-2 5.4-3.9 7.9-5.8 2.7-2.1 5.3-4 7.9-5.8l-8.2 21.3c-5.6 4.6-11.3 8.7-22.2 8.7-18.8 0-33.5-14.7-33.5-33.5s14.7-33.5 33.5-33.5c11.9 0 17.6 4.8 23.7 10 3.8 3.2 7.9 6.6 13.6 8.9l-4.7 12.3zm-7.1 2.2c-2.1 1.5-4.2 3.1-6.4 4.8-2.5 1.9-5 3.8-7.8 5.7l-.1.1c-3.6 2.7-7.5 4.3-11.3 4.4-4.1.2-7.8-1.3-10.7-4.2-6-6-6-15.7 0-21.7 2.9-2.9 6.4-4.4 10.1-4.4h.6c3.7.2 7.6 1.7 11.2 4.6l2 1.5c4.6 3.6 8.5 6.5 12.4 9.2zm387.4-189.3c9 0 17.4 3.5 23.7 9.8 3 3 5.2 6.3 6.9 9.9-1-.9-2.1-1.8-3.2-2.7-7.2-5.6-15.9-9.8-26-12.7-3.9-1.1-7.9-2-12.1-2.6 3.3-1.1 6.9-1.7 10.7-1.7zm0 67.1c-9 0-17.4-3.5-23.7-9.8-5.8-5.8-9.1-13.3-9.7-20.9h3c23.5 0 35.2 10.1 35.3 30.4-1.7.1-3.3.3-4.9.3zM114.2 488.8c7.7-10 15.6-20.4 15.6-36.5 0-10.8-4.1-20.8-11.7-28.1-2.5-2.5-5.3-4.5-8.3-6.2l4.3-11.8c4.8 2.5 9.3 5.7 13.2 9.6 9.8 9.8 15.2 22.8 15.2 36.6 0 19.5-7.8 29.2-16.2 39.6-.9 1.2-1.9 2.4-2.8 3.6h-14.1c1.5-2.4 3.2-4.6 4.8-6.8zm2.7-208c-.5-2.6-.8-5.4-.8-8.5 0-21.3 10.3-33.7 18.9-40.3l.9-.6-19 49.4zm23.3 52.5c1.4 4.6 2.2 9.8 2.2 16 0 1.6-.1 3.3-.3 5.2h-9.5l7.6-21.2zm7.6 263.4c-30.8-8.3-48.1-35.5-49.9-62.5h12.7c1.4 20.7 12 33.1 20.9 40 5.2 4 10.8 6.9 16.3 8.9v13.6zm0-19.7c-4.3-1.8-8.7-4.2-12.8-7.3-7.9-6.1-17.3-17.1-18.7-35.5 0-.6-.1-1.2-.1-1.9v-.6-.7-1.6c0-15.7 7.1-24.6 14.6-33.9 8.2-10.2 17.4-21.7 17.4-43.2 0-15.3-6-29.8-16.8-40.6-4.5-4.5-9.6-8.1-15.1-10.9v-.3l3.8-10.4h27.6c-2.2 3.1-4.7 6-7.4 8.7l-2 2 2 2c15.1 15.1 20.5 36.1 20.5 49.5 0 22.5-7.6 33.5-15.6 43.2-.7.9-1.5 1.8-2.2 2.7-7.2 8.6-14.1 16.8-14.1 31.2v2.5c0 .4 0 .8.1 1.1 1.1 12.7 7.5 20.9 12.9 25.6 1.9 1.6 3.9 3.1 6.1 4.4v14zm21.6-227.7c0 1.7.1 3.5.2 5.2h-3.5c.1-1.7.2-3.5.2-5.2 0-23.2-7.7-35.4-15.6-45.2l17.2-54.4 16.3 55.5c-7.6 9.7-14.8 21.8-14.8 44.1zm16.9-37.4l13.4 42.6h-24.3c-.1-1.7-.2-3.5-.2-5.2-.1-18.2 4.9-28.9 11.1-37.4zm-15.5 89c-1.1 1.4-2 2.7-2.9 4.1-.9-1.5-1.8-2.9-2.9-4.3 1-1.3 1.9-2.6 2.7-3.8.9 1.5 1.9 2.7 3.1 4zm-10.2-51.6c0 1.7-.1 3.5-.2 5.2h-12.6c.2-1.7.3-3.5.3-5.2 0-9.9-2-17.7-4.9-24.2l5.3-14.6c6.5 8.8 12.1 19.6 12.1 38.8zm-12.8 206.8c-6.5-4.7-11.8-12-13.1-21.9h12.7c.1.5.3 1.1.4 1.6v20.3zm4.5-60.7c7.3-9.5 14-21.6 14-43.2 0-8.7-2-18.5-5.5-27.6-3.6-9.1-8.6-17.3-14.7-23.9 3.1-3.3 5.9-6.9 8.3-10.7h10.5c-1.9 3.7-3.6 6.4-5.8 8.7l-1.9 2 2 2c2.4 2.4 4.3 5.9 6.1 9.3l2.7 5.2 2.5-5.1c1.7-3.5 3.4-5.9 6.3-9.6l1.6-2-1.8-1.8c-2.8-2.8-4.3-4.7-5.9-8.6h10.6c2.4 3.8 5.2 7.4 8.3 10.7-6.1 6.6-11.1 14.8-14.7 23.9-3.6 9.1-5.5 18.9-5.5 27.6 0 11.3 2.1 21.9 6.3 31.5 1.8 4.1 3.9 8 6.3 11.6h-29.7zm167.4 83.4c-7.2 7.3-11.1 17.1-11.1 27.6 0 14.1 6 21.3 11.4 27.6 5.1 6.1 10 11.8 10 23.7 0 18.8-14.7 33.5-33.5 33.5S263 676.5 263 657.7c0-11.9 4.8-17.6 10-23.7 5.3-6.3 11.3-13.5 11.3-27.6 0-10.4-3.9-20.2-11.1-27.6-7.3-7.5-17.3-11.7-28.1-11.7-16.1 0-26.5 7.9-36.5 15.6-5.2 4-10.5 8-16.7 11.1v-12.9c5-2.8 9.4-6.3 13.6-9.7 10.4-8.3 20.2-16.1 39.6-16.1 13.8 0 26.8 5.4 36.6 15.2 5.5 5.5 9.7 12.1 12.2 19.4l2.7 7.7 2.7-7.7c2.6-7.3 6.7-13.9 12.2-19.4 8.7-8.7 20.1-13.1 29.4-14.5.1 4.2.4 8.2 1 11.9-8.5 1.1-16.2 5-22.2 11.1zm69.5-40.2c2.2-3.2 5.1-5.8 8.7-7.8 3.6-2 7.7-3.5 12.4-4.4 4.6-1 9.4-1.4 14.3-1.4 5.9 0 11.7.7 17.3 2.1 5.6 1.4 11 3.1 16 5.2.2.1.4.2.5.2C457 545.8 446.3 563 425 563c-12.4 0-19.4-5.9-27.6-12.8-3.2-2.7-6.4-5.4-10.2-8 .6-1.3 1.2-2.5 2-3.6zm-94.8 18.6l2 2 2-2c12.1-12.1 27.8-19.2 44.7-20.3.6 0 1.3-.1 1.9-.1h6.4c.5 0 .9 0 1.4.1h.3c.5 0 .9.1 1.4.1h.1c.4 0 .9.1 1.3.1h.3c.4 0 .9.1 1.3.1h.2c.4 0 .8.1 1.2.1h.3c.4.1.8.1 1.3.2h.2c.4.1.7.1 1.1.2h.3c.4.1.8.1 1.2.2h.2c.4.1.7.1 1 .2.1 0 .2 0 .2.1.4.1.8.2 1.1.3h.2c.3.1.7.2 1 .3.1 0 .1 0 .2.1.4.1.7.2 1.1.3.1 0 .1 0 .2.1.3.1.6.2 1 .3.1 0 .1 0 .2.1.4.1.7.2 1 .3.1 0 .1 0 .2.1l.9.3h.1c.3.1.7.3 1 .4.1 0 .1 0 .2.1.3.1.6.2.9.4h.1c.3.1.6.3 1 .4 0 0 .1 0 .1.1.3.1.6.3.9.4.3.1.6.3.9.5 0 0 .1 0 .1.1.3.2.6.3.9.5.3.2.6.3.9.5 0 0 .1 0 .1.1.6.3 1.2.7 1.7 1 0 0 .1 0 .1.1.6.3 1.1.7 1.7 1.1h.1c.6.4 1.1.7 1.6 1.1.5.4 1.1.8 1.6 1.2 2.8 2 5.3 4.2 7.8 6.3 8.6 7.2 16.8 14.1 31.2 14.1 14.8 0 24.1-7.1 29.3-13.1 5-5.8 8.4-13.2 9.6-20.7 2.9 1.4 5.6 2.9 8.3 4.4 1.1.7 2.2 1.3 3.2 2-1.7 6.8-4.8 14.3-10.1 21.1-6.6 8.6-19 18.9-40.3 18.9-.9 0-1.8 0-2.6-.1-.4 0-.8 0-1.2-.1h-.2c-.4 0-.7-.1-1.1-.1h-.2c-.3 0-.7-.1-1-.1h-.2c-.3 0-.7-.1-1-.1h-.3c-.3-.1-.6-.1-.9-.2h-.3c-.3-.1-.6-.1-.9-.2-.1 0-.2 0-.3-.1-.3-.1-.6-.1-.9-.2-.1 0-.2 0-.2-.1-.3-.1-.6-.2-.9-.2-.1 0-.1 0-.2-.1l-.9-.3c-.1 0-.1 0-.2-.1l-.9-.3h-.1l-.9-.3c-2.3-.9-4.5-2-6.5-3.2 0 0-.1 0-.1-.1-.2-.1-.5-.3-.7-.4-.1 0-.1-.1-.2-.1-.2-.1-.4-.3-.7-.4-.1-.1-.2-.1-.2-.2-.2-.1-.4-.3-.6-.4-.1-.1-.2-.1-.3-.2-.2-.1-.4-.3-.6-.4-.1-.1-.2-.1-.3-.2-.2-.1-.4-.3-.6-.4-.1-.1-.2-.1-.3-.2-.2-.1-.4-.3-.6-.4-.1-.1-.2-.2-.3-.2-.2-.1-.4-.3-.5-.4-.1-.1-.2-.2-.3-.2-.2-.1-.3-.3-.5-.4l-.3-.3c-.2-.1-.3-.3-.5-.4-.1-.1-.2-.2-.4-.3-.2-.1-.3-.2-.5-.4-.1-.1-.3-.2-.4-.3-.2-.1-.3-.2-.4-.4-.1-.1-.3-.2-.4-.3-.1-.1-.3-.2-.4-.3-.2-.1-.3-.3-.5-.4l-.3-.3c-.3-.2-.6-.4-.8-.7-8.6-6.9-18.1-14.5-33.8-16.8-2.9-.4-6-.6-9.4-.6h-2c-.4 0-.8 0-1.2.1h-.4c-.5 0-1 .1-1.5.1h-.1c-12.9 1.4-26.3 7.6-35.3 16.5-4.5 4.5-8.1 9.6-10.9 15.1-2.8-5.6-6.4-10.7-10.9-15.1-10.9-10.9-25.3-16.9-40.7-16.9-21.5 0-33 9.2-43.2 17.4-3.3 2.6-6.6 5.2-10.1 7.5v-13.7c2.5-1.8 4.9-3.9 7.4-5.9 10.4-8.8 21.3-17.9 45.9-17.9 13.3 0 34.3 5.4 49.4 20.5zm-72.4-23c-11.9 3.7-19.6 10.1-26.6 16-1.2 1.1-2.5 2.1-3.7 3.1v-19.1H222zm-17.6-122.5c-10.8 10.8-16.8 25.3-16.8 40.6 0 21.9 9.9 35.4 19 43.1h-17.5c-8.5-11.1-13.9-25.6-13.9-43.1 0-13.4 5.4-34.3 20.5-49.5l2-2-2-2c-2.7-2.7-5.2-5.6-7.4-8.7h22.5l4.2 13.2c-3.8 2.4-7.3 5.1-10.6 8.4zm14.3-130.2l-17.1-49c8.4 6.8 18.1 19 18.1 39.7-.1 3.5-.4 6.5-1 9.3zm19.3-9.2c0 14.5-5 24.4-11 33.1l-5.2-14.7c2.1-5.2 3.4-11.1 3.4-18.4 0-23.6-11.5-37.4-21.1-44.8-1.9-1.5-3.9-2.8-5.9-4l-4.7-13.5H144l-4.8 12.4c-2.6 1.4-5.2 3.1-7.8 5-9.6 7.4-21.1 21.2-21.1 44.8 0 6.8 1.2 12.5 3.1 17.4l-5.6 14.5c-5.7-8.4-10.3-18-10.3-31.9 0-33.9 24.6-69.9 70.2-69.9s70.3 36.1 70.3 70z"/><path class="black" d="M343.8 399.6h-83.9v-87.9H216v183.7h43.9v-59.8h83.9z"/><path class="color" d="M274.1 435.6c7.4 12.8 5.6 29.5-5.4 40.4-2.6 2.6-5.6 4.8-8.9 6.4v6.3c4.8-1.9 9.2-4.8 12.9-8.6 12-12 14.6-29.9 7.8-44.4h-6.4zM277.6 399.6c1.6-1.2 3.2-2.4 4.9-3.6 2.5-1.9 5-3.8 7.8-5.7l.1-.1c3.6-2.7 7.5-4.3 11.3-4.4 4.1-.2 7.8 1.3 10.7 4.2 2.7 2.7 4.2 6.2 4.4 9.7h5.7c-.3-5-2.3-9.9-6.1-13.7-3.8-3.8-8.7-5.9-14-5.9h-1c-4.9.2-9.9 2.1-14.4 5.5-2.8 2-5.4 3.9-7.9 5.8-3.3 2.5-6.5 4.9-9.7 6.9l-2 1.3h10.2z"/><path class="color" d="M259.9 385.8c5.3-2.2 9.3-5.5 12.9-8.6 6.1-5.1 11.8-10 23.7-10 19.8 0 37.9 15.3 38.7 32.4h5.7c-.4-9.7-5.4-19.3-13.9-26.6-8.5-7.3-19.7-11.5-30.5-11.5-14 0-20.8 5.7-27.4 11.3-2.9 2.5-5.8 4.8-9.2 6.7v6.3zM343.9 490.8v-5.7c-16.8-1.9-29.5-15.8-29.5-33.1 0-7.4 2.3-12.2 5.6-16.4h-7c-2.6 4.3-4.4 9.5-4.4 16.4 0 10.4 3.9 20.2 11.1 27.5 6.4 6.5 14.9 10.5 24.2 11.3z"/><path class="black" d="M345 531.1c.2-.6.5-1.1.7-1.7.1-.2.2-.5.3-.7.2-.3.3-.7.5-1 .9-1.9 1.9-3.7 3-5.5.2-.3.4-.6.5-.9 0-.1.1-.1.1-.2.6-.9 1.1-1.7 1.8-2.6 0-.1.1-.1.1-.2.6-.9 1.3-1.7 1.9-2.5l.1-.1 2.1-2.4.1-.1c.8-.8 1.5-1.6 2.3-2.4.8-.8 1.7-1.5 2.5-2.3.7-.6 1.4-1.1 2.1-1.7 6.7-5.3 14.9-9.4 24.5-12.6v-58.7h-43.8v95.6h1.2zM749 311.7v88h-84V335c-2.4.5-5 .7-7.5.7-14 0-20.8-5.7-27.4-11.3-2.8-2.4-5.6-4.7-9-6.5v216.4H665V436h84v98.3h43.9V311.7H749z"/><path class="color" d="M529.3 202.3l-2.4-3.9c-3.5-5.6-7.7-10.9-12.5-15.6-4.7-4.7-10-8.9-15.6-12.5l-3.9-2.4 3.9-2.4c5.6-3.5 10.9-7.7 15.6-12.5l.3-.3c3.9-3.8 9.1-5.8 14.5-5.8 5.6 0 10.9 2.2 14.9 6.2s6.2 9.3 6.2 14.9c0 5.5-2.1 10.6-5.8 14.5l-.3.3c-4.7 4.7-8.9 10-12.5 15.6l-2.4 3.9zm-23.9-34.4c4.6 3.2 9 6.8 13 10.8 4 4 7.6 8.4 10.8 13 3.1-4.5 6.6-8.7 10.5-12.6l.3-.3c2.9-2.9 4.5-6.7 4.5-10.8 0-4.1-1.6-7.9-4.5-10.8-2.9-2.9-6.8-4.5-10.8-4.5-4.1 0-7.9 1.6-10.8 4.5l-.3.3c-3.9 3.7-8.2 7.3-12.7 10.4zM400.7 178.5l-2-1.9c-2.5-2.3-5.3-4.2-9.4-6.2l-5.9-2.9 6.2-2.3c4.3-1.6 6.2-3.1 9.1-6l1.8-1.8 2 1.6c3.7 2.9 6.1 4.6 9.6 6.3l5.1 2.5-5.2 2.7c-3.4 1.8-6.9 3.6-9.3 6l-2 2zm-4-10.5c1.3.8 2.5 1.7 3.8 2.7 1.3-1.1 2.8-2 4.3-2.9-1.3-.9-2.6-1.8-4.1-2.9-1.3 1.2-2.5 2.2-4 3.1zM529.4 313l-2.7-5.2c-1.8-3.4-3.6-6.9-6.1-9.3l-2-2 1.9-2c2.3-2.5 4.2-5.3 6.2-9.4l2.9-5.9 2.3 6.2c1.6 4.3 3.1 6.2 6 9.1l1.8 1.8-1.6 2c-2.9 3.7-4.6 6.1-6.3 9.6l-2.4 5.1zm-3-16.6c1.1 1.3 2 2.8 2.9 4.3.9-1.3 1.8-2.6 2.9-4.1-1.2-1.3-2.2-2.6-3.1-4-.8 1.3-1.7 2.5-2.7 3.8zM296.7 539.9l-2-1.6c-3.7-2.9-6.1-4.6-9.6-6.3l-5.1-2.5 5.2-2.7c3.4-1.8 6.9-3.6 9.3-6.1l2-2 2 1.9c2.5 2.3 5.3 4.2 9.4 6.2l5.9 2.9-6.2 2.3c-4.3 1.6-6.2 3.1-9.1 6l-1.8 1.9zm-4.4-10.4c1.3.9 2.6 1.8 4.1 2.9 1.3-1.2 2.6-2.2 4-3.1-1.3-.8-2.5-1.7-3.8-2.7-1.4 1-2.8 2-4.3 2.9zM400.6 75.2l-2.4-3.9c-2-3.2-4.4-6.3-6.9-9.7-1.9-2.5-3.9-5.1-5.8-7.9-3.4-4.5-5.3-9.5-5.5-14.4-.3-5.7 1.8-10.9 5.8-15 4-4 9.3-6.2 14.9-6.2s10.9 2.2 14.9 6.2c4.2 4.2 6.3 9.4 6 15-.2 4.9-2.2 9.9-5.8 14.5l-1.5 1.9c-4.5 5.9-8 10.5-11.2 15.6l-2.5 3.9zm0-51.3c-4.1 0-7.9 1.6-10.8 4.5-2.9 2.9-4.4 6.6-4.2 10.7.2 3.8 1.7 7.7 4.4 11.3l.1.1c1.9 2.7 3.9 5.3 5.7 7.8 1.7 2.2 3.3 4.3 4.8 6.4 2.7-3.9 5.6-7.8 9.1-12.4l1.5-2c2.8-3.6 4.4-7.5 4.6-11.2.2-4-1.3-7.7-4.4-10.7-2.9-2.9-6.7-4.5-10.8-4.5zM271 188.6c-5.3 0-10.2-2-14-5.9-8.2-8.2-8.2-21.6 0-29.8 4-4 8.8-6 14.2-6h.8c4.9.2 9.9 2.2 14.5 5.8l1.9 1.5c5.9 4.5 10.5 8 15.6 11.2l3.9 2.4-3.9 2.4c-3.2 2-6.3 4.4-9.7 6.9-2.5 1.9-5.1 3.9-7.9 5.8-4.5 3.4-9.5 5.3-14.4 5.5-.3.2-.6.2-1 .2zm.2-35.9c-3.8 0-7.3 1.5-10.1 4.4-6 6-6 15.7 0 21.7 2.9 2.9 6.6 4.4 10.7 4.2 3.8-.2 7.7-1.7 11.3-4.4l.1-.1c2.7-1.9 5.3-3.9 7.8-5.7 2.2-1.7 4.3-3.3 6.4-4.8-3.9-2.7-7.8-5.6-12.4-9.1l-2-1.5c-3.6-2.8-7.5-4.4-11.2-4.6-.2-.1-.4-.1-.6-.1zM296.5 679.1c-5.6 0-10.9-2.2-14.9-6.2-4.2-4.2-6.3-9.4-6-15 .2-4.9 2.2-9.9 5.8-14.5l1.5-1.9c4.5-5.9 8-10.5 11.2-15.6l2.4-3.9 2.4 3.9c2 3.2 4.4 6.3 6.9 9.7 1.9 2.5 3.9 5.1 5.8 7.9 3.4 4.5 5.3 9.5 5.5 14.4.3 5.7-1.8 10.9-5.8 15-3.9 4-9.2 6.2-14.8 6.2zm0-46.5c-2.7 3.9-5.6 7.8-9.1 12.4l-1.5 2c-2.8 3.6-4.4 7.5-4.6 11.2-.2 4 1.3 7.7 4.4 10.7 2.9 2.9 6.8 4.5 10.8 4.5 4.1 0 8-1.6 10.8-4.5 2.9-2.9 4.4-6.6 4.2-10.7-.2-3.8-1.7-7.7-4.4-11.3l-.1-.1c-1.9-2.8-3.9-5.3-5.7-7.8-1.7-2.1-3.3-4.2-4.8-6.4zM658.6 317.4h-.8c-4.9-.2-9.9-2.2-14.5-5.8l-1.9-1.5c-5.9-4.5-10.5-8-15.6-11.2l-3.9-2.4 3.9-2.4c3.2-2 6.3-4.4 9.7-6.9 2.5-1.9 5.1-3.9 7.9-5.8 4.5-3.4 9.5-5.3 14.4-5.5h1c5.3 0 10.2 2 14 5.9 8.2 8.2 8.2 21.6 0 29.8-4 3.7-8.9 5.8-14.2 5.8zm-26.2-20.9c3.9 2.7 7.8 5.6 12.4 9.1l2 1.5c3.6 2.8 7.5 4.4 11.2 4.6 4 .2 7.7-1.3 10.7-4.4 6-6 6-15.7 0-21.7-2.9-2.9-6.6-4.4-10.7-4.2-3.8.2-7.7 1.7-11.3 4.4l-.1.1c-2.8 1.9-5.3 3.9-7.8 5.7-2.1 1.8-4.2 3.4-6.4 4.9z"/></svg>